<svg width="57" height="48" viewBox="0 0 57 48" fill="none" xmlns="http://www.w3.org/2000/svg">
<path d="M56.8602 19.9111C56.9134 19.3832 56.4786 18.8295 55.5752 18.2693L55.1404 17.9973C52.4206 16.3102 49.6138 14.5647 47.3288 12.434C46.9471 12.0778 46.6621 11.7377 46.4544 11.4074C46.4833 11.3427 46.5172 11.2779 46.551 11.2099C46.6911 10.9282 46.9278 10.6724 47.1597 10.4263C47.4302 10.1348 47.6814 9.86281 47.7346 9.59403C47.7732 9.39326 47.7925 9.19573 47.7925 9.00467C47.7925 8.99496 47.7925 8.98201 47.7925 8.9723C47.7925 8.96258 47.7925 8.94962 47.7925 8.9399C47.7925 8.93019 47.7925 8.91724 47.7925 8.90753C47.7925 8.89781 47.7925 8.88486 47.7925 8.87514C47.7925 8.86543 47.7925 8.85247 47.7925 8.84276C47.7925 8.83304 47.7925 8.82009 47.7925 8.81037C47.7925 8.80066 47.7925 8.7877 47.7925 8.77799C47.7925 8.76827 47.7925 8.75532 47.7925 8.7456C47.7925 8.73589 47.7925 8.72294 47.7925 8.71323C47.7925 8.70352 47.7925 8.69056 47.7925 8.68085C47.7925 8.67113 47.7925 8.65818 47.7925 8.64846C47.7925 8.63875 47.7925 8.62579 47.7925 8.61608C47.7925 8.60636 47.7925 8.59341 47.7925 8.58369C47.7925 8.57398 47.7925 8.56103 47.7925 8.55132C47.7925 8.5416 47.7925 8.52865 47.7925 8.51893C47.7925 8.50922 47.7925 8.49626 47.7925 8.48655C47.7925 8.47683 47.7925 8.46388 47.7925 8.45416C47.7925 8.44445 47.7925 8.43149 47.7925 8.42178C47.7925 8.41207 47.7925 8.39912 47.7925 8.38941C47.7925 8.37969 47.7925 8.36674 47.7925 8.35702C47.7925 8.34731 47.7925 8.33435 47.7925 8.32464C47.7925 8.31492 47.7925 8.30197 47.7925 8.29225C47.7925 8.28254 47.7925 8.26958 47.7925 8.25987C47.7925 8.25015 47.7925 8.23721 47.7925 8.22749C47.7925 8.21778 47.7925 8.20482 47.7925 8.19511C47.7925 8.18539 47.7925 8.17244 47.7925 8.16272C47.7925 8.15301 47.7925 8.14005 47.7925 8.13034C47.7925 8.12063 47.7925 8.10767 47.7925 8.09796C47.7925 8.08824 47.7925 8.0753 47.7925 8.06558C47.7925 8.05587 47.7925 8.04291 47.7925 8.0332C47.7925 8.02348 47.7925 8.01053 47.7925 8.00081C47.7925 7.9911 47.7925 7.97814 47.7925 7.96843C47.7925 7.95871 47.7925 7.94576 47.7925 7.93604C47.7925 7.92633 47.7925 7.91338 47.7925 7.90367C47.7925 7.89395 47.7925 7.881 47.7925 7.87128C47.7925 7.86157 47.7925 7.84861 47.7925 7.8389C47.7925 7.82919 47.7925 7.81623 47.7925 7.80652C47.7925 7.7968 47.7925 7.78385 47.7925 7.77413C47.7925 7.76442 47.7925 7.75147 47.7925 7.74176C47.7925 7.73204 47.7925 7.71909 47.7925 7.70937C47.7925 7.69966 47.7925 7.6867 47.7925 7.67699C47.7925 7.66727 47.7925 7.65432 47.7925 7.6446C47.7925 7.63489 47.7925 7.62193 47.7925 7.61222C47.7925 7.6025 47.7925 7.58956 47.7925 7.57984C47.7925 7.57013 47.7925 7.55717 47.7925 7.54746C47.7925 7.53775 47.7925 7.52479 47.7925 7.51508C47.7925 7.50536 47.7925 7.49241 47.7925 7.48269C47.7925 7.47298 47.7925 7.46002 47.7925 7.45031C47.7925 7.44059 47.7925 7.42765 47.7925 7.41793C47.7925 7.40822 47.7925 7.39526 47.7925 7.38555C47.7925 7.37583 47.7925 7.36288 47.7925 7.35316C47.7925 7.34345 47.7925 7.33049 47.7925 7.32078C47.7925 7.31106 47.7925 7.29811 47.7925 7.28839C47.7925 7.27868 47.7925 7.26573 47.7925 7.25602C47.7925 7.24631 47.7925 7.23335 47.7925 7.22364C47.7925 7.21392 47.7925 7.20097 47.7925 7.19125C47.7925 7.18154 47.7925 7.16858 47.7925 7.15887C47.7925 7.14915 47.7925 7.1362 47.7925 7.12648C47.7925 7.11677 47.7925 7.10382 47.7925 7.09411C47.7925 7.08439 47.7925 7.07144 47.7925 7.06172C47.7925 7.05201 47.7925 7.03905 47.7925 7.02934C47.7925 7.01962 47.7925 7.00667 47.7925 6.99695C47.7925 6.98724 47.7925 6.97429 47.7925 6.96457C47.7925 6.95486 47.7925 6.94191 47.7925 6.9322C47.7925 6.92248 47.7925 6.90953 47.7925 6.89981C47.7925 6.8901 47.7925 6.87714 47.7925 6.86743C47.7925 6.85771 47.7925 6.84476 47.7925 6.83504C47.7925 6.82533 47.7925 6.81237 47.7925 6.80266C47.7925 6.79294 47.7925 6.78 47.7925 6.77028C47.7925 6.76057 47.7925 6.74761 47.7925 6.7379C47.7925 6.72818 47.7925 6.71523 47.7925 6.70551C47.7925 6.6958 47.7925 6.68285 47.7925 6.67313C47.7925 6.66342 47.7925 6.65046 47.7925 6.64075C47.7925 6.63103 47.7925 6.61809 47.7925 6.60837C47.7925 6.59866 47.7925 6.5857 47.7925 6.57599C47.7925 6.56627 47.7925 6.55332 47.7925 6.5436C47.7925 6.53389 47.7925 6.52093 47.7925 6.51122C47.7925 6.5015 47.7925 6.48855 47.7925 6.47883C47.7925 6.46912 47.7925 6.45617 47.7925 6.44646C47.7925 6.43674 47.7925 6.42379 47.7925 6.41407C47.7925 6.40436 47.7925 6.39141 47.7925 6.38169C47.7925 6.37198 47.7925 6.35902 47.7925 6.34931C47.7925 6.33959 47.7925 6.32664 47.7925 6.31692C47.7925 6.30721 47.7925 6.29426 47.7925 6.28455C47.7925 6.27483 47.7925 6.26188 47.7925 6.25216C47.7925 6.24245 47.7925 6.22949 47.7925 6.21978C47.7925 6.21006 47.7925 6.19711 47.7925 6.18739C47.7925 6.17768 47.7925 6.16472 47.7925 6.15501C47.7925 6.14529 47.7925 6.13235 47.7925 6.12263C47.7925 6.11292 47.7925 6.09997 47.7925 6.09025C47.7925 6.08054 47.7925 6.06758 47.7925 6.05787C47.7925 6.04815 47.7925 6.0352 47.7925 6.02548C47.7925 6.01577 47.7925 6.00281 47.7925 5.9931C47.7925 5.98338 47.7925 5.97044 47.7925 5.96072C47.7925 5.95101 47.7925 5.93805 47.7925 5.92834C47.7925 5.91862 47.7925 5.90567 47.7925 5.89595C47.7925 5.88624 47.7925 5.87328 47.7925 5.86357C47.7925 5.85385 47.7925 5.8409 47.7925 5.83118C47.7925 5.82147 47.7925 5.80853 47.7925 5.79881C47.7925 5.7891 47.7925 5.77614 47.7925 5.76643C47.8022 5.20297 47.6524 4.69133 47.3722 4.33189C46.9181 3.75872 46.295 3.25679 45.6331 2.72248C45.2418 2.40837 44.8408 2.08131 44.4737 1.74129C43.2756 0.61762 42.4882 0.203125 41.5799 0.203125C40.9229 0.203125 40.1017 0.413602 38.836 0.902577C38.0389 1.21021 36.8649 1.61824 35.9181 1.61824C35.691 1.61824 35.4833 1.59556 35.2997 1.55023C34.6524 1.39155 33.9712 1.3106 33.2804 1.3106C31.4784 1.3106 29.8311 1.83843 28.319 2.40513C25.6475 3.41222 23.1789 4.75933 20.7924 6.06111C19.8262 6.58894 18.831 7.13297 17.831 7.65109C17.0291 8.06558 16.232 8.27282 15.4687 8.27282C14.7054 8.27282 13.6426 8.06558 12.715 7.07791C12.3286 6.66342 11.9807 6.22625 11.6474 5.80204C11.6281 5.77614 11.6088 5.75023 11.5846 5.72433C11.4928 5.92186 11.4445 6.09672 11.4445 6.23921C11.4445 6.24892 11.4445 6.26188 11.4445 6.27159C11.4445 6.28131 11.4445 6.29426 11.4445 6.30398C11.4445 6.31369 11.4445 6.32665 11.4445 6.33636C11.4445 6.34607 11.4445 6.35902 11.4445 6.36873C11.4445 6.37845 11.4445 6.3914 11.4445 6.40112C11.4445 6.41083 11.4445 6.42379 11.4445 6.4335C11.4445 6.44322 11.4445 6.45617 11.4445 6.46589C11.4445 6.4756 11.4445 6.48856 11.4445 6.49827C11.4445 6.50799 11.4445 6.52093 11.4445 6.53065C11.4445 6.54036 11.4445 6.55332 11.4445 6.56303C11.4445 6.57275 11.4445 6.5857 11.4445 6.59542C11.4445 6.60513 11.4445 6.61809 11.4445 6.6278C11.4445 6.63751 11.4445 6.65047 11.4445 6.66018C11.4445 6.6699 11.4445 6.68284 11.4445 6.69256C11.4445 6.70227 11.4445 6.71523 11.4445 6.72494C11.4445 6.73466 11.4445 6.74761 11.4445 6.75733C11.4445 6.76704 11.4445 6.78 11.4445 6.78971C11.4445 6.79943 11.4445 6.81238 11.4445 6.8221C11.4445 6.83181 11.4445 6.84476 11.4445 6.85447C11.4445 6.86419 11.4445 6.87714 11.4445 6.88686C11.4445 6.89657 11.4445 6.90953 11.4445 6.91924C11.4445 6.92895 11.4445 6.94191 11.4445 6.95162C11.4445 6.96134 11.4445 6.97429 11.4445 6.98401C11.4445 6.99372 11.4445 7.00667 11.4445 7.01638C11.4445 7.0261 11.4445 7.03905 11.4445 7.04877C11.4445 7.05848 11.4445 7.07144 11.4445 7.08115C11.4445 7.09087 11.4445 7.10382 11.4445 7.11354C11.4445 7.12325 11.4445 7.13621 11.4445 7.14592C11.4445 7.15564 11.4445 7.16858 11.4445 7.1783C11.4445 7.18801 11.4445 7.20097 11.4445 7.21068C11.4445 7.22039 11.4445 7.23335 11.4445 7.24306C11.4445 7.25278 11.4445 7.26573 11.4445 7.27545C11.4445 7.28516 11.4445 7.29812 11.4445 7.30783C11.4445 7.31755 11.4445 7.33049 11.4445 7.34021C11.4445 7.34992 11.4445 7.36288 11.4445 7.37259C11.4445 7.38231 11.4445 7.39526 11.4445 7.40498C11.4445 7.41469 11.4445 7.42765 11.4445 7.43736C11.4445 7.44708 11.4445 7.46003 11.4445 7.46975C11.4445 7.47946 11.4445 7.49241 11.4445 7.50212C11.4445 7.51183 11.4445 7.52479 11.4445 7.5345C11.4445 7.54422 11.4445 7.55717 11.4445 7.56689C11.4445 7.5766 11.4445 7.58956 11.4445 7.59927C11.4445 7.60899 11.4445 7.62194 11.4445 7.63166C11.4445 7.64137 11.4445 7.65432 11.4445 7.66403C11.4445 7.67375 11.4445 7.6867 11.4445 7.69642C11.4445 7.70613 11.4445 7.71909 11.4445 7.7288C11.4445 7.73852 11.4445 7.75147 11.4445 7.76119C11.4445 7.7709 11.4445 7.78385 11.4445 7.79357C11.4445 7.80328 11.4445 7.81623 11.4445 7.82594C11.4445 7.83566 11.4445 7.84861 11.4445 7.85833C11.4445 7.86804 11.4445 7.881 11.4445 7.89071C11.4445 7.90043 11.4445 7.91338 11.4445 7.9231C11.4445 7.93281 11.4445 7.94577 11.4445 7.95548C11.4445 7.9652 11.4445 7.97814 11.4445 7.98786C11.4445 7.99757 11.4445 8.01053 11.4445 8.02024C11.4445 8.02996 11.4445 8.04291 11.4445 8.05263C11.4445 8.06234 11.4445 8.07529 11.4445 8.08501C11.4445 8.09472 11.4445 8.10768 11.4445 8.11739C11.4445 8.12711 11.4445 8.14005 11.4445 8.14977C11.4445 8.15948 11.4445 8.17244 11.4445 8.18215C11.4445 8.19187 11.4445 8.20482 11.4445 8.21454C11.4445 8.22425 11.4445 8.23721 11.4445 8.24692C11.4445 8.25664 11.4445 8.26959 11.4445 8.27931C11.4445 8.28902 11.4445 8.30197 11.4445 8.31168C11.4445 8.3214 11.4445 8.33435 11.4445 8.34407C11.4445 8.35378 11.4445 8.36674 11.4445 8.37645C11.4445 8.38616 11.4445 8.39912 11.4445 8.40883C11.4445 8.41855 11.4445 8.4315 11.4445 8.44122C11.4445 8.45093 11.4445 8.46388 11.4445 8.47359C11.4445 8.48331 11.4445 8.49626 11.4445 8.50598C11.4445 8.51569 11.4445 8.52865 11.4445 8.53836C11.4445 8.54808 11.4445 8.56103 11.4445 8.57075C11.4445 8.58046 11.4445 8.59342 11.4445 8.60313C11.4445 8.61285 11.4445 8.62579 11.4445 8.63551C11.4445 8.64522 11.4445 8.65818 11.4445 8.66789C11.4445 8.6776 11.4445 8.69056 11.4445 8.70027C11.4445 8.70999 11.4445 8.72294 11.4445 8.73266C11.4445 8.74237 11.4445 8.75533 11.4445 8.76504C11.4445 8.77476 11.4445 8.78447 11.4445 8.79095C11.2126 8.9399 10.9566 9.07591 10.7102 9.2022C10.517 9.29935 10.3092 9.3965 10.1015 9.49689C9.38168 9.83367 8.63772 10.1834 8.38168 10.6044C7.90341 11.388 7.65704 12.2462 7.39134 13.1561C7.29955 13.4702 7.20776 13.7908 7.10631 14.1114C7.10631 14.1114 7.11114 14.1114 7.11597 14.1114C7.11597 14.1211 7.11114 14.1308 7.10631 14.1405C7.10631 14.1405 7.11114 14.1405 7.11597 14.1405C7.11597 14.1502 7.11114 14.16 7.10631 14.1697C7.10631 14.1697 7.11114 14.1697 7.11597 14.1697C7.11597 14.1794 7.11114 14.1891 7.10631 14.1988C7.10631 14.1988 7.11114 14.1988 7.11597 14.1988C7.11597 14.2085 7.11114 14.2182 7.10631 14.228C7.10631 14.228 7.11114 14.228 7.11597 14.228C7.11597 14.2377 7.11114 14.2474 7.10631 14.2571C7.10631 14.2571 7.11114 14.2571 7.11597 14.2571C7.11597 14.2668 7.11114 14.2765 7.10631 14.2862C7.10631 14.2862 7.11114 14.2862 7.11597 14.2862C7.11597 14.296 7.11114 14.3057 7.10631 14.3154C7.10631 14.3154 7.11114 14.3154 7.11597 14.3154C7.11597 14.3251 7.11114 14.3348 7.10631 14.3445C7.10631 14.3445 7.11114 14.3445 7.11597 14.3445C7.11597 14.3542 7.11114 14.364 7.10631 14.3737C7.10631 14.3737 7.11114 14.3737 7.11597 14.3737C7.11597 14.3834 7.11114 14.3931 7.10631 14.4028C7.10631 14.4028 7.11114 14.4028 7.11597 14.4028C7.11597 14.4125 7.11114 14.4223 7.10631 14.432C7.10631 14.432 7.11114 14.432 7.11597 14.432C7.11597 14.4417 7.11114 14.4514 7.10631 14.4611C7.10631 14.4611 7.11114 14.4611 7.11597 14.4611C7.11597 14.4708 7.11114 14.4805 7.10631 14.4903C7.10631 14.4903 7.11114 14.4903 7.11597 14.4903C7.11597 14.5 7.11114 14.5097 7.10631 14.5194C7.10631 14.5194 7.11114 14.5194 7.11597 14.5194C7.11597 14.5291 7.11114 14.5388 7.10631 14.5485C7.10631 14.5485 7.11114 14.5485 7.11597 14.5485C7.11597 14.5583 7.11114 14.568 7.10631 14.5777C7.10631 14.5777 7.11114 14.5777 7.11597 14.5777C7.11597 14.5874 7.11114 14.5971 7.10631 14.6068C7.10631 14.6068 7.11114 14.6068 7.11597 14.6068C7.11597 14.6165 7.11114 14.6263 7.10631 14.636C7.10631 14.636 7.11114 14.636 7.11597 14.636C7.11597 14.6457 7.11114 14.6554 7.10631 14.6651C7.10631 14.6651 7.11114 14.6651 7.11597 14.6651C7.11597 14.6748 7.11114 14.6846 7.10631 14.6943C7.10631 14.6943 7.11114 14.6943 7.11597 14.6943C7.11597 14.704 7.11114 14.7137 7.10631 14.7234C7.10631 14.7234 7.11114 14.7234 7.11597 14.7234C7.11597 14.7331 7.11114 14.7428 7.10631 14.7526C7.10631 14.7526 7.11114 14.7526 7.11597 14.7526C7.11597 14.7623 7.11114 14.772 7.10631 14.7817C7.10631 14.7817 7.11114 14.7817 7.11597 14.7817C7.11597 14.7914 7.11114 14.8011 7.10631 14.8108C7.10631 14.8108 7.11114 14.8108 7.11597 14.8108C7.11597 14.8206 7.11114 14.8303 7.10631 14.84C7.10631 14.84 7.11114 14.84 7.11597 14.84C7.11597 14.8497 7.11114 14.8594 7.10631 14.8691C7.10631 14.8691 7.11114 14.8691 7.11597 14.8691C7.11597 14.8788 7.11114 14.8886 7.10631 14.8983C7.10631 14.8983 7.11114 14.8983 7.11597 14.8983C7.11597 14.908 7.11114 14.9177 7.10631 14.9274C7.10631 14.9274 7.11114 14.9274 7.11597 14.9274C7.11597 14.9371 7.11114 14.9468 7.10631 14.9566C7.10631 14.9566 7.11114 14.9566 7.11597 14.9566C7.11597 14.9663 7.11114 14.976 7.10631 14.9857C7.10631 14.9857 7.11114 14.9857 7.11597 14.9857C7.11597 14.9954 7.11114 15.0051 7.10631 15.0149C7.10631 15.0149 7.11114 15.0149 7.11597 15.0149C7.11597 15.0246 7.11114 15.0343 7.10631 15.044C7.10631 15.044 7.11114 15.044 7.11597 15.044C7.11597 15.0537 7.11114 15.0634 7.10631 15.0731C7.10631 15.0731 7.11114 15.0731 7.11597 15.0731C7.11597 15.0829 7.11114 15.0926 7.10631 15.1023C7.10631 15.1023 7.11114 15.1023 7.11597 15.1023C7.11597 15.112 7.11114 15.1217 7.10631 15.1314C7.10631 15.1314 7.11114 15.1314 7.11597 15.1314C7.11597 15.1411 7.11114 15.1509 7.10631 15.1606C7.10631 15.1606 7.11114 15.1606 7.11597 15.1606C7.11597 15.1703 7.11114 15.18 7.10631 15.1897C7.10631 15.1897 7.11114 15.1897 7.11597 15.1897C7.11597 15.1994 7.11114 15.2091 7.10631 15.2189C7.10631 15.2189 7.11114 15.2189 7.11597 15.2189C7.11597 15.2286 7.11114 15.2383 7.10631 15.248C7.10631 15.248 7.11114 15.248 7.11597 15.248C7.11597 15.2577 7.11114 15.2674 7.10631 15.2771C7.10631 15.2771 7.11114 15.2771 7.11597 15.2771C7.11597 15.2869 7.11114 15.2966 7.10631 15.3063C7.10631 15.3063 7.11114 15.3063 7.11597 15.3063C7.11597 15.316 7.11114 15.3257 7.10631 15.3354C7.10631 15.3354 7.11114 15.3354 7.11597 15.3354C7.11597 15.3451 7.11114 15.3549 7.10631 15.3646C7.10631 15.3646 7.11114 15.3646 7.11597 15.3646C7.11597 15.3743 7.11114 15.384 7.10631 15.3937C7.10631 15.3937 7.11114 15.3937 7.11597 15.3937C7.11597 15.4034 7.11114 15.4132 7.10631 15.4229C7.10631 15.4229 7.11114 15.4229 7.11597 15.4229C7.11597 15.4326 7.11114 15.4423 7.10631 15.452C7.10631 15.452 7.11114 15.452 7.11597 15.452C7.11597 15.4617 7.11114 15.4714 7.10631 15.4812C7.10631 15.4812 7.11114 15.4812 7.11597 15.4812C7.11597 15.4909 7.11114 15.5006 7.10631 15.5103C7.10631 15.5103 7.11114 15.5103 7.11597 15.5103C7.11597 15.52 7.11114 15.5297 7.10631 15.5394C7.10631 15.5394 7.11114 15.5394 7.11597 15.5394C7.11597 15.5492 7.11114 15.5589 7.10631 15.5686C7.10631 15.5686 7.11114 15.5686 7.11597 15.5686C7.11597 15.5783 7.11114 15.588 7.10631 15.5977C7.10631 15.5977 7.11114 15.5977 7.11597 15.5977C7.11597 15.6074 7.11114 15.6172 7.10631 15.6269C7.10631 15.6269 7.11114 15.6269 7.11597 15.6269C7.11597 15.6366 7.11114 15.6463 7.10631 15.656C7.10631 15.656 7.11114 15.656 7.11597 15.656C7.11597 15.6657 7.11114 15.6755 7.10631 15.6852C7.10631 15.6852 7.11114 15.6852 7.11597 15.6852C7.11597 15.6949 7.11114 15.7046 7.10631 15.7143C7.10631 15.7143 7.11114 15.7143 7.11597 15.7143C7.11597 15.724 7.11114 15.7337 7.10631 15.7435C7.10631 15.7435 7.11114 15.7435 7.11597 15.7435C7.11597 15.7532 7.11114 15.7629 7.10631 15.7726C7.10631 15.7726 7.11114 15.7726 7.11597 15.7726C7.11597 15.7823 7.11114 15.792 7.10631 15.8017C7.10631 15.8017 7.11114 15.8017 7.11597 15.8017C7.11597 15.8115 7.11114 15.8212 7.10631 15.8309C7.10631 15.8309 7.11114 15.8309 7.11597 15.8309C7.11597 15.8406 7.11114 15.8503 7.10631 15.86C7.10631 15.86 7.11114 15.86 7.11597 15.86C7.11597 15.8697 7.11114 15.8795 7.10631 15.8892C7.10631 15.8892 7.11114 15.8892 7.11597 15.8892C7.11597 15.8989 7.11114 15.9086 7.10631 15.9183C7.10631 15.9183 7.11114 15.9183 7.11597 15.9183C7.11597 15.928 7.11114 15.9378 7.10631 15.9475C7.10631 15.9475 7.11114 15.9475 7.11597 15.9475C7.11597 15.9572 7.11114 15.9669 7.10631 15.9766C7.10631 15.9766 7.11114 15.9766 7.11597 15.9766C7.11597 15.9863 7.11114 15.996 7.10631 16.0058C7.10631 16.0058 7.11114 16.0058 7.11597 16.0058C7.11597 16.0155 7.11114 16.0252 7.10631 16.0349C7.10631 16.0349 7.11114 16.0349 7.11597 16.0349C7.11597 16.0446 7.11114 16.0543 7.10631 16.064C7.10631 16.064 7.11114 16.064 7.11597 16.064C7.11597 16.0738 7.11114 16.0835 7.10631 16.0932C7.10631 16.0932 7.11114 16.0932 7.11597 16.0932C7.11597 16.1029 7.11114 16.1126 7.10631 16.1223C7.10631 16.1223 7.11114 16.1223 7.11597 16.1223C7.11597 16.132 7.11114 16.1418 7.10631 16.1515C7.10631 16.1515 7.11114 16.1515 7.11597 16.1515C7.11597 16.1612 7.11114 16.1709 7.10631 16.1806C7.10631 16.1806 7.11114 16.1806 7.11597 16.1806C7.11597 16.1903 7.11114 16.2 7.10631 16.2098C7.10631 16.2098 7.11114 16.2098 7.11597 16.2098C7.11597 16.2195 7.11114 16.2292 7.10631 16.2389C7.10631 16.2389 7.11114 16.2389 7.11597 16.2389C7.11597 16.2486 7.11114 16.2583 7.10631 16.268C7.10631 16.268 7.11114 16.268 7.11597 16.268C7.11597 16.2778 7.11114 16.2875 7.10631 16.2972C7.10631 16.2972 7.11114 16.2972 7.11597 16.2972C7.11597 16.3069 7.11114 16.3166 7.10631 16.3263C7.10631 16.3263 7.11114 16.3263 7.11597 16.3263C7.11597 16.3361 7.11114 16.3458 7.10631 16.3555C7.10631 16.3555 7.11114 16.3555 7.11597 16.3555C7.11597 16.3652 7.11114 16.3749 7.10631 16.3846C7.10631 16.3846 7.11114 16.3846 7.11597 16.3846C7.11597 16.3943 7.11114 16.4041 7.10631 16.4138C7.10631 16.4138 7.11114 16.4138 7.11597 16.4138C7.11597 16.4235 7.11114 16.4332 7.10631 16.4429C7.10631 16.4429 7.11114 16.4429 7.11597 16.4429C7.11597 16.4526 7.11114 16.4623 7.10631 16.4721C7.10631 16.4721 7.11114 16.4721 7.11597 16.4721C7.11597 16.4818 7.11114 16.4915 7.10631 16.5012C7.10631 16.5012 7.11114 16.5012 7.11597 16.5012C7.11597 16.5109 7.11114 16.5206 7.10631 16.5303C7.10631 16.5303 7.11114 16.5303 7.11597 16.5303C7.11597 16.5401 7.11114 16.5498 7.10631 16.5595C7.10631 16.5595 7.11114 16.5595 7.11597 16.5595C7.11597 16.5692 7.11114 16.5789 7.10631 16.5886C7.10631 16.5886 7.11114 16.5886 7.11597 16.5886C7.11597 16.5983 7.11114 16.6081 7.10631 16.6178C7.10631 16.6178 7.11114 16.6178 7.11597 16.6178C7.11597 16.6275 7.11114 16.6372 7.10631 16.6469C7.10631 16.6469 7.11114 16.6469 7.11597 16.6469C7.11597 16.6566 7.11114 16.6664 7.10631 16.6761C7.10631 16.6761 7.11114 16.6761 7.11597 16.6761C7.11597 16.6858 7.11114 16.6955 7.10631 16.7052C7.10631 16.7052 7.11114 16.7052 7.11597 16.7052C7.11597 16.7149 7.11114 16.7246 7.10631 16.7344C7.10631 16.7344 7.11114 16.7344 7.11597 16.7344C7.11597 16.7441 7.11114 16.7538 7.10631 16.7635C7.10631 16.7635 7.11114 16.7635 7.11597 16.7635C7.11597 16.7732 7.11114 16.7829 7.10631 16.7926C7.10631 16.7926 7.11114 16.7926 7.11597 16.7926C7.11597 16.8024 7.11114 16.8121 7.10631 16.8218C7.10631 16.8218 7.11114 16.8218 7.11597 16.8218C7.11597 16.8315 7.11114 16.8412 7.10631 16.8509C7.10631 16.8509 7.11114 16.8509 7.11597 16.8509C7.11597 16.8606 7.11114 16.8704 7.10631 16.8801C7.10631 16.8801 7.11114 16.8801 7.11597 16.8801C7.11597 16.8898 7.11114 16.8995 7.10631 16.9092C7.10631 16.9092 7.11114 16.9092 7.11597 16.9092C7.11597 16.9189 7.11114 16.9287 7.10631 16.9384C7.10631 16.9384 7.11114 16.9384 7.11597 16.9384C7.11597 16.9481 7.11114 16.9578 7.10631 16.9675C7.10631 16.9675 7.11114 16.9675 7.11597 16.9675C7.11597 16.9772 7.11114 16.9869 7.10631 16.9967C7.10631 16.9967 7.11114 16.9967 7.11597 16.9967C7.11597 17.0064 7.11114 17.0161 7.10631 17.0258C7.10631 17.0258 7.11114 17.0258 7.11597 17.0258C7.11597 17.0355 7.11114 17.0452 7.10631 17.0549C8.26574 17.3367 8.73916 17.8677 8.90825 18.4862C8.90825 18.4927 8.90825 18.5024 8.90825 18.5089C8.90825 18.5186 8.90825 18.5316 8.90825 18.5413C8.90825 18.551 8.90825 18.564 8.90825 18.5737C8.90825 18.5834 8.90825 18.5964 8.90825 18.6061C8.90825 18.6158 8.90825 18.6287 8.90825 18.6384C8.90825 18.6482 8.90825 18.6611 8.90825 18.6708C8.90825 18.6805 8.90825 18.6935 8.90825 18.7032C8.90825 18.7129 8.90825 18.7259 8.90825 18.7356C8.90825 18.7453 8.90825 18.7583 8.90825 18.768C8.90825 18.7777 8.90825 18.7906 8.90825 18.8004C8.90825 18.8101 8.90825 18.823 8.90825 18.8327C8.90825 18.8424 8.90825 18.8554 8.90825 18.8651C8.90825 18.8748 8.90825 18.8878 8.90825 18.8975C8.90825 18.9072 8.90825 18.9202 8.90825 18.9299C8.90825 18.9396 8.90825 18.9526 8.90825 18.9623C8.90825 18.972 8.90825 18.9849 8.90825 18.9946C8.90825 19.0044 8.90825 19.0173 8.90825 19.027C8.90825 19.0368 8.90825 19.0497 8.90825 19.0594C8.90825 19.0691 8.90825 19.0821 8.90825 19.0918C8.90825 19.1015 8.90825 19.1145 8.90825 19.1242C8.90825 19.1339 8.90825 19.1468 8.90825 19.1566C8.90825 19.1663 8.90825 19.1792 8.90825 19.189C8.90825 19.1987 8.90825 19.2116 8.90825 19.2213C8.90825 19.231 8.90825 19.244 8.90825 19.2537C8.90825 19.2634 8.90825 19.2764 8.90825 19.2861C8.90825 19.2958 8.90825 19.3088 8.90825 19.3185C8.90825 19.3282 8.90825 19.3411 8.90825 19.3509C8.90825 19.3606 8.90825 19.3735 8.90825 19.3832C8.90825 19.393 8.90825 19.4059 8.90825 19.4156C8.90825 19.4253 8.90825 19.4383 8.90825 19.448C8.90825 19.4577 8.90825 19.4707 8.90825 19.4804C8.90825 19.4901 8.90825 19.5031 8.90825 19.5128C8.90825 19.5225 8.90825 19.5354 8.90825 19.5452C8.90825 19.5549 8.90825 19.5678 8.90825 19.5775C8.90825 19.5873 8.90825 19.6002 8.90825 19.6099C8.90825 19.6196 8.90825 19.6326 8.90825 19.6423C8.90825 19.652 8.90825 19.665 8.90825 19.6747C8.90825 19.6844 8.90825 19.6973 8.90825 19.7071C8.90825 19.7168 8.90825 19.7297 8.90825 19.7395C8.90825 19.7492 8.90825 19.7621 8.90825 19.7718C8.90825 19.7815 8.90825 19.7945 8.90825 19.8042C8.90825 19.8139 8.90825 19.8269 8.90825 19.8366C8.90825 19.8463 8.90825 19.8593 8.90825 19.869C8.90825 19.8787 8.90825 19.8917 8.90825 19.9014C8.90825 19.9111 8.90825 19.924 8.90825 19.9337C8.90825 19.9435 8.90825 19.9564 8.90825 19.9661C8.90825 19.9758 8.90825 19.9888 8.90825 19.9985C8.90825 20.0082 8.90825 20.0212 8.90825 20.0309C8.90825 20.0406 8.90825 20.0536 8.90825 20.0633C8.90825 20.073 8.90825 20.0859 8.90825 20.0957C8.90825 20.1054 8.90825 20.1183 8.90825 20.128C8.90825 20.1377 8.90825 20.1507 8.90825 20.1604C8.90825 20.1701 8.90825 20.1831 8.90825 20.1928C8.90825 20.2025 8.90825 20.2155 8.90825 20.2252C8.90825 20.2349 8.90825 20.2479 8.90825 20.2576C8.90825 20.2673 8.90825 20.2802 8.90825 20.2899C8.90825 20.2997 8.90825 20.3126 8.90825 20.3223C8.90825 20.3321 8.90825 20.345 8.90825 20.3547C8.90825 20.3644 8.90825 20.3774 8.90825 20.3871C8.90825 20.3968 8.90825 20.4098 8.90825 20.4195C8.90825 20.4292 8.90825 20.4421 8.90825 20.4519C8.90342 20.766 8.94207 21.1027 9.0242 21.4719C8.88893 21.663 8.72951 21.8475 8.53627 22.0127C7.97105 22.5049 7.24641 22.7737 6.49761 22.7737C6.45413 22.7737 6.41066 22.7737 6.36718 22.7737C6.23191 22.7672 6.09664 22.7672 5.9662 22.7672C4.38165 22.7672 3.07246 23.1428 1.55555 23.5768L1.50241 23.593C0.256029 23.9492 0.00964237 24.4349 0.0144733 25.0307C0.0144733 25.0405 0.0144733 25.0534 0.0144733 25.0631C0.0144733 25.0728 0.0144733 25.0858 0.0144733 25.0955C0.0144733 25.1052 0.0144733 25.1182 0.0144733 25.1279C0.0144733 25.1376 0.0144733 25.1506 0.0144733 25.1603C0.0144733 25.17 0.0144733 25.1829 0.0144733 25.1926C0.0144733 25.2024 0.0144733 25.2153 0.0144733 25.225C0.0144733 25.2347 0.0144733 25.2477 0.0144733 25.2574C0.0144733 25.2671 0.0144733 25.2801 0.0144733 25.2898C0.0144733 25.2995 0.0144733 25.3125 0.0144733 25.3222C0.0144733 25.3319 0.0144733 25.3448 0.0144733 25.3546C0.0144733 25.3643 0.0144733 25.3772 0.0144733 25.3869C0.0144733 25.3967 0.0144733 25.4096 0.0144733 25.4193C0.0144733 25.429 0.0144733 25.442 0.0144733 25.4517C0.0144733 25.4614 0.0144733 25.4744 0.0144733 25.4841C0.0144733 25.4938 0.0144733 25.5068 0.0144733 25.5165C0.0144733 25.5262 0.0144733 25.5391 0.0144733 25.5488C0.0144733 25.5586 0.0144733 25.5715 0.0144733 25.5812C0.0144733 25.591 0.0144733 25.6039 0.0144733 25.6136C0.0144733 25.6233 0.0144733 25.6363 0.0144733 25.646C0.0144733 25.6557 0.0144733 25.6687 0.0144733 25.6784C0.0144733 25.6881 0.0144733 25.701 0.0144733 25.7108C0.0144733 25.7205 0.0144733 25.7334 0.0144733 25.7432C0.0144733 25.7529 0.0144733 25.7658 0.0144733 25.7755C0.0144733 25.7852 0.0144733 25.7982 0.0144733 25.8079C0.0144733 25.8176 0.0144733 25.8306 0.0144733 25.8403C0.0144733 25.85 0.0144733 25.863 0.0144733 25.8727C0.0144733 25.8824 0.0144733 25.8954 0.0144733 25.9051C0.0144733 25.9148 0.0144733 25.9277 0.0144733 25.9374C0.0144733 25.9472 0.0144733 25.9601 0.0144733 25.9698C0.0144733 25.9795 0.0144733 25.9925 0.0144733 26.0022C0.0144733 26.0119 0.0144733 26.0249 0.0144733 26.0346C0.0144733 26.0443 0.0144733 26.0573 0.0144733 26.067C0.0144733 26.0767 0.0144733 26.0896 0.0144733 26.0994C0.0144733 26.1091 0.0144733 26.122 0.0144733 26.1317C0.0144733 26.1415 0.0144733 26.1544 0.0144733 26.1641C0.0144733 26.1738 0.0144733 26.1868 0.0144733 26.1965C0.0144733 26.2062 0.0144733 26.2192 0.0144733 26.2289C0.0144733 26.2386 0.0144733 26.2516 0.0144733 26.2613C0.0144733 26.271 0.0144733 26.2839 0.0144733 26.2937C0.0144733 26.3034 0.0144733 26.3163 0.0144733 26.326C0.0144733 26.3357 0.0144733 26.3487 0.0144733 26.3584C0.0144733 26.3681 0.0144733 26.3811 0.0144733 26.3908C0.0144733 26.4005 0.0144733 26.4135 0.0144733 26.4232C0.0144733 26.4329 0.0144733 26.4459 0.0144733 26.4556C0.0144733 26.4653 0.0144733 26.4782 0.0144733 26.4879C0.0144733 26.4977 0.0144733 26.5106 0.0144733 26.5203C0.0144733 26.53 0.0144733 26.543 0.0144733 26.5527C0.0144733 26.5624 0.0144733 26.5754 0.0144733 26.5851C0.0144733 26.5948 0.0144733 26.6078 0.0144733 26.6175C0.0144733 26.6272 0.0144733 26.6401 0.0144733 26.6499C0.0144733 26.6596 0.0144733 26.6725 0.0144733 26.6822C0.0144733 26.6919 0.0144733 26.7049 0.0144733 26.7146C0.0144733 26.7243 0.0144733 26.7373 0.0144733 26.747C0.0144733 26.7567 0.0144733 26.7697 0.0144733 26.7794C0.0144733 26.7891 0.0144733 26.8021 0.0144733 26.8118C0.0144733 26.8215 0.0144733 26.8344 0.0144733 26.8441C0.0144733 26.8539 0.0144733 26.8668 0.0144733 26.8765C0.0144733 26.8863 0.0144733 26.8992 0.0144733 26.9089C0.0144733 26.9186 0.0144733 26.9316 0.0144733 26.9413C0.0144733 26.951 0.0144733 26.964 0.0144733 26.9737C0.0144733 26.9834 0.0144733 26.9963 0.0144733 27.0061C0.0144733 27.0158 0.0144733 27.0287 0.0144733 27.0385C0.0144733 27.0482 0.0144733 27.0611 0.0144733 27.0708C0.0144733 27.0805 0.0144733 27.0935 0.0144733 27.1032C0.0144733 27.1129 0.0144733 27.1259 0.0144733 27.1356C0.0144733 27.1453 0.0144733 27.1583 0.0144733 27.168C0.0144733 27.1777 0.0144733 27.1906 0.0144733 27.2004C0.0144733 27.2101 0.0144733 27.223 0.0144733 27.2327C0.0144733 27.2425 0.0144733 27.2554 0.0144733 27.2651C0.0144733 27.2748 0.0144733 27.2878 0.0144733 27.2975C0.0144733 27.3072 0.0144733 27.3202 0.0144733 27.3299C0.0144733 27.3396 0.0144733 27.3526 0.0144733 27.3623C0.0144733 27.372 0.0144733 27.3849 0.0144733 27.3947C0.0144733 27.4044 0.0144733 27.4173 0.0144733 27.427C0.0144733 27.4368 0.0144733 27.4497 0.0144733 27.4594C0.0144733 27.4691 0.0144733 27.4821 0.0144733 27.4918C0.0144733 27.5015 0.0144733 27.5145 0.0144733 27.5242C0.0144733 27.5339 0.0144733 27.5468 0.0144733 27.5566C0.0144733 27.5663 0.0144733 27.5792 0.0144733 27.589C0.0144733 27.5987 0.0144733 27.6116 0.0144733 27.6213C0.0144733 27.631 0.0144733 27.644 0.0144733 27.6537C0.0144733 27.6634 0.0144733 27.6764 0.0144733 27.6861C0.0144733 27.6958 0.0144733 27.7088 0.0144733 27.7185C0.0144733 27.7282 0.0144733 27.7412 0.0144733 27.7509C0.0144733 27.7606 0.0144733 27.7735 0.0144733 27.7832C0.0144733 27.793 0.0144733 27.8059 0.0144733 27.8156C0.0144733 27.8253 0.0144733 27.8383 0.0144733 27.848C0.0144733 27.8577 0.0144733 27.8707 0.0144733 27.8804C0.0144733 27.8901 0.0144733 27.9031 0.0144733 27.9128C0.0144733 27.9225 0.0144733 27.9354 0.0144733 27.9452C0.0144733 27.9549 0.0144733 27.9678 0.0144733 27.9775C0.0144733 27.9872 0.0144733 28.0002 0.0144733 28.0099C0.0144733 28.0196 0.0144733 28.0326 0.0144733 28.0423C0.0144733 28.052 0.0144733 28.065 0.0144733 28.0747C0.0144733 28.0844 0.0144733 28.0974 0.0144733 28.1071C0.0144733 28.1168 0.0144733 28.1297 0.0144733 28.1394C0.0144733 28.1492 0.0144733 28.1621 0.0144733 28.1718C0.0144733 28.1816 0.0144733 28.1945 0.0144733 28.2042C0.0144733 28.2139 0.0144733 28.2269 0.0144733 28.2366C0.0144733 28.2463 0.0144733 28.2593 0.0144733 28.269C0.0144733 28.4698 0.0434614 28.6867 0.077278 28.9134C0.111095 29.1563 0.149745 29.4121 0.140083 29.655C0.12559 29.9917 0.241533 30.2411 0.487911 30.4095C0.792261 30.6167 1.31883 30.7236 2.05313 30.7236C2.22705 30.7236 2.40096 30.7171 2.5797 30.7074C2.7826 30.6944 2.97585 30.688 3.16426 30.688C5.29954 30.688 6.6522 31.4425 7.07249 32.8738C7.34786 33.7999 7.57491 34.7099 7.82128 35.6781C7.90341 36.0116 7.99037 36.3452 8.07732 36.6819C8.98554 36.7208 9.61357 36.8892 9.99521 37.1903C10.0532 37.2389 10.1015 37.2907 10.1498 37.3425C10.1498 37.3425 10.1498 37.3652 10.1498 37.3749C10.1498 37.3846 10.1498 37.3976 10.1498 37.4073C10.1498 37.417 10.1498 37.43 10.1498 37.4397C10.1498 37.4494 10.1498 37.4623 10.1498 37.4721C10.1498 37.4818 10.1498 37.4947 10.1498 37.5045C10.1498 37.5142 10.1498 37.5271 10.1498 37.5368C10.1498 37.5465 10.1498 37.5595 10.1498 37.5692C10.1498 37.5789 10.1498 37.5919 10.1498 37.6016C10.1498 37.6113 10.1498 37.6243 10.1498 37.634C10.1498 37.6437 10.1498 37.6567 10.1498 37.6664C10.1498 37.6761 10.1498 37.689 10.1498 37.6987C10.1498 37.7085 10.1498 37.7214 10.1498 37.7311C10.1498 37.7409 10.1498 37.7538 10.1498 37.7635C10.1498 37.7732 10.1498 37.7862 10.1498 37.7959C10.1498 37.8056 10.1498 37.8186 10.1498 37.8283C10.1498 37.838 10.1498 37.8509 10.1498 37.8607C10.1498 37.8704 10.1498 37.8833 10.1498 37.8931C10.1498 37.9028 10.1498 37.9157 10.1498 37.9254C10.1498 37.9351 10.1498 37.9481 10.1498 37.9578C10.1498 37.9675 10.1498 37.9805 10.1498 37.9902C10.1498 37.9999 10.1498 38.0129 10.1498 38.0226C10.1498 38.0323 10.1498 38.0452 10.1498 38.055C10.1498 38.0647 10.1498 38.0776 10.1498 38.0873C10.1498 38.0971 10.1498 38.11 10.1498 38.1197C10.1498 38.1294 10.1498 38.1424 10.1498 38.1521C10.1498 38.1618 10.1498 38.1748 10.1498 38.1845C10.1498 38.1942 10.1498 38.2072 10.1498 38.2169C10.1498 38.2266 10.1498 38.2395 10.1498 38.2493C10.1498 38.259 10.1498 38.2719 10.1498 38.2816C10.1498 38.2913 10.1498 38.3043 10.1498 38.314C10.1498 38.3237 10.1498 38.3367 10.1498 38.3464C10.1498 38.3561 10.1498 38.3691 10.1498 38.3788C10.1498 38.3885 10.1498 38.4014 10.1498 38.4112C10.1498 38.4209 10.1498 38.4338 10.1498 38.4435C10.1498 38.4533 10.1498 38.4662 10.1498 38.4759C10.1498 38.4856 10.1498 38.4986 10.1498 38.5083C10.1498 38.518 10.1498 38.531 10.1498 38.5407C10.1498 38.5504 10.1498 38.5634 10.1498 38.5731C10.1498 38.5828 10.1498 38.5957 10.1498 38.6054C10.1498 38.6152 10.1498 38.6281 10.1498 38.6378C10.1498 38.6476 10.1498 38.6605 10.1498 38.6702C10.1498 38.6799 10.1498 38.6929 10.1498 38.7026C10.1498 38.7123 10.1498 38.7253 10.1498 38.735C10.1498 38.7447 10.1498 38.7576 10.1498 38.7674C10.1498 38.7771 10.1498 38.79 10.1498 38.7998C10.1498 38.8095 10.1498 38.8224 10.1498 38.8321C10.1498 38.8418 10.1498 38.8548 10.1498 38.8645C10.1498 38.8742 10.1498 38.8872 10.1498 38.8969C10.1498 38.9066 10.1498 38.9196 10.1498 38.9293C10.1498 38.939 10.1498 38.952 10.1498 38.9617C10.1498 38.9714 10.1498 38.9843 10.1498 38.994C10.1498 39.0038 10.1498 39.0167 10.1498 39.0264C10.1498 39.0362 10.1498 39.0491 10.1498 39.0588C10.1498 39.0685 10.1498 39.0815 10.1498 39.0912C10.1498 39.1009 10.1498 39.1139 10.1498 39.1236C10.1498 39.1333 10.1498 39.1462 10.1498 39.156C10.1498 39.1657 10.1498 39.1786 10.1498 39.1884C10.1498 39.1981 10.1498 39.211 10.1498 39.2207C10.1498 39.2304 10.1498 39.2434 10.1498 39.2531C10.1498 39.2628 10.1498 39.2758 10.1498 39.2855C10.1498 39.2952 10.1498 39.3082 10.1498 39.3179C10.1498 39.3276 10.1498 39.3405 10.1498 39.3503C10.1498 39.36 10.1498 39.3729 10.1498 39.3826C10.1498 39.3924 10.1498 39.4053 10.1498 39.415C10.1498 39.4247 10.1498 39.4377 10.1498 39.4474C10.1498 39.4571 10.1498 39.4701 10.1498 39.4798C10.1498 39.4895 10.1498 39.5025 10.1498 39.5122C10.1498 39.5219 10.1498 39.5348 10.1498 39.5445C10.1498 39.5543 10.1498 39.5672 10.1498 39.5769C10.1498 39.5866 10.1498 39.5996 10.1498 39.6093C10.1401 39.8166 10.1788 40.0011 10.3092 40.1339C10.5218 40.1825 10.744 40.2278 10.9759 40.2732C12.1353 40.5095 13.3382 40.7557 13.7489 41.3483C14.2658 42.0995 14.8745 42.1287 15.8841 42.1772C17.8938 42.2712 19.918 42.514 20.7151 44.3177C20.8407 44.6059 21.3624 44.8747 21.9663 45.1888C22.1499 45.2827 22.3479 45.3863 22.546 45.4964C22.6185 45.3378 22.6861 45.1888 22.7489 45.0463C22.9808 44.5282 23.1789 44.0813 23.5364 43.6863C24.2562 42.8994 25.1161 42.0024 26.2513 41.3385C26.7296 41.06 27.2224 40.9111 27.6765 40.9111C28.546 40.9111 29.1499 41.4001 29.2948 42.2161C29.5847 43.8417 31.5751 44.7484 33.1741 45.477C34.7442 46.1927 36.5509 46.6784 38.464 47.1933C39.179 47.3843 39.9133 47.5851 40.6524 47.7988L40.6669 47.7762C40.7828 47.5786 40.8988 47.3908 40.9036 47.2224C40.9664 45.7814 40.9954 44.2432 40.9954 42.3813V42.1675C40.9954 42.0574 40.9954 41.9473 40.9954 41.8372C40.9954 41.8275 40.9954 41.8146 40.9954 41.8048C40.9954 41.7951 40.9954 41.7822 40.9954 41.7725C40.9954 41.7627 40.9954 41.7498 40.9954 41.7401C40.9954 41.7304 40.9954 41.7174 40.9954 41.7077C40.9954 41.698 40.9954 41.685 40.9954 41.6753C40.9954 41.6656 40.9954 41.6526 40.9954 41.6429C40.9954 41.6332 40.9954 41.6203 40.9954 41.6105C40.9954 41.6008 40.9954 41.5879 40.9954 41.5782C40.9954 41.5684 40.9954 41.5555 40.9954 41.5458C40.9954 41.5361 40.9954 41.5231 40.9954 41.5134C40.9954 41.5037 40.9954 41.4907 40.9954 41.481C40.9954 41.4713 40.9954 41.4584 40.9954 41.4486C40.9954 41.4389 40.9954 41.426 40.9954 41.4162C40.9954 41.4065 40.9954 41.3936 40.9954 41.3839C40.9954 41.3742 40.9954 41.3612 40.9954 41.3515C40.9954 41.3418 40.9954 41.3288 40.9954 41.3191C40.9954 41.3094 40.9954 41.2964 40.9954 41.2867C40.9954 41.277 40.9954 41.264 40.9954 41.2543C40.9954 41.2446 40.9954 41.2317 40.9954 41.222C40.9954 41.2122 40.9954 41.1993 40.9954 41.1896C40.9954 41.1799 40.9954 41.1669 40.9954 41.1572C40.9954 41.1475 40.9954 41.1345 40.9954 41.1248C40.9954 41.1151 40.9954 41.1021 40.9954 41.0924C40.9954 41.0827 40.9954 41.0698 40.9954 41.06C40.9954 41.0503 40.9954 41.0374 40.9954 41.0277C40.9954 41.018 40.9954 41.005 40.9954 40.9953C40.9954 40.9856 40.9954 40.9726 40.9954 40.9629C40.9954 40.9532 40.9954 40.9402 40.9954 40.9305C40.9954 40.9208 40.9954 40.9078 40.9954 40.8981C40.9954 40.8884 40.9954 40.8755 40.9954 40.8658C40.9954 40.856 40.9954 40.8431 40.9954 40.8334C40.9954 40.8237 40.9954 40.8107 40.9954 40.801C40.9954 40.7913 40.9954 40.7783 40.9954 40.7686C40.9954 40.7589 40.9954 40.7459 40.9954 40.7362C40.9954 40.7265 40.9954 40.7136 40.9954 40.7038C40.9954 40.6941 40.9954 40.6812 40.9954 40.6715C40.9954 40.6617 40.9954 40.6488 40.9954 40.6391C40.9954 40.6294 40.9954 40.6164 40.9954 40.6067C40.9954 40.597 40.9954 40.584 40.9954 40.5743C40.9954 40.5646 40.9954 40.5516 40.9954 40.5419C40.9954 40.5322 40.9954 40.5193 40.9954 40.5095C40.9954 40.4998 40.9954 40.4869 40.9954 40.4772C40.9954 40.4674 40.9954 40.4545 40.9954 40.4448C40.9954 40.4351 40.9954 40.4221 40.9954 40.4124C40.9954 40.4027 40.9954 40.3897 40.9954 40.38C40.9954 40.3703 40.9954 40.3573 40.9954 40.3476C40.9954 40.3379 40.9954 40.325 40.9954 40.3153C40.9954 40.3055 40.9954 40.2926 40.9954 40.2829C40.9954 40.2731 40.9954 40.2602 40.9954 40.2505C40.9954 40.2408 40.9954 40.2278 40.9954 40.2181C40.9954 40.2084 40.9954 40.1954 40.9954 40.1857C40.9954 40.176 40.9954 40.1631 40.9954 40.1533C40.9954 40.1436 40.9954 40.1307 40.9954 40.1209C40.9954 40.1112 40.9954 40.0983 40.9954 40.0886C40.9954 40.0789 40.9954 40.0659 40.9954 40.0562C40.9954 40.0465 40.9954 40.0335 40.9954 40.0238C40.9954 40.0141 40.9954 40.0011 40.9954 39.9914C40.9954 39.9817 40.9954 39.9688 40.9954 39.959C40.9954 39.9493 40.9954 39.9364 40.9954 39.9267C40.9954 39.9169 40.9954 39.904 40.9954 39.8943C40.9954 39.8846 40.9954 39.8716 40.9954 39.8619C40.9954 39.8522 40.9954 39.8392 40.9954 39.8295C40.9954 39.8198 40.9954 39.8068 40.9954 39.7971C40.9954 39.7874 40.9954 39.7745 40.9954 39.7647C40.9954 39.755 40.9954 39.7421 40.9954 39.7324C40.9954 39.7227 40.9954 39.7097 40.9954 39.7C40.9954 39.6903 40.9954 39.6773 40.9954 39.6676C40.9954 39.6579 40.9954 39.6449 40.9954 39.6352C40.9954 39.6255 40.9954 39.6125 40.9954 39.6028C40.9954 39.5931 40.9954 39.5802 40.9954 39.5705C40.9954 39.5607 40.9954 39.5478 40.9954 39.5381C40.9954 39.5284 40.9954 39.5154 40.9954 39.5057C40.9954 39.496 40.9954 39.483 40.9954 39.4733C40.9954 39.4636 40.9954 39.4506 40.9954 39.4409C40.9954 39.4312 40.9954 39.4183 40.9954 39.4085C40.9954 39.3988 40.9954 39.3859 40.9954 39.3762C40.9954 39.3664 40.9954 39.3535 40.9954 39.3438C40.9954 39.3341 40.9954 39.3211 40.9954 39.3114C40.9954 39.3017 40.9954 39.2887 40.9954 39.279C40.9954 39.2693 40.9954 39.2564 40.9954 39.2466C40.9954 39.2369 40.9954 39.224 40.9954 39.2142C40.9954 39.2045 40.9954 39.1916 40.9954 39.1819C40.9954 39.1722 40.9954 39.1592 40.9954 39.1495C40.9954 39.1398 40.9954 39.1268 40.9954 39.1171C40.9954 39.1074 40.9954 39.0944 40.9954 39.0847C40.9954 39.075 40.9954 39.062 40.9954 39.0523C40.9954 39.0426 40.9954 39.0297 40.9954 39.02C40.9954 39.0102 40.9954 38.9973 40.9954 38.9876C40.9954 38.9778 40.9954 38.9649 40.9954 38.9552C40.9954 38.9455 40.9954 38.9325 40.9954 38.9228C40.9954 38.9131 40.9954 38.9001 40.9954 38.8904C40.9954 38.8807 40.9954 38.8678 40.9954 38.858C40.9954 38.8483 40.9954 38.8354 40.9954 38.8256C40.9954 38.8159 40.9954 38.803 40.9954 38.7933C40.9954 38.7836 40.9954 38.7706 40.9954 38.7609C40.9954 38.7512 40.9954 38.7382 40.9954 38.7285C40.9954 38.7188 40.9954 38.7058 40.9954 38.6961C40.9954 38.6864 40.9954 38.6735 40.9954 38.6637C40.9954 38.654 40.9954 38.6411 40.9954 38.6314C40.9954 38.6216 40.9954 38.6087 40.9954 38.599C40.9954 38.3561 40.9712 38.1165 40.8988 37.8995C41.4109 37.2616 42.1983 36.7111 43.0534 36.2027C44.2998 35.4579 45.4157 34.5706 46.4978 33.7125C47.1114 33.2235 47.7491 32.7183 48.4109 32.2391C48.9858 31.8213 49.6525 31.5072 50.2901 31.3583C53.696 30.5584 54.638 30.335 54.5414 29.0105C54.5414 29.0041 54.5414 28.9944 54.5414 28.9879C54.5414 28.9782 54.5414 28.9652 54.5414 28.9555C54.5414 28.9458 54.5414 28.9328 54.5414 28.9231C54.5414 28.9134 54.5414 28.9004 54.5414 28.8907C54.5414 28.881 54.5414 28.8681 54.5414 28.8583C54.5414 28.8486 54.5414 28.8357 54.5414 28.826C54.5414 28.8163 54.5414 28.8033 54.5414 28.7936C54.5414 28.7839 54.5414 28.7709 54.5414 28.7612C54.5414 28.7515 54.5414 28.7385 54.5414 28.7288C54.5414 28.7191 54.5414 28.7061 54.5414 28.6964C54.5414 28.6867 54.5414 28.6738 54.5414 28.6641C54.5414 28.6543 54.5414 28.6414 54.5414 28.6317C54.5414 28.6219 54.5414 28.609 54.5414 28.5993C54.5414 28.5896 54.5414 28.5766 54.5414 28.5669C54.5414 28.5572 54.5414 28.5442 54.5414 28.5345C54.5414 28.5248 54.5414 28.5119 54.5414 28.5021C54.5414 28.4924 54.5414 28.4795 54.5414 28.4697C54.5414 28.46 54.5414 28.4471 54.5414 28.4374C54.5414 28.4277 54.5414 28.4147 54.5414 28.405C54.5414 28.3953 54.5414 28.3823 54.5414 28.3726C54.5414 28.3629 54.5414 28.3499 54.5414 28.3402C54.5414 28.3305 54.5414 28.3176 54.5414 28.3078C54.5414 28.2981 54.5414 28.2852 54.5414 28.2755C54.5414 28.2657 54.5414 28.2528 54.5414 28.2431C54.5414 28.2334 54.5414 28.2204 54.5414 28.2107C54.5414 28.201 54.5414 28.188 54.5414 28.1783C54.5414 28.1686 54.5414 28.1556 54.5414 28.1459C54.5414 28.1362 54.5414 28.1233 54.5414 28.1136C54.5414 28.1038 54.5414 28.0909 54.5414 28.0812C54.5414 28.0714 54.5414 28.0585 54.5414 28.0488C54.5414 28.0391 54.5414 28.0261 54.5414 28.0164C54.5414 28.0067 54.5414 27.9937 54.5414 27.984C54.5414 27.9743 54.5414 27.9614 54.5414 27.9516C54.5414 27.9419 54.5414 27.929 54.5414 27.9192C54.5414 27.9095 54.5414 27.8966 54.5414 27.8869C54.5414 27.8772 54.5414 27.8642 54.5414 27.8545C54.5414 27.8448 54.5414 27.8318 54.5414 27.8221C54.5414 27.8124 54.5414 27.7994 54.5414 27.7897C54.5414 27.78 54.5414 27.767 54.5414 27.7573C54.5414 27.7476 54.5414 27.7347 54.5414 27.725C54.5414 27.7152 54.5414 27.7023 54.5414 27.6926C54.5414 27.6829 54.5414 27.6699 54.5414 27.6602C54.5414 27.6505 54.5414 27.6375 54.5414 27.6278C54.5414 27.6181 54.5414 27.6051 54.5414 27.5954C54.5414 27.5857 54.5414 27.5728 54.5414 27.563C54.5414 27.5533 54.5414 27.5404 54.5414 27.5307C54.5414 27.521 54.5414 27.508 54.5414 27.4983C54.5414 27.4886 54.5414 27.4756 54.5414 27.4659C54.5414 27.4562 54.5414 27.4432 54.5414 27.4335C54.5414 27.4238 54.5414 27.4108 54.5414 27.4011C54.5414 27.3914 54.5414 27.3785 54.5414 27.3688C54.5414 27.359 54.5414 27.3461 54.5414 27.3364C54.5414 27.3267 54.5414 27.3137 54.5414 27.304C54.5414 27.2943 54.5414 27.2813 54.5414 27.2716C54.5414 27.2619 54.5414 27.2489 54.5414 27.2392C54.5414 27.2295 54.5414 27.2166 54.5414 27.2068C54.5414 27.1971 54.5414 27.1842 54.5414 27.1745C54.5414 27.1647 54.5414 27.1518 54.5414 27.1421C54.5414 27.1324 54.5414 27.1194 54.5414 27.1097C54.5414 27.1 54.5414 27.087 54.5414 27.0773C54.5414 27.0676 54.5414 27.0546 54.5414 27.0449C54.5414 27.0352 54.5414 27.0223 54.5414 27.0125C54.5414 27.0028 54.5414 26.9899 54.5414 26.9802C54.5414 26.9705 54.5414 26.9575 54.5414 26.9478C54.5414 26.9381 54.5414 26.9251 54.5414 26.9154C54.5414 26.9057 54.5414 26.8927 54.5414 26.883C54.5414 26.8733 54.5414 26.8603 54.5414 26.8506C54.5414 26.8409 54.5414 26.828 54.5414 26.8183C54.5414 26.8085 54.5414 26.7956 54.5414 26.7859C54.5414 26.7761 54.5414 26.7632 54.5414 26.7535C54.5414 26.7438 54.5414 26.7308 54.5414 26.7211C54.5414 26.7114 54.5414 26.6984 54.5414 26.6887C54.5414 26.679 54.5414 26.6661 54.5414 26.6563C54.5414 26.6466 54.5414 26.6337 54.5414 26.6239C54.5414 26.6142 54.5414 26.6013 54.5414 26.5916C54.5414 26.5819 54.5414 26.5689 54.5414 26.5592C54.5414 26.5495 54.5414 26.5365 54.5414 26.5268C54.5414 26.5171 54.5414 26.5041 54.5414 26.4944C54.5414 26.4847 54.5414 26.4718 54.5414 26.462C54.5414 26.4523 54.5414 26.4394 54.5414 26.4297C54.5414 26.4199 54.5414 26.407 54.5414 26.3973C54.5414 26.3876 54.5414 26.3746 54.5414 26.3649C54.5414 26.3552 54.5414 26.3422 54.5414 26.3325C54.5414 26.3228 54.5414 26.3098 54.5414 26.3001C54.5414 26.2904 54.5414 26.2775 54.5414 26.2677C54.5414 26.258 54.5414 26.2451 54.5414 26.2354C54.5414 26.2257 54.5414 26.2127 54.5414 26.203C54.5414 26.1933 54.5414 26.1803 54.5414 26.1706C54.5414 26.1609 54.5414 26.1479 54.5414 26.1382C54.5414 26.1285 54.5414 26.1156 54.5414 26.1058C54.5414 26.0994 54.5414 26.0929 54.5414 26.0864C54.5655 25.8209 54.5269 25.497 54.4399 25.1052C54.638 24.8138 54.8844 24.545 55.2515 24.3701C56.2612 23.8909 56.8022 23.3792 56.8554 22.8514C56.8554 22.8417 56.8554 22.832 56.8554 22.8223C56.8554 22.8125 56.8554 22.8028 56.8554 22.7931C56.8554 22.7834 56.8554 22.7737 56.8554 22.764C56.8554 22.7543 56.8554 22.7445 56.8554 22.7348C56.8554 22.7251 56.8554 22.7154 56.8554 22.7057C56.8554 22.696 56.8554 22.6862 56.8554 22.6765C56.8554 22.6668 56.8554 22.6571 56.8554 22.6474C56.8554 22.6377 56.8554 22.628 56.8554 22.6182C56.8554 22.6085 56.8554 22.5988 56.8554 22.5891C56.8554 22.5794 56.8554 22.5697 56.8554 22.56C56.8554 22.5502 56.8554 22.5405 56.8554 22.5308C56.8554 22.5211 56.8554 22.5114 56.8554 22.5017C56.8554 22.492 56.8554 22.4822 56.8554 22.4725C56.8554 22.4628 56.8554 22.4531 56.8554 22.4434C56.8554 22.4337 56.8554 22.4239 56.8554 22.4142C56.8554 22.4045 56.8554 22.3948 56.8554 22.3851C56.8554 22.3754 56.8554 22.3657 56.8554 22.3559C56.8554 22.3462 56.8554 22.3365 56.8554 22.3268C56.8554 22.3171 56.8554 22.3074 56.8554 22.2977C56.8554 22.2879 56.8554 22.2782 56.8554 22.2685C56.8554 22.2588 56.8554 22.2491 56.8554 22.2394C56.8554 22.2297 56.8554 22.2199 56.8554 22.2102C56.8554 22.2005 56.8554 22.1908 56.8554 22.1811C56.8554 22.1714 56.8554 22.1616 56.8554 22.1519C56.8554 22.1422 56.8554 22.1325 56.8554 22.1228C56.8554 22.1131 56.8554 22.1034 56.8554 22.0936C56.8554 22.0839 56.8554 22.0742 56.8554 22.0645C56.8554 22.0548 56.8554 22.0451 56.8554 22.0354C56.8554 22.0256 56.8554 22.0159 56.8554 22.0062C56.8554 21.9965 56.8554 21.9868 56.8554 21.9771C56.8554 21.9674 56.8554 21.9576 56.8554 21.9479C56.8554 21.9382 56.8554 21.9285 56.8554 21.9188C56.8554 21.9091 56.8554 21.8994 56.8554 21.8896C56.8554 21.8799 56.8554 21.8702 56.8554 21.8605C56.8554 21.8508 56.8554 21.8411 56.8554 21.8314C56.8554 21.8216 56.8554 21.8119 56.8554 21.8022C56.8554 21.7925 56.8554 21.7828 56.8554 21.7731C56.8554 21.7633 56.8554 21.7536 56.8554 21.7439C56.8554 21.7342 56.8554 21.7245 56.8554 21.7148C56.8554 21.7051 56.8554 21.6953 56.8554 21.6856C56.8554 21.6759 56.8554 21.6662 56.8554 21.6565C56.8554 21.6468 56.8554 21.6371 56.8554 21.6273C56.8554 21.6176 56.8554 21.6079 56.8554 21.5982C56.8554 21.5885 56.8554 21.5788 56.8554 21.5691C56.8554 21.5593 56.8554 21.5496 56.8554 21.5399C56.8554 21.5302 56.8554 21.5205 56.8554 21.5108C56.8554 21.5011 56.8554 21.4913 56.8554 21.4816C56.8554 21.4719 56.8554 21.4622 56.8554 21.4525C56.8554 21.4428 56.8554 21.433 56.8554 21.4233C56.8554 21.4136 56.8554 21.4039 56.8554 21.3942C56.8554 21.3845 56.8554 21.3748 56.8554 21.365C56.8554 21.3553 56.8554 21.3456 56.8554 21.3359C56.8554 21.3262 56.8554 21.3165 56.8554 21.3068C56.8554 21.297 56.8554 21.2873 56.8554 21.2776C56.8554 21.2679 56.8554 21.2582 56.8554 21.2485C56.8554 21.2388 56.8554 21.229 56.8554 21.2193C56.8554 21.2096 56.8554 21.1999 56.8554 21.1902C56.8554 21.1805 56.8554 21.1707 56.8554 21.161C56.8554 21.1513 56.8554 21.1416 56.8554 21.1319C56.8554 21.1222 56.8554 21.1125 56.8554 21.1027C56.8554 21.093 56.8554 21.0833 56.8554 21.0736C56.8554 21.0639 56.8554 21.0542 56.8554 21.0445C56.8554 21.0347 56.8554 21.025 56.8554 21.0153C56.8554 21.0056 56.8554 20.9959 56.8554 20.9862C56.8554 20.9765 56.8554 20.9667 56.8554 20.957C56.8554 20.9473 56.8554 20.9376 56.8554 20.9279C56.8554 20.9182 56.8554 20.9084 56.8554 20.8987C56.8554 20.889 56.8554 20.8793 56.8554 20.8696C56.8554 20.8599 56.8554 20.8502 56.8554 20.8404C56.8554 20.8307 56.8554 20.821 56.8554 20.8113C56.8554 20.8016 56.8554 20.7919 56.8554 20.7822C56.8554 20.7724 56.8554 20.7627 56.8554 20.753C56.8554 20.7433 56.8554 20.7336 56.8554 20.7239C56.8554 20.7142 56.8554 20.7044 56.8554 20.6947C56.8554 20.685 56.8554 20.6753 56.8554 20.6656C56.8554 20.6559 56.8554 20.6462 56.8554 20.6364C56.8554 20.6267 56.8554 20.617 56.8554 20.6073C56.8554 20.5976 56.8554 20.5879 56.8554 20.5782C56.8554 20.5684 56.8554 20.5587 56.8554 20.549C56.8554 20.5393 56.8554 20.5296 56.8554 20.5199C56.8554 20.5102 56.8554 20.5004 56.8554 20.4907C56.8554 20.481 56.8554 20.4713 56.8554 20.4616C56.8554 20.4519 56.8554 20.4421 56.8554 20.4324C56.8554 20.4227 56.8554 20.413 56.8554 20.4033C56.8554 20.3936 56.8554 20.3839 56.8554 20.3741C56.8554 20.3644 56.8554 20.3547 56.8554 20.345C56.8554 20.3353 56.8554 20.3256 56.8554 20.3159C56.8554 20.3061 56.8554 20.2964 56.8554 20.2867C56.8554 20.277 56.8554 20.2673 56.8554 20.2576C56.8554 20.2479 56.8554 20.2381 56.8554 20.2284C56.8554 20.2187 56.8554 20.209 56.8554 20.1993C56.8554 20.1896 56.8554 20.1798 56.8554 20.1701C56.8554 20.1604 56.8554 20.1507 56.8554 20.141C56.8554 20.1313 56.8554 20.1216 56.8554 20.1118C56.8554 20.1021 56.8554 20.0924 56.8554 20.0827C56.8554 20.073 56.8554 20.0633 56.8554 20.0536C56.8554 20.0438 56.8554 20.0341 56.8554 20.0244C56.8554 20.0147 56.8554 20.005 56.8554 19.9953C56.8554 19.9856 56.8554 19.9758 56.8554 19.9661C56.8554 19.9564 56.8554 19.9467 56.8554 19.937C56.8554 19.9273 56.8554 19.9175 56.8554 19.9078L56.8602 19.9111Z" fill="#D6C393"/>
<path d="M40.633 44.8004C39.8939 44.5867 39.1595 44.3859 38.4446 44.1949C36.5315 43.68 34.7199 43.191 33.1547 42.4786C31.5556 41.75 29.5653 40.8433 29.2754 39.2177C29.1305 38.4016 28.5266 37.9127 27.6571 37.9127C27.1981 37.9127 26.7054 38.0616 26.2319 38.3401C25.0967 39.0072 24.2319 39.9009 23.5169 40.6878C23.1595 41.0829 22.9614 41.5298 22.7295 42.0479C22.6667 42.1904 22.5991 42.3426 22.5266 42.498C22.3285 42.3879 22.1305 42.2875 21.9469 42.1904C21.343 41.8795 20.8213 41.6075 20.6957 41.3193C19.9034 39.5156 17.8744 39.2727 15.8647 39.1788C14.8551 39.1303 14.2464 39.1043 13.7294 38.3498C13.3188 37.7572 12.1207 37.5111 10.9565 37.2747C10.7294 37.2262 10.5024 37.1808 10.2898 37.1355C10.0289 36.8667 10.1401 36.4134 10.256 35.9341C10.4009 35.3447 10.5652 34.6777 9.98063 34.2114C9.60382 33.9102 8.97579 33.7418 8.06274 33.703C7.97579 33.3662 7.89366 33.0326 7.8067 32.6991C7.56033 31.7341 7.33328 30.8209 7.05791 29.8948C6.63762 28.4667 5.28496 27.709 3.14968 27.709C2.96127 27.709 2.76319 27.7154 2.56512 27.7284C2.38638 27.7381 2.21247 27.7446 2.03855 27.7446C1.30425 27.7446 0.777682 27.6377 0.473332 27.4305C0.226954 27.2589 0.11101 27.0128 0.125503 26.676C0.135165 26.4299 0.101346 26.1773 0.0626985 25.9344C-0.062906 25.0536 -0.16435 24.3574 1.48783 23.8846L1.54097 23.8684C3.05788 23.4345 4.36707 23.0589 5.95162 23.0589C6.08206 23.0589 6.21733 23.0588 6.3526 23.0653C6.39608 23.0653 6.43955 23.0653 6.48303 23.0653C7.23183 23.0653 7.95647 22.7966 8.52169 22.3043C9.35744 21.5757 9.70044 20.5168 9.36711 19.6684C8.99029 18.6969 8.84054 17.9327 8.90334 17.2592L8.91783 17.094C9.03377 15.9379 9.16421 14.6362 7.0869 14.1278C7.18835 13.804 7.28497 13.4866 7.37192 13.1725C7.63279 12.2625 7.884 11.4044 8.36226 10.6208C8.6183 10.1998 9.36228 9.85006 10.0821 9.51328C10.2898 9.41613 10.4975 9.31898 10.6908 9.21859C11.3768 8.86886 12.1207 8.45113 12.2319 7.87149C12.3091 7.46995 12.0821 7.04897 11.5362 6.58266C11.3719 6.44342 11.3913 6.13903 11.5652 5.76339C11.5845 5.7893 11.6038 5.8152 11.628 5.8411C11.9613 6.26208 12.3043 6.69924 12.6956 7.11697C13.6232 8.10464 14.7053 8.31189 15.4493 8.31189C16.1932 8.31189 17.0097 8.10141 17.8116 7.69015C18.8116 7.17203 19.8116 6.628 20.773 6.10017C23.1594 4.7984 25.6281 3.45128 28.2996 2.44419C29.8117 1.87426 31.459 1.34966 33.261 1.34966C33.9518 1.34966 34.6281 1.43062 35.2803 1.5893C35.4639 1.63463 35.6716 1.6573 35.8987 1.6573C36.8455 1.6573 38.0194 1.24928 38.8165 0.941649C40.0823 0.452675 40.9035 0.242188 41.5605 0.242188C42.4736 0.242188 43.2562 0.659921 44.4543 1.78035C44.8166 2.12037 45.2224 2.44743 45.6137 2.76154C46.2755 3.29585 46.8987 3.79778 47.3528 4.37095C47.7296 4.84373 47.8649 5.58853 47.72 6.36247C47.6668 6.63124 47.4156 6.90649 47.1451 7.1947C46.918 7.4408 46.6813 7.69338 46.5364 7.97835C45.7441 9.54242 45.5992 10.8345 47.319 12.4374C49.5992 14.5682 52.4108 16.3136 55.1307 18.0007L55.5654 18.2727C56.4688 18.8362 56.9036 19.3867 56.8505 19.9145C56.7973 20.4424 56.2563 20.954 55.2466 21.4333C54.6379 21.7215 54.348 22.2719 54.092 22.7577C54.034 22.871 53.9712 22.9844 53.9084 23.0912C53.778 23.3114 53.8794 23.5446 53.9664 23.7518C53.9954 23.8198 54.0244 23.8846 54.0437 23.9494C54.6782 26.1751 53.4253 27.6572 50.2852 28.3955C49.6475 28.5444 48.9809 28.8585 48.406 29.2763C47.7441 29.7555 47.1113 30.2607 46.4929 30.7497C45.4156 31.6078 44.2997 32.4951 43.0485 33.2399C41.0968 34.4056 39.4736 35.7819 40.7876 37.9256C41.005 38.2786 41.0001 38.7319 40.9905 39.1723V39.3861C40.9905 41.2481 40.9615 42.7862 40.8987 44.2273C40.8939 44.3956 40.7779 44.5835 40.662 44.781L40.6475 44.8037L40.633 44.8004Z" fill="#A09589"/>
<path d="M40.633 44.8004C39.8939 44.5867 39.1595 44.3859 38.4446 44.1949C36.5315 43.68 34.7199 43.191 33.1547 42.4786C31.5556 41.75 29.5653 40.8433 29.2754 39.2177C29.1305 38.4016 28.5266 37.9127 27.6571 37.9127C27.1981 37.9127 26.7054 38.0616 26.2319 38.3401C25.0967 39.0072 24.2319 39.9009 23.5169 40.6878C23.1595 41.0829 22.9614 41.5298 22.7295 42.0479C22.6667 42.1904 22.5991 42.3426 22.5266 42.498C22.3285 42.3879 22.1305 42.2875 21.9469 42.1904C21.343 41.8795 20.8213 41.6075 20.6957 41.3193C19.9034 39.5156 17.8744 39.2727 15.8647 39.1788C14.8551 39.1303 14.2464 39.1043 13.7294 38.3498C13.3188 37.7572 12.1207 37.5111 10.9565 37.2747C10.7294 37.2262 10.5024 37.1808 10.2898 37.1355C10.0289 36.8667 10.1401 36.4134 10.256 35.9341C10.4009 35.3447 10.5652 34.6777 9.98063 34.2114C9.60382 33.9102 8.97579 33.7418 8.06274 33.703C7.97579 33.3662 7.89366 33.0326 7.8067 32.6991C7.56033 31.7341 7.33328 30.8209 7.05791 29.8948C6.63762 28.4667 5.28496 27.709 3.14968 27.709C2.96127 27.709 2.76319 27.7154 2.56512 27.7284C2.38638 27.7381 2.21247 27.7446 2.03855 27.7446C1.30425 27.7446 0.777682 27.6377 0.473332 27.4305C0.226954 27.2589 0.11101 27.0128 0.125503 26.676C0.135165 26.4299 0.101346 26.1773 0.0626985 25.9344C-0.062906 25.0536 -0.16435 24.3574 1.48783 23.8846L1.54097 23.8684C3.05788 23.4345 4.36707 23.0589 5.95162 23.0589C6.08206 23.0589 6.21733 23.0588 6.3526 23.0653C6.39608 23.0653 6.43955 23.0653 6.48303 23.0653C7.23183 23.0653 7.95647 22.7966 8.52169 22.3043C9.35744 21.5757 9.70044 20.5168 9.36711 19.6684C8.99029 18.6969 8.84054 17.9327 8.90334 17.2592L8.91783 17.094C9.03377 15.9379 9.16421 14.6362 7.0869 14.1278C7.18835 13.804 7.28497 13.4866 7.37192 13.1725C7.63279 12.2625 7.884 11.4044 8.36226 10.6208C8.6183 10.1998 9.36228 9.85006 10.0821 9.51328C10.2898 9.41613 10.4975 9.31898 10.6908 9.21859C11.3768 8.86886 12.1207 8.45113 12.2319 7.87149C12.3091 7.46995 12.0821 7.04897 11.5362 6.58266C11.3719 6.44342 11.3913 6.13903 11.5652 5.76339C11.5845 5.7893 11.6038 5.8152 11.628 5.8411C11.9613 6.26208 12.3043 6.69924 12.6956 7.11697C13.6232 8.10464 14.7053 8.31189 15.4493 8.31189C16.1932 8.31189 17.0097 8.10141 17.8116 7.69015C18.8116 7.17203 19.8116 6.628 20.773 6.10017C23.1594 4.7984 25.6281 3.45128 28.2996 2.44419C29.8117 1.87426 31.459 1.34966 33.261 1.34966C33.9518 1.34966 34.6281 1.43062 35.2803 1.5893C35.4639 1.63463 35.6716 1.6573 35.8987 1.6573C36.8455 1.6573 38.0194 1.24928 38.8165 0.941649C40.0823 0.452675 40.9035 0.242188 41.5605 0.242188C42.4736 0.242188 43.2562 0.659921 44.4543 1.78035C44.8166 2.12037 45.2224 2.44743 45.6137 2.76154C46.2755 3.29585 46.8987 3.79778 47.3528 4.37095C47.7296 4.84373 47.8649 5.58853 47.72 6.36247C47.6668 6.63124 47.4156 6.90649 47.1451 7.1947C46.918 7.4408 46.6813 7.69338 46.5364 7.97835C45.7441 9.54242 45.5992 10.8345 47.319 12.4374C49.5992 14.5682 52.4108 16.3136 55.1307 18.0007L55.5654 18.2727C56.4688 18.8362 56.9036 19.3867 56.8505 19.9145C56.7973 20.4424 56.2563 20.954 55.2466 21.4333C54.6379 21.7215 54.348 22.2719 54.092 22.7577C54.034 22.871 53.9712 22.9844 53.9084 23.0912C53.778 23.3114 53.8794 23.5446 53.9664 23.7518C53.9954 23.8198 54.0244 23.8846 54.0437 23.9494C54.6782 26.1751 53.4253 27.6572 50.2852 28.3955C49.6475 28.5444 48.9809 28.8585 48.406 29.2763C47.7441 29.7555 47.1113 30.2607 46.4929 30.7497C45.4156 31.6078 44.2997 32.4951 43.0485 33.2399C41.0968 34.4056 39.4736 35.7819 40.7876 37.9256C41.005 38.2786 41.0001 38.7319 40.9905 39.1723V39.3861C40.9905 41.2481 40.9615 42.7862 40.8987 44.2273C40.8939 44.3956 40.7779 44.5835 40.662 44.781L40.6475 44.8037L40.633 44.8004Z" fill="#FAEFE3"/>
</svg>
