<svg width="57" height="48" viewBox="0 0 57 48" fill="none" xmlns="http://www.w3.org/2000/svg">
<path d="M56.8639 28.8686C56.8583 28.6544 56.7612 28.4365 56.4977 28.2072L56.3521 28.0764H56.3563C55.9458 27.6983 55.5977 27.2871 55.2302 26.855C55.0707 26.6674 54.9071 26.4741 54.7337 26.278C54.7102 26.2978 54.688 26.3168 54.6658 26.3358C54.5618 26.4229 54.4813 26.493 54.4106 26.566C54.179 26.8105 53.8656 26.9289 53.4551 26.9289C53.2915 26.9289 53.1084 26.9109 52.881 26.8721L52.1792 26.7536C50.644 26.4949 49.0575 26.2268 47.4891 25.9889C46.4989 25.8392 45.4893 25.698 44.5116 25.5616C43.4285 25.41 42.3093 25.2536 41.211 25.085C40.849 25.03 40.4482 24.8585 40.1903 24.6491C38.8007 23.5196 37.3099 22.2774 35.6319 20.8494C35.4585 20.7016 35.3434 20.5234 35.2339 20.3519C35.1992 20.2989 35.1645 20.2449 35.1271 20.1928L35.1312 20.1909C35.1312 20.1909 35.1243 20.1871 35.1215 20.1852L35.1312 20.1814C35.1312 20.1814 35.1243 20.1776 35.1215 20.1757L35.1312 20.1719C35.1312 20.1719 35.1243 20.1681 35.1215 20.1662L35.1312 20.1624C35.1312 20.1624 35.1243 20.1586 35.1215 20.1567L35.1312 20.153C35.1312 20.153 35.1243 20.1492 35.1215 20.1473L35.1312 20.1435C35.1312 20.1435 35.1243 20.1397 35.1215 20.1378L35.1312 20.134C35.1312 20.134 35.1243 20.1302 35.1215 20.1283L35.1312 20.1245C35.1312 20.1245 35.1243 20.1207 35.1215 20.1188L35.1312 20.1151C35.1312 20.1151 35.1243 20.1113 35.1215 20.1094L35.1312 20.1056C35.1312 20.1056 35.1243 20.1018 35.1215 20.0999L35.1312 20.0961C35.1312 20.0961 35.1243 20.0923 35.1215 20.0904L35.1312 20.0866C35.1312 20.0866 35.1243 20.0828 35.1215 20.0809L35.1312 20.0771C35.1312 20.0771 35.1243 20.0734 35.1215 20.0715L35.1312 20.0677C35.1312 20.0677 35.1243 20.0639 35.1215 20.062L35.1312 20.0582C35.1312 20.0582 35.1243 20.0544 35.1215 20.0525L35.1312 20.0487C35.1312 20.0487 35.1243 20.0449 35.1215 20.043L35.1312 20.0392C35.1312 20.0392 35.1243 20.0355 35.1215 20.0336L35.1312 20.0298C35.1312 20.0298 35.1243 20.026 35.1215 20.0241L35.1312 20.0203C35.1312 20.0203 35.1243 20.0165 35.1215 20.0146L35.1312 20.0108C35.1146 20.0013 35.0966 19.9909 35.0799 19.9814C34.8705 19.8602 34.6722 19.7465 34.4101 19.7465C34.313 19.7465 34.2118 19.7607 34.1022 19.791C34.0745 19.7986 34.0468 19.8043 34.0204 19.808C34.0232 19.8052 34.0246 19.8024 34.0273 19.7995L34.0135 19.8052C34.0176 19.7995 34.0232 19.7948 34.0273 19.79L34.0135 19.7957C34.0176 19.79 34.0232 19.7853 34.0273 19.7806L34.0135 19.7862C34.0176 19.7806 34.0232 19.7758 34.0273 19.7711L34.0135 19.7768C34.0176 19.7711 34.0232 19.7664 34.0273 19.7616L34.0135 19.7673C34.0176 19.7616 34.0232 19.7569 34.0273 19.7521L34.0135 19.7578C34.0176 19.7521 34.0232 19.7474 34.0273 19.7427L34.0135 19.7483C34.0176 19.7427 34.0232 19.7379 34.0273 19.7332L34.0135 19.7389C34.0176 19.7332 34.0232 19.7285 34.0273 19.7237L34.0135 19.7294C34.0176 19.7237 34.0232 19.719 34.0273 19.7142L34.0135 19.7199C34.0176 19.7142 34.0232 19.7095 34.0273 19.7048L34.0135 19.7104C34.0176 19.7048 34.0232 19.7 34.0273 19.6953L34.0135 19.701C34.0176 19.6953 34.0232 19.6905 34.0273 19.6858L34.0135 19.6915C34.0176 19.6858 34.0232 19.6811 34.0273 19.6763L34.0135 19.682C34.0176 19.6763 34.0232 19.6716 34.0273 19.6669L34.0135 19.6725C34.0176 19.6669 34.0232 19.6621 34.0273 19.6574L34.0135 19.6631C34.0176 19.6574 34.0232 19.6526 34.0273 19.6479L34.0135 19.6536C34.0176 19.6479 34.0232 19.6432 34.0273 19.6384L34.0135 19.6441C34.0176 19.6384 34.0232 19.6337 34.0273 19.629L34.0135 19.6346C34.0176 19.629 34.0232 19.6242 34.0273 19.6195L34.0135 19.6252C34.0176 19.6195 34.0232 19.6147 34.0273 19.61L34.0135 19.6157C34.0176 19.61 34.0232 19.6053 34.0273 19.6005L34.0135 19.6062C34.0176 19.6005 34.0232 19.5958 34.0273 19.5911L34.0135 19.5967C34.0176 19.5911 34.0232 19.5863 34.0273 19.5816L34.0135 19.5873C34.0176 19.5816 34.0232 19.5768 34.0273 19.5721L34.0135 19.5778C34.0176 19.5721 34.0232 19.5674 34.0273 19.5626L34.0135 19.5683C34.0176 19.5626 34.0232 19.5579 34.0273 19.5532L34.0135 19.5588C34.0176 19.5532 34.0232 19.5484 34.0273 19.5437L34.0135 19.5494C34.0176 19.5437 34.0232 19.5389 34.0273 19.5342L34.0135 19.5399C34.0176 19.5342 34.0232 19.5295 34.0273 19.5247L34.0135 19.5304C34.0176 19.5247 34.0232 19.52 34.0273 19.5152L34.0135 19.5209C34.0176 19.5152 34.0232 19.5105 34.0273 19.5058L34.0135 19.5115C34.0176 19.5058 34.0232 19.501 34.0273 19.4963L34.0135 19.502C34.0176 19.4963 34.0232 19.4916 34.0273 19.4868L34.0135 19.4925C34.0176 19.4868 34.0232 19.4821 34.0273 19.4773L34.0135 19.483C34.0176 19.4773 34.0232 19.4726 34.0273 19.4679L34.0135 19.4736C34.0176 19.4679 34.0232 19.4631 34.0273 19.4584L34.0135 19.4641C34.0176 19.4584 34.0232 19.4537 34.0273 19.4489L34.0135 19.4546C34.0176 19.4489 34.0232 19.4442 34.0273 19.4394L34.0135 19.4451C34.0176 19.4394 34.0232 19.4347 34.0273 19.43L34.0135 19.4357C34.0176 19.43 34.0232 19.4252 34.0273 19.4205L34.0135 19.4262C34.0176 19.4205 34.0232 19.4158 34.0273 19.411L34.0135 19.4167C34.0176 19.411 34.0232 19.4063 34.0273 19.4015L34.0135 19.4072C34.0176 19.4015 34.0232 19.3968 34.0273 19.3921L34.0135 19.3978C34.0176 19.3921 34.0232 19.3873 34.0273 19.3826L34.0135 19.3883C34.0176 19.3826 34.0232 19.3779 34.0273 19.3731L34.0135 19.3788C34.0176 19.3731 34.0232 19.3684 34.0273 19.3636L34.0135 19.3693C34.0176 19.3636 34.0232 19.3589 34.0273 19.3542L34.0135 19.3598C34.0176 19.3542 34.0232 19.3494 34.0273 19.3447L34.0135 19.3504C34.0176 19.3447 34.0232 19.34 34.0273 19.3352L34.0135 19.3409C34.0176 19.3352 34.0232 19.3305 34.0273 19.3257L34.0135 19.3314C34.0176 19.3257 34.0232 19.321 34.0273 19.3163L34.0135 19.3219C34.0176 19.3163 34.0232 19.3115 34.0273 19.3068L34.0135 19.3125C34.0176 19.3068 34.0232 19.3021 34.0273 19.2973L34.0135 19.303C34.0176 19.2973 34.0232 19.2926 34.0273 19.2878L34.0135 19.2935C34.0176 19.2878 34.0232 19.2831 34.0273 19.2784L34.0135 19.284C34.0176 19.2784 34.0232 19.2736 34.0273 19.2689L34.0135 19.2746C34.0176 19.2689 34.0232 19.2641 34.0273 19.2594L34.0135 19.2651C34.0176 19.2594 34.0232 19.2547 34.0273 19.2499L34.0135 19.2556C34.0176 19.2499 34.0232 19.2452 34.0273 19.2405L34.0135 19.2461C34.0176 19.2405 34.0232 19.2357 34.0273 19.231L34.0135 19.2367C34.0176 19.231 34.0232 19.2262 34.0273 19.2215L34.0135 19.2272C34.0176 19.2215 34.0232 19.2168 34.0273 19.212L34.0135 19.2177C34.0176 19.212 34.0232 19.2073 34.0273 19.2026L34.0135 19.2082C34.0176 19.2026 34.0232 19.1978 34.0273 19.1931L34.0135 19.1988C34.0176 19.1931 34.0232 19.1883 34.0273 19.1836L34.0135 19.1893C34.0176 19.1836 34.0232 19.1789 34.0273 19.1741L34.0135 19.1798C34.0176 19.1741 34.0232 19.1694 34.0273 19.1647L34.0135 19.1703C34.0176 19.1647 34.0232 19.1599 34.0273 19.1552L34.0135 19.1609C34.0176 19.1552 34.0232 19.1504 34.0273 19.1457L34.0135 19.1514C34.0176 19.1457 34.0232 19.141 34.0273 19.1362L34.0135 19.1419C34.0176 19.1362 34.0232 19.1315 34.0273 19.1268L34.0135 19.1324C34.0176 19.1268 34.0232 19.122 34.0273 19.1173L34.0135 19.123C34.0176 19.1173 34.0232 19.1125 34.0273 19.1078L34.0135 19.1135C34.0176 19.1078 34.0232 19.1031 34.0273 19.0983L34.0135 19.104C34.0176 19.0983 34.0232 19.0936 34.0273 19.0889L34.0135 19.0945C34.0176 19.0889 34.0232 19.0841 34.0273 19.0794L34.0135 19.0851C34.0176 19.0794 34.0232 19.0746 34.0273 19.0699L34.0135 19.0756C34.0176 19.0699 34.0232 19.0652 34.0273 19.0604L34.0135 19.0661C34.0176 19.0604 34.0232 19.0557 34.0273 19.0509L34.0135 19.0566C34.0176 19.0509 34.0232 19.0462 34.0273 19.0415L34.0135 19.0472C34.0176 19.0415 34.0232 19.0367 34.0273 19.032L34.0135 19.0377C34.0176 19.032 34.0232 19.0273 34.0273 19.0225L34.0135 19.0282C34.0176 19.0225 34.0232 19.0178 34.0273 19.013L34.0135 19.0187C34.0176 19.013 34.0232 19.0083 34.0273 19.0036L34.0135 19.0093C34.0176 19.0036 34.0232 18.9988 34.0273 18.9941L34.0135 18.9998C34.0176 18.9941 34.0232 18.9894 34.0273 18.9846L34.0135 18.9903C34.0176 18.9846 34.0232 18.9799 34.0273 18.9751L34.0135 18.9808C34.0176 18.9751 34.0232 18.9704 34.0273 18.9657L34.0135 18.9714C34.0176 18.9657 34.0232 18.9609 34.0273 18.9562L34.0135 18.9619C34.0176 18.9562 34.0232 18.9515 34.0273 18.9467L34.0135 18.9524C34.0176 18.9467 34.0232 18.942 34.0273 18.9372L34.0135 18.9429C34.0176 18.9372 34.0232 18.9325 34.0273 18.9278L34.0135 18.9334C34.0176 18.9278 34.0232 18.923 34.0273 18.9183L34.0135 18.924C34.0176 18.9183 34.0232 18.9136 34.0273 18.9088L34.0135 18.9145C34.0176 18.9088 34.0232 18.9041 34.0273 18.8993L34.0135 18.905C34.0176 18.8993 34.0232 18.8946 34.0273 18.8899L34.0135 18.8955C34.0176 18.8899 34.0232 18.8851 34.0273 18.8804L34.0135 18.8861C34.0176 18.8804 34.0232 18.8757 34.0273 18.8709L33.7819 18.9808C33.7819 18.9808 33.5739 18.6369 33.56 18.6132C33.4241 18.6302 33.2909 18.652 33.1606 18.6729C32.9165 18.7127 32.6863 18.7496 32.47 18.7496C32.3646 18.7496 32.2703 18.7411 32.1815 18.7221C31.8764 18.6577 31.6351 18.4815 31.4021 18.3109C31.3314 18.2588 31.2579 18.2057 31.1844 18.1565C31.1539 18.1745 30.9694 18.2796 30.9694 18.2796L30.9056 18.1839C30.8294 18.0702 30.7545 17.9584 30.6824 17.8485C30.527 17.6145 30.38 17.3937 30.2247 17.1729C30.1443 17.0592 30.0541 16.9445 29.9682 16.8337C29.8267 16.6517 29.6797 16.4641 29.5632 16.2689C29.4828 16.1325 29.4453 15.9932 29.4093 15.8586C29.3288 15.5554 29.254 15.2693 28.677 15.0485C27.6092 14.6382 27.2611 13.7551 27.0822 13.0226C26.9935 12.9724 26.9103 12.9193 26.8381 12.8644C26.8409 12.8577 26.8437 12.8511 26.8465 12.8445L26.8867 12.7298C26.8867 12.7298 27.3402 12.944 27.4761 13.0084L27.4872 12.9961C27.5704 12.9042 27.6661 12.798 27.7659 12.6947C27.8311 12.6275 27.8602 12.5393 27.8477 12.4512C27.8477 12.4484 27.8477 12.4446 27.8477 12.4417C27.8477 12.4389 27.8477 12.4351 27.8477 12.4323C27.8477 12.4294 27.8477 12.4256 27.8477 12.4228C27.8477 12.42 27.8477 12.4162 27.8477 12.4133C27.8477 12.4105 27.8477 12.4067 27.8477 12.4038C27.8477 12.401 27.8477 12.3972 27.8477 12.3944C27.8477 12.3915 27.8477 12.3877 27.8477 12.3849C27.8477 12.3821 27.8477 12.3783 27.8477 12.3754C27.8477 12.3726 27.8477 12.3688 27.8477 12.3659C27.8477 12.3631 27.8477 12.3593 27.8477 12.3565C27.8477 12.3536 27.8477 12.3498 27.8477 12.347C27.8477 12.3442 27.8477 12.3404 27.8477 12.3375C27.8477 12.3347 27.8477 12.3309 27.8477 12.328C27.8477 12.3252 27.8477 12.3214 27.8477 12.3186C27.8477 12.3157 27.8477 12.3119 27.8477 12.3091C27.8477 12.3062 27.8477 12.3025 27.8477 12.2996C27.8477 12.2968 27.8477 12.293 27.8477 12.2901C27.8477 12.2873 27.8477 12.2835 27.8477 12.2807C27.8477 12.2778 27.8477 12.274 27.8477 12.2712C27.8477 12.2683 27.8477 12.2646 27.8477 12.2617C27.8477 12.2589 27.8477 12.2551 27.8477 12.2522C27.8477 12.2494 27.8477 12.2456 27.8477 12.2428C27.8477 12.2399 27.8477 12.2361 27.8477 12.2333C27.8477 12.2304 27.8477 12.2267 27.8477 12.2238C27.8477 12.221 27.8477 12.2172 27.8477 12.2143C27.8477 12.2115 27.8477 12.2077 27.8477 12.2049C27.8477 12.202 27.8477 12.1982 27.8477 12.1954C27.8477 12.1925 27.8477 12.1888 27.8477 12.1859C27.8477 12.1831 27.8477 12.1793 27.8477 12.1764C27.8477 12.1736 27.8477 12.1698 27.8477 12.167C27.8477 12.1641 27.8477 12.1603 27.8477 12.1575C27.8477 12.1546 27.8477 12.1508 27.8477 12.148C27.8477 12.1452 27.8477 12.1414 27.8477 12.1385C27.8477 12.1357 27.8477 12.1319 27.8477 12.1291C27.8477 12.1262 27.8477 12.1224 27.8477 12.1196C27.8477 12.1167 27.8477 12.1129 27.8477 12.1101C27.8477 12.1073 27.8477 12.1035 27.8477 12.1006C27.8477 12.0978 27.8477 12.094 27.8477 12.0912C27.8477 12.0883 27.8477 12.0845 27.8477 12.0817C27.8477 12.0788 27.8477 12.075 27.8477 12.0722C27.8477 12.0694 27.8477 12.0656 27.8477 12.0627C27.8477 12.0599 27.8477 12.0561 27.8477 12.0533C27.8477 12.0504 27.8477 12.0466 27.8477 12.0438C27.8477 12.0409 27.8477 12.0371 27.8477 12.0343C27.8477 12.0315 27.8477 12.0277 27.8477 12.0248C27.8477 12.022 27.8477 12.0182 27.8477 12.0153C27.8477 12.0125 27.8477 12.0087 27.8477 12.0059C27.8477 12.003 27.8477 11.9992 27.8477 11.9964C27.8477 11.9936 27.8477 11.9898 27.8477 11.9869C27.8477 11.9841 27.8477 11.9803 27.8477 11.9774C27.8477 11.9746 27.8477 11.9708 27.8477 11.968C27.8477 11.9651 27.8477 11.9613 27.8477 11.9585C27.8477 11.9557 27.8477 11.9519 27.8477 11.949C27.8477 11.9462 27.8477 11.9424 27.8477 11.9395C27.8477 11.9367 27.8477 11.9329 27.8477 11.9301C27.8477 11.9272 27.8477 11.9234 27.8477 11.9206C27.8477 11.9178 27.8477 11.914 27.8477 11.9111C27.8477 11.9083 27.8477 11.9045 27.8477 11.9016C27.8477 11.8988 27.8477 11.895 27.8477 11.8922C27.8477 11.8893 27.8477 11.8855 27.8477 11.8827C27.8477 11.8799 27.8477 11.8761 27.8477 11.8732C27.8477 11.8704 27.8477 11.8666 27.8477 11.8637C27.8477 11.8609 27.8477 11.8571 27.8477 11.8543C27.8477 11.8514 27.8477 11.8476 27.8477 11.8448C27.8477 11.8419 27.8477 11.8382 27.8477 11.8353C27.8477 11.8325 27.8477 11.8287 27.8477 11.8258C27.8477 11.823 27.8477 11.8192 27.8477 11.8164C27.8477 11.8135 27.8477 11.8097 27.8477 11.8069C27.8477 11.804 27.8477 11.8003 27.8477 11.7974C27.8477 11.7946 27.8477 11.7908 27.8477 11.7879C27.8477 11.7851 27.8477 11.7813 27.8477 11.7785C27.8477 11.7756 27.8477 11.7718 27.8477 11.769C27.8477 11.7661 27.8477 11.7624 27.8477 11.7595C27.8477 11.7567 27.8477 11.7529 27.8477 11.75C27.8477 11.7472 27.8477 11.7434 27.8477 11.7406C27.8477 11.7377 27.8477 11.7339 27.8477 11.7311C27.8477 11.7282 27.8477 11.7245 27.8477 11.7216C27.8477 11.7188 27.8477 11.715 27.8477 11.7121C27.8477 11.7093 27.8477 11.7055 27.8477 11.7027C27.8477 11.6998 27.8477 11.696 27.8477 11.6932C27.8477 11.6903 27.8477 11.6865 27.8477 11.6837C27.8477 11.6809 27.8477 11.6771 27.8477 11.6742C27.8477 11.6714 27.8477 11.6676 27.8477 11.6648C27.8477 11.6619 27.8477 11.6581 27.8477 11.6553C27.8477 11.6524 27.8477 11.6486 27.8477 11.6458C27.8477 11.643 27.8477 11.6392 27.8477 11.6363C27.8477 11.6335 27.8477 11.6297 27.8477 11.6269C27.8477 11.624 27.8477 11.6202 27.8477 11.6174C27.8477 11.6145 27.8477 11.6107 27.8477 11.6079C27.8477 11.6051 27.8477 11.6013 27.8477 11.5984C27.8477 11.5956 27.8477 11.5918 27.8477 11.589C27.8477 11.5861 27.8477 11.5823 27.8477 11.5795C27.8477 11.5766 27.8477 11.5728 27.8477 11.57C27.8477 11.5672 27.8477 11.5634 27.8477 11.5605C27.8477 11.5577 27.8477 11.5539 27.8477 11.551C27.8477 11.5482 27.8477 11.5444 27.8477 11.5416C27.8477 11.5387 27.8477 11.5349 27.8477 11.5321C27.8477 11.5293 27.8477 11.5255 27.8477 11.5226C27.8477 11.5198 27.8477 11.516 27.8477 11.5131C27.8477 11.5103 27.8477 11.5065 27.8477 11.5037C27.845 11.4715 27.8366 11.4392 27.8228 11.408C27.7798 11.3123 27.6938 11.2402 27.5842 11.2099C27.2098 11.1029 26.8673 10.8489 26.6856 10.558C26.6856 10.558 26.6856 10.5523 26.6856 10.5485C26.6856 10.5447 26.6856 10.5428 26.6856 10.5391C26.6856 10.5353 26.6856 10.5334 26.6856 10.5296C26.6856 10.5258 26.6856 10.5239 26.6856 10.5201C26.6856 10.5163 26.6856 10.5144 26.6856 10.5106C26.6856 10.5068 26.6856 10.5049 26.6856 10.5012C26.6856 10.4974 26.6856 10.4955 26.6856 10.4917C26.6856 10.4879 26.6856 10.486 26.6856 10.4822C26.6856 10.4784 26.6856 10.4765 26.6856 10.4727C26.6856 10.4689 26.6856 10.467 26.6856 10.4633C26.6856 10.4595 26.6856 10.4576 26.6856 10.4538C26.6856 10.45 26.6856 10.4481 26.6856 10.4443C26.6856 10.4405 26.6856 10.4386 26.6856 10.4348C26.6856 10.431 26.6856 10.4291 26.6856 10.4254C26.6856 10.4216 26.6856 10.4197 26.6856 10.4159C26.6856 10.4121 26.6856 10.4102 26.6856 10.4064C26.6856 10.4026 26.6856 10.4007 26.6856 10.3969C26.6856 10.3931 26.6856 10.3912 26.6856 10.3874C26.6856 10.3837 26.6856 10.3818 26.6856 10.378C26.6856 10.3742 26.6856 10.3723 26.6856 10.3685C26.6856 10.3647 26.6856 10.3628 26.6856 10.359C26.6856 10.3552 26.6856 10.3533 26.6856 10.3495C26.6856 10.3458 26.6856 10.3439 26.6856 10.3401C26.6856 10.3363 26.6856 10.3344 26.6856 10.3306C26.6856 10.3268 26.6856 10.3249 26.6856 10.3211C26.6856 10.3173 26.6856 10.3154 26.6856 10.3116C26.6856 10.3079 26.6856 10.306 26.6856 10.3022C26.6856 10.2984 26.6856 10.2965 26.6856 10.2927C26.6856 10.2889 26.6856 10.287 26.6856 10.2832C26.6856 10.2794 26.6856 10.2775 26.6856 10.2737C26.6856 10.27 26.6856 10.2681 26.6856 10.2643C26.6856 10.2605 26.6856 10.2586 26.6856 10.2548C26.6856 10.251 26.6856 10.2491 26.6856 10.2453C26.6856 10.2415 26.6856 10.2396 26.6856 10.2358C26.6856 10.232 26.6856 10.2302 26.6856 10.2264C26.6856 10.2226 26.6856 10.2207 26.6856 10.2169C26.6856 10.2131 26.6856 10.2112 26.6856 10.2074C26.6856 10.2036 26.6856 10.2017 26.6856 10.1979C26.6856 10.1941 26.6856 10.1923 26.6856 10.1885C26.6856 10.1847 26.6856 10.1828 26.6856 10.179C26.6856 10.1752 26.6856 10.1733 26.6856 10.1695C26.6856 10.1657 26.6856 10.1638 26.6856 10.16C26.6856 10.1562 26.6856 10.1544 26.6856 10.1506C26.6856 10.1468 26.6856 10.1449 26.6856 10.1411C26.6856 10.1373 26.6856 10.1354 26.6856 10.1316C26.6856 10.1278 26.6856 10.1259 26.6856 10.1221C26.6856 10.1183 26.6856 10.1164 26.6856 10.1127C26.6856 10.1089 26.6856 10.107 26.6856 10.1032C26.6856 10.0994 26.6856 10.0975 26.6856 10.0937C26.6856 10.0899 26.6856 10.088 26.6856 10.0842C26.6856 10.0804 26.6856 10.0785 26.6856 10.0748C26.6856 10.071 26.6856 10.0691 26.6856 10.0653C26.6856 10.0615 26.6856 10.0596 26.6856 10.0558C26.6856 10.052 26.6856 10.0501 26.6856 10.0463C26.6856 10.0425 26.6856 10.0406 26.6856 10.0369C26.6856 10.0331 26.6856 10.0312 26.6856 10.0274C26.6856 10.0236 26.6856 10.0217 26.6856 10.0179C26.6856 10.0141 26.6856 10.0122 26.6856 10.0084C26.6856 10.0046 26.6856 10.0027 26.6856 9.99895C26.6856 9.99516 26.6856 9.99327 26.6856 9.98948C26.6856 9.98569 26.6856 9.98379 26.6856 9.98C26.6856 9.97621 26.6856 9.97432 26.6856 9.97052C26.6856 9.96673 26.6856 9.96484 26.6856 9.96105C26.6856 9.95726 26.6856 9.95536 26.6856 9.95157C26.6856 9.94778 26.6856 9.94589 26.6856 9.9421C26.6856 9.93831 26.6856 9.93641 26.6856 9.93262C26.6856 9.92883 26.6856 9.92694 26.6856 9.92315C26.6856 9.91936 26.6856 9.91746 26.6856 9.91367C26.6856 9.90988 26.6856 9.90799 26.6856 9.90419C26.6856 9.9004 26.6856 9.89851 26.6856 9.89472C26.6856 9.89093 26.6856 9.88903 26.6856 9.88524C26.6856 9.88145 26.6856 9.87956 26.6856 9.87577C26.6856 9.87198 26.6856 9.87008 26.6856 9.86629C26.6856 9.8625 26.6856 9.86061 26.6856 9.85682C26.6856 9.85303 26.6856 9.85113 26.6856 9.84734C26.6856 9.84355 26.6856 9.84166 26.6856 9.83787C26.6856 9.83408 26.6856 9.83218 26.6856 9.82839C26.6856 9.8246 26.6856 9.82271 26.6856 9.81892C26.6856 9.81513 26.6856 9.81323 26.6856 9.80944C26.6856 9.80565 26.6856 9.80375 26.6856 9.79996C26.6856 9.79618 26.6856 9.79428 26.6856 9.79049C26.6856 9.7867 26.6856 9.7848 26.6856 9.78101C26.6856 9.77722 26.6856 9.77533 26.6856 9.77154C26.6856 9.76775 26.6856 9.76585 26.6856 9.76206C26.6856 9.75827 26.6856 9.75638 26.6856 9.75259C26.6856 9.7488 26.6856 9.7469 26.6856 9.74311C26.6856 9.73932 26.6856 9.73743 26.6856 9.73364C26.6856 9.72985 26.6856 9.72795 26.6856 9.72416C26.6856 9.72037 26.6856 9.71847 26.6856 9.71468C26.6856 9.71089 26.6856 9.709 26.6856 9.70521C26.6856 9.70142 26.6856 9.69952 26.6856 9.69573C26.6856 9.69194 26.6856 9.69005 26.6856 9.68626C26.6911 9.64362 26.6842 9.60761 26.6634 9.58013C26.6093 9.51001 26.454 9.4759 26.2945 9.45032C25.6497 9.34703 25.1615 9.11488 24.8009 8.7406C24.6082 8.54161 24.4251 8.37768 24.1353 8.37768C24.0465 8.37768 23.948 8.39285 23.8426 8.42317C23.8107 8.43264 23.7733 8.43738 23.7303 8.43738C23.5819 8.43738 23.324 8.37295 23.2574 8.27061C23.1603 8.11995 23.1035 7.95792 23.048 7.80157C23.0244 7.73619 23.0022 7.66986 22.9759 7.60448C22.9717 7.59311 22.962 7.57984 22.9509 7.56468L22.8317 7.58648C22.7494 7.60164 22.7027 7.60922 22.6916 7.60922H22.6306L22.539 7.52015H22.5404C22.5404 7.52015 22.539 7.5192 22.5377 7.5192L22.5321 7.51351L22.5404 7.51067C22.5404 7.51067 22.5307 7.50878 22.5252 7.50783L22.5404 7.50119C22.5349 7.50025 22.528 7.4993 22.5238 7.49741L22.5404 7.49172C22.5404 7.49172 22.528 7.48982 22.5238 7.48793L22.5404 7.48224C22.5404 7.48224 22.528 7.48035 22.5238 7.47845L22.5404 7.47277C22.5404 7.47277 22.528 7.47087 22.5238 7.46898L22.5404 7.46329C22.5404 7.46329 22.528 7.4614 22.5238 7.4595L22.5404 7.45382C22.5404 7.45382 22.528 7.45192 22.5238 7.45003L22.5404 7.44434C22.5404 7.44434 22.528 7.44245 22.5238 7.44055L22.5404 7.43487C22.5404 7.43487 22.528 7.43297 22.5238 7.43108L22.5404 7.42539C22.5404 7.42539 22.528 7.4235 22.5238 7.4216L22.5404 7.41592C22.5404 7.41592 22.528 7.41402 22.5238 7.41213L22.5404 7.40644C22.5404 7.40644 22.528 7.40454 22.5238 7.40265L22.5404 7.39696C22.5404 7.39696 22.528 7.39507 22.5238 7.39317L22.5404 7.38749C22.5404 7.38749 22.528 7.38559 22.5238 7.3837L22.5404 7.37801C22.5404 7.37801 22.528 7.37612 22.5238 7.37422L22.5404 7.36854C22.5404 7.36854 22.528 7.36664 22.5238 7.36475L22.5404 7.35906C22.5404 7.35906 22.528 7.35717 22.5238 7.35527L22.5404 7.34959C22.5404 7.34959 22.528 7.34769 22.5238 7.3458L22.5404 7.34011C22.5404 7.34011 22.528 7.33822 22.5238 7.33632L22.5404 7.33064C22.5404 7.33064 22.528 7.32874 22.5238 7.32685L22.5404 7.32116C22.5404 7.32116 22.528 7.31927 22.5238 7.31737L22.5404 7.31168C22.5404 7.31168 22.528 7.30979 22.5238 7.30789L22.5404 7.30221C22.5404 7.30221 22.528 7.30031 22.5238 7.29842L22.5404 7.29273C22.5404 7.29273 22.528 7.29084 22.5238 7.28894L22.5404 7.28326C22.5404 7.28326 22.528 7.28136 22.5238 7.27947L22.5404 7.27378C22.5404 7.27378 22.528 7.27189 22.5238 7.26999L22.5404 7.26431C22.5404 7.26431 22.528 7.26241 22.5238 7.26052L22.5404 7.25483C22.5404 7.25483 22.528 7.25294 22.5238 7.25104L22.5404 7.24536C22.5404 7.24536 22.528 7.24346 22.5238 7.24157L22.5404 7.23588C22.5404 7.23588 22.528 7.23398 22.5238 7.23209L22.5404 7.2264C22.5404 7.2264 22.528 7.22451 22.5238 7.22261L22.5404 7.21693C22.5404 7.21693 22.528 7.21503 22.5238 7.21314L22.5404 7.20745C22.5404 7.20745 22.528 7.20556 22.5238 7.20366L22.5404 7.19798C22.5404 7.19798 22.528 7.19608 22.5238 7.19419L22.5404 7.1885C22.5404 7.1885 22.528 7.18661 22.5238 7.18471L22.5404 7.17903C22.5404 7.17903 22.528 7.17713 22.5238 7.17524L22.5404 7.16955C22.5404 7.16955 22.528 7.16766 22.5238 7.16576L22.5404 7.16008C22.5404 7.16008 22.528 7.15818 22.5238 7.15628L22.5404 7.1506C22.5404 7.1506 22.528 7.14871 22.5238 7.14681L22.5404 7.14113C22.5404 7.14113 22.528 7.13923 22.5238 7.13733L22.5404 7.13165C22.5404 7.13165 22.528 7.12975 22.5238 7.12786L22.5404 7.12217C22.5404 7.12217 22.528 7.12028 22.5238 7.11838L22.5404 7.1127C22.5404 7.1127 22.528 7.1108 22.5238 7.10891L22.5404 7.10322C22.5404 7.10322 22.528 7.10133 22.5238 7.09943L22.5404 7.09375C22.5404 7.09375 22.528 7.09185 22.5238 7.08996L22.5404 7.08427C22.5404 7.08427 22.528 7.08238 22.5238 7.08048L22.5404 7.0748C22.5404 7.0748 22.528 7.0729 22.5238 7.07101L22.5404 7.06532C22.5404 7.06532 22.528 7.06342 22.5238 7.06153L22.5404 7.05584C22.5404 7.05584 22.528 7.05395 22.5238 7.05205L22.5404 7.04637C22.5404 7.04637 22.528 7.04447 22.5238 7.04258L22.5404 7.03689C22.5404 7.03689 22.528 7.035 22.5238 7.0331L22.5404 7.02742C22.5404 7.02742 22.528 7.02552 22.5238 7.02363L22.5404 7.01794C22.5404 7.01794 22.528 7.01605 22.5238 7.01415L22.5404 7.00847C22.5404 7.00847 22.528 7.00657 22.5238 7.00468L22.5404 6.99899C22.5404 6.99899 22.528 6.9971 22.5238 6.9952L22.5404 6.98952C22.5404 6.98952 22.528 6.98762 22.5238 6.98573L22.5404 6.98004C22.5404 6.98004 22.528 6.97815 22.5238 6.97625L22.5404 6.97056C22.5404 6.97056 22.528 6.96867 22.5238 6.96677L22.5404 6.96109C22.5404 6.96109 22.528 6.95919 22.5238 6.9573L22.5404 6.95161C22.5404 6.95161 22.528 6.94972 22.5238 6.94782L22.5404 6.94214C22.5404 6.94214 22.528 6.94024 22.5238 6.93835L22.5404 6.93266C22.5404 6.93266 22.528 6.93077 22.5238 6.92887L22.5404 6.92319C22.5404 6.92319 22.528 6.92129 22.5238 6.9194L22.5404 6.91371C22.5404 6.91371 22.528 6.91182 22.5238 6.90992L22.5404 6.90424C22.5404 6.90424 22.528 6.90234 22.5238 6.90044L22.5404 6.89476C22.5404 6.89476 22.528 6.89287 22.5238 6.89097L22.5404 6.88528C22.5404 6.88528 22.528 6.88339 22.5238 6.88149L22.5404 6.87581C22.5404 6.87581 22.528 6.87391 22.5238 6.87202L22.5404 6.86633C22.5404 6.86633 22.528 6.86444 22.5238 6.86254L22.5404 6.85686C22.5404 6.85686 22.528 6.85496 22.5238 6.85307L22.5404 6.84738C22.5404 6.84738 22.528 6.84549 22.5238 6.84359L22.5404 6.83791C22.5404 6.83791 22.528 6.83601 22.5238 6.83412L22.5404 6.82843C22.5404 6.82843 22.528 6.82654 22.5238 6.82464L22.5404 6.81896C22.5404 6.81896 22.528 6.81706 22.5238 6.81517L22.5404 6.80948C22.5404 6.80948 22.528 6.80758 22.5238 6.80569L22.5404 6.8C22.5404 6.8 22.528 6.79811 22.5238 6.79622L22.5404 6.79053C22.5404 6.79053 22.528 6.78863 22.5238 6.78674L22.5404 6.78105C22.5404 6.78105 22.528 6.77916 22.5238 6.77726L22.5404 6.77158C22.5404 6.77158 22.528 6.76968 22.5238 6.76779L22.5404 6.7621C22.5404 6.7621 22.528 6.76021 22.5238 6.75831L22.5404 6.75263C22.5404 6.75263 22.528 6.75073 22.5238 6.74884L22.5404 6.74315C22.5404 6.74315 22.528 6.74126 22.5238 6.73936L22.5404 6.73368C22.5404 6.73368 22.528 6.73178 22.5238 6.72989L22.5404 6.7242C22.5404 6.7242 22.528 6.72231 22.5238 6.72041L22.5404 6.71473C22.5404 6.71473 22.528 6.71283 22.5238 6.71093L22.5404 6.70525C22.5404 6.70525 22.528 6.70335 22.5238 6.70146L22.5404 6.69577C22.5404 6.69577 22.528 6.69388 22.5238 6.69198L22.5404 6.6863C22.2201 6.62281 21.2604 6.43141 21.2604 6.43141C21.2493 6.43614 20.9262 6.58491 20.9262 6.58491L20.8582 6.529C20.8166 6.49489 20.7736 6.46078 20.7307 6.42667C20.585 6.31107 20.438 6.19357 20.3285 6.0666C20.3285 6.06375 20.3285 6.06091 20.3285 6.05712C20.3285 6.05428 20.3285 6.05144 20.3285 6.04765C20.3285 6.0448 20.3285 6.04196 20.3285 6.03817C20.3285 6.03533 20.3285 6.03249 20.3285 6.02869C20.3285 6.02585 20.3285 6.02301 20.3285 6.01922C20.3285 6.01638 20.3285 6.01353 20.3285 6.00974C20.3285 6.0069 20.3285 6.00406 20.3285 6.00027C20.3285 5.99743 20.3285 5.99458 20.3285 5.99079C20.3285 5.98795 20.3285 5.98511 20.3285 5.98132C20.3285 5.97847 20.3285 5.97563 20.3285 5.97184C20.3285 5.969 20.3285 5.96616 20.3285 5.96237C20.3285 5.95952 20.3285 5.95668 20.3285 5.95289C20.3285 5.95005 20.3285 5.94721 20.3285 5.94342C20.3285 5.94057 20.3285 5.93773 20.3285 5.93394C20.3285 5.9311 20.3285 5.92825 20.3285 5.92446C20.3285 5.92162 20.3285 5.91878 20.3285 5.91499C20.3285 5.91215 20.3285 5.9093 20.3285 5.90551C20.3285 5.90267 20.3285 5.89983 20.3285 5.89604C20.3285 5.89319 20.3285 5.89035 20.3285 5.88656C20.3285 5.88372 20.3285 5.88088 20.3285 5.87709C20.3285 5.87424 20.3285 5.8714 20.3285 5.86761C20.3285 5.86477 20.3285 5.86192 20.3285 5.85813C20.3285 5.85529 20.3285 5.85245 20.3285 5.84866C20.3285 5.84582 20.3285 5.84297 20.3285 5.83918C20.3285 5.83634 20.3285 5.8335 20.3285 5.82971C20.3285 5.82686 20.3285 5.82402 20.3285 5.82023C20.3285 5.81739 20.3285 5.81455 20.3285 5.81076C20.3285 5.80791 20.3285 5.80507 20.3285 5.80128C20.3285 5.79844 20.3285 5.7956 20.3285 5.79181C20.3285 5.78896 20.3285 5.78612 20.3285 5.78233C20.3285 5.77949 20.3285 5.77665 20.3285 5.77285C20.3285 5.77001 20.3285 5.76717 20.3285 5.76338C20.3285 5.76054 20.3285 5.75769 20.3285 5.7539C20.3285 5.75106 20.3285 5.74822 20.3285 5.74443C20.3285 5.74159 20.3285 5.73874 20.3285 5.73495C20.3285 5.73211 20.3285 5.72927 20.3285 5.72548C20.3285 5.72263 20.3285 5.71979 20.3285 5.716C20.3285 5.71316 20.3285 5.71032 20.3285 5.70653C20.3285 5.70368 20.3285 5.70084 20.3285 5.69705C20.3285 5.69421 20.3285 5.69136 20.3285 5.68757C20.3285 5.68473 20.3285 5.68189 20.3285 5.6781C20.3285 5.67526 20.3285 5.67241 20.3285 5.66862C20.3285 5.66578 20.3285 5.66294 20.3285 5.65915C20.3285 5.65631 20.3285 5.65346 20.3285 5.64967C20.3285 5.64683 20.3285 5.64399 20.3285 5.6402C20.3285 5.63735 20.3285 5.63451 20.3285 5.63072C20.3285 5.62788 20.3285 5.62504 20.3285 5.62125C20.3285 5.6184 20.3285 5.61556 20.3285 5.61177C20.3285 5.60893 20.3285 5.60608 20.3285 5.60229C20.3285 5.59945 20.3285 5.59661 20.3285 5.59282C20.3285 5.58998 20.3285 5.58713 20.3285 5.58334C20.3285 5.5805 20.3285 5.57766 20.3285 5.57387C20.3285 5.57102 20.3285 5.56818 20.3285 5.56439C20.3285 5.56155 20.3285 5.55871 20.3285 5.55492C20.3285 5.55207 20.3285 5.54923 20.3285 5.54544C20.3285 5.5426 20.3285 5.53976 20.3285 5.53597C20.3285 5.53312 20.3285 5.53028 20.3285 5.52649C20.3285 5.52365 20.3285 5.52081 20.3285 5.51702C20.3285 5.51417 20.3285 5.51133 20.3285 5.50754C20.3285 5.5047 20.3285 5.50185 20.3285 5.49806C20.3285 5.49522 20.3285 5.49238 20.3285 5.48859C20.3285 5.48575 20.3285 5.4829 20.3285 5.47911C20.3285 5.47627 20.3285 5.47343 20.3285 5.46964C20.3285 5.46679 20.3285 5.46395 20.3285 5.46016C20.3285 5.45732 20.3285 5.45448 20.3285 5.45069C20.3285 5.44784 20.3285 5.445 20.3285 5.44121C20.3285 5.43837 20.3285 5.43552 20.3285 5.43173C20.3285 5.42889 20.3285 5.42605 20.3285 5.42226C20.3285 5.41942 20.3285 5.41657 20.3285 5.41278C20.3285 5.40994 20.3285 5.4071 20.3285 5.40331C20.3285 5.40047 20.3285 5.39762 20.3285 5.39383C20.3285 5.39099 20.3285 5.38815 20.3285 5.38436C20.3285 5.38151 20.3285 5.37867 20.3285 5.37488C20.3285 5.37204 20.3285 5.3692 20.3285 5.36541C20.3285 5.36256 20.3285 5.35972 20.3285 5.35593C20.3285 5.35309 20.3285 5.35025 20.3285 5.34646C20.3285 5.34361 20.3285 5.34077 20.3285 5.33698C20.3285 5.33414 20.3285 5.33129 20.3285 5.3275C20.3285 5.32466 20.3285 5.32182 20.3285 5.31803C20.3285 5.31519 20.3285 5.31234 20.3285 5.30855C20.3285 5.30571 20.3285 5.30287 20.3285 5.29908C20.3285 5.29623 20.3285 5.29339 20.3285 5.2896C20.3285 5.28676 20.3285 5.28392 20.3285 5.28013C20.3285 5.27728 20.3285 5.27444 20.3285 5.27065C20.3285 5.26781 20.3285 5.26496 20.3285 5.26117C20.3285 5.25833 20.3285 5.25549 20.3285 5.2517C20.3285 5.24886 20.3285 5.24601 20.3285 5.24222C20.3285 5.23938 20.3285 5.23654 20.3285 5.23275C20.3285 5.22991 20.3285 5.22706 20.3285 5.22327C20.3285 5.21948 20.3285 5.21664 20.3285 5.2138C20.3285 5.1939 20.3271 5.174 20.3202 5.16547C20.2189 5.07545 20.1066 4.98638 19.9984 4.9011C19.8459 4.77982 19.6892 4.65474 19.5519 4.52113C19.4215 4.39321 19.3369 4.24634 19.2565 4.10421C19.2357 4.06726 19.2149 4.03125 19.1927 3.99524C19.1455 3.91659 19.1067 3.837 19.0693 3.7593C19.0415 3.7015 19.0138 3.64275 18.9819 3.5859C18.9528 3.53283 18.9167 3.48072 18.8793 3.42576C18.8044 3.31774 18.7281 3.20593 18.7031 3.08464C18.6088 2.60328 18.5145 2.54264 17.8544 2.54264H17.6616C17.4744 2.54264 17.2858 2.54169 17.0972 2.5398C16.91 2.5379 16.7228 2.53601 16.537 2.53601C16.1029 2.53601 15.7728 2.54548 15.465 2.56728C15.3762 2.57391 15.2902 2.57675 15.2098 2.57675C14.5677 2.57675 14.1378 2.37776 13.8951 1.96937C13.7869 1.78649 13.7564 1.58371 13.7273 1.38852V1.37904C13.6455 0.847462 13.2419 0.574567 12.4584 0.518661C12.1283 0.494972 11.7968 0.458965 11.4765 0.423906C11.0771 0.380318 10.6652 0.335782 10.2589 0.314936C10.055 0.30546 9.847 0.28272 9.64592 0.260926C9.37965 0.232499 9.10367 0.203125 8.84157 0.203125C8.37699 0.203125 8.03029 0.294089 7.71687 0.496866C7.55461 0.602992 7.27587 0.643738 7.07062 0.64658C5.3704 0.671217 4.07512 1.22838 3.22085 2.30196C3.05166 2.51421 2.88663 2.72741 2.7216 2.94061C2.01849 3.85027 1.2918 4.79119 0.275273 5.60135C0.0949879 5.74538 0.00623323 5.87424 0.0117804 6.00216C0.0117804 6.00501 0.0117804 6.0088 0.0117804 6.01164C0.0117804 6.01448 0.0117804 6.01827 0.0117804 6.02111C0.0117804 6.02396 0.0117804 6.02775 0.0117804 6.03059C0.0117804 6.03343 0.0117804 6.03722 0.0117804 6.04006C0.0117804 6.04291 0.0117804 6.0467 0.0117804 6.04954C0.0117804 6.05238 0.0117804 6.05617 0.0117804 6.05902C0.0117804 6.06186 0.0117804 6.06565 0.0117804 6.06849C0.0117804 6.07133 0.0117804 6.07513 0.0117804 6.07797C0.0117804 6.08081 0.0117804 6.0846 0.0117804 6.08744C0.0117804 6.09029 0.0117804 6.09408 0.0117804 6.09692C0.0117804 6.09976 0.0117804 6.10355 0.0117804 6.10639C0.0117804 6.10924 0.0117804 6.11303 0.0117804 6.11587C0.0117804 6.11871 0.0117804 6.1225 0.0117804 6.12535C0.0117804 6.12819 0.0117804 6.13198 0.0117804 6.13482C0.0117804 6.13766 0.0117804 6.14145 0.0117804 6.1443C0.0117804 6.14714 0.0117804 6.15093 0.0117804 6.15377C0.0117804 6.15661 0.0117804 6.1604 0.0117804 6.16325C0.0117804 6.16609 0.0117804 6.16988 0.0117804 6.17272C0.0117804 6.17557 0.0117804 6.17936 0.0117804 6.1822C0.0117804 6.18504 0.0117804 6.18883 0.0117804 6.19167C0.0117804 6.19452 0.0117804 6.19831 0.0117804 6.20115C0.0117804 6.20399 0.0117804 6.20778 0.0117804 6.21063C0.0117804 6.21347 0.0117804 6.21726 0.0117804 6.2201C0.0117804 6.22294 0.0117804 6.22673 0.0117804 6.22958C0.0117804 6.23242 0.0117804 6.23621 0.0117804 6.23905C0.0117804 6.24189 0.0117804 6.24568 0.0117804 6.24853C0.0117804 6.25137 0.0117804 6.25516 0.0117804 6.258C0.0117804 6.26085 0.0117804 6.26464 0.0117804 6.26748C0.0117804 6.27032 0.0117804 6.27411 0.0117804 6.27695C0.0117804 6.2798 0.0117804 6.28359 0.0117804 6.28643C0.0117804 6.28927 0.0117804 6.29306 0.0117804 6.2959C0.0117804 6.29875 0.0117804 6.30254 0.0117804 6.30538C0.0117804 6.30822 0.0117804 6.31201 0.0117804 6.31486C0.0117804 6.3177 0.0117804 6.32149 0.0117804 6.32433C0.0117804 6.32717 0.0117804 6.33097 0.0117804 6.33381C0.0117804 6.33665 0.0117804 6.34044 0.0117804 6.34328C0.0117804 6.34612 0.0117804 6.34992 0.0117804 6.35276C0.0117804 6.3556 0.0117804 6.35939 0.0117804 6.36223C0.0117804 6.36508 0.0117804 6.36887 0.0117804 6.37171C0.0117804 6.37455 0.0117804 6.37834 0.0117804 6.38119C0.0117804 6.38403 0.0117804 6.38782 0.0117804 6.39066C0.0117804 6.3935 0.0117804 6.39729 0.0117804 6.40014C0.0117804 6.40298 0.0117804 6.40677 0.0117804 6.40961C0.0117804 6.41246 0.0117804 6.41624 0.0117804 6.41909C0.0117804 6.42193 0.0117804 6.42572 0.0117804 6.42856C0.0117804 6.43141 0.0117804 6.43519 0.0117804 6.43804C0.0117804 6.44088 0.0117804 6.44467 0.0117804 6.44751C0.0117804 6.45036 0.0117804 6.45415 0.0117804 6.45699C0.0117804 6.45983 0.0117804 6.46362 0.0117804 6.46646C0.0117804 6.46931 0.0117804 6.4731 0.0117804 6.47594C0.0117804 6.47878 0.0117804 6.48257 0.0117804 6.48542C0.0117804 6.48826 0.0117804 6.49205 0.0117804 6.49489C0.0117804 6.49773 0.0117804 6.50152 0.0117804 6.50437C0.0117804 6.50721 0.0117804 6.511 0.0117804 6.51384C0.0117804 6.51669 0.0117804 6.52048 0.0117804 6.52332C0.0117804 6.52616 0.0117804 6.52995 0.0117804 6.53279C0.0117804 6.53564 0.0117804 6.53943 0.0117804 6.54227C0.0117804 6.54511 0.0117804 6.5489 0.0117804 6.55175C0.0117804 6.55459 0.0117804 6.55838 0.0117804 6.56122C0.0117804 6.56406 0.0117804 6.56785 0.0117804 6.5707C0.0117804 6.57354 0.0117804 6.57733 0.0117804 6.58017C0.0117804 6.58301 0.0117804 6.5868 0.0117804 6.58965C0.0117804 6.59249 0.0117804 6.59628 0.0117804 6.59912C0.0117804 6.60197 0.0117804 6.60576 0.0117804 6.6086C0.0117804 6.61144 0.0117804 6.61523 0.0117804 6.61807C0.0117804 6.62092 0.0117804 6.62471 0.0117804 6.62755C0.0117804 6.63039 0.0117804 6.63418 0.0117804 6.63702C0.0117804 6.63987 0.0117804 6.64366 0.0117804 6.6465C0.0117804 6.64934 0.0117804 6.65313 0.0117804 6.65598C0.0117804 6.65882 0.0117804 6.66261 0.0117804 6.66545C0.0117804 6.66829 0.0117804 6.67208 0.0117804 6.67493C0.0117804 6.67777 0.0117804 6.68156 0.0117804 6.6844C0.0117804 6.68725 0.0117804 6.69104 0.0117804 6.69388C0.0117804 6.69672 0.0117804 6.70051 0.0117804 6.70335C0.0117804 6.7062 0.0117804 6.70999 0.0117804 6.71283C0.0117804 6.71567 0.0117804 6.71946 0.0117804 6.7223C0.0117804 6.72515 0.0117804 6.72894 0.0117804 6.73178C0.0117804 6.73462 0.0117804 6.73841 0.0117804 6.74126C0.0117804 6.7441 0.0117804 6.74789 0.0117804 6.75073C0.0117804 6.75357 0.0117804 6.75736 0.0117804 6.76021C0.0117804 6.76305 0.0117804 6.76684 0.0117804 6.76968C0.0117804 6.77252 0.0117804 6.77632 0.0117804 6.77916C0.0117804 6.782 0.0117804 6.78579 0.0117804 6.78863C0.0117804 6.79148 0.0117804 6.79527 0.0117804 6.79811C0.0117804 6.80095 0.0117804 6.80474 0.0117804 6.80759C0.0117804 6.81043 0.0117804 6.81422 0.0117804 6.81706C0.0117804 6.8199 0.0117804 6.82369 0.0117804 6.82654C0.0117804 6.82938 0.0117804 6.83317 0.0117804 6.83601C0.0117804 6.83885 0.0117804 6.84264 0.0117804 6.84549C0.0117804 6.84833 0.0117804 6.85212 0.0117804 6.85496C0.0117804 6.85781 0.0117804 6.8616 0.0117804 6.86444C0.0117804 6.86728 0.0117804 6.87107 0.0117804 6.87391C0.0117804 6.87676 0.0117804 6.88055 0.0117804 6.88339C0.0117804 6.88623 0.0117804 6.89002 0.0117804 6.89286C0.0117804 6.89571 0.0117804 6.8995 0.0117804 6.90234C0.0117804 6.90518 0.0117804 6.90897 0.0117804 6.91182C0.0117804 6.91466 0.0117804 6.91845 0.0117804 6.92129C0.0117804 6.92413 0.0117804 6.92793 0.0117804 6.93077C0.0117804 6.93361 0.0117804 6.9374 0.0117804 6.94024C0.0117804 6.94309 0.0117804 6.94688 0.0117804 6.94972C0.0131673 7.11554 0.17265 7.28041 0.497162 7.47466C0.759269 7.63101 1.04634 7.81484 1.13232 8.02804C1.39858 8.6828 2.1641 8.87136 2.97538 9.07035C3.09187 9.09877 3.20698 9.1272 3.3207 9.15752C3.66601 9.24849 4.00023 9.34798 4.31226 9.57539C4.55218 9.75069 4.99873 10.0767 5.33572 10.0767C5.37039 10.0767 5.40507 10.0757 5.43835 10.0757C6.54641 10.0757 7.31747 10.468 8.06357 10.848C8.26743 10.9512 8.5961 11.0564 8.83047 11.0564C8.87624 11.0564 8.91645 11.0526 8.94974 11.0441C9.13557 10.9996 9.30615 10.9778 9.46841 10.9778C9.92466 10.9778 10.2533 11.154 10.5418 11.3454C10.6097 11.39 10.6777 11.4373 10.7457 11.4847C11.1076 11.7339 11.4834 11.9917 11.8995 12.0675C13.1129 12.2882 13.4943 12.7743 13.5844 13.3296C13.572 13.6755 13.5623 14.0213 13.5609 14.3681C13.5609 14.371 13.5609 14.3748 13.5609 14.3776C13.5609 14.3804 13.5609 14.3842 13.5609 14.3871C13.5609 14.3899 13.5609 14.3937 13.5609 14.3966C13.5609 14.3994 13.5609 14.4032 13.5609 14.406C13.5609 14.4089 13.5609 14.4127 13.5609 14.4155C13.5609 14.4183 13.5609 14.4221 13.5609 14.425C13.5609 14.4278 13.5609 14.4316 13.5609 14.4345C13.5609 14.4373 13.5609 14.4411 13.5609 14.4439C13.5609 14.4468 13.5609 14.4506 13.5609 14.4534C13.5609 14.4563 13.5609 14.46 13.5609 14.4629C13.5609 14.4657 13.5609 14.4695 13.5609 14.4724C13.5609 14.4752 13.5609 14.479 13.5609 14.4818C13.5609 14.4847 13.5609 14.4885 13.5609 14.4913C13.5609 14.4942 13.5609 14.4979 13.5609 14.5008C13.5609 14.5036 13.5609 14.5074 13.5609 14.5103C13.5609 14.5131 13.5609 14.5169 13.5609 14.5197C13.5609 14.5226 13.5609 14.5264 13.5609 14.5292C13.5609 14.5321 13.5609 14.5358 13.5609 14.5387C13.5609 14.5415 13.5609 14.5453 13.5609 14.5482C13.5609 14.551 13.5609 14.5548 13.5609 14.5576C13.5609 14.5605 13.5609 14.5643 13.5609 14.5671C13.5609 14.57 13.5609 14.5737 13.5609 14.5766C13.5609 14.5794 13.5609 14.5832 13.5609 14.5861C13.5609 14.5889 13.5609 14.5927 13.5609 14.5955C13.5609 14.5984 13.5609 14.6022 13.5609 14.605C13.5609 14.6079 13.5609 14.6117 13.5609 14.6145C13.5609 14.6173 13.5609 14.6211 13.5609 14.624C13.5609 14.6268 13.5609 14.6306 13.5609 14.6334C13.5609 14.6363 13.5609 14.6401 13.5609 14.6429C13.5609 14.6458 13.5609 14.6496 13.5609 14.6524C13.5609 14.6552 13.5609 14.659 13.5609 14.6619C13.5609 14.6647 13.5609 14.6685 13.5609 14.6713C13.5609 14.6742 13.5609 14.678 13.5609 14.6808C13.5609 14.6837 13.5609 14.6875 13.5609 14.6903C13.5609 14.6931 13.5609 14.6969 13.5609 14.6998C13.5609 14.7026 13.5609 14.7064 13.5609 14.7092C13.5609 14.7121 13.5609 14.7159 13.5609 14.7187C13.5609 14.7216 13.5609 14.7254 13.5609 14.7282C13.5609 14.731 13.5609 14.7348 13.5609 14.7377C13.5609 14.7405 13.5609 14.7443 13.5609 14.7472C13.5609 14.75 13.5609 14.7538 13.5609 14.7566C13.5609 14.7595 13.5609 14.7633 13.5609 14.7661C13.5609 14.7689 13.5609 14.7727 13.5609 14.7756C13.5609 14.7784 13.5609 14.7822 13.5609 14.7851C13.5609 14.7879 13.5609 14.7917 13.5609 14.7945C13.5609 14.7974 13.5609 14.8012 13.5609 14.804C13.5609 14.8068 13.5609 14.8106 13.5609 14.8135C13.5609 14.8163 13.5609 14.8201 13.5609 14.823C13.5609 14.8258 13.5609 14.8296 13.5609 14.8324C13.5609 14.8353 13.5609 14.8391 13.5609 14.8419C13.5609 14.8447 13.5609 14.8485 13.5609 14.8514C13.5609 14.8542 13.5609 14.858 13.5609 14.8609C13.5609 14.8637 13.5609 14.8675 13.5609 14.8703C13.5609 14.8732 13.5609 14.877 13.5609 14.8798C13.5609 14.8827 13.5609 14.8864 13.5609 14.8893C13.5609 14.8921 13.5609 14.8959 13.5609 14.8988C13.5609 14.9016 13.5609 14.9054 13.5609 14.9082C13.5609 14.9111 13.5609 14.9149 13.5609 14.9177C13.5609 14.9206 13.5609 14.9243 13.5609 14.9272C13.5609 14.93 13.5609 14.9338 13.5609 14.9367C13.5609 14.9395 13.5609 14.9433 13.5609 14.9461C13.5609 14.949 13.5609 14.9528 13.5609 14.9556C13.5609 14.9585 13.5609 14.9622 13.5609 14.9651C13.5609 14.9679 13.5609 14.9717 13.5609 14.9746C13.5609 14.9774 13.5609 14.9812 13.5609 14.984C13.5609 14.9869 13.5609 14.9907 13.5609 14.9935C13.5609 14.9964 13.5609 15.0001 13.5609 15.003C13.5609 15.0058 13.5609 15.0096 13.5609 15.0125C13.5609 15.0153 13.5609 15.0191 13.5609 15.0219C13.5609 15.0248 13.5609 15.0286 13.5609 15.0314C13.5609 15.0343 13.5609 15.0381 13.5609 15.0409C13.5609 15.0437 13.5609 15.0475 13.5609 15.0504C13.5609 15.0532 13.5609 15.057 13.5609 15.0598C13.5609 15.0627 13.5609 15.0665 13.5609 15.0693C13.5609 15.0722 13.5609 15.076 13.5609 15.0788C13.5609 15.0816 13.5609 15.0854 13.5609 15.0883C13.5609 15.0911 13.5609 15.0949 13.5609 15.0977C13.5609 15.1006 13.5609 15.1044 13.5609 15.1072C13.5609 15.1101 13.5609 15.1139 13.5609 15.1167C13.5609 15.1195 13.5609 15.1233 13.5609 15.1262C13.5609 15.129 13.5609 15.1328 13.5609 15.1356C13.5609 15.1385 13.5609 15.1423 13.5609 15.1451C13.5609 15.148 13.5609 15.1518 13.5609 15.1546C13.5609 15.1574 13.5609 15.1612 13.5609 15.1641C13.5609 15.1669 13.5609 15.1707 13.5609 15.1736C13.5609 15.1764 13.5609 15.1802 13.5609 15.183C13.5609 15.1859 13.5609 15.1897 13.5609 15.1925C13.5609 15.1953 13.5609 15.1991 13.5609 15.202C13.5609 15.2048 13.5609 15.2086 13.5609 15.2115C13.5609 15.2143 13.5609 15.2181 13.5609 15.2209C13.5609 15.2238 13.5609 15.2276 13.5609 15.2304C13.5609 15.2332 13.5609 15.237 13.5609 15.2399C13.5609 15.2427 13.5609 15.2465 13.5609 15.2494C13.5609 15.2522 13.5609 15.256 13.5609 15.2588C13.5609 15.2617 13.5609 15.2655 13.5609 15.2683C13.5609 15.2711 13.5609 15.2749 13.5609 15.2778C13.5609 15.2806 13.5609 15.2844 13.5609 15.2873C13.5609 15.2901 13.5609 15.2939 13.5609 15.2967C13.5609 15.2996 13.5609 15.3034 13.5609 15.3062C13.5609 15.3091 13.5609 15.3128 13.5609 15.3157C13.5581 15.8084 13.5636 16.2983 13.5692 16.7816C13.5747 17.2184 13.5789 17.6704 13.5789 18.1138C13.5789 18.4739 13.7578 18.707 14.1766 18.8927C14.7868 19.1647 15.3956 19.4783 16.0377 19.8535C17.1901 20.5263 17.8378 21.2095 18.0194 21.958L17.903 22.6526C17.6284 24.2909 17.3441 25.9852 16.9835 27.6434C16.9516 27.7902 16.9364 27.9201 16.9364 28.0423V28.047L16.1251 32.4475L13.4707 46.8418C13.4707 46.8418 13.4721 46.8399 13.4735 46.839L13.4707 46.8513C13.4707 46.8513 13.4721 46.8494 13.4735 46.8484L13.4707 46.8608C13.4707 46.8608 13.4721 46.8589 13.4735 46.8579L13.4707 46.8702C13.4707 46.8702 13.4721 46.8683 13.4735 46.8674L13.4707 46.8797C13.4707 46.8797 13.4721 46.8778 13.4735 46.8769L13.4707 46.8892C13.4707 46.8892 13.4721 46.8873 13.4735 46.8863L13.4707 46.8986C13.4707 46.8986 13.4721 46.8968 13.4735 46.8958L13.4707 46.9081C13.4707 46.9081 13.4721 46.9062 13.4735 46.9053L13.4707 46.9176C13.4707 46.9176 13.4721 46.9157 13.4735 46.9148L13.4707 46.9271C13.4707 46.9271 13.4721 46.9252 13.4735 46.9242L13.4707 46.9366C13.4707 46.9366 13.4721 46.9347 13.4735 46.9337L13.4707 46.946C13.4707 46.946 13.4721 46.9441 13.4735 46.9432L13.4707 46.9555C13.4707 46.9555 13.4721 46.9536 13.4735 46.9527L13.4707 46.965C13.4707 46.965 13.4721 46.9631 13.4735 46.9621L13.4707 46.9745C13.4707 46.9745 13.4721 46.9726 13.4735 46.9716L13.4707 46.9839C13.4707 46.9839 13.4721 46.982 13.4735 46.9811L13.4707 46.9934C13.4707 46.9934 13.4721 46.9915 13.4735 46.9906L13.4707 47.0029C13.4707 47.0029 13.4721 47.001 13.4735 47L13.4707 47.0124C13.4707 47.0124 13.4721 47.0105 13.4735 47.0095L13.4707 47.0218C13.4707 47.0218 13.4721 47.0199 13.4735 47.019L13.4707 47.0313C13.4707 47.0313 13.4721 47.0294 13.4735 47.0285L13.4707 47.0408C13.4707 47.0408 13.4721 47.0389 13.4735 47.0379L13.4707 47.0503C13.4707 47.0503 13.4721 47.0484 13.4735 47.0474L13.4707 47.0597C13.4707 47.0597 13.4721 47.0578 13.4735 47.0569L13.4707 47.0692C13.4707 47.0692 13.4721 47.0673 13.4735 47.0664L13.4707 47.0787C13.4707 47.0787 13.4721 47.0768 13.4735 47.0758L13.4707 47.0882C13.4707 47.0882 13.4721 47.0863 13.4735 47.0853L13.4707 47.0976C13.4707 47.0976 13.4721 47.0957 13.4735 47.0948L13.4707 47.1071C13.4707 47.1071 13.4721 47.1052 13.4735 47.1043L13.4707 47.1166C13.4707 47.1166 13.4721 47.1147 13.4735 47.1137L13.4707 47.1261C13.4707 47.1261 13.4721 47.1242 13.4735 47.1232L13.4707 47.1355C13.4707 47.1355 13.4721 47.1336 13.4735 47.1327L13.4707 47.145C13.4707 47.145 13.4721 47.1431 13.4735 47.1422L13.4707 47.1545C13.4707 47.1545 13.4721 47.1526 13.4735 47.1516L13.4707 47.164C13.4707 47.164 13.4721 47.1621 13.4735 47.1611L13.4707 47.1734C13.4707 47.1734 13.4721 47.1715 13.4735 47.1706L13.4707 47.1829C13.4707 47.1829 13.4721 47.181 13.4735 47.1801L13.4707 47.1924C13.4707 47.1924 13.4721 47.1905 13.4735 47.1895L13.4707 47.2019C13.4707 47.2019 13.4721 47.2 13.4735 47.199L13.4707 47.2113C13.4707 47.2113 13.4721 47.2094 13.4735 47.2085L13.4707 47.2208C13.4707 47.2208 13.4721 47.2189 13.4735 47.218L13.4707 47.2303C13.4707 47.2303 13.4721 47.2284 13.4735 47.2275L13.4707 47.2398C13.4707 47.2398 13.4721 47.2379 13.4735 47.2369L13.4707 47.2492C13.4707 47.2492 13.4721 47.2473 13.4735 47.2464L13.4707 47.2587C13.4707 47.2587 13.4721 47.2568 13.4735 47.2559L13.4707 47.2682C13.4707 47.2682 13.4721 47.2663 13.4735 47.2654L13.4707 47.2777C13.4707 47.2777 13.4721 47.2758 13.4735 47.2748L13.4707 47.2872C13.4707 47.2872 13.4721 47.2853 13.4735 47.2843L13.4707 47.2966C13.4707 47.2966 13.4721 47.2947 13.4735 47.2938L13.4707 47.3061C13.4707 47.3061 13.4721 47.3042 13.4735 47.3033L13.4707 47.3156C13.4707 47.3156 13.4721 47.3137 13.4735 47.3127L13.4707 47.3251C13.4707 47.3251 13.4721 47.3232 13.4735 47.3222L13.4707 47.3345C13.4707 47.3345 13.4721 47.3326 13.4735 47.3317L13.4707 47.344C13.4707 47.344 13.4721 47.3421 13.4735 47.3412L13.4707 47.3535C13.4707 47.3535 13.4721 47.3516 13.4735 47.3506L13.4707 47.363C13.4707 47.363 13.4721 47.3611 13.4735 47.3601L13.4707 47.3724C13.4707 47.3724 13.4721 47.3705 13.4735 47.3696L13.4707 47.3819C13.4707 47.3819 13.4721 47.38 13.4735 47.3791L13.4707 47.3914C13.4707 47.3914 13.4721 47.3895 13.4735 47.3885L13.4707 47.4009C13.4707 47.4009 13.4721 47.399 13.4735 47.398L13.4707 47.4103C13.4707 47.4103 13.4721 47.4084 13.4735 47.4075L13.4707 47.4198C13.4707 47.4198 13.4721 47.4179 13.4735 47.417L13.4707 47.4293C13.4707 47.4293 13.4721 47.4274 13.4735 47.4264L13.4707 47.4388C13.4707 47.4388 13.4721 47.4369 13.4735 47.4359L13.4707 47.4482C13.4707 47.4482 13.4721 47.4463 13.4735 47.4454L13.4707 47.4577C13.4707 47.4577 13.4721 47.4558 13.4735 47.4549L13.4707 47.4672C13.4707 47.4672 13.4721 47.4653 13.4735 47.4643L13.4707 47.4767C13.4707 47.4767 13.4721 47.4748 13.4735 47.4738L13.4707 47.4861C13.4707 47.4861 13.4721 47.4842 13.4735 47.4833L13.4707 47.4956C13.4707 47.4956 13.4721 47.4937 13.4735 47.4928L13.4707 47.5051C13.4707 47.5051 13.4721 47.5032 13.4735 47.5022L13.4707 47.5146C13.4707 47.5146 13.4721 47.5127 13.4735 47.5117L13.4707 47.524C13.4707 47.524 13.4721 47.5221 13.4735 47.5212L13.4707 47.5335C13.4707 47.5335 13.4721 47.5316 13.4735 47.5307L13.4707 47.543C13.4707 47.543 13.4721 47.5411 13.4735 47.5401L13.4707 47.5525C13.4707 47.5525 13.4721 47.5506 13.4735 47.5496L13.4707 47.5619C13.4707 47.5619 13.4721 47.56 13.4735 47.5591L13.4707 47.5714C13.4707 47.5714 13.4721 47.5695 13.4735 47.5686L13.4707 47.5809C13.4707 47.5809 13.4721 47.579 13.4735 47.578L13.4707 47.5904C13.4707 47.5904 13.4721 47.5885 13.4735 47.5875L13.4707 47.5998C13.4707 47.5998 13.4721 47.5979 13.4735 47.597L13.4707 47.6093C13.4707 47.6093 13.4721 47.6074 13.4735 47.6065L13.4707 47.6188C13.4707 47.6188 13.4721 47.6169 13.4735 47.6159L13.4707 47.6283C13.4707 47.6283 13.4721 47.6264 13.4735 47.6254L13.4707 47.6377C13.4707 47.6377 13.4721 47.6358 13.4735 47.6349L13.4707 47.6472C13.4707 47.6472 13.4721 47.6453 13.4735 47.6444L13.4707 47.6567C13.4707 47.6567 13.4721 47.6548 13.4735 47.6539L13.4707 47.6662C13.4707 47.6662 13.4721 47.6643 13.4735 47.6633L13.4707 47.6756C13.4707 47.6756 13.4721 47.6737 13.4735 47.6728L13.4707 47.6851C13.4707 47.6851 13.4721 47.6832 13.4735 47.6823L13.4707 47.6946C13.4707 47.6946 13.4721 47.6927 13.4735 47.6918L13.4707 47.7041C13.4707 47.7041 13.4721 47.7022 13.4735 47.7012L13.4707 47.7136C13.4707 47.7136 13.4721 47.7117 13.4735 47.7107L13.4707 47.723C13.4707 47.723 13.4721 47.7211 13.4735 47.7202L13.4707 47.7325C13.4707 47.7325 13.4721 47.7306 13.4735 47.7297L13.4707 47.742C13.4707 47.742 13.4721 47.7401 13.4735 47.7391L13.4707 47.7514C13.4707 47.7514 13.4721 47.7496 13.4735 47.7486L13.4707 47.7609C13.4707 47.7609 13.4721 47.759 13.4735 47.7581L13.4707 47.7704C13.4707 47.7704 13.4721 47.7685 13.4735 47.7676L13.4707 47.7799C13.4707 47.7799 13.4721 47.778 13.4735 47.777L13.4707 47.7894C13.4707 47.7894 13.4721 47.7875 13.4735 47.7865L13.4707 47.7988C13.5498 47.7041 13.626 47.6093 13.7009 47.5165C13.8757 47.2995 14.056 47.0749 14.2668 46.8702C14.6467 46.5016 15.0794 46.152 15.4968 45.8127C15.6674 45.6744 15.8394 45.5351 16.0072 45.3949L16.132 45.2906C16.7311 44.7884 17.351 44.2692 18.3343 44.0086C18.9167 43.8551 19.4908 43.6599 20.0456 43.4723C20.359 43.3662 20.6849 43.2553 21.008 43.1539C21.1425 43.1113 21.2771 43.0658 21.4116 43.0194C21.8151 42.881 22.2326 42.737 22.6722 42.6915C24.6151 42.4897 26.2377 42.3618 27.777 42.2888C30.4466 42.1618 33.0441 41.8207 35.453 41.4711C36.9729 41.2607 41.4148 40.2146 45.334 39.2907C46.9205 38.9164 48.4196 38.564 49.6123 38.2929C50.6413 38.0589 51.6453 37.8268 52.6258 37.5671C52.6785 37.5529 52.7298 37.5406 52.7811 37.5273C53.1625 37.4316 53.4925 37.3492 53.6451 36.9986C54.1222 35.8994 54.6422 34.7889 55.1442 33.7144C55.57 32.8038 56.011 31.8619 56.4229 30.9314C56.4714 30.8234 56.5296 30.7144 56.5851 30.6083C56.7321 30.3325 56.8736 30.0663 56.8639 29.7924C56.8639 29.7896 56.8639 29.7858 56.8639 29.783C56.8639 29.7801 56.8639 29.7763 56.8639 29.7735C56.8639 29.7706 56.8639 29.7669 56.8639 29.764C56.8639 29.7612 56.8639 29.7574 56.8639 29.7545C56.8639 29.7517 56.8639 29.7479 56.8639 29.7451C56.8639 29.7422 56.8639 29.7384 56.8639 29.7356C56.8639 29.7327 56.8639 29.7289 56.8639 29.7261C56.8639 29.7233 56.8639 29.7195 56.8639 29.7166C56.8639 29.7138 56.8639 29.71 56.8639 29.7072C56.8639 29.7043 56.8639 29.7005 56.8639 29.6977C56.8639 29.6948 56.8639 29.691 56.8639 29.6882C56.8639 29.6854 56.8639 29.6816 56.8639 29.6787C56.8639 29.6759 56.8639 29.6721 56.8639 29.6693C56.8639 29.6664 56.8639 29.6626 56.8639 29.6598C56.8639 29.6569 56.8639 29.6531 56.8639 29.6503C56.8639 29.6475 56.8639 29.6437 56.8639 29.6408C56.8639 29.638 56.8639 29.6342 56.8639 29.6314C56.8639 29.6285 56.8639 29.6247 56.8639 29.6219C56.8639 29.619 56.8639 29.6152 56.8639 29.6124C56.8639 29.6096 56.8639 29.6058 56.8639 29.6029C56.8639 29.6001 56.8639 29.5963 56.8639 29.5934C56.8639 29.5906 56.8639 29.5868 56.8639 29.584C56.8639 29.5811 56.8639 29.5773 56.8639 29.5745C56.8639 29.5717 56.8639 29.5679 56.8639 29.565C56.8639 29.5622 56.8639 29.5584 56.8639 29.5555C56.8639 29.5527 56.8639 29.5489 56.8639 29.5461C56.8639 29.5432 56.8639 29.5394 56.8639 29.5366C56.8639 29.5338 56.8639 29.53 56.8639 29.5271C56.8639 29.5243 56.8639 29.5205 56.8639 29.5176C56.8639 29.5148 56.8639 29.511 56.8639 29.5082C56.8639 29.5053 56.8639 29.5015 56.8639 29.4987C56.8639 29.4958 56.8639 29.4921 56.8639 29.4892C56.8639 29.4864 56.8639 29.4826 56.8639 29.4797C56.8639 29.4769 56.8639 29.4731 56.8639 29.4703C56.8639 29.4674 56.8639 29.4636 56.8639 29.4608C56.8639 29.4579 56.8639 29.4542 56.8639 29.4513C56.8639 29.4485 56.8639 29.4447 56.8639 29.4418C56.8639 29.439 56.8639 29.4352 56.8639 29.4324C56.8639 29.4295 56.8639 29.4257 56.8639 29.4229C56.8639 29.42 56.8639 29.4163 56.8639 29.4134C56.8639 29.4106 56.8639 29.4068 56.8639 29.4039C56.8639 29.4011 56.8639 29.3973 56.8639 29.3945C56.8639 29.3916 56.8639 29.3878 56.8639 29.385C56.8639 29.3821 56.8639 29.3784 56.8639 29.3755C56.8639 29.3727 56.8639 29.3689 56.8639 29.366C56.8639 29.3632 56.8639 29.3594 56.8639 29.3566C56.8639 29.3537 56.8639 29.3499 56.8639 29.3471C56.8639 29.3442 56.8639 29.3405 56.8639 29.3376C56.8639 29.3348 56.8639 29.331 56.8639 29.3281C56.8639 29.3253 56.8639 29.3215 56.8639 29.3187C56.8639 29.3158 56.8639 29.312 56.8639 29.3092C56.8639 29.3063 56.8639 29.3025 56.8639 29.2997C56.8639 29.2969 56.8639 29.2931 56.8639 29.2902C56.8639 29.2874 56.8639 29.2836 56.8639 29.2808C56.8639 29.2779 56.8639 29.2741 56.8639 29.2713C56.8639 29.2684 56.8639 29.2646 56.8639 29.2618C56.8639 29.259 56.8639 29.2552 56.8639 29.2523C56.8639 29.2495 56.8639 29.2457 56.8639 29.2429C56.8639 29.24 56.8639 29.2362 56.8639 29.2334C56.8639 29.2305 56.8639 29.2267 56.8639 29.2239C56.8639 29.2211 56.8639 29.2173 56.8639 29.2144C56.8639 29.2116 56.8639 29.2078 56.8639 29.205C56.8639 29.2021 56.8639 29.1983 56.8639 29.1955C56.8639 29.1926 56.8639 29.1888 56.8639 29.186C56.8639 29.1832 56.8639 29.1794 56.8639 29.1765C56.8639 29.1737 56.8639 29.1699 56.8639 29.167C56.8639 29.1642 56.8639 29.1604 56.8639 29.1576C56.8639 29.1547 56.8639 29.1509 56.8639 29.1481C56.8639 29.1453 56.8639 29.1415 56.8639 29.1386C56.8639 29.1358 56.8639 29.132 56.8639 29.1291C56.8639 29.1263 56.8639 29.1225 56.8639 29.1197C56.8639 29.1168 56.8639 29.113 56.8639 29.1102C56.8639 29.1074 56.8639 29.1036 56.8639 29.1007C56.8639 29.0979 56.8639 29.0941 56.8639 29.0912C56.8639 29.0884 56.8639 29.0846 56.8639 29.0818C56.8639 29.0789 56.8639 29.0751 56.8639 29.0723C56.8639 29.0694 56.8639 29.0657 56.8639 29.0628C56.8639 29.06 56.8639 29.0562 56.8639 29.0533C56.8639 29.0505 56.8639 29.0467 56.8639 29.0439C56.8639 29.041 56.8639 29.0372 56.8639 29.0344C56.8639 29.0315 56.8639 29.0278 56.8639 29.0249C56.8639 29.0221 56.8639 29.0183 56.8639 29.0154C56.8639 29.0126 56.8639 29.0088 56.8639 29.006C56.8639 29.0031 56.8639 28.9993 56.8639 28.9965C56.8639 28.9936 56.8639 28.9899 56.8639 28.987C56.8639 28.9842 56.8639 28.9804 56.8639 28.9775C56.8639 28.9747 56.8639 28.9709 56.8639 28.9681C56.8639 28.9652 56.8639 28.9614 56.8639 28.9586C56.8639 28.9557 56.8639 28.952 56.8639 28.9491C56.8639 28.9463 56.8639 28.9425 56.8639 28.9396C56.8639 28.9368 56.8639 28.933 56.8639 28.9302C56.8639 28.9273 56.8639 28.9235 56.8639 28.9207C56.8639 28.9178 56.8639 28.9141 56.8639 28.9112C56.8639 28.9084 56.8639 28.9046 56.8639 28.9017C56.8639 28.8989 56.8639 28.8951 56.8639 28.8923C56.8639 28.8894 56.8639 28.8856 56.8639 28.8828C56.8639 28.8799 56.8639 28.8762 56.8639 28.8733C56.8639 28.8705 56.8639 28.8667 56.8639 28.8638C56.8639 28.861 56.8639 28.8572 56.8639 28.8544C56.8639 28.8515 56.8639 28.8477 56.8639 28.8449V28.8686Z" fill="#D6C393"/>
<path d="M16.1155 32.4706L16.9268 28.0701V28.0654C16.9268 27.9441 16.942 27.8133 16.9739 27.6665C17.3359 26.0082 17.6188 24.314 17.8934 22.6757L18.0348 21.8361C18.2179 20.7588 17.58 19.8349 16.0281 18.929C15.3861 18.5548 14.7772 18.2402 14.1671 17.9682C13.7482 17.7816 13.5693 17.5485 13.5693 17.1893C13.5693 16.7449 13.5652 16.2939 13.5596 15.8571C13.5485 14.8925 13.5374 13.8956 13.5929 12.9178C13.6359 12.1701 13.4598 11.4386 11.8885 11.1534C11.4725 11.0776 11.0967 10.8199 10.7347 10.5707C10.6654 10.5233 10.5974 10.4768 10.5308 10.4314C10.2438 10.24 9.91372 10.0637 9.45746 10.0637C9.2952 10.0637 9.12601 10.0855 8.93879 10.13C8.90551 10.1376 8.86529 10.1424 8.81953 10.1424C8.58516 10.1424 8.25649 10.0372 8.05263 9.9339C7.30652 9.55393 6.53546 9.16164 5.4274 9.16164C5.39412 9.16164 5.35945 9.16164 5.32478 9.16259C4.9864 9.16259 4.53985 8.83663 4.30132 8.66133C3.98928 8.43487 3.65507 8.33443 3.30975 8.24346C3.19603 8.21409 3.08093 8.18471 2.96444 8.15629C2.15454 7.95635 1.38903 7.76779 1.12137 7.11397C1.03539 6.90077 0.748319 6.716 0.486213 6.5606C-0.0851506 6.21854 -0.14478 5.97028 0.264328 5.64432C1.28086 4.83416 2.00754 3.89418 2.71065 2.98358C2.87568 2.77038 3.04071 2.55718 3.2099 2.34493C4.06417 1.27135 5.35945 0.714185 7.05967 0.689549C7.26492 0.686706 7.54228 0.645961 7.70592 0.539835C8.01934 0.337058 8.36604 0.246094 8.83062 0.246094C9.09273 0.246094 9.3687 0.275468 9.63497 0.303895C9.83605 0.325688 10.0441 0.347481 10.2479 0.357905C10.6543 0.377803 11.0662 0.423287 11.4656 0.466874C11.7859 0.501934 12.1173 0.537941 12.4474 0.56163C13.231 0.617536 13.6345 0.890432 13.7149 1.42201V1.43149C13.7455 1.62668 13.776 1.82946 13.8841 2.01234C14.1268 2.42168 14.5567 2.61972 15.1988 2.61972C15.2793 2.61972 15.3652 2.61688 15.454 2.61024C15.7605 2.58845 16.0919 2.57897 16.526 2.57897C16.7132 2.57897 16.8991 2.58087 17.0863 2.58277C17.2749 2.58466 17.4621 2.58656 17.6507 2.58656H17.8435C18.5036 2.58656 18.5993 2.6472 18.6922 3.12856C18.7172 3.24984 18.7934 3.36166 18.8683 3.46968C18.9058 3.52464 18.9418 3.57675 18.9709 3.62981C19.0028 3.68667 19.0306 3.74542 19.0583 3.80322C19.0958 3.88092 19.1346 3.96146 19.1817 4.03916C19.2039 4.07517 19.2247 4.11212 19.2455 4.14813C19.3273 4.29026 19.4106 4.43713 19.5409 4.56505C19.6768 4.6996 19.8349 4.82468 19.9875 4.94502C20.0956 5.03125 20.2066 5.11937 20.3092 5.20939C20.3217 5.22455 20.3217 5.28235 20.3037 5.30604C19.9001 5.80919 20.3175 6.14083 20.7211 6.46206C20.7641 6.49617 20.8057 6.52933 20.8487 6.56439L20.9166 6.6203C20.9166 6.6203 21.2398 6.47248 21.2508 6.46679C21.2508 6.46679 22.2105 6.6582 22.5309 6.72169L21.8999 6.93868L22.621 7.63703H22.682C22.6931 7.63703 22.7398 7.62944 22.8221 7.61428L22.9414 7.59249C22.9525 7.60765 22.9622 7.62092 22.9663 7.63229C22.9927 7.69862 23.0163 7.764 23.0384 7.82938C23.0939 7.98573 23.1508 8.14776 23.2479 8.29842C23.3144 8.40075 23.5724 8.46519 23.7207 8.46519C23.7624 8.46519 23.8012 8.46045 23.8331 8.45098C23.9385 8.42065 24.0369 8.40549 24.1257 8.40549C24.4155 8.40549 24.5986 8.57037 24.7914 8.76841C25.1519 9.14269 25.6401 9.37484 26.285 9.47813C26.4444 9.50371 26.5998 9.53782 26.6538 9.60794C26.6968 9.6629 26.6844 9.74913 26.6192 9.86378C26.3293 10.3698 26.9021 11.0378 27.5761 11.2292C27.6856 11.2605 27.7716 11.3325 27.8146 11.4272C27.8659 11.541 27.8437 11.667 27.7563 11.757C27.6551 11.8603 27.5608 11.9664 27.4776 12.0583L27.4665 12.0706C27.332 12.0072 26.8771 11.7921 26.8771 11.7921L26.8369 11.9067C26.8147 11.9702 26.787 12.0346 26.7592 12.0981C26.6899 12.2564 26.6178 12.4203 26.6275 12.5871C26.6358 12.7538 26.8424 12.8997 27.074 13.0334C27.2529 13.7668 27.601 14.6489 28.6689 15.0592C29.2444 15.281 29.3207 15.5671 29.4011 15.8694C29.4372 16.0039 29.4732 16.1442 29.555 16.2797C29.6701 16.4749 29.8171 16.6625 29.96 16.8444C30.046 16.9553 30.1361 17.0699 30.2165 17.1836C30.3719 17.4035 30.5189 17.6252 30.6742 17.8593C30.7463 17.9692 30.8212 18.08 30.8975 18.1947L30.9613 18.2904C30.9613 18.2904 31.1457 18.1852 31.1762 18.1672C31.2497 18.2165 31.3232 18.2695 31.3939 18.3217C31.6269 18.4922 31.8682 18.6685 32.1733 18.7329C32.2621 18.7509 32.355 18.7604 32.4618 18.7604C32.6781 18.7604 32.9083 18.7234 33.1524 18.6836C33.2814 18.6628 33.4145 18.641 33.5518 18.6239C33.5657 18.6476 33.7737 18.9916 33.7737 18.9916L34.0192 18.8817C33.8666 19.0522 33.7335 19.2038 33.6212 19.3659C33.5393 19.4843 33.5407 19.6113 33.6267 19.7041C33.6933 19.7752 33.8014 19.816 33.9249 19.816C33.979 19.816 34.0358 19.8084 34.0941 19.7923C34.205 19.7619 34.3062 19.7477 34.4019 19.7477C34.664 19.7477 34.8623 19.8624 35.0717 19.9827C35.0884 19.9922 35.1064 20.0026 35.1231 20.0121L35.0191 20.0547L35.069 20.1211C35.1245 20.195 35.1758 20.2746 35.2243 20.3513C35.3352 20.5228 35.449 20.7 35.6223 20.8488C37.299 22.2758 38.7912 23.519 40.1807 24.6485C40.4401 24.8579 40.8409 25.0294 41.2014 25.0844C42.2984 25.253 43.4189 25.4094 44.502 25.561C45.4783 25.6974 46.4893 25.8396 47.4795 25.9883C49.048 26.2252 50.6345 26.4934 52.1697 26.753L52.8714 26.8715C53.1002 26.9103 53.2819 26.9283 53.4455 26.9283C53.856 26.9283 54.1681 26.8099 54.401 26.5654C54.4718 26.4915 54.5536 26.4223 54.6562 26.3351C54.6784 26.3171 54.7006 26.2972 54.7242 26.2773C54.8975 26.4725 55.0612 26.6658 55.2206 26.8544C55.5881 27.2874 55.9376 27.6987 56.3467 28.0758H56.3426L56.4882 28.2066C57.0817 28.7239 56.8363 29.1854 56.5756 29.6743C56.5187 29.7795 56.4618 29.8894 56.4133 29.9974C56 30.9279 55.5604 31.8689 55.1347 32.7804C54.6326 33.854 54.1126 34.9655 53.6355 36.0646C53.483 36.4152 53.1529 36.4977 52.7715 36.5934C52.7202 36.6066 52.6675 36.619 52.6162 36.6332C51.6344 36.8928 50.6303 37.1249 49.6027 37.359C48.41 37.63 46.9123 37.9834 45.3244 38.3568C41.4053 39.2806 36.9634 40.3267 35.4434 40.5371C33.0345 40.8867 30.437 41.2279 27.7674 41.3548C26.2281 41.4278 24.6055 41.5557 22.6626 41.7575C22.223 41.803 21.8056 41.9471 21.402 42.0854C21.2675 42.1318 21.133 42.1783 20.9984 42.22C20.6739 42.3223 20.3494 42.4322 20.036 42.5383C19.4813 42.7259 18.9072 42.9211 18.3247 43.0746C17.3401 43.3352 16.7215 43.8545 16.1224 44.3567L15.9976 44.4609C15.8298 44.6012 15.6579 44.7395 15.4873 44.8788C15.0699 45.218 14.6372 45.5677 14.2572 45.9363C14.0464 46.1419 13.8661 46.3655 13.6914 46.5825C13.6165 46.6754 13.5402 46.7701 13.4612 46.8649L16.1155 32.4706Z" fill="#A09589"/>
<path d="M16.1155 32.4706L16.9268 28.0701V28.0654C16.9268 27.9441 16.942 27.8133 16.9739 27.6665C17.3359 26.0082 17.6188 24.314 17.8934 22.6757L18.0348 21.8361C18.2179 20.7588 17.58 19.8349 16.0281 18.929C15.3861 18.5548 14.7772 18.2402 14.1671 17.9682C13.7482 17.7816 13.5693 17.5485 13.5693 17.1893C13.5693 16.7449 13.5652 16.2939 13.5596 15.8571C13.5485 14.8925 13.5374 13.8956 13.5929 12.9178C13.6359 12.1701 13.4598 11.4386 11.8885 11.1534C11.4725 11.0776 11.0967 10.8199 10.7347 10.5707C10.6654 10.5233 10.5974 10.4768 10.5308 10.4314C10.2438 10.24 9.91372 10.0637 9.45746 10.0637C9.2952 10.0637 9.12601 10.0855 8.93879 10.13C8.90551 10.1376 8.86529 10.1424 8.81953 10.1424C8.58516 10.1424 8.25649 10.0372 8.05263 9.9339C7.30652 9.55393 6.53546 9.16164 5.4274 9.16164C5.39412 9.16164 5.35945 9.16164 5.32478 9.16259C4.9864 9.16259 4.53985 8.83663 4.30132 8.66133C3.98928 8.43487 3.65507 8.33443 3.30975 8.24346C3.19603 8.21409 3.08093 8.18471 2.96444 8.15629C2.15454 7.95635 1.38903 7.76779 1.12137 7.11397C1.03539 6.90077 0.748319 6.716 0.486213 6.5606C-0.0851506 6.21854 -0.14478 5.97028 0.264328 5.64432C1.28086 4.83416 2.00754 3.89418 2.71065 2.98358C2.87568 2.77038 3.04071 2.55718 3.2099 2.34493C4.06417 1.27135 5.35945 0.714185 7.05967 0.689549C7.26492 0.686706 7.54228 0.645961 7.70592 0.539835C8.01934 0.337058 8.36604 0.246094 8.83062 0.246094C9.09273 0.246094 9.3687 0.275468 9.63497 0.303895C9.83605 0.325688 10.0441 0.347481 10.2479 0.357905C10.6543 0.377803 11.0662 0.423287 11.4656 0.466874C11.7859 0.501934 12.1173 0.537941 12.4474 0.56163C13.231 0.617536 13.6345 0.890432 13.7149 1.42201V1.43149C13.7455 1.62668 13.776 1.82946 13.8841 2.01234C14.1268 2.42168 14.5567 2.61972 15.1988 2.61972C15.2793 2.61972 15.3652 2.61688 15.454 2.61024C15.7605 2.58845 16.0919 2.57897 16.526 2.57897C16.7132 2.57897 16.8991 2.58087 17.0863 2.58277C17.2749 2.58466 17.4621 2.58656 17.6507 2.58656H17.8435C18.5036 2.58656 18.5993 2.6472 18.6922 3.12856C18.7172 3.24984 18.7934 3.36166 18.8683 3.46968C18.9058 3.52464 18.9418 3.57675 18.9709 3.62981C19.0028 3.68667 19.0306 3.74542 19.0583 3.80322C19.0958 3.88092 19.1346 3.96146 19.1817 4.03916C19.2039 4.07517 19.2247 4.11212 19.2455 4.14813C19.3273 4.29026 19.4106 4.43713 19.5409 4.56505C19.6768 4.6996 19.8349 4.82468 19.9875 4.94502C20.0956 5.03125 20.2066 5.11937 20.3092 5.20939C20.3217 5.22455 20.3217 5.28235 20.3037 5.30604C19.9001 5.80919 20.3175 6.14083 20.7211 6.46206C20.7641 6.49617 20.8057 6.52933 20.8487 6.56439L20.9166 6.6203C20.9166 6.6203 21.2398 6.47248 21.2508 6.46679C21.2508 6.46679 22.2105 6.6582 22.5309 6.72169L21.8999 6.93868L22.621 7.63703H22.682C22.6931 7.63703 22.7398 7.62944 22.8221 7.61428L22.9414 7.59249C22.9525 7.60765 22.9622 7.62092 22.9663 7.63229C22.9927 7.69862 23.0163 7.764 23.0384 7.82938C23.0939 7.98573 23.1508 8.14776 23.2479 8.29842C23.3144 8.40075 23.5724 8.46519 23.7207 8.46519C23.7624 8.46519 23.8012 8.46045 23.8331 8.45098C23.9385 8.42065 24.0369 8.40549 24.1257 8.40549C24.4155 8.40549 24.5986 8.57037 24.7914 8.76841C25.1519 9.14269 25.6401 9.37484 26.285 9.47813C26.4444 9.50371 26.5998 9.53782 26.6538 9.60794C26.6968 9.6629 26.6844 9.74913 26.6192 9.86378C26.3293 10.3698 26.9021 11.0378 27.5761 11.2292C27.6856 11.2605 27.7716 11.3325 27.8146 11.4272C27.8659 11.541 27.8437 11.667 27.7563 11.757C27.6551 11.8603 27.5608 11.9664 27.4776 12.0583L27.4665 12.0706C27.332 12.0072 26.8771 11.7921 26.8771 11.7921L26.8369 11.9067C26.8147 11.9702 26.787 12.0346 26.7592 12.0981C26.6899 12.2564 26.6178 12.4203 26.6275 12.5871C26.6358 12.7538 26.8424 12.8997 27.074 13.0334C27.2529 13.7668 27.601 14.6489 28.6689 15.0592C29.2444 15.281 29.3207 15.5671 29.4011 15.8694C29.4372 16.0039 29.4732 16.1442 29.555 16.2797C29.6701 16.4749 29.8171 16.6625 29.96 16.8444C30.046 16.9553 30.1361 17.0699 30.2165 17.1836C30.3719 17.4035 30.5189 17.6252 30.6742 17.8593C30.7463 17.9692 30.8212 18.08 30.8975 18.1947L30.9613 18.2904C30.9613 18.2904 31.1457 18.1852 31.1762 18.1672C31.2497 18.2165 31.3232 18.2695 31.3939 18.3217C31.6269 18.4922 31.8682 18.6685 32.1733 18.7329C32.2621 18.7509 32.355 18.7604 32.4618 18.7604C32.6781 18.7604 32.9083 18.7234 33.1524 18.6836C33.2814 18.6628 33.4145 18.641 33.5518 18.6239C33.5657 18.6476 33.7737 18.9916 33.7737 18.9916L34.0192 18.8817C33.8666 19.0522 33.7335 19.2038 33.6212 19.3659C33.5393 19.4843 33.5407 19.6113 33.6267 19.7041C33.6933 19.7752 33.8014 19.816 33.9249 19.816C33.979 19.816 34.0358 19.8084 34.0941 19.7923C34.205 19.7619 34.3062 19.7477 34.4019 19.7477C34.664 19.7477 34.8623 19.8624 35.0717 19.9827C35.0884 19.9922 35.1064 20.0026 35.1231 20.0121L35.0191 20.0547L35.069 20.1211C35.1245 20.195 35.1758 20.2746 35.2243 20.3513C35.3352 20.5228 35.449 20.7 35.6223 20.8488C37.299 22.2758 38.7912 23.519 40.1807 24.6485C40.4401 24.8579 40.8409 25.0294 41.2014 25.0844C42.2984 25.253 43.4189 25.4094 44.502 25.561C45.4783 25.6974 46.4893 25.8396 47.4795 25.9883C49.048 26.2252 50.6345 26.4934 52.1697 26.753L52.8714 26.8715C53.1002 26.9103 53.2819 26.9283 53.4455 26.9283C53.856 26.9283 54.1681 26.8099 54.401 26.5654C54.4718 26.4915 54.5536 26.4223 54.6562 26.3351C54.6784 26.3171 54.7006 26.2972 54.7242 26.2773C54.8975 26.4725 55.0612 26.6658 55.2206 26.8544C55.5881 27.2874 55.9376 27.6987 56.3467 28.0758H56.3426L56.4882 28.2066C57.0817 28.7239 56.8363 29.1854 56.5756 29.6743C56.5187 29.7795 56.4618 29.8894 56.4133 29.9974C56 30.9279 55.5604 31.8689 55.1347 32.7804C54.6326 33.854 54.1126 34.9655 53.6355 36.0646C53.483 36.4152 53.1529 36.4977 52.7715 36.5934C52.7202 36.6066 52.6675 36.619 52.6162 36.6332C51.6344 36.8928 50.6303 37.1249 49.6027 37.359C48.41 37.63 46.9123 37.9834 45.3244 38.3568C41.4053 39.2806 36.9634 40.3267 35.4434 40.5371C33.0345 40.8867 30.437 41.2279 27.7674 41.3548C26.2281 41.4278 24.6055 41.5557 22.6626 41.7575C22.223 41.803 21.8056 41.9471 21.402 42.0854C21.2675 42.1318 21.133 42.1783 20.9984 42.22C20.6739 42.3223 20.3494 42.4322 20.036 42.5383C19.4813 42.7259 18.9072 42.9211 18.3247 43.0746C17.3401 43.3352 16.7215 43.8545 16.1224 44.3567L15.9976 44.4609C15.8298 44.6012 15.6579 44.7395 15.4873 44.8788C15.0699 45.218 14.6372 45.5677 14.2572 45.9363C14.0464 46.1419 13.8661 46.3655 13.6914 46.5825C13.6165 46.6754 13.5402 46.7701 13.4612 46.8649L16.1155 32.4706Z" fill="#FAEFE3"/>
</svg>
