<svg width="57" height="48" viewBox="0 0 57 48" fill="none" xmlns="http://www.w3.org/2000/svg">
<path d="M56.6305 26.5804C56.6305 26.5804 56.6305 26.5649 56.6305 26.556C56.6248 26.392 56.5673 26.1971 56.4984 26.1505C55.4241 25.5944 55.1685 24.7236 54.9444 23.9548C54.9042 23.8152 54.864 23.6778 54.8181 23.5426C54.5998 22.8846 54.1919 22.5899 53.3101 22.4569C52.5805 22.3461 52.0979 22.0758 51.8652 21.6681C51.8796 21.513 51.894 21.3579 51.9141 21.2028C51.9227 21.1342 51.9256 21.0721 51.9227 21.0123C51.9227 21.0056 51.9227 20.9968 51.9227 20.9901C51.9227 20.9835 51.9227 20.9746 51.9227 20.968C51.9227 20.9613 51.9227 20.9525 51.9227 20.9458C51.9227 20.9392 51.9227 20.9303 51.9227 20.9237C51.9227 20.917 51.9227 20.9081 51.9227 20.9015C51.9227 20.8949 51.9227 20.886 51.9227 20.8793C51.9227 20.8727 51.9227 20.8638 51.9227 20.8572C51.9227 20.8505 51.9227 20.8417 51.9227 20.835C51.9227 20.8284 51.9227 20.8195 51.9227 20.8129C51.9227 20.8062 51.9227 20.7974 51.9227 20.7907C51.9227 20.7841 51.9227 20.7752 51.9227 20.7686C51.9227 20.7619 51.9227 20.753 51.9227 20.7464C51.9227 20.7398 51.9227 20.7309 51.9227 20.7242C51.9227 20.7176 51.9227 20.7087 51.9227 20.7021C51.9227 20.6954 51.9227 20.6866 51.9227 20.6799C51.9227 20.6733 51.9227 20.6644 51.9227 20.6578C51.9227 20.6511 51.9227 20.6423 51.9227 20.6356C51.9227 20.629 51.9227 20.6201 51.9227 20.6135C51.9227 20.6068 51.9227 20.5979 51.9227 20.5913C51.9227 20.5847 51.9227 20.5758 51.9227 20.5691C51.9227 20.5625 51.9227 20.5536 51.9227 20.547C51.9227 20.5403 51.9227 20.5315 51.9227 20.5248C51.9227 20.5182 51.9227 20.5093 51.9227 20.5027C51.9227 20.496 51.9227 20.4872 51.9227 20.4805C51.9227 20.4739 51.9227 20.465 51.9227 20.4584C51.9227 20.4517 51.9227 20.4429 51.9227 20.4362C51.9227 20.4296 51.9227 20.4207 51.9227 20.414C51.9227 20.4074 51.9227 20.3985 51.9227 20.3919C51.9227 20.3852 51.9227 20.3764 51.9227 20.3697C51.9227 20.3631 51.9227 20.3542 51.9227 20.3476C51.9227 20.3409 51.9227 20.3321 51.9227 20.3254C51.9227 20.3188 51.9227 20.3099 51.9227 20.3033C51.9227 20.2966 51.9227 20.2877 51.9227 20.2811C51.9227 20.2745 51.9227 20.2656 51.9227 20.2589C51.9227 20.2523 51.9227 20.2434 51.9227 20.2368C51.9227 20.2301 51.9227 20.2213 51.9227 20.2146C51.9227 20.208 51.9227 20.1991 51.9227 20.1925C51.9227 20.1858 51.9227 20.177 51.9227 20.1703C51.9227 20.1637 51.9227 20.1548 51.9227 20.1482C51.9227 20.1415 51.9227 20.1326 51.9227 20.126C51.9227 20.1194 51.9227 20.1105 51.9227 20.1038C51.9227 20.0972 51.9227 20.0883 51.9227 20.0817C51.9227 20.075 51.9227 20.0662 51.9227 20.0595C51.9227 20.0529 51.9227 20.044 51.9227 20.0374C51.9227 20.0307 51.9227 20.0219 51.9227 20.0152C51.9227 20.0086 51.9227 19.9997 51.9227 19.9931C51.9227 19.9864 51.9227 19.9776 51.9227 19.9709C51.9227 19.9643 51.9227 19.9554 51.9227 19.9487C51.9227 19.9421 51.9227 19.9332 51.9227 19.9266C51.9227 19.9199 51.9227 19.9111 51.9227 19.9044C51.9227 19.8978 51.9227 19.8889 51.9227 19.8823C51.9227 19.8756 51.9227 19.8668 51.9227 19.8601C51.9227 19.8535 51.9227 19.8446 51.9227 19.838C51.9227 19.8313 51.9227 19.8224 51.9227 19.8158C51.9227 19.8092 51.9227 19.8003 51.9227 19.7936C51.9227 19.787 51.9227 19.7781 51.9227 19.7715C51.9227 19.7648 51.9227 19.756 51.9227 19.7493C51.9227 19.7427 51.9227 19.7338 51.9227 19.7272C51.9227 19.7205 51.9227 19.7117 51.9227 19.705C51.9227 19.6984 51.9227 19.6895 51.9227 19.6829C51.9227 19.6762 51.9227 19.6674 51.9227 19.6607C51.9227 19.6541 51.9227 19.6452 51.9227 19.6385C51.9227 19.6319 51.9227 19.623 51.9227 19.6164C51.9227 19.6097 51.9227 19.6009 51.9227 19.5942C51.9227 19.5876 51.9227 19.5787 51.9227 19.5721C51.9227 19.5654 51.9227 19.5566 51.9227 19.5499C51.9227 19.5433 51.9227 19.5344 51.9227 19.5278C51.9227 19.5211 51.9227 19.5122 51.9227 19.5056C51.9227 19.499 51.9227 19.4901 51.9227 19.4834C51.9227 19.4768 51.9227 19.4679 51.9227 19.4613C51.9227 19.4546 51.9227 19.4458 51.9227 19.4391C51.9227 19.4325 51.9227 19.4236 51.9227 19.417C51.9227 19.4103 51.9227 19.4015 51.9227 19.3948C51.9227 19.3882 51.9227 19.3793 51.9227 19.3727C51.9227 19.366 51.9227 19.3571 51.9227 19.3505C51.9227 19.3439 51.9227 19.335 51.9227 19.3283C51.9227 19.3217 51.9227 19.3128 51.9227 19.3062C51.9227 19.2995 51.9227 19.2907 51.9227 19.284C51.9227 19.2774 51.9227 19.2685 51.9227 19.2619C51.9227 19.2552 51.9227 19.2464 51.9227 19.2397C51.9227 19.2331 51.9227 19.2242 51.9227 19.2176C51.9227 19.2109 51.9227 19.2021 51.9227 19.1954C51.9227 19.1888 51.9227 19.1799 51.9227 19.1732C51.9227 19.1666 51.9227 19.1577 51.9227 19.1511C51.9227 19.1444 51.9227 19.1356 51.9227 19.1289C51.9227 19.1223 51.9227 19.1134 51.9227 19.1068C51.9227 19.1001 51.9227 19.0913 51.9227 19.0846C51.9227 19.078 51.9227 19.0691 51.9227 19.0625C51.9227 19.0558 51.9227 19.0469 51.9227 19.0403C51.9227 19.0337 51.9227 19.0248 51.9227 19.0181C51.9227 19.0115 51.9227 19.0026 51.9227 18.996C51.9227 18.9893 51.9227 18.9805 51.9227 18.9738C51.9227 18.9672 51.9227 18.9583 51.9227 18.9517C51.9227 18.945 51.9227 18.9362 51.9227 18.9295C51.9227 18.9229 51.9227 18.914 51.9227 18.9074C51.9227 18.9007 51.9227 18.8919 51.9227 18.8852C51.9227 18.8786 51.9227 18.8697 51.9227 18.863C51.9227 18.8564 51.9227 18.8475 51.9227 18.8409C51.9227 18.8342 51.9227 18.8254 51.9227 18.8187C51.9227 18.8121 51.9227 18.8032 51.9227 18.7966C51.9141 18.3844 51.6441 18.1784 51.0035 18.0809C50.3458 17.9812 49.6822 17.8593 49.0388 17.7419C47.9732 17.5469 46.8731 17.3453 45.7816 17.2367C45.4311 17.2013 45.1267 17.1858 44.8509 17.1858C43.7364 17.1858 42.9752 17.4627 42.4553 18.0565C41.7918 18.8143 40.8066 18.9539 39.8558 19.0868C39.6979 19.109 39.5428 19.1312 39.3848 19.1555L38.8534 19.2397C37.8911 19.3926 36.9002 19.5499 35.958 19.7759C35.6018 19.8623 35.2629 19.9044 34.9527 19.9044C33.7262 19.9044 32.9822 19.2264 32.9621 18.0898C32.9506 17.4162 32.8788 16.7271 32.807 16.0624C32.7582 15.6082 32.7094 15.1362 32.6806 14.6709C32.6806 14.6377 32.6778 14.6022 32.6749 14.5668C32.7381 13.9796 32.8559 13.4102 32.9593 12.905C32.9909 12.7588 33.0196 12.6214 33.0426 12.4929C33.0426 12.4929 33.0426 12.4929 33.0397 12.4929C33.0397 12.4862 33.0426 12.4796 33.0426 12.4729C33.0426 12.4729 33.0426 12.4729 33.0397 12.4729C33.0397 12.4663 33.0426 12.4596 33.0426 12.453C33.0426 12.453 33.0426 12.453 33.0397 12.453C33.0397 12.4463 33.0426 12.4397 33.0426 12.4331C33.0426 12.4331 33.0426 12.4331 33.0397 12.4331C33.0397 12.4264 33.0426 12.4198 33.0426 12.4131C33.0426 12.4131 33.0426 12.4131 33.0397 12.4131C33.0397 12.4065 33.0426 12.3998 33.0426 12.3932C33.0426 12.3932 33.0426 12.3932 33.0397 12.3932C33.0397 12.3865 33.0426 12.3799 33.0426 12.3732C33.0426 12.3732 33.0426 12.3732 33.0397 12.3732C33.0397 12.3666 33.0426 12.3599 33.0426 12.3533C33.0426 12.3533 33.0426 12.3533 33.0397 12.3533C33.0397 12.3466 33.0426 12.34 33.0426 12.3333C33.0426 12.3333 33.0426 12.3333 33.0397 12.3333C33.0397 12.3267 33.0426 12.3201 33.0426 12.3134C33.0426 12.3134 33.0426 12.3134 33.0397 12.3134C33.0397 12.3068 33.0426 12.3001 33.0426 12.2935C33.0426 12.2935 33.0426 12.2935 33.0397 12.2935C33.0397 12.2868 33.0426 12.2802 33.0426 12.2735C33.0426 12.2735 33.0426 12.2735 33.0397 12.2735C33.0397 12.2669 33.0426 12.2602 33.0426 12.2536C33.0426 12.2536 33.0426 12.2536 33.0397 12.2536C33.0397 12.2469 33.0426 12.2403 33.0426 12.2336C33.0426 12.2336 33.0426 12.2336 33.0397 12.2336C33.0397 12.227 33.0426 12.2203 33.0426 12.2137C33.0426 12.2137 33.0426 12.2137 33.0397 12.2137C33.0397 12.207 33.0426 12.2004 33.0426 12.1938C33.0426 12.1938 33.0426 12.1938 33.0397 12.1938C33.0397 12.1871 33.0426 12.1805 33.0426 12.1738C33.0426 12.1738 33.0426 12.1738 33.0397 12.1738C33.0397 12.1672 33.0426 12.1605 33.0426 12.1539C33.0426 12.1539 33.0426 12.1539 33.0397 12.1539C33.0397 12.1472 33.0426 12.1406 33.0426 12.1339C33.0426 12.1339 33.0426 12.1339 33.0397 12.1339C33.0397 12.1273 33.0426 12.1206 33.0426 12.114C33.0426 12.114 33.0426 12.114 33.0397 12.114C33.0397 12.1073 33.0426 12.1007 33.0426 12.094C33.0426 12.094 33.0426 12.094 33.0397 12.094C33.0397 12.0874 33.0426 12.0808 33.0426 12.0741C33.0426 12.0741 33.0426 12.0741 33.0397 12.0741C33.0397 12.0675 33.0426 12.0608 33.0426 12.0542C33.0426 12.0542 33.0426 12.0542 33.0397 12.0542C33.0397 12.0475 33.0426 12.0409 33.0426 12.0342C33.0426 12.0342 33.0426 12.0342 33.0397 12.0342C33.0397 12.0276 33.0426 12.0209 33.0426 12.0143C33.0426 12.0143 33.0426 12.0143 33.0397 12.0143C33.0397 12.0076 33.0426 12.001 33.0426 11.9943C33.0426 11.9943 33.0426 11.9943 33.0397 11.9943C33.0397 11.9877 33.0426 11.981 33.0426 11.9744C33.0426 11.9744 33.0426 11.9744 33.0397 11.9744C33.0397 11.9678 33.0426 11.9611 33.0426 11.9545C33.0426 11.9545 33.0426 11.9545 33.0397 11.9545C33.0397 11.9478 33.0426 11.9412 33.0426 11.9345C33.0426 11.9345 33.0426 11.9345 33.0397 11.9345C33.0397 11.9279 33.0426 11.9212 33.0426 11.9146C33.0426 11.9146 33.0426 11.9146 33.0397 11.9146C33.0397 11.9079 33.0426 11.9013 33.0426 11.8946C33.0426 11.8946 33.0426 11.8946 33.0397 11.8946C33.0397 11.888 33.0426 11.8813 33.0426 11.8747C33.0426 11.8747 33.0426 11.8747 33.0397 11.8747C33.0397 11.868 33.0426 11.8614 33.0426 11.8547C33.0426 11.8547 33.0426 11.8547 33.0397 11.8547C33.0397 11.8481 33.0426 11.8415 33.0426 11.8348C33.0426 11.8348 33.0426 11.8348 33.0397 11.8348C33.0397 11.8282 33.0426 11.8215 33.0426 11.8149C33.0426 11.8149 33.0426 11.8149 33.0397 11.8149C33.0397 11.8082 33.0426 11.8016 33.0426 11.7949C33.0426 11.7949 33.0426 11.7949 33.0397 11.7949C33.0397 11.7883 33.0426 11.7816 33.0426 11.775C33.0426 11.775 33.0426 11.775 33.0397 11.775C33.0397 11.7683 33.0426 11.7617 33.0426 11.755C33.0426 11.755 33.0426 11.755 33.0397 11.755C33.0397 11.7484 33.0426 11.7417 33.0426 11.7351C33.0426 11.7351 33.0426 11.7351 33.0397 11.7351C33.0397 11.7285 33.0426 11.7218 33.0426 11.7152C33.0426 11.7152 33.0426 11.7152 33.0397 11.7152C33.0397 11.7085 33.0426 11.7019 33.0426 11.6952C33.0426 11.6952 33.0426 11.6952 33.0397 11.6952C33.0397 11.6886 33.0426 11.6819 33.0426 11.6753C33.0426 11.6753 33.0426 11.6753 33.0397 11.6753C33.0397 11.6686 33.0426 11.662 33.0426 11.6553C33.0426 11.6553 33.0426 11.6553 33.0397 11.6553C33.0397 11.6487 33.0426 11.642 33.0426 11.6354C33.0426 11.6354 33.0426 11.6354 33.0397 11.6354C33.0397 11.6287 33.0426 11.6221 33.0426 11.6155C33.0426 11.6155 33.0426 11.6155 33.0397 11.6155C33.0397 11.6088 33.0426 11.6022 33.0426 11.5955C33.0426 11.5955 33.0426 11.5955 33.0397 11.5955C33.0397 11.5889 33.0426 11.5822 33.0426 11.5756C33.0426 11.5756 33.0426 11.5756 33.0397 11.5756C33.0397 11.5689 33.0426 11.5623 33.0426 11.5556C33.0426 11.5556 33.0426 11.5556 33.0397 11.5556C33.0397 11.549 33.0426 11.5423 33.0426 11.5357C33.0426 11.5357 33.0426 11.5357 33.0397 11.5357C33.0397 11.529 33.0426 11.5224 33.0426 11.5157C33.0426 11.5157 33.0426 11.5157 33.0397 11.5157C33.0397 11.5091 33.0426 11.5025 33.0426 11.4958C33.0426 11.4958 33.0426 11.4958 33.0397 11.4958C33.0397 11.4892 33.0426 11.4825 33.0426 11.4759C33.0426 11.4759 33.0426 11.4759 33.0397 11.4759C33.0397 11.4692 33.0426 11.4626 33.0426 11.4559C33.0426 11.4559 33.0426 11.4559 33.0397 11.4559C33.0397 11.4493 33.0426 11.4426 33.0426 11.436C33.0426 11.436 33.0426 11.436 33.0397 11.436C33.0397 11.4293 33.0426 11.4227 33.0426 11.416C33.0426 11.416 33.0426 11.416 33.0397 11.416C33.0397 11.4094 33.0426 11.4027 33.0426 11.3961C33.0426 11.3961 33.0426 11.3961 33.0397 11.3961C33.0397 11.3894 33.0426 11.3828 33.0426 11.3762C33.0426 11.3762 33.0426 11.3762 33.0397 11.3762C33.0397 11.3695 33.0426 11.3629 33.0426 11.3562C33.0426 11.3562 33.0426 11.3562 33.0397 11.3562C33.0397 11.3496 33.0426 11.3429 33.0426 11.3363C33.0426 11.3363 33.0426 11.3363 33.0397 11.3363C33.0397 11.3296 33.0426 11.323 33.0426 11.3163C33.0426 11.3163 33.0426 11.3163 33.0397 11.3163C33.0397 11.3097 33.0426 11.303 33.0426 11.2964C33.0426 11.2964 33.0426 11.2964 33.0397 11.2964C33.0397 11.2897 33.0426 11.2831 33.0426 11.2765C33.0426 11.2765 33.0426 11.2765 33.0397 11.2765C33.0397 11.2698 33.0426 11.2632 33.0426 11.2565C33.0426 11.2565 33.0426 11.2565 33.0397 11.2565C33.0397 11.2499 33.0426 11.2432 33.0426 11.2366C33.0426 11.2366 33.0426 11.2366 33.0397 11.2366C33.0397 11.2299 33.0426 11.2233 33.0426 11.2166C33.0426 11.2166 33.0426 11.2166 33.0397 11.2166C33.0397 11.21 33.0426 11.2033 33.0426 11.1967C33.0426 11.1967 33.0426 11.1967 33.0397 11.1967C33.0397 11.19 33.0426 11.1834 33.0426 11.1767C33.0426 11.1767 33.0426 11.1767 33.0397 11.1767C33.0397 11.1701 33.0426 11.1634 33.0426 11.1568C33.0426 11.1568 33.0426 11.1568 33.0397 11.1568C33.0397 11.1502 33.0426 11.1435 33.0426 11.1369C33.0426 11.1369 33.0426 11.1369 33.0397 11.1369C33.0397 11.1302 33.0426 11.1236 33.0426 11.1169C33.0426 11.1169 33.0426 11.1169 33.0397 11.1169C33.0397 11.1103 33.0426 11.1036 33.0426 11.097C33.0426 11.097 33.0426 11.097 33.0397 11.097C33.0397 11.0903 33.0426 11.0837 33.0426 11.077C33.0426 11.077 33.0426 11.077 33.0397 11.077C33.0397 11.0704 33.0426 11.0637 33.0426 11.0571C33.0426 11.0571 33.0426 11.0571 33.0397 11.0571C33.0397 11.0504 33.0426 11.0438 33.0426 11.0372C33.0426 11.0372 33.0426 11.0372 33.0397 11.0372C33.0397 11.0305 33.0426 11.0239 33.0426 11.0172C33.0426 11.0172 33.0426 11.0172 33.0397 11.0172C33.0397 11.0106 33.0426 11.0039 33.0426 10.9973C33.0426 10.9973 33.0426 10.9973 33.0397 10.9973C33.0397 10.9906 33.0426 10.984 33.0426 10.9773C33.0426 10.9773 33.0426 10.9773 33.0397 10.9773C33.0397 10.9707 33.0426 10.964 33.0426 10.9574C33.0426 10.9574 33.0426 10.9574 33.0397 10.9574C33.0397 10.9507 33.0426 10.9441 33.0426 10.9374C33.0426 10.9374 33.0426 10.9374 33.0397 10.9374C33.0397 10.9308 33.0426 10.9241 33.0426 10.9175C33.0426 10.9175 33.0426 10.9175 33.0397 10.9175C33.0397 10.9109 33.0426 10.9042 33.0426 10.8976C33.0426 10.8976 33.0426 10.8976 33.0397 10.8976C33.0397 10.8909 33.0426 10.8843 33.0426 10.8776C33.0426 10.8776 33.0426 10.8776 33.0397 10.8776C33.0397 10.871 33.0426 10.8643 33.0426 10.8577C33.0426 10.8577 33.0426 10.8577 33.0397 10.8577C33.0397 10.851 33.0426 10.8444 33.0426 10.8377C33.0426 10.8377 33.0426 10.8377 33.0397 10.8377C33.0397 10.8311 33.0426 10.8244 33.0426 10.8178C33.0426 10.8178 33.0426 10.8178 33.0397 10.8178C33.0397 10.8112 33.0426 10.8045 33.0426 10.7979C33.0426 10.7979 33.0426 10.7979 33.0397 10.7979C33.0397 10.7912 33.0426 10.7846 33.0426 10.7779C33.0426 10.7779 33.0426 10.7779 33.0397 10.7779C33.0397 10.7713 33.0426 10.7646 33.0426 10.758C33.0426 10.758 33.0426 10.758 33.0397 10.758C33.0397 10.7513 33.0426 10.7447 33.0426 10.738C33.0426 10.738 33.0426 10.738 33.0397 10.738C33.0397 10.7314 33.0426 10.7247 33.0426 10.7181C33.0426 10.7181 33.0426 10.7181 33.0397 10.7181C33.0397 10.7114 33.0426 10.7048 33.0426 10.6981C33.0426 10.6981 33.0426 10.6981 33.0397 10.6981C33.0397 10.6915 33.0426 10.6849 33.0426 10.6782C33.0426 10.6782 33.0426 10.6782 33.0397 10.6782C33.0397 10.6716 33.0426 10.6649 33.0426 10.6583C33.0426 10.6583 33.0426 10.6583 33.0397 10.6583C33.0397 10.6516 33.0426 10.645 33.0426 10.6383C33.0426 10.6383 33.0426 10.6383 33.0397 10.6383C33.0397 10.6317 33.0426 10.625 33.0426 10.6184C33.0426 10.6184 33.0426 10.6184 33.0397 10.6184C33.0397 10.6117 33.0426 10.6051 33.0426 10.5984C33.0426 10.5984 33.0426 10.5984 33.0397 10.5984C33.0397 10.5918 33.0426 10.5851 33.0426 10.5785C33.0426 10.5785 33.0426 10.5785 33.0397 10.5785C33.0397 10.5719 33.0426 10.5652 33.0426 10.5586C33.0426 10.5586 33.0426 10.5586 33.0397 10.5586C33.0397 10.5519 33.0426 10.5453 33.0426 10.5386C33.0426 10.5386 33.0426 10.5386 33.0397 10.5386C33.0397 10.532 33.0426 10.5253 33.0426 10.5187C33.0426 10.5187 33.0426 10.5187 33.0397 10.5187C33.0397 10.512 33.0426 10.5054 33.0426 10.4987C33.0426 10.4987 33.0426 10.4987 33.0397 10.4987C33.0397 10.4921 33.0426 10.4854 33.0426 10.4788C32.8386 10.4256 32.6462 10.3813 32.471 10.3414C32.0344 10.2417 31.6782 10.1597 31.4254 9.99134C31.4312 9.90271 31.434 9.81408 31.434 9.72767C31.434 9.72102 31.434 9.71215 31.434 9.70551C31.434 9.69886 31.434 9.69 31.434 9.68336C31.434 9.67671 31.434 9.66784 31.434 9.6612C31.434 9.65455 31.434 9.64569 31.434 9.63904C31.434 9.63239 31.434 9.62353 31.434 9.61688C31.434 9.61023 31.434 9.60137 31.434 9.59472C31.434 9.58807 31.434 9.57922 31.434 9.57257C31.434 9.56592 31.434 9.55706 31.434 9.55041C31.434 9.54376 31.434 9.5349 31.434 9.52825C31.434 9.52161 31.434 9.51274 31.434 9.50609C31.434 9.49945 31.434 9.49059 31.434 9.48394C31.434 9.47729 31.434 9.46843 31.434 9.46178C31.434 9.45513 31.434 9.44627 31.434 9.43963C31.434 9.43298 31.434 9.42411 31.434 9.41747C31.434 9.41082 31.434 9.40196 31.434 9.39531C31.434 9.38866 31.434 9.3798 31.434 9.37315C31.434 9.36651 31.434 9.35764 31.434 9.351C31.434 9.34435 31.434 9.33549 31.434 9.32884C31.434 9.32219 31.434 9.31333 31.434 9.30668C31.434 9.30003 31.434 9.29117 31.434 9.28452C31.434 9.27788 31.434 9.26902 31.434 9.26237C31.434 9.25572 31.434 9.24686 31.434 9.24021C31.434 9.23356 31.434 9.2247 31.434 9.21805C31.434 9.21141 31.434 9.20254 31.434 9.1959C31.434 9.18925 31.434 9.18038 31.434 9.17374C31.434 9.16709 31.434 9.15823 31.434 9.15158C31.434 9.14494 31.434 9.13607 31.434 9.12942C31.434 9.12278 31.434 9.11392 31.434 9.10727C31.434 9.10062 31.434 9.09176 31.434 9.08511C31.434 9.07846 31.434 9.0696 31.434 9.06295C31.434 9.0563 31.434 9.04744 31.434 9.0408C31.434 9.03415 31.434 9.02529 31.434 9.01864C31.434 9.01199 31.434 9.00313 31.434 8.99648C31.434 8.98984 31.434 8.98097 31.434 8.97433C31.434 8.96768 31.434 8.95881 31.434 8.95217C31.434 8.94552 31.434 8.93666 31.434 8.93001C31.434 8.92336 31.434 8.9145 31.434 8.90785C31.434 8.90121 31.434 8.89234 31.434 8.8857C31.434 8.87905 31.434 8.87019 31.434 8.86354C31.434 8.85689 31.434 8.84803 31.434 8.84138C31.434 8.83473 31.434 8.82587 31.434 8.81923C31.434 8.81258 31.434 8.80371 31.434 8.79707C31.434 8.79042 31.434 8.78156 31.434 8.77491C31.434 8.76826 31.434 8.7594 31.434 8.75275C31.434 8.74611 31.434 8.73724 31.434 8.7306C31.434 8.72395 31.434 8.71509 31.434 8.70844C31.434 8.70179 31.434 8.69293 31.434 8.68628C31.434 8.67963 31.434 8.67077 31.434 8.66413C31.434 8.65748 31.434 8.64861 31.434 8.64197C31.434 8.63532 31.434 8.62646 31.434 8.61981C31.434 8.61316 31.434 8.6043 31.434 8.59765C31.434 8.59101 31.434 8.58214 31.434 8.5755C31.434 8.56885 31.434 8.55999 31.434 8.55334C31.434 8.54669 31.434 8.53783 31.434 8.53118C31.434 8.52454 31.434 8.51567 31.434 8.50902C31.434 8.50238 31.434 8.49352 31.434 8.48687C31.434 8.48022 31.434 8.47136 31.434 8.46471C31.434 8.45806 31.434 8.4492 31.434 8.44256C31.434 8.43591 31.434 8.42704 31.434 8.4204C31.434 8.41375 31.434 8.40489 31.434 8.39824C31.434 8.39159 31.434 8.38273 31.434 8.37608C31.434 8.36944 31.434 8.36057 31.434 8.35392C31.434 8.34728 31.434 8.33842 31.434 8.33177C31.434 8.32512 31.434 8.31626 31.434 8.30961C31.434 8.30296 31.434 8.2941 31.434 8.28745C31.434 8.28081 31.434 8.27194 31.434 8.2653C31.434 8.25865 31.434 8.24979 31.434 8.24314C31.434 8.23649 31.434 8.22763 31.434 8.22098C31.434 8.21434 31.434 8.20547 31.434 8.19883C31.434 8.19218 31.434 8.18331 31.434 8.17667C31.434 8.17002 31.434 8.16116 31.434 8.15451C31.434 8.14786 31.434 8.139 31.434 8.13235C31.434 8.12571 31.434 8.11685 31.434 8.1102C31.434 8.10355 31.434 8.09469 31.434 8.08804C31.434 8.08139 31.434 8.07253 31.434 8.06588C31.434 8.05923 31.434 8.05037 31.434 8.04373C31.434 8.03708 31.434 8.02822 31.434 8.02157C31.434 8.01492 31.434 8.00606 31.434 7.99941C31.434 7.99277 31.434 7.9839 31.434 7.97725C31.434 7.97061 31.434 7.96174 31.434 7.9551C31.434 7.94845 31.434 7.93959 31.434 7.93294C31.434 7.92629 31.434 7.91743 31.434 7.91078C31.434 7.90414 31.434 7.89527 31.434 7.88863C31.434 7.88198 31.434 7.87312 31.434 7.86647C31.434 7.85982 31.434 7.85096 31.434 7.84431C31.434 7.83766 31.434 7.8288 31.434 7.82216C31.434 7.81551 31.434 7.80664 31.434 7.8C31.434 7.79335 31.434 7.78449 31.434 7.77784C31.434 7.77119 31.434 7.76233 31.434 7.75568C31.434 7.74904 31.434 7.74017 31.434 7.73352C31.434 7.72688 31.434 7.71802 31.434 7.71137C31.434 7.70472 31.434 7.69586 31.434 7.68921C31.434 7.68256 31.434 7.6737 31.434 7.66706C31.434 7.66041 31.434 7.65155 31.434 7.6449C31.434 7.63825 31.434 7.62939 31.434 7.62274C31.434 7.61609 31.434 7.60723 31.434 7.60058C31.434 7.59394 31.434 7.58507 31.434 7.57843C31.434 7.57178 31.434 7.56292 31.434 7.55627C31.434 7.54962 31.434 7.54076 31.434 7.53411C31.434 7.52746 31.434 7.5186 31.434 7.51195C31.434 7.2926 31.4024 7.08875 31.3134 6.90263C31.1927 6.65004 31.0319 6.62789 30.894 6.62789C30.7217 6.62789 30.512 6.67885 30.288 6.73203C30.0955 6.77856 29.9002 6.82508 29.702 6.84503C29.297 6.88712 28.8805 6.94252 28.4784 6.9957C27.6482 7.10648 26.7894 7.2217 25.9507 7.2217C24.4427 7.2217 23.2793 6.84059 22.2912 6.02078C22.2568 5.99198 22.0931 5.97647 21.9954 5.96761C21.8403 5.9521 21.6622 5.93658 21.51 5.87454C21.1337 5.72166 20.7832 5.53554 20.5965 5.43583C20.5879 5.4314 20.5822 5.42918 20.5764 5.42475C20.4328 5.45134 20.2921 5.48458 20.1542 5.51781C19.91 5.57542 19.7004 5.62638 19.5108 5.62638C19.3959 5.62638 19.2925 5.60644 19.2063 5.56656C18.7381 5.35163 18.3274 5.24528 17.9511 5.24528C17.4657 5.24528 17.0147 5.41589 16.535 5.78592C16.423 5.87233 16.2564 5.91443 16.0295 5.91443C15.8514 5.91443 15.6503 5.89005 15.455 5.86568C15.3028 5.84796 15.1448 5.82801 15.0155 5.82358L14.8403 5.81694C14.8403 5.81694 14.8403 5.80807 14.8403 5.80364C14.8403 5.79699 14.8403 5.78813 14.8403 5.78148C14.8403 5.77484 14.8403 5.76598 14.8403 5.75933C14.8403 5.75268 14.8403 5.74382 14.8403 5.73717C14.8403 5.73052 14.8403 5.72166 14.8403 5.71501C14.8403 5.70837 14.8403 5.6995 14.8403 5.69286C14.8403 5.68621 14.8403 5.67734 14.8403 5.6707C14.8403 5.66405 14.8403 5.65519 14.8403 5.64854C14.8403 5.6419 14.8403 5.63303 14.8403 5.62638C14.8403 5.61974 14.8403 5.61088 14.8403 5.60423C14.8403 5.59758 14.8403 5.58872 14.8403 5.58207C14.8403 5.57542 14.8403 5.56656 14.8403 5.55991C14.8403 5.55327 14.8403 5.5444 14.8403 5.53776C14.8403 5.53111 14.8403 5.52225 14.8403 5.5156C14.8403 5.50895 14.8403 5.50009 14.8403 5.49344C14.8403 5.4868 14.8403 5.47793 14.8403 5.47128C14.8403 5.46464 14.8403 5.45577 14.8403 5.44913C14.8403 5.44248 14.8403 5.43362 14.8403 5.42697C14.8403 5.42032 14.8403 5.41146 14.8403 5.40481C14.8403 5.39817 14.8403 5.38931 14.8403 5.38266C14.8403 5.37601 14.8403 5.36715 14.8403 5.3605C14.8403 5.35385 14.8403 5.34499 14.8403 5.33834C14.8288 5.10126 14.6249 4.93065 14.3261 4.70465C14.0877 4.52739 13.8436 4.34127 13.7344 4.08647C13.5477 3.64332 13.2835 3.5547 12.9158 3.5547C12.844 3.5547 12.7664 3.55912 12.686 3.56577C12.5826 3.57463 12.4792 3.57907 12.3815 3.57907C11.4997 3.57907 10.8333 3.22898 10.3967 2.53547C10.0779 2.02807 9.76768 1.51181 9.44023 0.964528C9.32246 0.76733 9.20182 0.565699 9.07544 0.357422C9.00363 0.379579 8.93182 0.401737 8.86001 0.423894C8.54117 0.523601 8.20798 0.625523 7.91787 0.762898C7.24286 1.07974 6.67126 1.2282 6.11976 1.2282C5.56826 1.2282 5.00815 1.06867 4.46527 0.742957C4.14356 0.547974 3.80175 0.448267 3.44557 0.448267C3.0894 0.448267 2.74471 0.539111 2.37418 0.718584C1.77959 1.00663 1.11895 1.21269 0.478408 1.41432C0.349151 1.4542 0.219894 1.4963 0.0906372 1.53618C0.0992543 1.54061 0.10787 1.54504 0.116488 1.54948C0.10787 1.55169 0.0992543 1.55391 0.0906372 1.55834C0.0992543 1.56277 0.10787 1.5672 0.116488 1.57163C0.10787 1.57385 0.0992543 1.57606 0.0906372 1.5805C0.0992543 1.58493 0.10787 1.58936 0.116488 1.59379C0.10787 1.59601 0.0992543 1.59822 0.0906372 1.60265C0.0992543 1.60708 0.10787 1.61152 0.116488 1.61595C0.10787 1.61816 0.0992543 1.62038 0.0906372 1.62481C0.0992543 1.62924 0.10787 1.63367 0.116488 1.6381C0.10787 1.64032 0.0992543 1.64254 0.0906372 1.64697C0.0992543 1.6514 0.10787 1.65583 0.116488 1.66026C0.10787 1.66248 0.0992543 1.66469 0.0906372 1.66912C0.0992543 1.67355 0.10787 1.67799 0.116488 1.68242C0.10787 1.68463 0.0992543 1.68685 0.0906372 1.69128C0.0992543 1.69571 0.10787 1.70014 0.116488 1.70458C0.10787 1.70679 0.0992543 1.709 0.0906372 1.71344C0.0992543 1.71787 0.10787 1.7223 0.116488 1.72673C0.10787 1.72895 0.0992543 1.73116 0.0906372 1.73559C0.0992543 1.74003 0.10787 1.74446 0.116488 1.74889C0.10787 1.7511 0.0992543 1.75332 0.0906372 1.75775C0.0992543 1.76218 0.10787 1.76662 0.116488 1.77105C0.10787 1.77326 0.0992543 1.77548 0.0906372 1.77991C0.0992543 1.78434 0.10787 1.78877 0.116488 1.7932C0.10787 1.79542 0.0992543 1.79764 0.0906372 1.80207C0.0992543 1.8065 0.10787 1.81093 0.116488 1.81536C0.10787 1.81758 0.0992543 1.81979 0.0906372 1.82422C0.0992543 1.82865 0.10787 1.83309 0.116488 1.83752C0.10787 1.83973 0.0992543 1.84195 0.0906372 1.84638C0.0992543 1.85081 0.10787 1.85524 0.116488 1.85967C0.10787 1.86189 0.0992543 1.86411 0.0906372 1.86854C0.0992543 1.87297 0.10787 1.8774 0.116488 1.88183C0.10787 1.88405 0.0992543 1.88626 0.0906372 1.89069C0.0992543 1.89513 0.10787 1.89956 0.116488 1.90399C0.10787 1.9062 0.0992543 1.90842 0.0906372 1.91285C0.0992543 1.91728 0.10787 1.92171 0.116488 1.92615C0.10787 1.92836 0.0992543 1.93058 0.0906372 1.93501C0.0992543 1.93944 0.10787 1.94387 0.116488 1.9483C0.10787 1.95052 0.0992543 1.95273 0.0906372 1.95717C0.0992543 1.9616 0.10787 1.96603 0.116488 1.97046C0.10787 1.97268 0.0992543 1.97489 0.0906372 1.97932C0.0992543 1.98376 0.10787 1.98819 0.116488 1.99262C0.10787 1.99483 0.0992543 1.99705 0.0906372 2.00148C0.0992543 2.00591 0.10787 2.01034 0.116488 2.01477C0.10787 2.01699 0.0992543 2.01921 0.0906372 2.02364C0.0992543 2.02807 0.10787 2.0325 0.116488 2.03693C0.10787 2.03915 0.0992543 2.04136 0.0906372 2.04579C0.0992543 2.05022 0.10787 2.05466 0.116488 2.05909C0.10787 2.06131 0.0992543 2.06352 0.0906372 2.06795C0.0992543 2.07238 0.10787 2.07681 0.116488 2.08125C0.10787 2.08346 0.0992543 2.08568 0.0906372 2.09011C0.0992543 2.09454 0.10787 2.09897 0.116488 2.1034C0.10787 2.10562 0.0992543 2.10783 0.0906372 2.11227C0.0992543 2.1167 0.10787 2.12113 0.116488 2.12556C0.10787 2.12777 0.0992543 2.12999 0.0906372 2.13442C0.0992543 2.13886 0.10787 2.14329 0.116488 2.14772C0.10787 2.14993 0.0992543 2.15215 0.0906372 2.15658C0.0992543 2.16101 0.10787 2.16544 0.116488 2.16988C0.10787 2.17209 0.0992543 2.17431 0.0906372 2.17874C0.0992543 2.18317 0.10787 2.1876 0.116488 2.19203C0.10787 2.19425 0.0992543 2.19646 0.0906372 2.2009C0.0992543 2.20533 0.10787 2.20976 0.116488 2.21419C0.10787 2.21641 0.0992543 2.21862 0.0906372 2.22305C0.0992543 2.22748 0.10787 2.23191 0.116488 2.23634C0.10787 2.23856 0.0992543 2.24078 0.0906372 2.24521C0.0992543 2.24964 0.10787 2.25407 0.116488 2.2585C0.10787 2.26072 0.0992543 2.26293 0.0906372 2.26736C0.0992543 2.2718 0.10787 2.27623 0.116488 2.28066C0.10787 2.28288 0.0992543 2.28509 0.0906372 2.28952C0.0992543 2.29395 0.10787 2.29839 0.116488 2.30282C0.10787 2.30503 0.0992543 2.30725 0.0906372 2.31168C0.0992543 2.31611 0.10787 2.32054 0.116488 2.32498C0.10787 2.32719 0.0992543 2.3294 0.0906372 2.33384C0.0992543 2.33827 0.10787 2.3427 0.116488 2.34713C0.10787 2.34935 0.0992543 2.35156 0.0906372 2.35599C0.0992543 2.36043 0.10787 2.36486 0.116488 2.36929C0.10787 2.3715 0.0992543 2.37372 0.0906372 2.37815C0.0992543 2.38258 0.10787 2.38702 0.116488 2.39145C0.10787 2.39366 0.0992543 2.39588 0.0906372 2.40031C0.0992543 2.40474 0.10787 2.40917 0.116488 2.4136C0.10787 2.41582 0.0992543 2.41804 0.0906372 2.42247C0.0992543 2.4269 0.10787 2.43133 0.116488 2.43576C0.10787 2.43798 0.0992543 2.44019 0.0906372 2.44462C0.0992543 2.44905 0.10787 2.45348 0.116488 2.45792C0.10787 2.46013 0.0992543 2.46235 0.0906372 2.46678C0.0992543 2.47121 0.10787 2.47564 0.116488 2.48007C0.10787 2.48229 0.0992543 2.4845 0.0906372 2.48894C0.0992543 2.49337 0.10787 2.4978 0.116488 2.50223C0.10787 2.50445 0.0992543 2.50666 0.0906372 2.51109C0.0992543 2.51553 0.10787 2.51996 0.116488 2.52439C0.10787 2.5266 0.0992543 2.52882 0.0906372 2.53325C0.0992543 2.53768 0.10787 2.54211 0.116488 2.54655C0.10787 2.54876 0.0992543 2.55098 0.0906372 2.55541C0.0992543 2.55984 0.10787 2.56427 0.116488 2.5687C0.10787 2.57092 0.0992543 2.57313 0.0906372 2.57757C0.0992543 2.582 0.10787 2.58643 0.116488 2.59086C0.10787 2.59308 0.0992543 2.59529 0.0906372 2.59972C0.0992543 2.60415 0.10787 2.60859 0.116488 2.61302C0.10787 2.61523 0.0992543 2.61745 0.0906372 2.62188C0.0992543 2.62631 0.10787 2.63074 0.116488 2.63517C0.10787 2.63739 0.0992543 2.63961 0.0906372 2.64404C0.0992543 2.64847 0.10787 2.6529 0.116488 2.65733C0.10787 2.65955 0.0992543 2.66176 0.0906372 2.66619C0.0992543 2.67062 0.10787 2.67506 0.116488 2.67949C0.10787 2.6817 0.0992543 2.68392 0.0906372 2.68835C0.0992543 2.69278 0.10787 2.69721 0.116488 2.70165C0.10787 2.70386 0.0992543 2.70608 0.0906372 2.71051C0.0992543 2.71494 0.10787 2.71937 0.116488 2.7238C0.10787 2.72602 0.0992543 2.72823 0.0906372 2.73267C0.0992543 2.7371 0.10787 2.74153 0.116488 2.74596C0.10787 2.74817 0.0992543 2.75039 0.0906372 2.75482C0.0992543 2.75926 0.10787 2.76369 0.116488 2.76812C0.10787 2.77033 0.0992543 2.77255 0.0906372 2.77698C0.0992543 2.78141 0.10787 2.78584 0.116488 2.79027C0.10787 2.79249 0.0992543 2.79471 0.0906372 2.79914C0.0992543 2.80357 0.10787 2.808 0.116488 2.81243C0.10787 2.81465 0.0992543 2.81686 0.0906372 2.82129C0.0992543 2.82572 0.10787 2.83016 0.116488 2.83459C0.10787 2.83681 0.0992543 2.83902 0.0906372 2.84345C0.0992543 2.84788 0.10787 2.85231 0.116488 2.85674C0.10787 2.85896 0.0992543 2.86118 0.0906372 2.86561C0.0992543 2.87004 0.10787 2.87447 0.116488 2.8789C0.10787 2.88112 0.0992543 2.88333 0.0906372 2.88776C0.0992543 2.8922 0.10787 2.89663 0.116488 2.90106C0.10787 2.90327 0.0992543 2.90549 0.0906372 2.90992C0.0992543 2.91435 0.10787 2.91879 0.116488 2.92322C0.10787 2.92543 0.0992543 2.92765 0.0906372 2.93208C0.0992543 2.93651 0.10787 2.94094 0.116488 2.94537C0.10787 2.94759 0.0992543 2.94981 0.0906372 2.95424C0.0992543 2.95867 0.10787 2.9631 0.116488 2.96753C0.10787 2.96975 0.0992543 2.97196 0.0906372 2.97639C0.0992543 2.98083 0.10787 2.98526 0.116488 2.98969C0.10787 2.9919 0.0992543 2.99412 0.0906372 2.99855C0.0992543 3.00298 0.10787 3.00741 0.116488 3.01184C0.10787 3.01406 0.0992543 3.01628 0.0906372 3.02071C0.0992543 3.02514 0.10787 3.02957 0.116488 3.034C0.10787 3.03622 0.0992543 3.03843 0.0906372 3.04286C0.0992543 3.04729 0.10787 3.05173 0.116488 3.05616C0.10787 3.05838 0.0992543 3.06059 0.0906372 3.06502C0.0992543 3.06945 0.10787 3.07388 0.116488 3.07832C0.10787 3.08053 0.0992543 3.08275 0.0906372 3.08718C0.0992543 3.09161 0.10787 3.09604 0.116488 3.10047C0.10787 3.10269 0.0992543 3.1049 0.0906372 3.10934C0.0992543 3.11377 0.10787 3.1182 0.116488 3.12263C0.10787 3.12485 0.0992543 3.12706 0.0906372 3.13149C0.0992543 3.13593 0.10787 3.14036 0.116488 3.14479C0.10787 3.147 0.0992543 3.14922 0.0906372 3.15365C0.0992543 3.15808 0.10787 3.16251 0.116488 3.16695C0.10787 3.16916 0.0992543 3.17138 0.0906372 3.17581C0.0992543 3.18024 0.10787 3.18467 0.116488 3.1891C0.10787 3.19132 0.0992543 3.19353 0.0906372 3.19797C0.0992543 3.2024 0.10787 3.20683 0.116488 3.21126C0.10787 3.21348 0.0992543 3.21569 0.0906372 3.22012C0.0992543 3.22455 0.10787 3.22898 0.116488 3.23341C0.10787 3.23563 0.0992543 3.23785 0.0906372 3.24228C0.0992543 3.24671 0.10787 3.25114 0.116488 3.25557C0.10787 3.25779 0.0992543 3.26 0.0906372 3.26443C0.0992543 3.26887 0.10787 3.2733 0.116488 3.27773C0.10787 3.27995 0.0992543 3.28216 0.0906372 3.28659C0.0992543 3.29102 0.10787 3.29546 0.116488 3.29989C0.10787 3.3021 0.0992543 3.30432 0.0906372 3.30875C0.0992543 3.31318 0.10787 3.31761 0.116488 3.32205C0.10787 3.32426 0.0992543 3.32648 0.0906372 3.33091C0.0992543 3.33534 0.10787 3.33977 0.116488 3.3442C0.10787 3.34642 0.0992543 3.34863 0.0906372 3.35307C0.0992543 3.3575 0.10787 3.36193 0.116488 3.36636C0.10787 3.36857 0.0992543 3.37079 0.0906372 3.37522C0.0992543 3.37965 0.10787 3.38409 0.116488 3.38852C0.10787 3.39073 0.0992543 3.39295 0.0906372 3.39738C0.0992543 3.40181 0.10787 3.40624 0.116488 3.41067C0.10787 3.41289 0.0992543 3.41511 0.0906372 3.41954C0.0992543 3.42397 0.10787 3.4284 0.116488 3.43283C0.10787 3.43505 0.0992543 3.43726 0.0906372 3.44169C0.0992543 3.44612 0.10787 3.45055 0.116488 3.45499C0.10787 3.4572 0.0992543 3.45942 0.0906372 3.46385C0.0992543 3.46828 0.10787 3.47271 0.116488 3.47714C0.10787 3.47936 0.0992543 3.48157 0.0906372 3.48601C0.0992543 3.49044 0.10787 3.49487 0.116488 3.4993C0.10787 3.50152 0.0992543 3.50373 0.0906372 3.50816C0.0992543 3.5126 0.10787 3.51703 0.116488 3.52146C0.10787 3.52367 0.0992543 3.52589 0.0906372 3.53032C0.0992543 3.53475 0.10787 3.53919 0.116488 3.54362C0.10787 3.54583 0.0992543 3.54805 0.0906372 3.55248C0.0992543 3.55691 0.10787 3.56134 0.116488 3.56577C0.10787 3.56799 0.0992543 3.5702 0.0906372 3.57464C0.0992543 3.57907 0.10787 3.5835 0.116488 3.58793C0.10787 3.59015 0.0992543 3.59236 0.0906372 3.59679C0.0992543 3.60122 0.10787 3.60566 0.116488 3.61009C0.10787 3.6123 0.0992543 3.61452 0.0906372 3.61895C0.0992543 3.62338 0.10787 3.62781 0.116488 3.63224C0.10787 3.63446 0.0992543 3.63668 0.0906372 3.64111C0.0992543 3.64554 0.10787 3.64997 0.116488 3.6544C0.10787 3.65662 0.0992543 3.65883 0.0906372 3.66326C0.0992543 3.66769 0.10787 3.67213 0.116488 3.67656C0.10787 3.67877 0.0992543 3.68099 0.0906372 3.68542C0.0992543 3.68985 0.10787 3.69428 0.116488 3.69872C0.10787 3.70093 0.0992543 3.70315 0.0906372 3.70758C0.0992543 3.71201 0.10787 3.71644 0.116488 3.72087C0.10787 3.72309 0.0992543 3.7253 0.0906372 3.72974C0.0992543 3.73417 0.10787 3.7386 0.116488 3.74303C0.10787 3.74524 0.0992543 3.74746 0.0906372 3.75189C0.0992543 3.75633 0.10787 3.76076 0.116488 3.76519C0.10787 3.7674 0.0992543 3.76962 0.0906372 3.77405C0.780008 4.10197 1.08448 4.42547 1.20225 4.96389C1.18789 5.18767 1.17927 5.37823 1.18501 5.53776C1.18501 5.5444 1.18501 5.55327 1.18501 5.55991C1.18501 5.56656 1.18501 5.57542 1.18501 5.58207C1.18501 5.58872 1.18501 5.59758 1.18501 5.60423C1.18501 5.61088 1.18501 5.61974 1.18501 5.62638C1.18501 5.63303 1.18501 5.6419 1.18501 5.64854C1.18501 5.65519 1.18501 5.66405 1.18501 5.6707C1.18501 5.67734 1.18501 5.68621 1.18501 5.69286C1.18501 5.6995 1.18501 5.70837 1.18501 5.71501C1.18501 5.72166 1.18501 5.73052 1.18501 5.73717C1.18501 5.74382 1.18501 5.75268 1.18501 5.75933C1.18501 5.76598 1.18501 5.77484 1.18501 5.78148C1.18501 5.78813 1.18501 5.79699 1.18501 5.80364C1.18501 5.81029 1.18501 5.81915 1.18501 5.8258C1.18501 5.83245 1.18501 5.84131 1.18501 5.84796C1.18501 5.8546 1.18501 5.86347 1.18501 5.87011C1.18501 5.87676 1.18501 5.88562 1.18501 5.89227C1.18501 5.89892 1.18501 5.90778 1.18501 5.91443C1.18501 5.92107 1.18501 5.92994 1.18501 5.93659C1.18501 5.94323 1.18501 5.95209 1.18501 5.95874C1.18501 5.96539 1.18501 5.97425 1.18501 5.9809C1.18501 5.98755 1.18501 5.99641 1.18501 6.00305C1.18501 6.0097 1.18501 6.01857 1.18501 6.02521C1.18501 6.03186 1.18501 6.04072 1.18501 6.04737C1.18501 6.05402 1.18501 6.06288 1.18501 6.06953C1.18501 6.07617 1.18501 6.08504 1.18501 6.09168C1.18501 6.09833 1.18501 6.10719 1.18501 6.11384C1.18501 6.12049 1.18501 6.12935 1.18501 6.136C1.18501 6.14265 1.18501 6.15151 1.18501 6.15816C1.18501 6.1648 1.18501 6.17367 1.18501 6.18031C1.18501 6.18696 1.18501 6.19582 1.18501 6.20247C1.18501 6.20912 1.18501 6.21798 1.18501 6.22463C1.18501 6.23127 1.18501 6.24014 1.18501 6.24678C1.18501 6.25343 1.18501 6.2623 1.18501 6.26894C1.18501 6.27559 1.18501 6.28445 1.18501 6.2911C1.18501 6.29774 1.18501 6.30661 1.18501 6.31326C1.18501 6.3199 1.18501 6.32876 1.18501 6.33541C1.18501 6.34206 1.18501 6.35092 1.18501 6.35757C1.18501 6.36422 1.18501 6.37308 1.18501 6.37973C1.18501 6.38638 1.18501 6.39524 1.18501 6.40188C1.18501 6.40853 1.18501 6.41739 1.18501 6.42404C1.18501 6.43069 1.18501 6.43955 1.18501 6.4462C1.18501 6.45284 1.18501 6.46171 1.18501 6.46836C1.18501 6.475 1.18501 6.48387 1.18501 6.49051C1.18501 6.49716 1.18501 6.50602 1.18501 6.51267C1.18501 6.51932 1.18501 6.52818 1.18501 6.53483C1.18501 6.54147 1.18501 6.55034 1.18501 6.55698C1.18501 6.56363 1.18501 6.57249 1.18501 6.57914C1.18501 6.58579 1.18501 6.59465 1.18501 6.6013C1.18501 6.60795 1.18501 6.61681 1.18501 6.62345C1.18501 6.6301 1.18501 6.63897 1.18501 6.64561C1.18501 6.65226 1.18501 6.66112 1.18501 6.66777C1.18501 6.67442 1.18501 6.68328 1.18501 6.68993C1.18501 6.69657 1.18501 6.70544 1.18501 6.71208C1.18501 6.71873 1.18501 6.72759 1.18501 6.73424C1.18501 6.74089 1.18501 6.74975 1.18501 6.7564C1.18501 6.76305 1.18501 6.77191 1.18501 6.77855C1.18501 6.7852 1.18501 6.79406 1.18501 6.80071C1.18501 6.80736 1.18501 6.81622 1.18501 6.82287C1.18501 6.82952 1.18501 6.83838 1.18501 6.84503C1.18501 6.85167 1.18501 6.86054 1.18501 6.86718C1.18501 6.87383 1.18501 6.88269 1.18501 6.88934C1.18501 6.89599 1.18501 6.90485 1.18501 6.9115C1.18501 6.91814 1.18501 6.92701 1.18501 6.93366C1.18501 6.9403 1.18501 6.94916 1.18501 6.95581C1.18501 6.96246 1.18501 6.97132 1.18501 6.97797C1.18501 6.98462 1.18501 6.99348 1.18501 7.00012C1.18501 7.00677 1.18501 7.01564 1.18501 7.02228C1.18501 7.02893 1.18501 7.03779 1.18501 7.04444C1.18501 7.05109 1.18501 7.05995 1.18501 7.0666C1.18501 7.07324 1.18501 7.08211 1.18501 7.08876C1.18501 7.0954 1.18501 7.10426 1.18501 7.11091C1.18501 7.11756 1.18501 7.12642 1.18501 7.13307C1.18501 7.13972 1.18501 7.14858 1.18501 7.15523C1.18501 7.16187 1.18501 7.17074 1.18501 7.17738C1.18501 7.18403 1.18501 7.19289 1.18501 7.19954C1.18501 7.20619 1.18501 7.21505 1.18501 7.2217C1.18501 7.22834 1.18501 7.23721 1.18501 7.24385C1.18501 7.2505 1.18501 7.25937 1.18501 7.26601C1.18501 7.27266 1.18501 7.28152 1.18501 7.28817C1.18501 7.29482 1.18501 7.30368 1.18501 7.31033C1.18501 7.31697 1.18501 7.32583 1.18501 7.33248C1.18501 7.33913 1.18501 7.34799 1.18501 7.35464C1.18501 7.36129 1.18501 7.37015 1.18501 7.3768C1.18501 7.38345 1.18501 7.39231 1.18501 7.39895C1.18501 7.4056 1.18501 7.41446 1.18501 7.42111C1.18501 7.42776 1.18501 7.43662 1.18501 7.44327C1.18501 7.44991 1.18501 7.45878 1.18501 7.46543C1.18501 7.47207 1.18501 7.48094 1.18501 7.48758C1.18501 7.49423 1.18501 7.50309 1.18501 7.50974C1.18501 7.51639 1.18501 7.52525 1.18501 7.5319C1.18501 7.53854 1.18501 7.54741 1.18501 7.55405C1.18501 7.5607 1.18501 7.56956 1.18501 7.57621C1.18501 7.58286 1.18501 7.59172 1.18501 7.59837C1.18501 7.60502 1.18501 7.61388 1.18501 7.62052C1.18501 7.62717 1.18501 7.63604 1.18501 7.64268C1.18501 7.64933 1.18501 7.65819 1.18501 7.66484C1.18501 7.67149 1.18501 7.68035 1.18501 7.687C1.18501 7.69364 1.18501 7.70251 1.18501 7.70916C1.18501 7.7158 1.18501 7.72466 1.18501 7.73131C1.18501 7.73796 1.18501 7.74682 1.18501 7.75347C1.19937 8.55777 1.4981 8.66856 2.91706 9.00756C3.13248 9.05852 3.32493 9.12278 3.49441 9.1959C3.34791 9.46843 3.28759 9.7321 3.29621 9.99355C3.29621 10.0002 3.29621 10.0091 3.29621 10.0157C3.29621 10.0224 3.29621 10.0312 3.29621 10.0379C3.29621 10.0445 3.29621 10.0534 3.29621 10.06C3.29621 10.0667 3.29621 10.0755 3.29621 10.0822C3.29621 10.0888 3.29621 10.0977 3.29621 10.1043C3.29621 10.111 3.29621 10.1199 3.29621 10.1265C3.29621 10.1331 3.29621 10.142 3.29621 10.1486C3.29621 10.1553 3.29621 10.1642 3.29621 10.1708C3.29621 10.1775 3.29621 10.1863 3.29621 10.193C3.29621 10.1996 3.29621 10.2085 3.29621 10.2151C3.29621 10.2218 3.29621 10.2306 3.29621 10.2373C3.29621 10.2439 3.29621 10.2528 3.29621 10.2594C3.29621 10.2661 3.29621 10.2749 3.29621 10.2816C3.29621 10.2882 3.29621 10.2971 3.29621 10.3038C3.29621 10.3104 3.29621 10.3193 3.29621 10.3259C3.29621 10.3326 3.29621 10.3414 3.29621 10.3481C3.29621 10.3547 3.29621 10.3636 3.29621 10.3702C3.29621 10.3769 3.29621 10.3857 3.29621 10.3924C3.29621 10.399 3.29621 10.4079 3.29621 10.4145C3.29621 10.4212 3.29621 10.43 3.29621 10.4367C3.29621 10.4433 3.29621 10.4522 3.29621 10.4589C3.29621 10.4655 3.29621 10.4744 3.29621 10.481C3.29621 10.4877 3.29621 10.4965 3.29621 10.5032C3.29621 10.5098 3.29621 10.5187 3.29621 10.5253C3.29621 10.532 3.29621 10.5408 3.29621 10.5475C3.29621 10.5541 3.29621 10.563 3.29621 10.5696C3.29621 10.5763 3.29621 10.5851 3.29621 10.5918C3.29621 10.5984 3.29621 10.6073 3.29621 10.6139C3.29621 10.6206 3.29621 10.6295 3.29621 10.6361C3.29621 10.6428 3.29621 10.6516 3.29621 10.6583C3.29621 10.6649 3.29621 10.6738 3.29621 10.6804C3.29621 10.6871 3.29621 10.6959 3.29621 10.7026C3.29621 10.7092 3.29621 10.7181 3.29621 10.7247C3.29621 10.7314 3.29621 10.7402 3.29621 10.7469C3.29621 10.7535 3.29621 10.7624 3.29621 10.7691C3.29621 10.7757 3.29621 10.7846 3.29621 10.7912C3.29621 10.7979 3.29621 10.8067 3.29621 10.8134C3.29621 10.82 3.29621 10.8289 3.29621 10.8355C3.29621 10.8422 3.29621 10.851 3.29621 10.8577C3.29621 10.8643 3.29621 10.8732 3.29621 10.8798C3.29621 10.8865 3.29621 10.8953 3.29621 10.902C3.29621 10.9086 3.29621 10.9175 3.29621 10.9241C3.29621 10.9308 3.29621 10.9397 3.29621 10.9463C3.29621 10.953 3.29621 10.9618 3.29621 10.9685C3.29621 10.9751 3.29621 10.984 3.29621 10.9906C3.29621 10.9973 3.29621 11.0061 3.29621 11.0128C3.29621 11.0194 3.29621 11.0283 3.29621 11.0349C3.29621 11.0416 3.29621 11.0504 3.29621 11.0571C3.29621 11.0637 3.29621 11.0726 3.29621 11.0793C3.29621 11.0859 3.29621 11.0948 3.29621 11.1014C3.29621 11.1081 3.29621 11.1169 3.29621 11.1236C3.29621 11.1302 3.29621 11.1391 3.29621 11.1457C3.29621 11.1524 3.29621 11.1612 3.29621 11.1679C3.29621 11.1745 3.29621 11.1834 3.29621 11.19C3.29621 11.1967 3.29621 11.2055 3.29621 11.2122C3.29621 11.2188 3.29621 11.2277 3.29621 11.2344C3.29621 11.241 3.29621 11.2499 3.29621 11.2565C3.29621 11.2632 3.29621 11.272 3.29621 11.2787C3.29621 11.2853 3.29621 11.2942 3.29621 11.3008C3.29621 11.3075 3.29621 11.3163 3.29621 11.323C3.29621 11.3296 3.29621 11.3385 3.29621 11.3451C3.29621 11.3518 3.29621 11.3606 3.29621 11.3673C3.29621 11.3739 3.29621 11.3828 3.29621 11.3894C3.29621 11.3961 3.29621 11.405 3.29621 11.4116C3.29621 11.4183 3.29621 11.4271 3.29621 11.4338C3.29621 11.4404 3.29621 11.4493 3.29621 11.4559C3.29621 11.4626 3.29621 11.4714 3.29621 11.4781C3.29621 11.4847 3.29621 11.4936 3.29621 11.5002C3.29621 11.5069 3.29621 11.5157 3.29621 11.5224C3.29621 11.529 3.29621 11.5379 3.29621 11.5446C3.29621 11.5512 3.29621 11.5601 3.29621 11.5667C3.29621 11.5734 3.29621 11.5822 3.29621 11.5889C3.29621 11.5955 3.29621 11.6044 3.29621 11.611C3.29621 11.6177 3.29621 11.6265 3.29621 11.6332C3.29621 11.6398 3.29621 11.6487 3.29621 11.6553C3.29621 11.662 3.29621 11.6708 3.29621 11.6775C3.29621 11.6841 3.29621 11.693 3.29621 11.6996C3.29621 11.7063 3.29621 11.7152 3.29621 11.7218C3.29621 11.7285 3.29621 11.7373 3.29621 11.744C3.29621 11.7506 3.29621 11.7595 3.29621 11.7661C3.29621 11.7728 3.29621 11.7816 3.29621 11.7883C3.29621 11.7949 3.29621 11.8038 3.29621 11.8104C3.29621 11.8171 3.29621 11.8259 3.29621 11.8326C3.29621 11.8392 3.29621 11.8481 3.29621 11.8547C3.29621 11.8614 3.29621 11.8703 3.29621 11.8769C3.29621 11.8836 3.29621 11.8924 3.29621 11.8991C3.29621 11.9057 3.29621 11.9146 3.29621 11.9212C3.29621 11.9279 3.29621 11.9367 3.29621 11.9434C3.29621 11.95 3.29621 11.9589 3.29621 11.9655C3.29621 11.9722 3.29621 11.981 3.29621 11.9877C3.29621 11.9943 3.29621 12.0032 3.29621 12.0099C3.29621 12.0165 3.29621 12.0254 3.29621 12.032C3.29621 12.0387 3.29621 12.0475 3.29621 12.0542C3.29621 12.0608 3.29621 12.0697 3.29621 12.0763C3.29621 12.083 3.29621 12.0918 3.29621 12.0985C3.29621 12.1051 3.29621 12.114 3.29621 12.1206C3.29621 12.1273 3.29621 12.1361 3.29621 12.1428C3.29621 12.1494 3.29621 12.1583 3.29621 12.1649C3.29621 12.1716 3.29621 12.1805 3.29621 12.1871C3.29621 12.1938 3.29621 12.2026 3.29621 12.2093C3.30483 12.8142 3.66962 13.4013 4.1292 14.0129C4.18665 14.0084 4.24697 14.0062 4.31016 14.0062C5.43326 14.0062 7.11648 14.7662 7.64499 15.5129C7.81446 15.7522 8.04138 15.9671 8.27979 16.1975C8.46075 16.3704 8.65032 16.5498 8.81405 16.7448C9.53502 17.5957 10.0578 18.2559 10.5174 18.8874C10.6035 19.0071 10.6639 19.1311 10.7242 19.2508C10.8879 19.5832 11.0057 19.8225 11.5658 19.8823C11.965 19.9266 12.4131 20.3609 12.574 20.7331C12.551 21.174 12.5223 21.6105 12.4936 22.0426C12.462 22.5301 12.4304 23.0197 12.4045 23.5072C12.3442 24.6771 11.8272 25.0604 10.2675 25.0826H10.1526C9.89119 25.087 9.27938 25.0914 9.17884 25.2C8.41479 26.0176 7.35775 26.166 6.3438 26.2502C6.16284 26.2657 5.78369 26.5427 5.7205 26.6557C5.7205 26.6601 5.72337 26.6646 5.72624 26.6712C5.72624 26.6712 5.7205 26.6756 5.7205 26.6779C5.7205 26.6823 5.72337 26.6867 5.72624 26.6934C5.72624 26.6934 5.7205 26.6978 5.7205 26.7C5.7205 26.7045 5.72337 26.7089 5.72624 26.7155C5.72624 26.7155 5.7205 26.72 5.7205 26.7222C5.7205 26.7266 5.72337 26.731 5.72624 26.7377C5.72624 26.7377 5.7205 26.7421 5.7205 26.7443C5.7205 26.7488 5.72337 26.7532 5.72624 26.7598C5.72624 26.7598 5.7205 26.7643 5.7205 26.7665C5.7205 26.7709 5.72337 26.7754 5.72624 26.782C5.72624 26.782 5.7205 26.7864 5.7205 26.7886C5.7205 26.7931 5.72337 26.7975 5.72624 26.8042C5.72624 26.8042 5.7205 26.8086 5.7205 26.8108C5.7205 26.8152 5.72337 26.8197 5.72624 26.8263C5.72624 26.8263 5.7205 26.8307 5.7205 26.833C5.7205 26.8374 5.72337 26.8418 5.72624 26.8485C5.72624 26.8485 5.7205 26.8529 5.7205 26.8551C5.7205 26.8596 5.72337 26.864 5.72624 26.8706C5.72624 26.8706 5.7205 26.8751 5.7205 26.8773C5.7205 26.8817 5.72337 26.8861 5.72624 26.8928C5.72624 26.8928 5.7205 26.8972 5.7205 26.8994C5.7205 26.9039 5.72337 26.9083 5.72624 26.9149C5.72624 26.9149 5.7205 26.9194 5.7205 26.9216C5.7205 26.926 5.72337 26.9305 5.72624 26.9371C5.72624 26.9371 5.7205 26.9415 5.7205 26.9437C5.7205 26.9482 5.72337 26.9526 5.72624 26.9593C5.72624 26.9593 5.7205 26.9637 5.7205 26.9659C5.7205 26.9703 5.72337 26.9748 5.72624 26.9814C5.72624 26.9814 5.7205 26.9858 5.7205 26.9881C5.7205 26.9925 5.72337 26.9969 5.72624 27.0036C5.72624 27.0036 5.7205 27.008 5.7205 27.0102C5.7205 27.0146 5.72337 27.0191 5.72624 27.0257C5.72624 27.0257 5.7205 27.0302 5.7205 27.0324C5.7205 27.0368 5.72337 27.0412 5.72624 27.0479C5.72624 27.0479 5.7205 27.0523 5.7205 27.0545C5.7205 27.059 5.72337 27.0634 5.72624 27.07C5.72624 27.07 5.7205 27.0745 5.7205 27.0767C5.7205 27.0811 5.72337 27.0856 5.72624 27.0922C5.72624 27.0922 5.7205 27.0966 5.7205 27.0988C5.7205 27.1033 5.72337 27.1077 5.72624 27.1144C5.72624 27.1144 5.7205 27.1188 5.7205 27.121C5.7205 27.1254 5.72337 27.1299 5.72624 27.1365C5.72624 27.1365 5.7205 27.1409 5.7205 27.1432C5.7205 27.1476 5.72337 27.152 5.72624 27.1587C5.72624 27.1587 5.7205 27.1631 5.7205 27.1653C5.7205 27.1698 5.72337 27.1742 5.72624 27.1808C5.72624 27.1808 5.7205 27.1853 5.7205 27.1875C5.7205 27.1919 5.72337 27.1963 5.72624 27.203C5.72624 27.203 5.7205 27.2074 5.7205 27.2096C5.7205 27.2141 5.72337 27.2185 5.72624 27.2251C5.72624 27.2251 5.7205 27.2296 5.7205 27.2318C5.7205 27.2362 5.72337 27.2407 5.72624 27.2473C5.72624 27.2473 5.7205 27.2517 5.7205 27.2539C5.7205 27.2584 5.72337 27.2628 5.72624 27.2695C5.72624 27.2695 5.7205 27.2739 5.7205 27.2761C5.7205 27.2805 5.72337 27.285 5.72624 27.2916C5.72624 27.2916 5.7205 27.296 5.7205 27.2983C5.7205 27.3027 5.72337 27.3071 5.72624 27.3138C5.72624 27.3138 5.7205 27.3182 5.7205 27.3204C5.7205 27.3248 5.72337 27.3293 5.72624 27.3359C5.72624 27.3359 5.7205 27.3404 5.7205 27.3426C5.7205 27.347 5.72337 27.3514 5.72624 27.3581C5.72624 27.3581 5.7205 27.3625 5.7205 27.3647C5.7205 27.3692 5.72337 27.3736 5.72624 27.3802C5.72624 27.3802 5.7205 27.3847 5.7205 27.3869C5.7205 27.3913 5.72337 27.3958 5.72624 27.4024C5.72624 27.4024 5.7205 27.4068 5.7205 27.409C5.7205 27.4135 5.72337 27.4179 5.72624 27.4246C5.72624 27.4246 5.7205 27.429 5.7205 27.4312C5.7205 27.4356 5.72337 27.4401 5.72624 27.4467C5.72624 27.4467 5.7205 27.4511 5.7205 27.4534C5.7205 27.4578 5.72337 27.4622 5.72624 27.4689C5.72624 27.4689 5.7205 27.4733 5.7205 27.4755C5.7205 27.4799 5.72337 27.4844 5.72624 27.491C5.72624 27.491 5.7205 27.4955 5.7205 27.4977C5.7205 27.5021 5.72337 27.5065 5.72624 27.5132C5.72624 27.5132 5.7205 27.5176 5.7205 27.5198C5.7205 27.5243 5.72337 27.5287 5.72624 27.5353C5.72624 27.5353 5.7205 27.5398 5.7205 27.542C5.7205 27.5464 5.72337 27.5509 5.72624 27.5575C5.72624 27.5575 5.7205 27.5619 5.7205 27.5641C5.7205 27.5686 5.72337 27.573 5.72624 27.5797C5.72624 27.5797 5.7205 27.5841 5.7205 27.5863C5.7205 27.5907 5.72337 27.5952 5.72624 27.6018C5.72624 27.6018 5.7205 27.6062 5.7205 27.6085C5.7205 27.6129 5.72337 27.6173 5.72624 27.624C5.72624 27.624 5.7205 27.6284 5.7205 27.6306C5.7205 27.6351 5.72337 27.6395 5.72624 27.6461C5.72624 27.6461 5.7205 27.6506 5.7205 27.6528C5.7205 27.6572 5.72337 27.6616 5.72624 27.6683C5.72624 27.6683 5.7205 27.6727 5.7205 27.6749C5.7205 27.6794 5.72337 27.6838 5.72624 27.6904C5.72624 27.6904 5.7205 27.6949 5.7205 27.6971C5.7205 27.7015 5.72337 27.706 5.72624 27.7126C5.72624 27.7126 5.7205 27.717 5.7205 27.7192C5.7205 27.7237 5.72337 27.7281 5.72624 27.7348C5.72624 27.7348 5.7205 27.7392 5.7205 27.7414C5.7205 27.7458 5.72337 27.7503 5.72624 27.7569C5.72624 27.7569 5.7205 27.7613 5.7205 27.7636C5.7205 27.768 5.72337 27.7724 5.72624 27.7791C5.72624 27.7791 5.7205 27.7835 5.7205 27.7857C5.7205 27.7901 5.72337 27.7946 5.72624 27.8012C5.72624 27.8012 5.7205 27.8057 5.7205 27.8079C5.7205 27.8123 5.72337 27.8167 5.72624 27.8234C5.72624 27.8234 5.7205 27.8278 5.7205 27.83C5.7205 27.8345 5.72337 27.8389 5.72624 27.8455C5.72624 27.8455 5.7205 27.85 5.7205 27.8522C5.7205 27.8566 5.72337 27.861 5.72624 27.8677C5.72624 27.8677 5.7205 27.8721 5.7205 27.8743C5.7205 27.8788 5.72337 27.8832 5.72624 27.8899C5.72624 27.8899 5.7205 27.8943 5.7205 27.8965C5.7205 27.9009 5.72337 27.9054 5.72624 27.912C5.72624 27.912 5.7205 27.9164 5.7205 27.9187C5.7205 27.9231 5.72337 27.9275 5.72624 27.9342C5.72624 27.9342 5.7205 27.9386 5.7205 27.9408C5.7205 27.9452 5.72337 27.9497 5.72624 27.9563C5.72624 27.9563 5.7205 27.9608 5.7205 27.963C5.7205 27.9674 5.72337 27.9718 5.72624 27.9785C5.72624 27.9785 5.7205 27.9829 5.7205 27.9851C5.7205 27.9896 5.72337 27.994 5.72624 28.0006C5.72624 28.0006 5.7205 28.0051 5.7205 28.0073C5.7205 28.0117 5.72337 28.0162 5.72624 28.0228C5.72624 28.0228 5.7205 28.0272 5.7205 28.0294C5.7205 28.0339 5.72337 28.0383 5.72624 28.045C5.72624 28.045 5.7205 28.0494 5.7205 28.0516C5.7205 28.056 5.72337 28.0605 5.72624 28.0671C5.72624 28.0671 5.7205 28.0715 5.7205 28.0738C5.7205 28.0782 5.72337 28.0826 5.72624 28.0893C5.72624 28.0893 5.7205 28.0937 5.7205 28.0959C5.7205 28.1003 5.72337 28.1048 5.72624 28.1114C5.72624 28.1114 5.7205 28.1159 5.7205 28.1181C5.7205 28.1225 5.72337 28.1269 5.72624 28.1336C5.72624 28.1336 5.7205 28.138 5.7205 28.1402C5.7205 28.1447 5.72337 28.1491 5.72624 28.1557C5.72624 28.1557 5.7205 28.1602 5.7205 28.1624C5.7205 28.1668 5.72337 28.1713 5.72624 28.1779C5.72624 28.1779 5.7205 28.1823 5.7205 28.1845C5.7205 28.189 5.72337 28.1934 5.72624 28.2001C5.72624 28.2001 5.7205 28.2045 5.7205 28.2067C5.7205 28.2111 5.72337 28.2156 5.72624 28.2222C5.72624 28.2222 5.7205 28.2266 5.7205 28.2289C5.7205 28.2333 5.72337 28.2377 5.72624 28.2444C5.72624 28.2444 5.7205 28.2488 5.7205 28.251C5.7205 28.2554 5.72337 28.2599 5.72624 28.2665C5.72624 28.2665 5.7205 28.271 5.7205 28.2732C5.7205 28.2776 5.72337 28.282 5.72624 28.2887C5.72624 28.2887 5.7205 28.2931 5.7205 28.2953C5.7205 28.2998 5.72337 28.3042 5.72624 28.3108C5.72624 28.3108 5.7205 28.3153 5.7205 28.3175C5.7205 28.3219 5.72337 28.3264 5.72624 28.333C5.72624 28.333 5.7205 28.3374 5.7205 28.3396C5.7205 28.3441 5.72337 28.3485 5.72624 28.3552C5.72624 28.3552 5.7205 28.3596 5.7205 28.3618C5.7205 28.3662 5.72337 28.3707 5.72624 28.3773C5.72624 28.3773 5.7205 28.3817 5.7205 28.384C5.7205 28.3884 5.72337 28.3928 5.72624 28.3995C5.72624 28.3995 5.7205 28.4039 5.7205 28.4061C5.7205 28.4106 5.72337 28.415 5.72624 28.4216C5.72624 28.4216 5.7205 28.4261 5.7205 28.4283C5.7205 28.4327 5.72337 28.4371 5.72624 28.4438C5.72624 28.4438 5.7205 28.4482 5.7205 28.4504C5.7205 28.4549 5.72337 28.4593 5.72624 28.4659C5.72624 28.4659 5.7205 28.4704 5.7205 28.4726C5.7205 28.477 5.72337 28.4815 5.72624 28.4881C5.72624 28.4881 5.7205 28.4925 5.7205 28.4947C5.7205 28.4992 5.72337 28.5036 5.72624 28.5103C5.72624 28.5103 5.7205 28.5147 5.7205 28.5169C5.7205 28.5213 5.72337 28.5258 5.72624 28.5324C5.72624 28.5324 5.7205 28.5368 5.7205 28.5391C5.7205 28.5435 5.72337 28.5479 5.72624 28.5546C5.72624 28.5546 5.7205 28.559 5.7205 28.5612C5.7205 28.5656 5.72337 28.5701 5.72624 28.5767C5.72624 28.5767 5.7205 28.5812 5.7205 28.5834C5.7205 28.5878 5.72337 28.5922 5.72624 28.5989C5.72624 28.5989 5.7205 28.6033 5.7205 28.6055C5.7205 28.61 5.72337 28.6144 5.72624 28.621C5.72624 28.621 5.7205 28.6255 5.7205 28.6277C5.7205 28.6321 5.72337 28.6365 5.72624 28.6432C5.72624 28.6432 5.7205 28.6476 5.7205 28.6498C5.7205 28.6543 5.72337 28.6587 5.72624 28.6654C5.72624 28.6654 5.7205 28.6698 5.7205 28.672C5.7205 28.6764 5.72337 28.6809 5.72624 28.6875C5.72624 28.6875 5.7205 28.6919 5.7205 28.6942C5.7205 28.6986 5.72337 28.703 5.72624 28.7097C5.72624 28.7097 5.7205 28.7141 5.7205 28.7163C5.7205 28.7207 5.72337 28.7252 5.72624 28.7318C5.72624 28.7318 5.7205 28.7363 5.7205 28.7385C5.7205 28.7429 5.72337 28.7473 5.72624 28.754C5.72624 28.754 5.7205 28.7584 5.7205 28.7606C5.7205 28.7651 5.72337 28.7695 5.72624 28.7761C5.72624 28.7761 5.7205 28.7806 5.7205 28.7828C5.7205 28.7872 5.72337 28.7917 5.72624 28.7983C5.72624 28.7983 5.7205 28.8027 5.7205 28.8049C5.7205 28.8094 5.72337 28.8138 5.72624 28.8205C5.72624 28.8205 5.7205 28.8249 5.7205 28.8271C5.7205 28.8315 5.72337 28.836 5.72624 28.8426C5.72624 28.8426 5.7205 28.847 5.7205 28.8493C5.7205 28.8537 5.72337 28.8581 5.72624 28.8648C5.72624 28.8648 5.7205 28.8692 5.7205 28.8714C5.7205 28.8758 5.72337 28.8803 5.72624 28.8869C5.72624 28.8869 5.7205 28.8914 5.7205 28.8936C5.95603 29.5649 6.26912 30.2341 6.60232 30.9409C6.68274 31.1115 6.76317 31.2843 6.84647 31.4616C7.28594 31.1935 7.71967 31.0583 8.13904 31.0583C8.65894 31.0583 9.13001 31.2755 9.46608 31.6699C9.693 31.9357 10.0434 32.2504 10.4398 32.2504C10.5719 32.2504 10.7069 32.2149 10.8419 32.1485L10.9856 32.0775L11.1234 32.1573C11.4308 32.3346 11.7151 32.5096 11.9823 32.6736C12.5338 33.0126 13.0106 33.3073 13.5362 33.5355C16.0898 34.6544 17.5461 36.5068 18.9564 38.2993L19.1029 38.4854C19.5567 39.0637 19.9761 39.1767 20.5448 39.1767C20.6827 39.1767 20.8378 39.17 21.0303 39.1545C21.1653 39.1435 21.3031 39.139 21.4382 39.139C21.8345 39.139 22.3774 39.1856 22.7106 39.4116C23.2162 39.755 23.6642 40.1494 24.098 40.5327C24.4024 40.8008 24.7184 41.08 25.0487 41.3348C25.2785 41.5121 25.6376 41.6627 25.8329 41.6627C25.8501 41.6627 25.8645 41.6627 25.8788 41.6583C26.2523 41.5852 26.6889 41.5098 27.0939 41.5098C27.9326 41.5098 28.4439 41.84 28.6507 42.5136C28.9092 42.4493 29.1562 42.3828 29.4004 42.3186C30.1558 42.1192 30.871 41.9286 31.6064 41.82C31.7902 41.7934 32.0028 41.7779 32.2239 41.7779C32.537 41.7779 33.2953 41.8112 33.5682 42.1192C33.5969 42.1524 33.6199 42.1901 33.6458 42.2277C33.5941 42.3429 33.5395 42.4582 33.4849 42.5645C33.4533 42.6288 33.4188 42.6908 33.3901 42.7529C33.393 42.7529 33.3959 42.7551 33.3987 42.7573C33.3987 42.7639 33.393 42.7684 33.3901 42.775C33.393 42.775 33.3959 42.7772 33.3987 42.7794C33.3987 42.7861 33.393 42.7905 33.3901 42.7972C33.393 42.7972 33.3959 42.7994 33.3987 42.8016C33.3987 42.8082 33.393 42.8127 33.3901 42.8193C33.393 42.8193 33.3959 42.8215 33.3987 42.8237C33.3987 42.8304 33.393 42.8348 33.3901 42.8415C33.393 42.8415 33.3959 42.8437 33.3987 42.8459C33.3987 42.8526 33.393 42.857 33.3901 42.8636C33.393 42.8636 33.3959 42.8659 33.3987 42.8681C33.3987 42.8747 33.393 42.8791 33.3901 42.8858C33.393 42.8858 33.3959 42.888 33.3987 42.8902C33.3987 42.8969 33.393 42.9013 33.3901 42.9079C33.393 42.9079 33.3959 42.9102 33.3987 42.9124C33.3987 42.919 33.393 42.9235 33.3901 42.9301C33.393 42.9301 33.3959 42.9323 33.3987 42.9345C33.3987 42.9412 33.393 42.9456 33.3901 42.9523C33.393 42.9523 33.3959 42.9545 33.3987 42.9567C33.3987 42.9633 33.393 42.9678 33.3901 42.9744C33.393 42.9744 33.3959 42.9766 33.3987 42.9789C33.3987 42.9855 33.393 42.9899 33.3901 42.9966C33.393 42.9966 33.3959 42.9988 33.3987 43.001C33.3987 43.0077 33.393 43.0121 33.3901 43.0187C33.393 43.0187 33.3959 43.021 33.3987 43.0232C33.3987 43.0298 33.393 43.0342 33.3901 43.0409C33.393 43.0409 33.3959 43.0431 33.3987 43.0453C33.3987 43.052 33.393 43.0564 33.3901 43.0631C33.393 43.0631 33.3959 43.0653 33.3987 43.0675C33.3987 43.0741 33.393 43.0786 33.3901 43.0852C33.393 43.0852 33.3959 43.0874 33.3987 43.0896C33.3987 43.0963 33.393 43.1007 33.3901 43.1074C33.393 43.1074 33.3959 43.1096 33.3987 43.1118C33.3987 43.1184 33.393 43.1229 33.3901 43.1295C33.393 43.1295 33.3959 43.1317 33.3987 43.134C33.3987 43.1406 33.393 43.145 33.3901 43.1517C33.393 43.1517 33.3959 43.1539 33.3987 43.1561C33.3987 43.1628 33.393 43.1672 33.3901 43.1738C33.393 43.1738 33.3959 43.1761 33.3987 43.1783C33.3987 43.1849 33.393 43.1894 33.3901 43.196C33.393 43.196 33.3959 43.1982 33.3987 43.2004C33.3987 43.2071 33.393 43.2115 33.3901 43.2181C33.393 43.2181 33.3959 43.2204 33.3987 43.2226C33.3987 43.2292 33.393 43.2337 33.3901 43.2403C33.393 43.2403 33.3959 43.2425 33.3987 43.2447C33.3987 43.2514 33.393 43.2558 33.3901 43.2625C33.393 43.2625 33.3959 43.2647 33.3987 43.2669C33.3987 43.2735 33.393 43.278 33.3901 43.2846C33.393 43.2846 33.3959 43.2868 33.3987 43.2891C33.3987 43.2957 33.393 43.3001 33.3901 43.3068C33.393 43.3068 33.3959 43.309 33.3987 43.3112C33.3987 43.3179 33.393 43.3223 33.3901 43.3289C33.393 43.3289 33.3959 43.3312 33.3987 43.3334C33.3987 43.34 33.393 43.3444 33.3901 43.3511C33.393 43.3511 33.3959 43.3533 33.3987 43.3555C33.3987 43.3622 33.393 43.3666 33.3901 43.3732C33.393 43.3732 33.3959 43.3755 33.3987 43.3777C33.3987 43.3843 33.393 43.3888 33.3901 43.3954C33.393 43.3954 33.3959 43.3976 33.3987 43.3998C33.3987 43.4065 33.393 43.4109 33.3901 43.4176C33.393 43.4176 33.3959 43.4198 33.3987 43.422C33.3987 43.4286 33.393 43.4331 33.3901 43.4397C33.393 43.4397 33.3959 43.4419 33.3987 43.4442C33.3987 43.4508 33.393 43.4552 33.3901 43.4619C33.393 43.4619 33.3959 43.4641 33.3987 43.4663C33.3987 43.473 33.393 43.4774 33.3901 43.484C33.393 43.484 33.3959 43.4862 33.3987 43.4885C33.3987 43.4951 33.393 43.4995 33.3901 43.5062C33.393 43.5062 33.3959 43.5084 33.3987 43.5106C33.3987 43.5173 33.393 43.5217 33.3901 43.5284C33.393 43.5284 33.3959 43.5306 33.3987 43.5328C33.3987 43.5394 33.393 43.5439 33.3901 43.5505C33.393 43.5505 33.3959 43.5527 33.3987 43.5549C33.3987 43.5616 33.393 43.566 33.3901 43.5727C33.393 43.5727 33.3959 43.5749 33.3987 43.5771C33.3987 43.5837 33.393 43.5882 33.3901 43.5948C33.393 43.5948 33.3959 43.597 33.3987 43.5993C33.3987 43.6059 33.393 43.6103 33.3901 43.617C33.393 43.617 33.3959 43.6192 33.3987 43.6214C33.3987 43.6281 33.393 43.6325 33.3901 43.6391C33.393 43.6391 33.3959 43.6413 33.3987 43.6436C33.3987 43.6502 33.393 43.6546 33.3901 43.6613C33.393 43.6613 33.3959 43.6635 33.3987 43.6657C33.3987 43.6724 33.393 43.6768 33.3901 43.6834C33.393 43.6834 33.3959 43.6857 33.3987 43.6879C33.3987 43.6945 33.393 43.699 33.3901 43.7056C33.393 43.7056 33.3959 43.7078 33.3987 43.71C33.3987 43.7167 33.393 43.7211 33.3901 43.7278C33.393 43.7278 33.3959 43.73 33.3987 43.7322C33.3987 43.7388 33.393 43.7433 33.3901 43.7499C33.393 43.7499 33.3959 43.7521 33.3987 43.7544C33.3987 43.761 33.393 43.7654 33.3901 43.7721C33.393 43.7721 33.3959 43.7743 33.3987 43.7765C33.3987 43.7832 33.393 43.7876 33.3901 43.7942C33.393 43.7942 33.3959 43.7965 33.3987 43.7987C33.3987 43.8053 33.393 43.8097 33.3901 43.8164C33.393 43.8164 33.3959 43.8186 33.3987 43.8208C33.3987 43.8275 33.393 43.8319 33.3901 43.8386C33.393 43.8386 33.3959 43.8408 33.3987 43.843C33.3987 43.8496 33.393 43.8541 33.3901 43.8607C33.393 43.8607 33.3959 43.8629 33.3987 43.8651C33.3987 43.8718 33.393 43.8762 33.3901 43.8829C33.393 43.8829 33.3959 43.8851 33.3987 43.8873C33.3987 43.8939 33.393 43.8984 33.3901 43.905C33.393 43.905 33.3959 43.9072 33.3987 43.9095C33.3987 43.9161 33.393 43.9205 33.3901 43.9272C33.393 43.9272 33.3959 43.9294 33.3987 43.9316C33.3987 43.9383 33.393 43.9427 33.3901 43.9493C33.393 43.9493 33.3959 43.9515 33.3987 43.9538C33.3987 43.9604 33.393 43.9648 33.3901 43.9715C33.393 43.9715 33.3959 43.9737 33.3987 43.9759C33.3987 43.9826 33.393 43.987 33.3901 43.9936C33.393 43.9936 33.3959 43.9959 33.3987 43.9981C33.3987 44.0047 33.393 44.0092 33.3901 44.0158C33.393 44.0158 33.3959 44.018 33.3987 44.0202C33.3987 44.0269 33.393 44.0313 33.3901 44.038C33.393 44.038 33.3959 44.0402 33.3987 44.0424C33.3987 44.049 33.393 44.0535 33.3901 44.0601C33.393 44.0601 33.3959 44.0623 33.3987 44.0646C33.3987 44.0712 33.393 44.0756 33.3901 44.0823C33.393 44.0823 33.3959 44.0845 33.3987 44.0867C33.3987 44.0934 33.393 44.0978 33.3901 44.1044C33.393 44.1044 33.3959 44.1067 33.3987 44.1089C33.3987 44.1155 33.393 44.1199 33.3901 44.1266C33.393 44.1266 33.3959 44.1288 33.3987 44.131C33.3987 44.1377 33.393 44.1421 33.3901 44.1488C33.393 44.1488 33.3959 44.151 33.3987 44.1532C33.3987 44.1598 33.393 44.1643 33.3901 44.1709C33.393 44.1709 33.3959 44.1731 33.3987 44.1753C33.3987 44.182 33.393 44.1864 33.3901 44.1931C33.393 44.1931 33.3959 44.1953 33.3987 44.1975C33.3987 44.2041 33.393 44.2086 33.3901 44.2152C33.393 44.2152 33.3959 44.2174 33.3987 44.2197C33.3987 44.2263 33.393 44.2307 33.3901 44.2374C33.393 44.2374 33.3959 44.2396 33.3987 44.2418C33.3987 44.2485 33.393 44.2529 33.3901 44.2595C33.393 44.2595 33.3959 44.2617 33.3987 44.264C33.3987 44.2706 33.393 44.275 33.3901 44.2817C33.393 44.2817 33.3959 44.2839 33.3987 44.2861C33.3987 44.2928 33.393 44.2972 33.3901 44.3039C33.393 44.3039 33.3959 44.3061 33.3987 44.3083C33.3987 44.3149 33.393 44.3194 33.3901 44.326C33.393 44.326 33.3959 44.3282 33.3987 44.3304C33.3987 44.3371 33.393 44.3415 33.3901 44.3482C33.393 44.3482 33.3959 44.3504 33.3987 44.3526C33.3987 44.3592 33.393 44.3637 33.3901 44.3703C33.393 44.3703 33.3959 44.3725 33.3987 44.3747C33.3987 44.3814 33.393 44.3858 33.3901 44.3925C33.393 44.3925 33.3959 44.3947 33.3987 44.3969C33.3987 44.4036 33.393 44.408 33.3901 44.4146C33.393 44.4146 33.3959 44.4169 33.3987 44.4191C33.3987 44.4257 33.393 44.4301 33.3901 44.4368C33.393 44.4368 33.3959 44.439 33.3987 44.4412C33.3987 44.4479 33.393 44.4523 33.3901 44.4589C33.393 44.4589 33.3959 44.4612 33.3987 44.4634C33.3987 44.47 33.393 44.4745 33.3901 44.4811C33.393 44.4811 33.3959 44.4833 33.3987 44.4855C33.3987 44.4922 33.393 44.4966 33.3901 44.5033C33.393 44.5033 33.3959 44.5055 33.3987 44.5077C33.3987 44.5143 33.393 44.5188 33.3901 44.5254C33.393 44.5254 33.3959 44.5276 33.3987 44.5299C33.3987 44.5365 33.393 44.5409 33.3901 44.5476C33.393 44.5476 33.3959 44.5498 33.3987 44.552C33.3987 44.5587 33.393 44.5631 33.3901 44.5697C33.393 44.5697 33.3959 44.572 33.3987 44.5742C33.3987 44.5808 33.393 44.5852 33.3901 44.5919C33.393 44.5919 33.3959 44.5941 33.3987 44.5963C33.3987 44.603 33.393 44.6074 33.3901 44.6141C33.393 44.6141 33.3959 44.6163 33.3987 44.6185C33.3987 44.6251 33.393 44.6296 33.3901 44.6362C33.393 44.6362 33.3959 44.6384 33.3987 44.6406C33.3987 44.6473 33.393 44.6517 33.3901 44.6584C33.393 44.6584 33.3959 44.6606 33.3987 44.6628C33.3987 44.6694 33.393 44.6739 33.3901 44.6805C33.393 44.6805 33.3959 44.6827 33.3987 44.685C33.3987 44.6916 33.393 44.696 33.3901 44.7027C33.393 44.7027 33.3959 44.7049 33.3987 44.7071C33.3987 44.7138 33.393 44.7182 33.3901 44.7248C33.393 44.7248 33.3959 44.7271 33.3987 44.7293C33.3987 44.7359 33.393 44.7403 33.3901 44.747C33.393 44.747 33.3959 44.7492 33.3987 44.7514C33.3987 44.7581 33.393 44.7625 33.3901 44.7691C33.393 44.7691 33.3959 44.7714 33.3987 44.7736C33.3987 44.7802 33.393 44.7847 33.3901 44.7913C33.393 44.7913 33.3959 44.7935 33.3987 44.7957C33.3987 44.8024 33.393 44.8068 33.3901 44.8135C33.393 44.8135 33.3959 44.8157 33.3987 44.8179C33.3987 44.8245 33.393 44.829 33.3901 44.8356C33.393 44.8356 33.3959 44.8378 33.3987 44.84C33.3987 44.8467 33.393 44.8511 33.3901 44.8578C33.393 44.8578 33.3959 44.86 33.3987 44.8622C33.3987 44.8689 33.393 44.8733 33.3901 44.8799C33.393 44.8799 33.3959 44.8822 33.3987 44.8844C33.3987 44.891 33.393 44.8954 33.3901 44.9021C33.393 44.9021 33.3959 44.9043 33.3987 44.9065C33.3987 44.9132 33.393 44.9176 33.3901 44.9242C33.393 44.9242 33.3959 44.9265 33.3987 44.9287C33.3987 44.9353 33.393 44.9398 33.3901 44.9464C33.393 44.9464 33.3959 44.9486 33.3987 44.9508C33.3987 44.9575 33.393 44.9619 33.3901 44.9686C33.393 44.9686 33.3959 44.9708 33.3987 44.973C33.3987 44.9796 33.393 44.9841 33.3901 44.9907C33.5625 45.0816 33.7405 45.1658 33.9158 45.2477C34.4242 45.487 34.9067 45.7153 35.1767 46.0676C35.4381 46.4132 35.4496 46.8586 35.4582 47.2884C35.4611 47.4324 35.464 47.5787 35.4783 47.7227C35.7024 47.7737 35.9178 47.798 36.1217 47.798C36.6847 47.798 37.1817 47.6097 37.6412 47.2242C37.9716 46.9472 38.368 46.6503 38.9252 46.6503C39.2009 46.6503 39.4882 46.7212 39.8013 46.8674C40.1287 47.0203 40.4361 47.0979 40.7147 47.0979C41.2202 47.0979 41.6252 46.8408 41.9153 46.3312C42.1537 45.9191 42.6047 45.5801 42.9408 45.3674C44.5579 44.3437 46.2268 43.309 47.8382 42.3097C48.3408 41.9973 48.8464 41.6849 49.3548 41.3702C49.349 41.368 49.3433 41.3636 49.3376 41.3614C49.3433 41.357 49.3491 41.3525 49.3577 41.3503C49.3519 41.3481 49.3462 41.3437 49.3404 41.3414C49.3462 41.337 49.3519 41.3326 49.3605 41.3304C49.3548 41.3281 49.349 41.3237 49.3433 41.3215C49.349 41.3171 49.3548 41.3126 49.3634 41.3104C49.3577 41.3082 49.3519 41.3038 49.3462 41.3016C49.3519 41.2971 49.3577 41.2927 49.3663 41.2905C49.3605 41.2883 49.3548 41.2838 49.3491 41.2816C49.3548 41.2772 49.3605 41.2728 49.3692 41.2705C49.3634 41.2683 49.3577 41.2639 49.3519 41.2617C49.3577 41.2572 49.3634 41.2528 49.372 41.2506C49.3663 41.2484 49.3605 41.244 49.3548 41.2417C49.3605 41.2373 49.3663 41.2329 49.3749 41.2307C49.3692 41.2284 49.3634 41.224 49.3577 41.2218C49.3634 41.2174 49.3692 41.2129 49.3778 41.2107C49.372 41.2085 49.3663 41.2041 49.3605 41.2019C49.3663 41.1974 49.372 41.193 49.3806 41.1908C49.3749 41.1886 49.3692 41.1841 49.3634 41.1819C49.3692 41.1775 49.3749 41.173 49.3835 41.1708C49.3778 41.1686 49.372 41.1642 49.3663 41.162C49.372 41.1575 49.3778 41.1531 49.3864 41.1509C49.3806 41.1487 49.3749 41.1442 49.3692 41.142C49.3749 41.1376 49.3806 41.1332 49.3893 41.131C49.3835 41.1287 49.3778 41.1243 49.372 41.1221C49.3778 41.1177 49.3835 41.1132 49.3921 41.111C49.3864 41.1088 49.3806 41.1044 49.3749 41.1021C49.3806 41.0977 49.3864 41.0933 49.395 41.0911C49.3893 41.0889 49.3835 41.0844 49.3778 41.0822C49.3835 41.0778 49.3893 41.0733 49.3979 41.0711C49.3921 41.0689 49.3864 41.0645 49.3806 41.0623C49.3864 41.0578 49.3921 41.0534 49.4008 41.0512C49.395 41.049 49.3893 41.0445 49.3835 41.0423C49.3893 41.0379 49.395 41.0335 49.4036 41.0312C49.3979 41.029 49.3921 41.0246 49.3864 41.0224C49.3921 41.018 49.3979 41.0135 49.4065 41.0113C49.4007 41.0091 49.395 41.0047 49.3893 41.0024C49.395 40.998 49.4008 40.9936 49.4094 40.9914C49.4036 40.9891 49.3979 40.9847 49.3921 40.9825C49.3979 40.9781 49.4036 40.9736 49.4122 40.9714C49.4065 40.9692 49.4008 40.9648 49.395 40.9626C49.4008 40.9581 49.4065 40.9537 49.4151 40.9515C49.4094 40.9493 49.4036 40.9448 49.3979 40.9426C49.4036 40.9382 49.4094 40.9338 49.418 40.9315C49.4122 40.9293 49.4065 40.9249 49.4008 40.9227C49.4065 40.9182 49.4122 40.9138 49.4209 40.9116C49.4151 40.9094 49.4094 40.9049 49.4036 40.9027C49.4094 40.8983 49.4151 40.8939 49.4237 40.8917C49.418 40.8894 49.4122 40.885 49.4065 40.8828C49.4122 40.8784 49.418 40.8739 49.4266 40.8717C49.4209 40.8695 49.4151 40.8651 49.4094 40.8629C49.4151 40.8584 49.4209 40.854 49.4295 40.8518C49.4237 40.8496 49.418 40.8451 49.4122 40.8429C49.418 40.8385 49.4237 40.834 49.4324 40.8318C49.4266 40.8296 49.4209 40.8252 49.4151 40.823C49.4209 40.8185 49.4266 40.8141 49.4352 40.8119C49.4295 40.8097 49.4237 40.8052 49.418 40.803C49.4237 40.7986 49.4295 40.7942 49.4381 40.7919C49.4324 40.7897 49.4266 40.7853 49.4209 40.7831C49.4266 40.7787 49.4324 40.7742 49.441 40.772C49.4352 40.7698 49.4295 40.7654 49.4237 40.7631C49.4295 40.7587 49.4352 40.7543 49.4438 40.7521C49.4381 40.7499 49.4324 40.7454 49.4266 40.7432C49.4324 40.7388 49.4381 40.7343 49.4467 40.7321C49.441 40.7299 49.4352 40.7255 49.4295 40.7233C49.4352 40.7188 49.441 40.7144 49.4496 40.7122C49.4438 40.71 49.4381 40.7055 49.4324 40.7033C49.4381 40.6989 49.4438 40.6945 49.4525 40.6922C49.4467 40.69 49.441 40.6856 49.4352 40.6834C49.441 40.6789 49.4467 40.6745 49.4553 40.6723C49.4496 40.6701 49.4438 40.6656 49.4381 40.6634C49.4438 40.659 49.4496 40.6546 49.4582 40.6524C49.4525 40.6501 49.4467 40.6457 49.441 40.6435C49.4467 40.6391 49.4525 40.6346 49.4611 40.6324C49.4553 40.6302 49.4496 40.6258 49.4438 40.6236C49.4496 40.6191 49.4553 40.6147 49.4639 40.6125C49.4582 40.6103 49.4525 40.6058 49.4467 40.6036C49.4525 40.5992 49.4582 40.5947 49.4668 40.5925C49.4611 40.5903 49.4553 40.5859 49.4496 40.5837C49.4553 40.5792 49.4611 40.5748 49.4697 40.5726C49.4639 40.5704 49.4582 40.5659 49.4525 40.5637C49.4582 40.5593 49.4639 40.5549 49.4726 40.5526C49.4668 40.5504 49.4611 40.546 49.4553 40.5438C49.4611 40.5394 49.4668 40.5349 49.4754 40.5327C49.4697 40.5305 49.464 40.5261 49.4582 40.5238C49.464 40.5194 49.4697 40.515 49.4783 40.5128C49.4726 40.5106 49.4668 40.5061 49.4611 40.5039C49.4668 40.4995 49.4726 40.495 49.4812 40.4928C49.4754 40.4906 49.4697 40.4862 49.4639 40.484C49.4697 40.4795 49.4754 40.4751 49.4841 40.4729C49.4783 40.4707 49.4726 40.4662 49.4668 40.464C49.4726 40.4596 49.4783 40.4552 49.4869 40.4529C49.4812 40.4507 49.4754 40.4463 49.4697 40.4441C49.4754 40.4396 49.4812 40.4352 49.4898 40.433C49.4841 40.4308 49.4783 40.4264 49.4726 40.4241C49.4783 40.4197 49.4841 40.4153 49.4927 40.4131C49.4869 40.4108 49.4812 40.4064 49.4754 40.4042C49.4812 40.3998 49.4869 40.3953 49.4955 40.3931C49.4898 40.3909 49.4841 40.3865 49.4783 40.3843C49.4841 40.3798 49.4898 40.3754 49.4984 40.3732C49.4927 40.371 49.4869 40.3665 49.4812 40.3643C49.4869 40.3599 49.4927 40.3554 49.5013 40.3532C49.4955 40.351 49.4898 40.3466 49.4841 40.3444C49.4898 40.3399 49.4955 40.3355 49.5042 40.3333C49.4984 40.3311 49.4927 40.3266 49.4869 40.3244C49.4927 40.32 49.4984 40.3156 49.507 40.3134C49.5013 40.3111 49.4955 40.3067 49.4898 40.3045C49.4955 40.3001 49.5013 40.2956 49.5099 40.2934C49.5042 40.2912 49.4984 40.2868 49.4927 40.2845C49.4984 40.2801 49.5042 40.2757 49.5128 40.2735C49.507 40.2713 49.5013 40.2668 49.4955 40.2646C49.5013 40.2602 49.507 40.2557 49.5156 40.2535C49.5099 40.2513 49.5042 40.2469 49.4984 40.2447C49.5042 40.2402 49.5099 40.2358 49.5185 40.2336C49.5128 40.2314 49.507 40.2269 49.5013 40.2247C49.507 40.2203 49.5128 40.2159 49.5214 40.2136C49.5157 40.2114 49.5099 40.207 49.5042 40.2048C49.5099 40.2004 49.5156 40.1959 49.5243 40.1937C49.5185 40.1915 49.5128 40.1871 49.507 40.1848C49.5128 40.1804 49.5185 40.176 49.5271 40.1738C49.5214 40.1715 49.5157 40.1671 49.5099 40.1649C49.5157 40.1605 49.5214 40.156 49.53 40.1538C49.5243 40.1516 49.5185 40.1472 49.5128 40.145C49.5185 40.1405 49.5243 40.1361 49.5329 40.1339C49.5271 40.1317 49.5214 40.1272 49.5156 40.125C49.5214 40.1206 49.5271 40.1162 49.5358 40.1139C49.53 40.1117 49.5243 40.1073 49.5185 40.1051C49.5243 40.1006 49.53 40.0962 49.5386 40.094C49.5329 40.0918 49.5271 40.0873 49.5214 40.0851C49.5271 40.0807 49.5329 40.0763 49.5415 40.0741C49.5358 40.0718 49.53 40.0674 49.5243 40.0652C49.53 40.0608 49.5358 40.0563 49.5444 40.0541C49.5386 40.0519 49.5329 40.0475 49.5271 40.0453C49.5329 40.0408 49.5386 40.0364 49.5472 40.0342C49.5415 40.032 49.5358 40.0275 49.53 40.0253C49.5358 40.0209 49.5415 40.0164 49.5501 40.0142C49.5444 40.012 49.5386 40.0076 49.5329 40.0054C49.5386 40.0009 49.5444 39.9965 49.553 39.9943C49.5472 39.9921 49.5415 39.9876 49.5358 39.9854C49.5415 39.981 49.5472 39.9766 49.5559 39.9743C49.5501 39.9721 49.5444 39.9677 49.5386 39.9655C49.5444 39.9611 49.5501 39.9566 49.5587 39.9544C49.553 39.9522 49.5472 39.9478 49.5415 39.9455C49.5472 39.9411 49.553 39.9367 49.5616 39.9345C49.5559 39.9323 49.5501 39.9278 49.5444 39.9256C49.5501 39.9212 49.5559 39.9167 49.5645 39.9145C49.5587 39.9123 49.553 39.9079 49.5472 39.9057C49.553 39.9012 49.5587 39.8968 49.5673 39.8946C49.5616 39.8924 49.5559 39.8879 49.5501 39.8857C49.5559 39.8813 49.5616 39.8769 49.5702 39.8746C49.5645 39.8724 49.5587 39.868 49.553 39.8658C49.5587 39.8614 49.5645 39.8569 49.5731 39.8547C49.5674 39.8525 49.5616 39.848 49.5559 39.8458C49.5616 39.8414 49.5674 39.837 49.576 39.8348C49.5702 39.8325 49.5645 39.8281 49.5587 39.8259C49.5645 39.8215 49.5702 39.817 49.5788 39.8148C49.5731 39.8126 49.5674 39.8082 49.5616 39.806C49.5674 39.8015 49.5731 39.7971 49.5817 39.7949C49.576 39.7927 49.5702 39.7882 49.5645 39.786C49.5702 39.7816 49.576 39.7772 49.5846 39.7749C49.5788 39.7727 49.5731 39.7683 49.5673 39.7661C49.5731 39.7616 49.5788 39.7572 49.5875 39.755C49.5817 39.7528 49.576 39.7483 49.5702 39.7461C49.576 39.7417 49.5817 39.7373 49.5903 39.7351C49.5846 39.7328 49.5788 39.7284 49.5731 39.7262C49.5788 39.7218 49.5846 39.7173 49.5932 39.7151C49.5875 39.7129 49.5817 39.7085 49.576 39.7062C49.5817 39.7018 49.5875 39.6974 49.5961 39.6952C49.5903 39.693 49.5846 39.6885 49.5788 39.6863C49.5846 39.6819 49.5903 39.6774 49.5989 39.6752C49.5932 39.673 49.5875 39.6686 49.5817 39.6664C49.5875 39.6619 49.5932 39.6575 49.6018 39.6553C49.5961 39.6531 49.5903 39.6486 49.5846 39.6464C49.5903 39.642 49.5961 39.6376 49.6047 39.6353C49.5989 39.6331 49.5932 39.6287 49.5875 39.6265C49.5932 39.622 49.5989 39.6176 49.6076 39.6154C49.6018 39.6132 49.5961 39.6088 49.5903 39.6065C49.5961 39.6021 49.6018 39.5977 49.6104 39.5955C49.6047 39.5933 49.599 39.5888 49.5932 39.5866C49.599 39.5822 49.6047 39.5777 49.6133 39.5755C49.6076 39.5733 49.6018 39.5689 49.5961 39.5667C49.6018 39.5622 49.6076 39.5578 49.6162 39.5556C49.6104 39.5534 49.6047 39.5489 49.5989 39.5467C49.6047 39.5423 49.6104 39.5379 49.6191 39.5356C49.6133 39.5334 49.6076 39.529 49.6018 39.5268C49.6076 39.5223 49.6133 39.5179 49.6219 39.5157C49.6162 39.5135 49.6104 39.509 49.6047 39.5068C49.6104 39.5024 49.6162 39.498 49.6248 39.4958C49.6191 39.4935 49.6133 39.4891 49.6076 39.4869C49.6133 39.4825 49.6191 39.478 49.6277 39.4758C49.6219 39.4736 49.6162 39.4692 49.6104 39.4669C49.6162 39.4625 49.6219 39.4581 49.6305 39.4559C49.6248 39.4537 49.6191 39.4492 49.6133 39.447C49.6191 39.4426 49.6248 39.4381 49.6334 39.4359C49.6277 39.4337 49.6219 39.4293 49.6162 39.4271C49.6219 39.4226 49.6277 39.4182 49.6363 39.416C49.6305 39.4138 49.6248 39.4093 49.6191 39.4071C49.6248 39.4027 49.6305 39.3983 49.6392 39.396C49.6334 39.3938 49.6277 39.3894 49.6219 39.3872C49.6277 39.3828 49.6334 39.3783 49.642 39.3761C49.6363 39.3739 49.6305 39.3695 49.6248 39.3672C49.6305 39.3628 49.6363 39.3584 49.6449 39.3562C49.553 39.3052 49.4496 39.252 49.3433 39.1966C50.4549 38.6494 51.4804 38.2173 52.4627 37.8783C53.1176 37.6523 53.4278 37.3354 53.4508 36.8369C53.4508 36.8303 53.4508 36.8214 53.4508 36.8147C53.4508 36.8081 53.4508 36.7992 53.4508 36.7926C53.4508 36.7859 53.4508 36.7771 53.4508 36.7704C53.4508 36.7638 53.4508 36.7549 53.4508 36.7483C53.4508 36.7416 53.4508 36.7328 53.4508 36.7261C53.4508 36.7195 53.4508 36.7106 53.4508 36.704C53.4508 36.6973 53.4508 36.6884 53.4508 36.6818C53.4508 36.6752 53.4508 36.6663 53.4508 36.6596C53.4508 36.653 53.4508 36.6441 53.4508 36.6375C53.4508 36.6308 53.4508 36.622 53.4508 36.6153C53.4508 36.6087 53.4508 36.5998 53.4508 36.5932C53.4508 36.5865 53.4508 36.5777 53.4508 36.571C53.4508 36.5644 53.4508 36.5555 53.4508 36.5489C53.4508 36.5422 53.4508 36.5333 53.4508 36.5267C53.4508 36.5201 53.4508 36.5112 53.4508 36.5045C53.4508 36.4979 53.4508 36.489 53.4508 36.4824C53.4508 36.4757 53.4508 36.4669 53.4508 36.4602C53.4508 36.4536 53.4508 36.4447 53.4508 36.4381C53.4508 36.4314 53.4508 36.4226 53.4508 36.4159C53.4508 36.4093 53.4508 36.4004 53.4508 36.3938C53.4508 36.3871 53.4508 36.3782 53.4508 36.3716C53.4508 36.365 53.4508 36.3561 53.4508 36.3494C53.4508 36.3428 53.4508 36.3339 53.4508 36.3273C53.4508 36.3206 53.4508 36.3118 53.4508 36.3051C53.4508 36.2985 53.4508 36.2896 53.4508 36.283C53.4508 36.2763 53.4508 36.2675 53.4508 36.2608C53.4508 36.2542 53.4508 36.2453 53.4508 36.2387C53.4508 36.232 53.4508 36.2232 53.4508 36.2165C53.4508 36.2099 53.4508 36.201 53.4508 36.1943C53.4508 36.1877 53.4508 36.1788 53.4508 36.1722C53.4508 36.1655 53.4508 36.1567 53.4508 36.15C53.4508 36.1434 53.4508 36.1345 53.4508 36.1279C53.4508 36.1212 53.4508 36.1124 53.4508 36.1057C53.4508 36.0991 53.4508 36.0902 53.4508 36.0836C53.4508 36.0769 53.4508 36.068 53.4508 36.0614C53.4508 36.0548 53.4508 36.0459 53.4508 36.0392C53.4508 36.0326 53.4508 36.0237 53.4508 36.0171C53.4508 36.0104 53.4508 36.0016 53.4508 35.9949C53.4508 35.9883 53.4508 35.9794 53.4508 35.9728C53.4508 35.9661 53.4508 35.9573 53.4508 35.9506C53.4508 35.944 53.4508 35.9351 53.4508 35.9285C53.4508 35.9218 53.4508 35.9129 53.4508 35.9063C53.4508 35.8997 53.4508 35.8908 53.4508 35.8841C53.4508 35.8775 53.4508 35.8686 53.4508 35.862C53.4508 35.8553 53.4508 35.8465 53.4508 35.8398C53.4508 35.8332 53.4508 35.8243 53.4508 35.8177C53.4508 35.811 53.4508 35.8022 53.4508 35.7955C53.4508 35.7889 53.4508 35.78 53.4508 35.7734C53.4508 35.7667 53.4508 35.7579 53.4508 35.7512C53.4508 35.7446 53.4508 35.7357 53.4508 35.729C53.4508 35.7224 53.4508 35.7135 53.4508 35.7069C53.4508 35.7002 53.4508 35.6914 53.4508 35.6847C53.4508 35.6781 53.4508 35.6692 53.4508 35.6626C53.4508 35.6559 53.4508 35.6471 53.4508 35.6404C53.4508 35.6338 53.4508 35.6249 53.4508 35.6183C53.4508 35.6116 53.4508 35.6027 53.4508 35.5961C53.4508 35.5895 53.4508 35.5806 53.4508 35.5739C53.4508 35.5673 53.4508 35.5584 53.4508 35.5518C53.4508 35.5451 53.4508 35.5363 53.4508 35.5296C53.4508 35.523 53.4508 35.5141 53.4508 35.5075C53.4508 35.5008 53.4508 35.492 53.4508 35.4853C53.4508 35.4787 53.4508 35.4698 53.4508 35.4632C53.4508 35.4565 53.4508 35.4477 53.4508 35.441C53.4508 35.4344 53.4508 35.4255 53.4508 35.4188C53.4508 35.4122 53.4508 35.4033 53.4508 35.3967C53.4508 35.39 53.4508 35.3812 53.4508 35.3745C53.4508 35.3679 53.4508 35.359 53.4508 35.3524C53.4508 35.3457 53.4508 35.3369 53.4508 35.3302C53.4508 35.3236 53.4508 35.3147 53.4508 35.3081C53.4508 35.3014 53.4508 35.2925 53.4508 35.2859C53.4508 35.2793 53.4508 35.2704 53.4508 35.2637C53.4508 35.2571 53.4508 35.2482 53.4508 35.2416C53.4508 35.2349 53.4508 35.2261 53.4508 35.2194C53.4508 35.2128 53.4508 35.2039 53.4508 35.1973C53.4508 35.1906 53.4508 35.1818 53.4508 35.1751C53.4508 35.1685 53.4508 35.1596 53.4508 35.153C53.4508 35.1463 53.4508 35.1374 53.4508 35.1308C53.4508 35.1242 53.4508 35.1153 53.4508 35.1086C53.4508 35.102 53.4508 35.0931 53.4508 35.0865C53.4508 35.0798 53.4508 35.071 53.4508 35.0643C53.4508 35.0577 53.4508 35.0488 53.4508 35.0422C53.4508 35.0355 53.4508 35.0267 53.4508 35.02C53.4508 35.0134 53.4508 35.0045 53.4508 34.9979C53.4508 34.9912 53.4508 34.9823 53.4508 34.9757C53.4508 34.9691 53.4508 34.9602 53.4508 34.9535C53.4508 34.9469 53.4508 34.9403 53.4508 34.9358C53.4939 34.8627 53.5456 34.794 53.6088 34.7364C53.8587 34.5038 54.2493 34.3841 54.7721 34.3841C55.0593 34.3841 55.3897 34.4173 55.7717 34.4882C55.7717 34.4417 55.7717 34.3952 55.7717 34.3509C55.7717 34.1049 55.7774 33.8701 55.8349 33.6418C55.9526 33.1854 55.9842 32.7024 56.0158 32.2349C56.079 31.2932 56.1422 30.3205 56.889 29.4298C56.9149 29.3965 56.9293 29.3389 56.9321 29.2725C56.9321 29.2437 56.9321 29.2126 56.9321 29.1794C56.9321 29.1728 56.9321 29.1661 56.9321 29.1572C56.9321 29.1506 56.9321 29.1439 56.9321 29.1351C56.9321 29.1284 56.9321 29.1218 56.9321 29.1129C56.9321 29.1063 56.9321 29.0996 56.9321 29.0908C56.9321 29.0841 56.9321 29.0775 56.9321 29.0686C56.9321 29.062 56.9321 29.0553 56.9321 29.0465C56.9321 29.0398 56.9321 29.0332 56.9321 29.0243C56.9321 29.0177 56.9321 29.011 56.9321 29.0021C56.9321 28.9955 56.9321 28.9889 56.9321 28.98C56.9321 28.9733 56.9321 28.9667 56.9321 28.9578C56.9321 28.9512 56.9321 28.9445 56.9321 28.9357C56.9321 28.929 56.9321 28.9224 56.9321 28.9135C56.9321 28.9069 56.9321 28.9002 56.9321 28.8914C56.9321 28.8847 56.9321 28.8781 56.9321 28.8692C56.9321 28.8626 56.9321 28.8559 56.9321 28.847C56.9321 28.8404 56.9321 28.8337 56.9321 28.8249C56.9321 28.8182 56.9321 28.8116 56.9321 28.8027C56.9321 28.7961 56.9321 28.7894 56.9321 28.7806C56.9321 28.7739 56.9321 28.7673 56.9321 28.7584C56.9321 28.7518 56.9321 28.7451 56.9321 28.7363C56.9321 28.7296 56.9321 28.723 56.9321 28.7141C56.9321 28.7075 56.9321 28.7008 56.9321 28.6919C56.9321 28.6853 56.9321 28.6787 56.9321 28.6698C56.9321 28.6631 56.9321 28.6565 56.9321 28.6476C56.9321 28.641 56.9321 28.6343 56.9321 28.6255C56.9321 28.6188 56.9321 28.6122 56.9321 28.6033C56.9321 28.5967 56.9321 28.59 56.9321 28.5812C56.9321 28.5745 56.9321 28.5679 56.9321 28.559C56.9321 28.5524 56.9321 28.5457 56.9321 28.5368C56.9321 28.5302 56.9321 28.5236 56.9321 28.5147C56.9321 28.508 56.9321 28.5014 56.9321 28.4925C56.9321 28.4859 56.9321 28.4792 56.9321 28.4704C56.9321 28.4637 56.9321 28.4571 56.9321 28.4482C56.9321 28.4416 56.9321 28.4349 56.9321 28.4261C56.9321 28.4194 56.9321 28.4128 56.9321 28.4039C56.9321 28.3973 56.9321 28.3906 56.9321 28.3817C56.9321 28.3751 56.9321 28.3684 56.9321 28.3596C56.9321 28.3529 56.9321 28.3463 56.9321 28.3374C56.9321 28.3308 56.9321 28.3241 56.9321 28.3153C56.9321 28.3086 56.9321 28.302 56.9321 28.2931C56.9321 28.2865 56.9321 28.2798 56.9321 28.271C56.9321 28.2643 56.9321 28.2577 56.9321 28.2488C56.9321 28.2422 56.9321 28.2355 56.9321 28.2266C56.9321 28.22 56.9321 28.2134 56.9321 28.2045C56.9321 28.1978 56.9321 28.1912 56.9321 28.1823C56.9321 28.1757 56.9321 28.169 56.9321 28.1602C56.9321 28.1535 56.9321 28.1469 56.9321 28.138C56.9321 28.1314 56.9321 28.1247 56.9321 28.1159C56.9321 28.1092 56.9321 28.1026 56.9321 28.0937C56.9321 28.0871 56.9321 28.0804 56.9321 28.0715C56.9321 28.0649 56.9321 28.0583 56.9321 28.0494C56.9321 28.0427 56.9321 28.0361 56.9321 28.0272C56.9321 28.0206 56.9321 28.0139 56.9321 28.0051C56.9321 27.9984 56.9321 27.9918 56.9321 27.9829C56.9321 27.9763 56.9321 27.9696 56.9321 27.9608C56.9321 27.9541 56.9321 27.9475 56.9321 27.9386C56.9321 27.932 56.9321 27.9253 56.9321 27.9164C56.9321 27.9098 56.9321 27.9032 56.9321 27.8943C56.9321 27.8876 56.9321 27.881 56.9321 27.8721C56.9321 27.8655 56.9321 27.8588 56.9321 27.85C56.9321 27.8433 56.9321 27.8367 56.9321 27.8278C56.9321 27.8212 56.9321 27.8145 56.9321 27.8057C56.9321 27.799 56.9321 27.7924 56.9321 27.7835C56.9321 27.7769 56.9321 27.7702 56.9321 27.7613C56.9321 27.7547 56.9321 27.7481 56.9321 27.7392C56.9321 27.7325 56.9321 27.7259 56.9321 27.717C56.9321 27.7104 56.9321 27.7037 56.9321 27.6949C56.9321 27.6882 56.9321 27.6816 56.9321 27.6727C56.9321 27.6661 56.9321 27.6594 56.9321 27.6506C56.9321 27.6439 56.9321 27.6373 56.9321 27.6284C56.9321 27.6218 56.9321 27.6151 56.9321 27.6062C56.9321 27.5996 56.9321 27.5929 56.9321 27.5841C56.9321 27.5774 56.9321 27.5708 56.9321 27.5619C56.9321 27.5553 56.9321 27.5486 56.9321 27.5398C56.9321 27.5331 56.9321 27.5265 56.9321 27.5176C56.9321 27.511 56.9321 27.5043 56.9321 27.4955C56.9321 27.4888 56.9321 27.4822 56.9321 27.4733C56.9321 27.4667 56.9321 27.46 56.9321 27.4511C56.9321 27.4445 56.9321 27.4379 56.9321 27.429C56.9321 27.4223 56.9321 27.4157 56.9321 27.4068C56.9321 27.4002 56.9321 27.3935 56.9321 27.3847C56.9321 27.378 56.9321 27.3714 56.9321 27.3625C56.9321 27.3559 56.9321 27.3492 56.9321 27.3404C56.9321 27.3337 56.9321 27.3271 56.9321 27.3182C56.9321 27.3116 56.9321 27.3049 56.9321 27.296C56.9321 27.2894 56.9321 27.2828 56.9321 27.2739C56.9321 27.2672 56.9321 27.2606 56.9321 27.2517C56.9321 27.2451 56.9321 27.2384 56.9321 27.2296C56.9321 27.2229 56.9321 27.2163 56.9321 27.2074C56.9321 27.2008 56.9321 27.1941 56.9321 27.1853C56.9321 27.1786 56.9321 27.172 56.9321 27.1631C56.9321 27.1565 56.9321 27.1498 56.9321 27.1409C56.9321 27.1343 56.9321 27.1277 56.9321 27.1188C56.9321 27.1121 56.9321 27.1055 56.9321 27.0966C56.9321 27.09 56.9321 27.0833 56.9321 27.0745C56.9321 27.0678 56.9321 27.0612 56.9321 27.0523C56.9321 27.0457 56.9321 27.039 56.9321 27.0302C56.9321 27.0235 56.9321 27.0169 56.9321 27.008L56.6305 26.5804Z" fill="#D6C393"/>
<path d="M36.096 45.3172C35.8921 45.3172 35.6766 45.2929 35.4526 45.2419C35.4411 45.0979 35.4353 44.9516 35.4325 44.8076C35.4239 44.3778 35.4124 43.9324 35.151 43.5868C34.881 43.2367 34.4013 43.0085 33.89 42.7669C33.7177 42.685 33.5396 42.6008 33.3644 42.5099C33.3931 42.4501 33.4247 42.3881 33.4591 42.3216C33.6114 42.0225 33.7809 41.6857 33.8268 41.3245C33.8958 40.7418 33.9159 40.0882 33.5453 39.6627C33.2724 39.3547 32.5141 39.3215 32.201 39.3215C31.9827 39.3215 31.7702 39.337 31.5835 39.3636C30.8482 39.4722 30.1329 39.6627 29.3775 39.8621C29.1334 39.9264 28.8835 39.9929 28.6278 40.0571C28.421 39.3813 27.9097 39.0534 27.071 39.0534C26.666 39.0534 26.2294 39.1287 25.856 39.2019C25.8445 39.2041 25.8272 39.2063 25.81 39.2063C25.6147 39.2063 25.2556 39.0556 25.0258 38.8784C24.6955 38.6236 24.3824 38.3466 24.0751 38.0763C23.6414 37.693 23.1933 37.2986 22.6877 36.9551C22.3545 36.7291 21.8117 36.6826 21.4153 36.6826C21.2803 36.6826 21.1424 36.6892 21.0074 36.6981C20.8121 36.7136 20.6598 36.7203 20.522 36.7203C19.9532 36.7203 19.5367 36.6073 19.08 36.029L18.9335 35.8428C17.5232 34.0503 16.0669 32.1958 13.5134 31.0791C12.9877 30.8486 12.5109 30.5562 11.9594 30.2172C11.6894 30.051 11.4079 29.8782 11.1006 29.7009L10.9627 29.6211L10.8191 29.692C10.6841 29.7607 10.5491 29.794 10.4169 29.794C10.0205 29.794 9.67011 29.4771 9.44319 29.2134C9.11 28.819 8.63893 28.6019 8.11615 28.6019C7.69679 28.6019 7.26306 28.7371 6.82358 29.0052C6.74029 28.8279 6.65986 28.6551 6.57943 28.4845C6.24623 27.7777 5.93315 27.1107 5.69761 26.4371C5.7608 26.3241 6.13996 26.0472 6.32092 26.0317C7.33487 25.9475 8.3919 25.799 9.15595 24.9814C9.25649 24.8729 9.8683 24.8662 10.1297 24.864H10.2446C11.8014 24.8418 12.3213 24.4585 12.3816 23.2886C12.4075 22.8012 12.4391 22.3115 12.4707 21.824C12.5425 20.7516 12.6143 19.6438 12.6114 18.5514C12.6114 18.1615 12.037 17.499 11.5429 17.4458C10.9828 17.386 10.865 17.1467 10.7013 16.8143C10.6438 16.6947 10.5807 16.5706 10.4945 16.4509C10.0378 15.8195 9.51213 15.1592 8.79116 14.3083C8.62744 14.1156 8.43786 13.9361 8.2569 13.7611C8.01849 13.5328 7.79158 13.3157 7.62211 13.0764C7.09359 12.3297 5.41037 11.5697 4.28727 11.5697C4.22408 11.5697 4.16376 11.5719 4.10631 11.5764C3.2963 10.4973 2.77066 9.49803 4.00004 8.33035C4.37345 7.97584 4.35621 7.66342 4.27866 7.46179C4.12929 7.08069 3.63812 6.77271 2.89417 6.59324C1.15925 6.1789 1.09606 6.108 1.1851 4.69437L1.19659 4.51712C1.22819 4.05182 1.25691 3.571 1.24255 3.09906C1.21096 2.21499 0.955314 1.80508 0.067749 1.38188C0.197006 1.33978 0.326263 1.2999 0.45552 1.26002C1.09319 1.05839 1.75384 0.85233 2.35129 0.564287C2.72183 0.384814 3.08375 0.29397 3.42269 0.29397C3.76163 0.29397 4.1178 0.393674 4.44238 0.588657C4.98526 0.916582 5.52527 1.0739 6.09687 1.0739C6.66847 1.0739 7.22284 0.925447 7.89498 0.608601C8.18796 0.471227 8.51829 0.369304 8.83712 0.269597C8.90893 0.24744 8.98361 0.225282 9.05255 0.203125C9.17893 0.411402 9.29957 0.613029 9.41734 0.810228C9.74479 1.35751 10.0579 1.87599 10.3738 2.38117C10.8104 3.07469 11.4797 3.42477 12.3587 3.42477C12.4563 3.42477 12.5569 3.42034 12.6631 3.41147C12.7436 3.40483 12.8211 3.4004 12.8929 3.4004C13.2606 3.4004 13.5248 3.48903 13.7115 3.93217C13.8178 4.18919 14.0648 4.37309 14.3033 4.55035C14.6939 4.84282 14.9266 5.04224 14.7715 5.41891L14.6767 5.65156L14.9926 5.66264C15.1219 5.66707 15.2799 5.68701 15.4321 5.70474C15.6274 5.72911 15.8285 5.75348 16.0066 5.75348C16.2335 5.75348 16.3972 5.71138 16.5121 5.62497C16.9918 5.25716 17.4428 5.08434 17.9282 5.08434C18.3045 5.08434 18.7124 5.18848 19.1834 5.40561C19.2696 5.4455 19.3701 5.46544 19.4879 5.46544C19.6775 5.46544 19.8872 5.41448 20.1313 5.35687C20.2663 5.32363 20.4071 5.2904 20.5536 5.26381C20.5593 5.26824 20.5679 5.27046 20.5737 5.27489C20.7632 5.3746 21.1137 5.56293 21.4871 5.7136C21.6393 5.77564 21.8145 5.79115 21.9725 5.80666C22.0702 5.81552 22.2339 5.83103 22.2684 5.85984C23.2565 6.67743 24.4198 7.06075 25.9278 7.06075C26.7665 7.06075 27.6253 6.94553 28.4555 6.83475C28.8576 6.78157 29.2741 6.72396 29.6791 6.68408C29.8773 6.66414 30.0755 6.61761 30.2651 6.57108C30.4891 6.5179 30.6988 6.46694 30.8711 6.46694C31.009 6.46694 31.1699 6.4891 31.2905 6.74169C31.4628 7.10063 31.4169 7.53713 31.3681 7.998C31.348 8.17525 31.3307 8.35694 31.325 8.5342C31.3221 8.64942 31.2819 8.79344 31.2445 8.93081C31.1612 9.24101 31.0837 9.53349 31.2991 9.72626C31.5548 9.95226 31.9483 10.0431 32.4509 10.1561C32.6262 10.196 32.8186 10.2403 33.0225 10.2935C32.9967 10.422 32.968 10.5594 32.9393 10.7056C32.8301 11.2307 32.7066 11.8267 32.6434 12.4383C32.5716 13.1894 32.6118 13.9605 32.6578 14.685C32.6894 15.1503 32.7382 15.62 32.7841 16.0765C32.8531 16.7412 32.9278 17.4303 32.9393 18.1039C32.9594 19.2405 33.7033 19.9185 34.9298 19.9185C35.24 19.9185 35.579 19.8742 35.9351 19.79C36.8744 19.5618 37.8682 19.4045 38.8305 19.2538L39.3619 19.1696C39.517 19.1452 39.675 19.1231 39.833 19.1009C40.7837 18.968 41.7661 18.8284 42.4325 18.0706C42.9524 17.4768 43.7135 17.1998 44.828 17.1998C45.1038 17.1998 45.4082 17.2176 45.7587 17.2508C46.8502 17.3594 47.9503 17.561 49.016 17.756C49.6565 17.8734 50.32 17.9953 50.9807 18.095C51.7016 18.2036 51.9573 18.4517 51.8912 18.9791C51.8596 19.2383 51.8366 19.4975 51.8165 19.7568C51.7907 20.0847 51.7619 20.4237 51.7102 20.7516C51.5666 21.6822 52.1124 22.2694 53.2872 22.4489C54.1661 22.584 54.5769 22.8787 54.7952 23.5346C54.8411 23.6697 54.8813 23.8071 54.9216 23.9467C55.1485 24.7155 55.4041 25.5863 56.4755 26.1425C56.5818 26.2134 56.6622 26.6366 56.5646 26.754C55.8177 27.6425 55.7546 28.6174 55.6914 29.5591C55.6598 30.0266 55.6282 30.5096 55.5104 30.9661C55.4501 31.1943 55.4472 31.4269 55.4472 31.6751C55.4472 31.7194 55.4472 31.7659 55.4472 31.8125C55.0652 31.7438 54.7349 31.7083 54.4476 31.7083C53.9248 31.7083 53.5313 31.8258 53.2843 32.0606C52.9511 32.3708 52.8793 32.8782 53.0631 33.6116C53.2671 34.4314 52.9999 34.8857 52.1382 35.1826C50.9979 35.5747 49.803 36.0932 48.4788 36.7712C47.9187 37.0593 47.6573 37.3252 47.6573 37.6088C47.6573 37.899 47.9216 38.1605 48.5133 38.4552C48.8034 38.5992 49.0849 38.7499 49.3176 38.8762C48.8091 39.1908 48.3036 39.5032 47.8009 39.8156C46.1867 40.8149 44.5207 41.8474 42.9035 42.8733C42.5675 43.086 42.1136 43.4272 41.8781 43.8371C41.588 44.3445 41.183 44.6038 40.6774 44.6038C40.3988 44.6038 40.0915 44.5262 39.764 44.3733C39.4509 44.2271 39.1666 44.1562 38.8879 44.1562C38.3307 44.1562 37.9314 44.4531 37.604 44.7301C37.1473 45.1156 36.6504 45.3039 36.0845 45.3039L36.096 45.3172Z" fill="#A09589"/>
<path d="M36.096 45.3172C35.8921 45.3172 35.6766 45.2929 35.4526 45.2419C35.4411 45.0979 35.4353 44.9516 35.4325 44.8076C35.4239 44.3778 35.4124 43.9324 35.151 43.5868C34.881 43.2367 34.4013 43.0085 33.89 42.7669C33.7177 42.685 33.5396 42.6008 33.3644 42.5099C33.3931 42.4501 33.4247 42.3881 33.4591 42.3216C33.6114 42.0225 33.7809 41.6857 33.8268 41.3245C33.8958 40.7418 33.9159 40.0882 33.5453 39.6627C33.2724 39.3547 32.5141 39.3215 32.201 39.3215C31.9827 39.3215 31.7702 39.337 31.5835 39.3636C30.8482 39.4722 30.1329 39.6627 29.3775 39.8621C29.1334 39.9264 28.8835 39.9929 28.6278 40.0571C28.421 39.3813 27.9097 39.0534 27.071 39.0534C26.666 39.0534 26.2294 39.1287 25.856 39.2019C25.8445 39.2041 25.8272 39.2063 25.81 39.2063C25.6147 39.2063 25.2556 39.0556 25.0258 38.8784C24.6955 38.6236 24.3824 38.3466 24.0751 38.0763C23.6414 37.693 23.1933 37.2986 22.6877 36.9551C22.3545 36.7291 21.8117 36.6826 21.4153 36.6826C21.2803 36.6826 21.1424 36.6892 21.0074 36.6981C20.8121 36.7136 20.6598 36.7203 20.522 36.7203C19.9532 36.7203 19.5367 36.6073 19.08 36.029L18.9335 35.8428C17.5232 34.0503 16.0669 32.1958 13.5134 31.0791C12.9877 30.8486 12.5109 30.5562 11.9594 30.2172C11.6894 30.051 11.4079 29.8782 11.1006 29.7009L10.9627 29.6211L10.8191 29.692C10.6841 29.7607 10.5491 29.794 10.4169 29.794C10.0205 29.794 9.67011 29.4771 9.44319 29.2134C9.11 28.819 8.63893 28.6019 8.11615 28.6019C7.69679 28.6019 7.26306 28.7371 6.82358 29.0052C6.74029 28.8279 6.65986 28.6551 6.57943 28.4845C6.24623 27.7777 5.93315 27.1107 5.69761 26.4371C5.7608 26.3241 6.13996 26.0472 6.32092 26.0317C7.33487 25.9475 8.3919 25.799 9.15595 24.9814C9.25649 24.8729 9.8683 24.8662 10.1297 24.864H10.2446C11.8014 24.8418 12.3213 24.4585 12.3816 23.2886C12.4075 22.8012 12.4391 22.3115 12.4707 21.824C12.5425 20.7516 12.6143 19.6438 12.6114 18.5514C12.6114 18.1615 12.037 17.499 11.5429 17.4458C10.9828 17.386 10.865 17.1467 10.7013 16.8143C10.6438 16.6947 10.5807 16.5706 10.4945 16.4509C10.0378 15.8195 9.51213 15.1592 8.79116 14.3083C8.62744 14.1156 8.43786 13.9361 8.2569 13.7611C8.01849 13.5328 7.79158 13.3157 7.62211 13.0764C7.09359 12.3297 5.41037 11.5697 4.28727 11.5697C4.22408 11.5697 4.16376 11.5719 4.10631 11.5764C3.2963 10.4973 2.77066 9.49803 4.00004 8.33035C4.37345 7.97584 4.35621 7.66342 4.27866 7.46179C4.12929 7.08069 3.63812 6.77271 2.89417 6.59324C1.15925 6.1789 1.09606 6.108 1.1851 4.69437L1.19659 4.51712C1.22819 4.05182 1.25691 3.571 1.24255 3.09906C1.21096 2.21499 0.955314 1.80508 0.067749 1.38188C0.197006 1.33978 0.326263 1.2999 0.45552 1.26002C1.09319 1.05839 1.75384 0.85233 2.35129 0.564287C2.72183 0.384814 3.08375 0.29397 3.42269 0.29397C3.76163 0.29397 4.1178 0.393674 4.44238 0.588657C4.98526 0.916582 5.52527 1.0739 6.09687 1.0739C6.66847 1.0739 7.22284 0.925447 7.89498 0.608601C8.18796 0.471227 8.51829 0.369304 8.83712 0.269597C8.90893 0.24744 8.98361 0.225282 9.05255 0.203125C9.17893 0.411402 9.29957 0.613029 9.41734 0.810228C9.74479 1.35751 10.0579 1.87599 10.3738 2.38117C10.8104 3.07469 11.4797 3.42477 12.3587 3.42477C12.4563 3.42477 12.5569 3.42034 12.6631 3.41147C12.7436 3.40483 12.8211 3.4004 12.8929 3.4004C13.2606 3.4004 13.5248 3.48903 13.7115 3.93217C13.8178 4.18919 14.0648 4.37309 14.3033 4.55035C14.6939 4.84282 14.9266 5.04224 14.7715 5.41891L14.6767 5.65156L14.9926 5.66264C15.1219 5.66707 15.2799 5.68701 15.4321 5.70474C15.6274 5.72911 15.8285 5.75348 16.0066 5.75348C16.2335 5.75348 16.3972 5.71138 16.5121 5.62497C16.9918 5.25716 17.4428 5.08434 17.9282 5.08434C18.3045 5.08434 18.7124 5.18848 19.1834 5.40561C19.2696 5.4455 19.3701 5.46544 19.4879 5.46544C19.6775 5.46544 19.8872 5.41448 20.1313 5.35687C20.2663 5.32363 20.4071 5.2904 20.5536 5.26381C20.5593 5.26824 20.5679 5.27046 20.5737 5.27489C20.7632 5.3746 21.1137 5.56293 21.4871 5.7136C21.6393 5.77564 21.8145 5.79115 21.9725 5.80666C22.0702 5.81552 22.2339 5.83103 22.2684 5.85984C23.2565 6.67743 24.4198 7.06075 25.9278 7.06075C26.7665 7.06075 27.6253 6.94553 28.4555 6.83475C28.8576 6.78157 29.2741 6.72396 29.6791 6.68408C29.8773 6.66414 30.0755 6.61761 30.2651 6.57108C30.4891 6.5179 30.6988 6.46694 30.8711 6.46694C31.009 6.46694 31.1699 6.4891 31.2905 6.74169C31.4628 7.10063 31.4169 7.53713 31.3681 7.998C31.348 8.17525 31.3307 8.35694 31.325 8.5342C31.3221 8.64942 31.2819 8.79344 31.2445 8.93081C31.1612 9.24101 31.0837 9.53349 31.2991 9.72626C31.5548 9.95226 31.9483 10.0431 32.4509 10.1561C32.6262 10.196 32.8186 10.2403 33.0225 10.2935C32.9967 10.422 32.968 10.5594 32.9393 10.7056C32.8301 11.2307 32.7066 11.8267 32.6434 12.4383C32.5716 13.1894 32.6118 13.9605 32.6578 14.685C32.6894 15.1503 32.7382 15.62 32.7841 16.0765C32.8531 16.7412 32.9278 17.4303 32.9393 18.1039C32.9594 19.2405 33.7033 19.9185 34.9298 19.9185C35.24 19.9185 35.579 19.8742 35.9351 19.79C36.8744 19.5618 37.8682 19.4045 38.8305 19.2538L39.3619 19.1696C39.517 19.1452 39.675 19.1231 39.833 19.1009C40.7837 18.968 41.7661 18.8284 42.4325 18.0706C42.9524 17.4768 43.7135 17.1998 44.828 17.1998C45.1038 17.1998 45.4082 17.2176 45.7587 17.2508C46.8502 17.3594 47.9503 17.561 49.016 17.756C49.6565 17.8734 50.32 17.9953 50.9807 18.095C51.7016 18.2036 51.9573 18.4517 51.8912 18.9791C51.8596 19.2383 51.8366 19.4975 51.8165 19.7568C51.7907 20.0847 51.7619 20.4237 51.7102 20.7516C51.5666 21.6822 52.1124 22.2694 53.2872 22.4489C54.1661 22.584 54.5769 22.8787 54.7952 23.5346C54.8411 23.6697 54.8813 23.8071 54.9216 23.9467C55.1485 24.7155 55.4041 25.5863 56.4755 26.1425C56.5818 26.2134 56.6622 26.6366 56.5646 26.754C55.8177 27.6425 55.7546 28.6174 55.6914 29.5591C55.6598 30.0266 55.6282 30.5096 55.5104 30.9661C55.4501 31.1943 55.4472 31.4269 55.4472 31.6751C55.4472 31.7194 55.4472 31.7659 55.4472 31.8125C55.0652 31.7438 54.7349 31.7083 54.4476 31.7083C53.9248 31.7083 53.5313 31.8258 53.2843 32.0606C52.9511 32.3708 52.8793 32.8782 53.0631 33.6116C53.2671 34.4314 52.9999 34.8857 52.1382 35.1826C50.9979 35.5747 49.803 36.0932 48.4788 36.7712C47.9187 37.0593 47.6573 37.3252 47.6573 37.6088C47.6573 37.899 47.9216 38.1605 48.5133 38.4552C48.8034 38.5992 49.0849 38.7499 49.3176 38.8762C48.8091 39.1908 48.3036 39.5032 47.8009 39.8156C46.1867 40.8149 44.5207 41.8474 42.9035 42.8733C42.5675 43.086 42.1136 43.4272 41.8781 43.8371C41.588 44.3445 41.183 44.6038 40.6774 44.6038C40.3988 44.6038 40.0915 44.5262 39.764 44.3733C39.4509 44.2271 39.1666 44.1562 38.8879 44.1562C38.3307 44.1562 37.9314 44.4531 37.604 44.7301C37.1473 45.1156 36.6504 45.3039 36.0845 45.3039L36.096 45.3172Z" fill="#FAEFE3"/>
</svg>
