<svg width="57" height="48" viewBox="0 0 57 48" fill="none" xmlns="http://www.w3.org/2000/svg">
<path d="M56.8462 4.34878C56.8462 4.34878 56.8553 4.3333 56.8599 4.32555C56.318 3.53978 55.585 2.81206 54.7836 2.26628C54.4786 2.26628 53.7546 2.54885 53.5497 2.78497C52.6027 3.86106 51.4962 4.34104 49.9618 4.34104C49.7888 4.34104 49.6067 4.3333 49.42 4.32169C46.6016 4.13976 44.7484 2.6611 43.0865 1.16309C42.3717 0.51666 41.6386 0.203125 40.8509 0.203125C40.3501 0.203125 39.7992 0.326988 39.1799 0.574721C38.3376 0.915354 37.4952 1.30244 36.6848 1.67404C35.7605 2.09983 34.8089 2.53723 33.8345 2.91657C31.9677 3.64429 30.7793 4.68167 30.0827 6.17969C29.7412 6.90353 28.8078 7.51512 28.0338 7.79769C24.3138 9.16022 20.8079 11.1305 17.6252 13.6543C16.9741 14.1691 16.4824 14.8194 15.9588 15.5122C15.6583 15.9109 15.3441 16.3251 14.9981 16.7083C14.5519 17.1999 14.0647 17.6915 13.4409 17.8657C11.7198 18.3418 11.1233 18.6941 11.096 19.654C11.096 19.6657 11.096 19.6811 11.096 19.6927C11.096 19.7044 11.096 19.7198 11.096 19.7314C11.096 19.7431 11.096 19.7585 11.096 19.7702C11.096 19.7818 11.096 19.7973 11.096 19.8089C11.096 19.8205 11.096 19.836 11.096 19.8476C11.096 19.8592 11.096 19.8747 11.096 19.8863C11.096 19.8979 11.096 19.9134 11.096 19.925C11.096 19.9366 11.096 19.9521 11.096 19.9637C11.096 19.9753 11.096 19.9908 11.096 20.0024C11.096 20.014 11.096 20.0295 11.096 20.0411C11.096 20.0527 11.096 20.0682 11.096 20.0798C11.096 20.0914 11.096 20.1069 11.096 20.1185C11.096 20.1301 11.096 20.1456 11.096 20.1572C11.096 20.1689 11.096 20.1843 11.096 20.196C11.096 20.2076 11.096 20.223 11.096 20.2347C11.096 20.2463 11.096 20.2618 11.096 20.2734C11.096 20.285 11.096 20.3005 11.096 20.3121C11.096 20.3237 11.096 20.3392 11.096 20.3508C11.096 20.3624 11.096 20.3779 11.096 20.3895C11.096 20.4011 11.096 20.4166 11.096 20.4282C11.096 20.4398 11.096 20.4553 11.096 20.4669C11.096 20.4785 11.096 20.494 11.096 20.5056C11.096 20.5172 11.096 20.5327 11.096 20.5443C11.096 20.5559 11.096 20.5714 11.096 20.583C11.096 20.5946 11.096 20.6101 11.096 20.6217C11.096 20.6334 11.096 20.6488 11.096 20.6605C11.096 20.6721 11.096 20.6875 11.096 20.6992C11.096 20.7108 11.096 20.7263 11.096 20.7379C11.096 20.7495 11.096 20.765 11.096 20.7766C11.096 20.7882 11.096 20.8037 11.096 20.8153C11.096 20.8269 11.096 20.8424 11.096 20.854C11.096 20.8656 11.096 20.8811 11.096 20.8927C11.096 20.9043 11.096 20.9198 11.096 20.9314C11.096 20.943 11.096 20.9585 11.096 20.9701C11.096 20.9817 11.096 20.9972 11.096 21.0088C11.096 21.0204 11.096 21.0359 11.096 21.0475C11.096 21.0592 11.096 21.0746 11.096 21.0862C11.096 21.0979 11.096 21.1133 11.096 21.1249C11.096 21.1366 11.096 21.152 11.096 21.1637C11.096 21.1753 11.096 21.1908 11.096 21.2024C11.096 21.214 11.096 21.2295 11.096 21.2411C11.096 21.2527 11.096 21.2682 11.096 21.2798C11.096 21.2914 11.096 21.3069 11.096 21.3185C11.096 21.3301 11.096 21.3456 11.096 21.3572C11.096 21.3688 11.096 21.3843 11.096 21.3959C11.096 21.4075 11.096 21.423 11.096 21.4346C11.096 21.4462 11.096 21.4617 11.096 21.4733C11.096 21.4849 11.096 21.5004 11.096 21.512C11.096 21.5236 11.096 21.5391 11.096 21.5507C11.096 21.5624 11.096 21.5778 11.096 21.5895C11.096 21.6011 11.096 21.6166 11.096 21.6282C11.096 21.6398 11.096 21.6552 11.096 21.6669C11.096 21.6785 11.096 21.694 11.096 21.7056C11.096 21.7172 11.096 21.7327 11.096 21.7443C11.096 21.7559 11.096 21.7714 11.096 21.783C11.096 21.7946 11.096 21.8101 11.096 21.8217C11.096 21.8333 11.096 21.8488 11.096 21.8604C11.096 21.872 11.096 21.8875 11.096 21.8991C11.096 21.9107 11.096 21.9262 11.096 21.9378C11.096 21.9494 11.096 21.9649 11.096 21.9765C11.096 21.9881 11.096 22.0036 11.096 22.0152C11.096 22.0269 11.096 22.0423 11.096 22.0539C11.096 22.0656 11.096 22.081 11.096 22.0927C11.096 22.1043 11.096 22.1198 11.096 22.1314C11.096 22.143 11.096 22.1585 11.096 22.1701C11.096 22.1817 11.096 22.1972 11.096 22.2088C11.096 22.2204 11.096 22.2359 11.096 22.2475C11.096 22.2591 11.096 22.2746 11.096 22.2862C11.096 22.2978 11.096 22.3133 11.096 22.3249C11.096 22.3365 11.096 22.352 11.096 22.3636C11.096 22.3752 11.096 22.3907 11.096 22.4023C11.096 22.4139 11.096 22.4294 11.096 22.441C11.096 22.4526 11.096 22.4681 11.096 22.4797C11.096 22.4914 11.096 22.5068 11.096 22.5184C11.096 22.5301 11.096 22.5455 11.096 22.5572C11.096 22.5688 11.096 22.5843 11.096 22.5959C11.096 22.6075 11.096 22.623 11.096 22.6346C11.096 22.6462 11.096 22.6617 11.096 22.6733C11.096 22.6849 11.096 22.7004 11.096 22.712C11.096 22.7197 11.096 22.7275 11.096 22.7352C11.0687 22.7739 11.0414 22.8165 11.0049 22.8513C10.7636 23.0913 10.4085 23.2075 9.92128 23.2075C9.55247 23.2075 9.08806 23.1417 8.45061 23.0023C8.11823 22.9288 7.80405 22.8204 7.33052 22.6501C7.19848 22.6036 7.05734 22.5533 6.89342 22.4952C6.89342 22.5107 6.89799 22.5223 6.90254 22.5378C6.90254 22.5378 6.89798 22.5378 6.89342 22.5378C6.89342 22.5533 6.89799 22.5649 6.90254 22.5804C6.90254 22.5804 6.89798 22.5804 6.89342 22.5804C6.89342 22.5959 6.89799 22.6075 6.90254 22.623C6.90254 22.623 6.89798 22.623 6.89342 22.623C6.89342 22.6384 6.89799 22.6501 6.90254 22.6655C6.90254 22.6655 6.89798 22.6655 6.89342 22.6655C6.89342 22.681 6.89799 22.6926 6.90254 22.7081C6.90254 22.7081 6.89798 22.7081 6.89342 22.7081C6.89342 22.7236 6.89799 22.7352 6.90254 22.7507C6.90254 22.7507 6.89798 22.7507 6.89342 22.7507C6.89342 22.7662 6.89799 22.7778 6.90254 22.7933C6.90254 22.7933 6.89798 22.7933 6.89342 22.7933C6.89342 22.8088 6.89799 22.8204 6.90254 22.8359C6.90254 22.8359 6.89798 22.8359 6.89342 22.8359C6.89342 22.8513 6.89799 22.8629 6.90254 22.8784C6.90254 22.8784 6.89798 22.8784 6.89342 22.8784C6.89342 22.8939 6.89799 22.9055 6.90254 22.921C6.90254 22.921 6.89798 22.921 6.89342 22.921C6.89342 22.9365 6.89799 22.9481 6.90254 22.9636C6.90254 22.9636 6.89798 22.9636 6.89342 22.9636C6.89342 22.9791 6.89799 22.9907 6.90254 23.0062C6.90254 23.0062 6.89798 23.0062 6.89342 23.0062C6.89342 23.0217 6.89799 23.0333 6.90254 23.0487C6.90254 23.0487 6.89798 23.0487 6.89342 23.0487C6.89342 23.0642 6.89799 23.0759 6.90254 23.0913C6.90254 23.0913 6.89798 23.0913 6.89342 23.0913C6.89342 23.1068 6.89799 23.1184 6.90254 23.1339C6.90254 23.1339 6.89798 23.1339 6.89342 23.1339C6.89342 23.1494 6.89799 23.161 6.90254 23.1765C6.90254 23.1765 6.89798 23.1765 6.89342 23.1765C6.89342 23.192 6.89799 23.2036 6.90254 23.2191C6.90254 23.2191 6.89798 23.2191 6.89342 23.2191C6.89342 23.2346 6.89799 23.2462 6.90254 23.2617C6.90254 23.2617 6.89798 23.2617 6.89342 23.2617C6.89342 23.2771 6.89799 23.2887 6.90254 23.3042C6.90254 23.3042 6.89798 23.3042 6.89342 23.3042C6.89342 23.3197 6.89799 23.3313 6.90254 23.3468C6.90254 23.3468 6.89798 23.3468 6.89342 23.3468C6.89342 23.3623 6.89799 23.3739 6.90254 23.3894C6.90254 23.3894 6.89798 23.3894 6.89342 23.3894C6.89342 23.4049 6.89799 23.4165 6.90254 23.432C6.90254 23.432 6.89798 23.432 6.89342 23.432C6.89342 23.4475 6.89799 23.4591 6.90254 23.4745C6.90254 23.4745 6.89798 23.4745 6.89342 23.4745C6.89342 23.49 6.89799 23.5016 6.90254 23.5171C6.90254 23.5171 6.89798 23.5171 6.89342 23.5171C6.89342 23.5326 6.89799 23.5442 6.90254 23.5597C6.90254 23.5597 6.89798 23.5597 6.89342 23.5597C6.89342 23.5752 6.89799 23.5868 6.90254 23.6023C6.90254 23.6023 6.89798 23.6023 6.89342 23.6023C6.89342 23.6178 6.89799 23.6294 6.90254 23.6449C6.90254 23.6449 6.89798 23.6449 6.89342 23.6449C6.89342 23.6603 6.89799 23.672 6.90254 23.6874C6.90254 23.6874 6.89798 23.6874 6.89342 23.6874C6.89342 23.7029 6.89799 23.7145 6.90254 23.73C6.90254 23.73 6.89798 23.73 6.89342 23.73C6.89342 23.7455 6.89799 23.7571 6.90254 23.7726C6.90254 23.7726 6.89798 23.7726 6.89342 23.7726C6.89342 23.7881 6.89799 23.7997 6.90254 23.8152C6.90254 23.8152 6.89798 23.8152 6.89342 23.8152C6.89342 23.8307 6.89799 23.8423 6.90254 23.8578C6.90254 23.8578 6.89798 23.8578 6.89342 23.8578C6.89342 23.8732 6.89799 23.8849 6.90254 23.9003C6.90254 23.9003 6.89798 23.9003 6.89342 23.9003C6.89342 23.9158 6.89799 23.9274 6.90254 23.9429C6.90254 23.9429 6.89798 23.9429 6.89342 23.9429C6.89342 23.9584 6.89799 23.97 6.90254 23.9855C6.90254 23.9855 6.89798 23.9855 6.89342 23.9855C6.89342 24.001 6.89799 24.0126 6.90254 24.0281C6.90254 24.0281 6.89798 24.0281 6.89342 24.0281C6.89342 24.0436 6.89799 24.0552 6.90254 24.0707C6.90254 24.0707 6.89798 24.0707 6.89342 24.0707C6.89342 24.0861 6.89799 24.0977 6.90254 24.1132C6.90254 24.1132 6.89798 24.1132 6.89342 24.1132C6.89342 24.1287 6.89799 24.1403 6.90254 24.1558C6.90254 24.1558 6.89798 24.1558 6.89342 24.1558C6.89342 24.1713 6.89799 24.1829 6.90254 24.1984C6.90254 24.1984 6.89798 24.1984 6.89342 24.1984C6.89342 24.2139 6.89799 24.2255 6.90254 24.241C6.90254 24.241 6.89798 24.241 6.89342 24.241C6.89342 24.2565 6.89799 24.2681 6.90254 24.2835C6.90254 24.2835 6.89798 24.2835 6.89342 24.2835C6.89342 24.299 6.89799 24.3106 6.90254 24.3261C6.90254 24.3261 6.89798 24.3261 6.89342 24.3261C6.89342 24.3416 6.89799 24.3532 6.90254 24.3687C6.90254 24.3687 6.89798 24.3687 6.89342 24.3687C6.89342 24.3842 6.89799 24.3958 6.90254 24.4113C6.90254 24.4113 6.89798 24.4113 6.89342 24.4113C6.89342 24.4268 6.89799 24.4384 6.90254 24.4539C6.90254 24.4539 6.89798 24.4539 6.89342 24.4539C6.89342 24.4693 6.89799 24.481 6.90254 24.4964C6.90254 24.4964 6.89798 24.4964 6.89342 24.4964C6.89342 24.5119 6.89799 24.5235 6.90254 24.539C6.90254 24.539 6.89798 24.539 6.89342 24.539C6.89342 24.5545 6.89799 24.5661 6.90254 24.5816C6.90254 24.5816 6.89798 24.5816 6.89342 24.5816C6.89342 24.5971 6.89799 24.6087 6.90254 24.6242C6.90254 24.6242 6.89798 24.6242 6.89342 24.6242C6.89342 24.6397 6.89799 24.6513 6.90254 24.6668C6.90254 24.6668 6.89798 24.6668 6.89342 24.6668C6.89342 24.6822 6.89799 24.6939 6.90254 24.7093C6.90254 24.7093 6.89798 24.7093 6.89342 24.7093C6.89342 24.7248 6.89799 24.7364 6.90254 24.7519C6.90254 24.7519 6.89798 24.7519 6.89342 24.7519C6.89342 24.7674 6.89799 24.779 6.90254 24.7945C6.90254 24.7945 6.89798 24.7945 6.89342 24.7945C6.89342 24.81 6.89799 24.8216 6.90254 24.8371C6.90254 24.8371 6.89798 24.8371 6.89342 24.8371C6.89342 24.8526 6.89799 24.8642 6.90254 24.8797C6.90254 24.8797 6.89798 24.8797 6.89342 24.8797C6.89342 24.8951 6.89799 24.9067 6.90254 24.9222C6.90254 24.9222 6.89798 24.9222 6.89342 24.9222C6.89342 24.9377 6.89799 24.9493 6.90254 24.9648C6.90254 24.9648 6.89798 24.9648 6.89342 24.9648C6.89342 24.9803 6.89799 24.9919 6.90254 25.0074C6.90254 25.0074 6.89798 25.0074 6.89342 25.0074C6.89342 25.0229 6.89799 25.0345 6.90254 25.05C6.90254 25.05 6.89798 25.05 6.89342 25.05C6.89342 25.0655 6.89799 25.0771 6.90254 25.0925C6.90254 25.0925 6.89798 25.0925 6.89342 25.0925C6.89342 25.108 6.89799 25.1196 6.90254 25.1351C6.90254 25.1351 6.89798 25.1351 6.89342 25.1351C6.89342 25.1506 6.89799 25.1622 6.90254 25.1777C6.90254 25.1777 6.89798 25.1777 6.89342 25.1777C6.89342 25.1932 6.89799 25.2048 6.90254 25.2203C6.90254 25.2203 6.89798 25.2203 6.89342 25.2203C6.89342 25.2358 6.89799 25.2474 6.90254 25.2629C6.90254 25.2629 6.89798 25.2629 6.89342 25.2629C6.89342 25.2783 6.89799 25.29 6.90254 25.3055C6.90254 25.3055 6.89798 25.3055 6.89342 25.3055C6.89342 25.3209 6.89799 25.3325 6.90254 25.348C6.90254 25.348 6.89798 25.348 6.89342 25.348C6.89342 25.3635 6.89799 25.3751 6.90254 25.3906C6.90254 25.3906 6.89798 25.3906 6.89342 25.3906C6.89342 25.4061 6.89799 25.4177 6.90254 25.4332C6.90254 25.4332 6.89798 25.4332 6.89342 25.4332C6.89342 25.4487 6.89799 25.4603 6.90254 25.4758C6.90254 25.4758 6.89798 25.4758 6.89342 25.4758C6.89342 25.4913 6.89799 25.5029 6.90254 25.5183C6.90254 25.5183 6.89798 25.5183 6.89342 25.5183C6.89342 25.5338 6.89799 25.5454 6.90254 25.5609C6.90254 25.5609 6.89798 25.5609 6.89342 25.5609C6.89342 25.5764 6.89799 25.588 6.90254 25.6035C6.90254 25.6035 6.89798 25.6035 6.89342 25.6035C6.89342 25.619 6.89799 25.6306 6.90254 25.6461C6.90254 25.6461 6.89798 25.6461 6.89342 25.6461C6.89342 25.6616 6.89799 25.6732 6.90254 25.6887C6.90254 25.6887 6.89798 25.6887 6.89342 25.6887C6.89342 25.7041 6.89799 25.7157 6.90254 25.7312C6.90254 25.7312 6.89798 25.7312 6.89342 25.7312C6.89342 25.7467 6.89799 25.7583 6.90254 25.7738C6.90254 25.7738 6.89798 25.7738 6.89342 25.7738C6.89342 25.7893 6.89799 25.8009 6.90254 25.8164C6.90254 25.8164 6.89798 25.8164 6.89342 25.8164C6.89342 25.8319 6.89799 25.8435 6.90254 25.859C6.90254 25.859 6.89798 25.859 6.89342 25.859C6.89342 25.8745 6.89799 25.8861 6.90254 25.9015C6.90254 25.9015 6.89798 25.9015 6.89342 25.9015C6.89342 25.917 6.89799 25.9287 6.90254 25.9441C6.90254 25.9441 6.89798 25.9441 6.89342 25.9441C6.89342 25.9596 6.89799 25.9712 6.90254 25.9867C6.90254 25.9867 6.89798 25.9867 6.89342 25.9867C6.89342 26.0022 6.89799 26.0138 6.90254 26.0293C6.90254 26.0293 6.89798 26.0293 6.89342 26.0293C6.89342 26.0448 6.89799 26.0564 6.90254 26.0719C6.90254 26.0719 6.89798 26.0719 6.89342 26.0719C6.89342 26.0873 6.89799 26.099 6.90254 26.1145C6.90254 26.1145 6.89798 26.1145 6.89342 26.1145C6.89342 26.1299 6.89799 26.1415 6.90254 26.157C6.90254 26.157 6.89798 26.157 6.89342 26.157C6.89342 26.1725 6.89799 26.1841 6.90254 26.1996C6.90254 26.1996 6.89798 26.1996 6.89342 26.1996C6.89342 26.2151 6.89799 26.2267 6.90254 26.2422C6.90254 26.2422 6.89798 26.2422 6.89342 26.2422C6.89342 26.2577 6.89799 26.2693 6.90254 26.2848C6.90254 26.2848 6.89798 26.2848 6.89342 26.2848C6.89342 26.3003 6.89799 26.3119 6.90254 26.3273C6.90254 26.3273 6.89798 26.3273 6.89342 26.3273C6.89342 26.3428 6.89799 26.3544 6.90254 26.3699C6.90254 26.3699 6.89798 26.3699 6.89342 26.3699C6.89342 26.3854 6.89799 26.397 6.90254 26.4125C6.90254 26.4125 6.89798 26.4125 6.89342 26.4125C6.89342 26.428 6.89799 26.4396 6.90254 26.4551C6.90254 26.4551 6.89798 26.4551 6.89342 26.4551C6.89342 26.4706 6.89799 26.4822 6.90254 26.4977C6.90254 26.4977 6.89798 26.4977 6.89342 26.4977C6.89342 26.5131 6.89799 26.5248 6.90254 26.5402C6.90254 26.5402 6.89798 26.5402 6.89342 26.5402C6.89342 26.5557 6.89799 26.5673 6.90254 26.5828C6.90254 26.5828 6.89798 26.5828 6.89342 26.5828C6.89342 26.5983 6.89799 26.6099 6.90254 26.6254C6.90254 26.6254 6.89798 26.6254 6.89342 26.6254C6.89342 26.6409 6.89799 26.6525 6.90254 26.668C6.90254 26.668 6.89798 26.668 6.89342 26.668C6.89342 26.6835 6.89799 26.6951 6.90254 26.7106C6.90254 26.7106 6.89798 26.7106 6.89342 26.7106C6.89342 26.726 6.89799 26.7377 6.90254 26.7531C6.90254 26.7531 6.89798 26.7531 6.89342 26.7531C6.89342 26.7686 6.89799 26.7802 6.90254 26.7957C6.90254 26.7957 6.89798 26.7957 6.89342 26.7957C6.9344 26.9776 6.97082 27.1441 7.0027 27.3105C6.77959 27.415 6.53828 27.4963 6.30152 27.566C4.61229 28.0576 2.91851 28.5415 1.22018 29.0292L0.0317993 29.3698C0.0591183 29.3698 0.0864479 29.3814 0.113767 29.3853L0.0317993 29.4085C0.0591183 29.4085 0.0864479 29.4201 0.113767 29.424L0.0317993 29.4472C0.0591183 29.4472 0.0864479 29.4588 0.113767 29.4627L0.0317993 29.4859C0.0591183 29.4859 0.0864479 29.4976 0.113767 29.5014L0.0317993 29.5247C0.0591183 29.5247 0.0864479 29.5363 0.113767 29.5401L0.0317993 29.5634C0.0591183 29.5634 0.0864479 29.575 0.113767 29.5788L0.0317993 29.6021C0.0591183 29.6021 0.0864479 29.6137 0.113767 29.6175L0.0317993 29.6408C0.0591183 29.6408 0.0864479 29.6524 0.113767 29.6563L0.0317993 29.6795C0.0591183 29.6795 0.0864479 29.6911 0.113767 29.695L0.0317993 29.7182C0.0591183 29.7182 0.0864479 29.7298 0.113767 29.7337L0.0317993 29.7569C0.0591183 29.7569 0.0864479 29.7685 0.113767 29.7724L0.0317993 29.7956C0.0591183 29.7956 0.0864479 29.8072 0.113767 29.8111L0.0317993 29.8343C0.0591183 29.8343 0.0864479 29.8459 0.113767 29.8498L0.0317993 29.873C0.0591183 29.873 0.0864479 29.8846 0.113767 29.8885L0.0317993 29.9117C0.0591183 29.9117 0.0864479 29.9233 0.113767 29.9272L0.0317993 29.9504C0.0591183 29.9504 0.0864479 29.962 0.113767 29.9659L0.0317993 29.9891C0.0591183 29.9891 0.0864479 30.0008 0.113767 30.0046L0.0317993 30.0279C0.0591183 30.0279 0.0864479 30.0395 0.113767 30.0433L0.0317993 30.0666C0.0591183 30.0666 0.0864479 30.0782 0.113767 30.0821L0.0317993 30.1053C0.0591183 30.1053 0.0864479 30.1169 0.113767 30.1208L0.0317993 30.144C0.0591183 30.144 0.0864479 30.1556 0.113767 30.1595L0.0317993 30.1827C0.0591183 30.1827 0.0864479 30.1943 0.113767 30.1982L0.0317993 30.2214C0.0591183 30.2214 0.0864479 30.233 0.113767 30.2369L0.0317993 30.2601C0.0591183 30.2601 0.0864479 30.2717 0.113767 30.2756L0.0317993 30.2988C0.0591183 30.2988 0.0864479 30.3104 0.113767 30.3143L0.0317993 30.3375C0.0591183 30.3375 0.0864479 30.3491 0.113767 30.353L0.0317993 30.3762C0.0591183 30.3762 0.0864479 30.3878 0.113767 30.3917L0.0317993 30.4149C0.0591183 30.4149 0.0864479 30.4266 0.113767 30.4304L0.0317993 30.4536C0.0591183 30.4536 0.0864479 30.4653 0.113767 30.4691L0.0317993 30.4924C0.0591183 30.4924 0.0864479 30.504 0.113767 30.5078L0.0317993 30.5311C0.0591183 30.5311 0.0864479 30.5427 0.113767 30.5465L0.0317993 30.5698C0.0591183 30.5698 0.0864479 30.5814 0.113767 30.5853L0.0317993 30.6085C0.0591183 30.6085 0.0864479 30.6201 0.113767 30.624L0.0317993 30.6472C0.0591183 30.6472 0.0864479 30.6588 0.113767 30.6627L0.0317993 30.6859C0.0591183 30.6859 0.0864479 30.6975 0.113767 30.7014L0.0317993 30.7246C0.0591183 30.7246 0.0864479 30.7362 0.113767 30.7401L0.0317993 30.7633C0.0591183 30.7633 0.0864479 30.7749 0.113767 30.7788L0.0317993 30.802C0.0591183 30.802 0.0864479 30.8136 0.113767 30.8175L0.0317993 30.8407C0.0591183 30.8407 0.0864479 30.8523 0.113767 30.8562L0.0317993 30.8794C0.0591183 30.8794 0.0864479 30.8911 0.113767 30.8949L0.0317993 30.9182C0.0591183 30.9182 0.0864479 30.9298 0.113767 30.9336L0.0317993 30.9569C0.0591183 30.9569 0.0864479 30.9685 0.113767 30.9723L0.0317993 30.9956C0.0591183 30.9956 0.0864479 31.0072 0.113767 31.011L0.0317993 31.0343C0.0591183 31.0343 0.0864479 31.0459 0.113767 31.0498L0.0317993 31.073C0.0591183 31.073 0.0864479 31.0846 0.113767 31.0885L0.0317993 31.1117C0.0591183 31.1117 0.0864479 31.1233 0.113767 31.1272L0.0317993 31.1504C0.0591183 31.1504 0.0864479 31.162 0.113767 31.1659L0.0317993 31.1891C0.0591183 31.1891 0.0864479 31.2007 0.113767 31.2046L0.0317993 31.2278C0.0591183 31.2278 0.0864479 31.2394 0.113767 31.2433L0.0317993 31.2665C0.0591183 31.2665 0.0864479 31.2781 0.113767 31.282L0.0317993 31.3052C0.0591183 31.3052 0.0864479 31.3168 0.113767 31.3207L0.0317993 31.3439C0.0591183 31.3439 0.0864479 31.3555 0.113767 31.3594L0.0317993 31.3826C0.0591183 31.3826 0.0864479 31.3943 0.113767 31.3981L0.0317993 31.4214C0.0591183 31.4214 0.0864479 31.433 0.113767 31.4368L0.0317993 31.4601C0.0591183 31.4601 0.0864479 31.4717 0.113767 31.4756L0.0317993 31.4988C0.0591183 31.4988 0.0864479 31.5104 0.113767 31.5142L0.0317993 31.5375C0.0591183 31.5375 0.0864479 31.5491 0.113767 31.553L0.0317993 31.5762C0.0591183 31.5762 0.0864479 31.5878 0.113767 31.5917L0.0317993 31.6149C0.0591183 31.6149 0.0864479 31.6265 0.113767 31.6304L0.0317993 31.6536C0.0591183 31.6536 0.0864479 31.6652 0.113767 31.6691L0.0317993 31.6923C0.0591183 31.6923 0.0864479 31.7039 0.113767 31.7078L0.0317993 31.731C0.0591183 31.731 0.0864479 31.7426 0.113767 31.7465L0.0317993 31.7697C0.0591183 31.7697 0.0864479 31.7813 0.113767 31.7852L0.0317993 31.8084C0.0591183 31.8084 0.0864479 31.8201 0.113767 31.8239L0.0317993 31.8471C0.0591183 31.8471 0.0864479 31.8588 0.113767 31.8626L0.0317993 31.8859C0.0591183 31.8859 0.0864479 31.8975 0.113767 31.9013L0.0317993 31.9246C0.0591183 31.9246 0.0864479 31.9362 0.113767 31.94L0.0317993 31.9633C0.0591183 31.9633 0.0864479 31.9749 0.113767 31.9788L0.0317993 32.002C0.0591183 32.002 0.0864479 32.0136 0.113767 32.0175L0.0317993 32.0407C0.0591183 32.0407 0.0864479 32.0523 0.113767 32.0562L0.0317993 32.0794C0.0591183 32.0794 0.0864479 32.091 0.113767 32.0949L0.0317993 32.1181C0.0591183 32.1181 0.0864479 32.1297 0.113767 32.1336L0.0317993 32.1568C0.0591183 32.1568 0.0864479 32.1684 0.113767 32.1723L0.0317993 32.1955C0.0591183 32.1955 0.0864479 32.2071 0.113767 32.211L0.0317993 32.2342C0.0591183 32.2342 0.0864479 32.2458 0.113767 32.2497L0.0317993 32.2729C0.0591183 32.2729 0.0864479 32.2845 0.113767 32.2884L0.0317993 32.3116C0.0591183 32.3116 0.0864479 32.3233 0.113767 32.3271L0.0317993 32.3503C0.0591183 32.3503 0.0864479 32.362 0.113767 32.3658L0.0317993 32.3891C0.0591183 32.3891 0.0864479 32.4007 0.113767 32.4045L0.0317993 32.4278C0.0591183 32.4278 0.0864479 32.4394 0.113767 32.4433L0.0317993 32.4665C0.0591183 32.4665 0.0864479 32.4781 0.113767 32.482L0.0317993 32.5052C0.0591183 32.5052 0.0864479 32.5168 0.113767 32.5207L0.0317993 32.5439C0.0591183 32.5439 0.0864479 32.5555 0.113767 32.5594L0.0317993 32.5826C0.0591183 32.5826 0.0864479 32.5942 0.113767 32.5981L0.0317993 32.6213C0.0591183 32.6213 0.0864479 32.6329 0.113767 32.6368L0.0317993 32.66C0.0591183 32.66 0.0864479 32.6716 0.113767 32.6755L0.0317993 32.6987C0.0591183 32.6987 0.0864479 32.7103 0.113767 32.7142L0.0317993 32.7374C0.0591183 32.7374 0.0864479 32.7491 0.113767 32.7529L0.0317993 32.7761C0.0591183 32.7761 0.0864479 32.7878 0.113767 32.7916L0.0317993 32.8149C0.0591183 32.8149 0.0864479 32.8265 0.113767 32.8303L0.0317993 32.8536C0.0591183 32.8536 0.0864479 32.8652 0.113767 32.869L0.0317993 32.8923C0.0591183 32.8923 0.0864479 32.9039 0.113767 32.9077L0.0317993 32.931C0.0591183 32.931 0.0864479 32.9426 0.113767 32.9465L0.0317993 32.9697C0.0591183 32.9697 0.0864479 32.9813 0.113767 32.9852L0.0317993 33.0084C0.0591183 33.0084 0.0864479 33.02 0.113767 33.0239L0.0317993 33.0471C0.0591183 33.0471 0.0864479 33.0587 0.113767 33.0626L0.0317993 33.0858C0.0591183 33.0858 0.0864479 33.0974 0.113767 33.1013L0.0317993 33.1245C0.0591183 33.1245 0.0864479 33.1361 0.113767 33.14L0.0317993 33.1632C0.0591183 33.1632 0.0864479 33.1748 0.113767 33.1787L0.0317993 33.2019C0.0591183 33.2019 0.0864479 33.2136 0.113767 33.2174L0.0317993 33.2406C0.0591183 33.2406 0.0864479 33.2523 0.113767 33.2561L0.0317993 33.2793C0.846816 33.3722 1.47516 33.6239 1.90316 34.0303C2.18545 34.2974 2.37669 34.6225 2.48596 35.0096C2.4723 35.1102 2.45864 35.2109 2.44043 35.3115C2.40856 35.4548 2.39489 35.5902 2.39489 35.7219C2.39489 35.7335 2.39489 35.7489 2.39489 35.7605C2.39489 35.7722 2.39489 35.7876 2.39489 35.7993C2.39489 35.8109 2.39489 35.8264 2.39489 35.838C2.39489 35.8496 2.39489 35.8651 2.39489 35.8767C2.39489 35.8883 2.39489 35.9038 2.39489 35.9154C2.39489 35.927 2.39489 35.9425 2.39489 35.9541C2.39489 35.9657 2.39489 35.9812 2.39489 35.9928C2.39489 36.0044 2.39489 36.0199 2.39489 36.0315C2.39489 36.0431 2.39489 36.0586 2.39489 36.0702C2.39489 36.0818 2.39489 36.0973 2.39489 36.1089C2.39489 36.1205 2.39489 36.136 2.39489 36.1476C2.39489 36.1592 2.39489 36.1747 2.39489 36.1863C2.39489 36.198 2.39489 36.2134 2.39489 36.2251C2.39489 36.2367 2.39489 36.2522 2.39489 36.2638C2.39489 36.2754 2.39489 36.2909 2.39489 36.3025C2.39489 36.3141 2.39489 36.3296 2.39489 36.3412C2.39489 36.3528 2.39489 36.3683 2.39489 36.3799C2.39489 36.3915 2.39489 36.407 2.39489 36.4186C2.39489 36.4302 2.39489 36.4457 2.39489 36.4573C2.39489 36.4689 2.39489 36.4844 2.39489 36.496C2.39489 36.5076 2.39489 36.5231 2.39489 36.5347C2.39489 36.5463 2.39489 36.5618 2.39489 36.5734C2.39489 36.585 2.39489 36.6005 2.39489 36.6121C2.39489 36.6237 2.39489 36.6392 2.39489 36.6508C2.39489 36.6625 2.39489 36.6779 2.39489 36.6896C2.39489 36.7012 2.39489 36.7166 2.39489 36.7283C2.39489 36.7399 2.39489 36.7554 2.39489 36.767C2.39489 36.7786 2.39489 36.7941 2.39489 36.8057C2.39489 36.8173 2.39489 36.8328 2.39489 36.8444C2.39489 36.856 2.39489 36.8715 2.39489 36.8831C2.39489 36.8947 2.39489 36.9102 2.39489 36.9218C2.39489 36.9334 2.39489 36.9489 2.39489 36.9605C2.39489 36.9721 2.39489 36.9876 2.39489 36.9992C2.39489 37.0108 2.39489 37.0263 2.39489 37.0379C2.39489 37.0495 2.39489 37.065 2.39489 37.0766C2.39489 37.0883 2.39489 37.1037 2.39489 37.1153C2.39489 37.127 2.39489 37.1424 2.39489 37.154C2.39489 37.1657 2.39489 37.1811 2.39489 37.1928C2.39489 37.2044 2.39489 37.2199 2.39489 37.2315C2.39489 37.2431 2.39489 37.2586 2.39489 37.2702C2.39489 37.2818 2.39489 37.2973 2.39489 37.3089C2.39489 37.3205 2.39489 37.336 2.39489 37.3476C2.39489 37.3592 2.39489 37.3747 2.39489 37.3863C2.39489 37.3979 2.39489 37.4134 2.39489 37.425C2.39489 37.4366 2.39489 37.4521 2.39489 37.4637C2.39489 37.4753 2.39489 37.4908 2.39489 37.5024C2.39489 37.514 2.39489 37.5295 2.39489 37.5411C2.39489 37.5527 2.39489 37.5682 2.39489 37.5798C2.39489 37.5915 2.39489 37.6069 2.39489 37.6186C2.39489 37.6302 2.39489 37.6457 2.39489 37.6573C2.39489 37.6689 2.39489 37.6844 2.39489 37.696C2.39489 37.7076 2.39489 37.7231 2.39489 37.7347C2.39489 37.7463 2.39489 37.7618 2.39489 37.7734C2.39489 37.785 2.39489 37.8005 2.39489 37.8121C2.39489 37.8237 2.39489 37.8392 2.39489 37.8508C2.39489 37.8624 2.39489 37.8779 2.39489 37.8895C2.39489 37.9011 2.39489 37.9166 2.39489 37.9282C2.39489 37.9398 2.39489 37.9553 2.39489 37.9669C2.39489 37.9785 2.39489 37.994 2.39489 38.0056C2.39489 38.0173 2.39489 38.0327 2.39489 38.0443C2.39489 38.056 2.39489 38.0714 2.39489 38.083C2.39489 38.0947 2.39489 38.1101 2.39489 38.1218C2.39489 38.1334 2.39489 38.1489 2.39489 38.1605C2.39489 38.1721 2.39489 38.1876 2.39489 38.1992C2.39489 38.2108 2.39489 38.2263 2.39489 38.2379C2.39489 38.2495 2.39489 38.265 2.39489 38.2766C2.39489 38.2882 2.39489 38.3037 2.39489 38.3153C2.39489 38.3269 2.39489 38.3424 2.39489 38.354C2.39489 38.3656 2.39489 38.3811 2.39489 38.3927C2.39489 38.4043 2.39489 38.4198 2.39489 38.4314C2.39489 38.443 2.39489 38.4585 2.39489 38.4701C2.39489 38.4817 2.39489 38.4972 2.39489 38.5088C2.39489 38.5205 2.39489 38.5359 2.39489 38.5476C2.39489 38.5592 2.39489 38.5746 2.39489 38.5863C2.39489 38.5979 2.39489 38.6134 2.39489 38.625C2.39489 38.6366 2.39489 38.6521 2.39489 38.6637C2.39489 38.6753 2.39489 38.6908 2.39489 38.7024C2.39489 38.714 2.39489 38.7295 2.39489 38.7411C2.39489 38.7527 2.39489 38.7682 2.39489 38.7798C2.39489 38.7914 2.39489 38.8069 2.39489 38.8185C2.39489 38.8301 2.39489 38.8456 2.39489 38.8572C2.39489 38.8688 2.39489 38.8843 2.39489 38.8959C2.39489 38.9075 2.39489 38.923 2.39489 38.9346C2.39489 38.9462 2.39489 38.9617 2.39489 38.9733C2.39489 38.985 2.39489 39.0004 2.39489 39.0121C2.39489 39.0237 2.39489 39.0391 2.39489 39.0508C2.39489 39.0624 2.39489 39.0779 2.39489 39.0895C2.39489 39.1011 2.39489 39.1166 2.39489 39.1282C2.39489 39.1398 2.39489 39.1553 2.39489 39.1669C2.39489 39.1785 2.39489 39.194 2.39489 39.2056C2.39489 39.2172 2.39489 39.2327 2.39489 39.2443C2.39489 39.2559 2.39489 39.2714 2.39489 39.283C2.39489 39.2946 2.39489 39.3101 2.39489 39.3217C2.39489 39.3333 2.39489 39.3488 2.39489 39.3604C2.39489 39.372 2.39489 39.3875 2.39489 39.3991C2.39489 39.4108 2.39489 39.4262 2.39489 39.4378C2.39489 39.4494 2.39489 39.4649 2.39489 39.4765C2.39489 39.4882 2.39489 39.5036 2.39489 39.5153C2.39489 39.5269 2.39489 39.5424 2.39489 39.554C2.39489 39.5656 2.39489 39.5811 2.39489 39.5927C2.38123 39.9682 2.48141 40.2855 2.6863 40.5294C2.93673 40.8236 3.35562 41.0094 3.88379 41.0713C6.41079 41.3578 6.90708 42.8984 7.38972 44.3925C7.64469 45.1822 8.03627 45.9486 8.48703 46.8389C8.64184 47.1447 8.8012 47.4621 8.96967 47.7988C9.06073 47.7137 9.13814 47.6401 9.20188 47.5743C9.40677 47.3769 9.50238 47.2879 9.57979 47.195C10.6953 45.9099 11.4739 45.2557 12.635 45.2557C13.3316 45.2557 14.1239 45.4879 15.253 45.8866C16.5006 46.3318 18.0259 46.6182 19.7971 46.7421C20.6167 46.8002 21.4863 46.8311 22.3878 46.8311C23.4487 46.8311 24.5552 46.7924 25.7754 46.7111C26.1397 46.6879 26.6132 46.5989 26.8226 46.3163C26.9091 46.1963 26.9365 46.057 26.9319 45.9099C26.9319 45.8983 26.9319 45.8828 26.9319 45.8712C26.9319 45.8596 26.9319 45.8441 26.9319 45.8325C26.9319 45.8208 26.9319 45.8054 26.9319 45.7937C26.9319 45.7821 26.9319 45.7666 26.9319 45.755C26.9319 45.7434 26.9319 45.7279 26.9319 45.7163C26.9319 45.7047 26.9319 45.6892 26.9319 45.6776C26.9319 45.666 26.9319 45.6505 26.9319 45.6389C26.9319 45.6273 26.9319 45.6118 26.9319 45.6002C26.9319 45.5886 26.9319 45.5731 26.9319 45.5615C26.9319 45.5499 26.9319 45.5344 26.9319 45.5228C26.9319 45.5112 26.9319 45.4957 26.9319 45.4841C26.9319 45.4725 26.9319 45.457 26.9319 45.4454C26.9319 45.4338 26.9319 45.4183 26.9319 45.4067C26.9319 45.395 26.9319 45.3796 26.9319 45.3679C26.9319 45.3563 26.9319 45.3409 26.9319 45.3292C26.9319 45.3176 26.9319 45.3022 26.9319 45.2905C26.9319 45.2789 26.9319 45.2634 26.9319 45.2518C26.9319 45.2402 26.9319 45.2247 26.9319 45.2131C26.9319 45.2015 26.9319 45.186 26.9319 45.1744C26.9319 45.1628 26.9319 45.1473 26.9319 45.1357C26.9319 45.1241 26.9319 45.1086 26.9319 45.097C26.9319 45.0854 26.9319 45.0699 26.9319 45.0583C26.9319 45.0467 26.9319 45.0312 26.9319 45.0196C26.9319 45.008 26.9319 44.9925 26.9319 44.9809C26.9319 44.9693 26.9319 44.9538 26.9319 44.9422C26.9319 44.9305 26.9319 44.9151 26.9319 44.9035C26.9319 44.8918 26.9319 44.8764 26.9319 44.8647C26.9319 44.8531 26.9319 44.8376 26.9319 44.826C26.9319 44.8144 26.9319 44.7989 26.9319 44.7873C26.9319 44.7757 26.9319 44.7602 26.9319 44.7486C26.9319 44.737 26.9319 44.7215 26.9319 44.7099C26.9319 44.6983 26.9319 44.6828 26.9319 44.6712C26.9319 44.6596 26.9319 44.6441 26.9319 44.6325C26.9319 44.6209 26.9319 44.6054 26.9319 44.5938C26.9319 44.5822 26.9319 44.5667 26.9319 44.5551C26.9319 44.5435 26.9319 44.528 26.9319 44.5164C26.9319 44.5048 26.9319 44.4893 26.9319 44.4777C26.9319 44.466 26.9319 44.4506 26.9319 44.439C26.9319 44.4273 26.9319 44.4119 26.9319 44.4002C26.9319 44.3886 26.9319 44.3731 26.9319 44.3615C26.9319 44.3499 26.9319 44.3344 26.9319 44.3228C26.9319 44.3112 26.9319 44.2957 26.9319 44.2841C26.9319 44.2725 26.9319 44.257 26.9319 44.2454C26.9319 44.2338 26.9319 44.2183 26.9319 44.2067C26.9319 44.1951 26.9319 44.1796 26.9319 44.168C26.9319 44.1564 26.9319 44.1409 26.9319 44.1293C26.9319 44.1177 26.9319 44.1022 26.9319 44.0906C26.9319 44.079 26.9319 44.0635 26.9319 44.0519C26.9319 44.0403 26.9319 44.0248 26.9319 44.0132C26.9319 44.0015 26.9319 43.9861 26.9319 43.9744C26.9319 43.9628 26.9319 43.9474 26.9319 43.9357C26.9319 43.9241 26.9319 43.9086 26.9319 43.897C26.9319 43.8854 26.9319 43.8699 26.9319 43.8583C26.9319 43.8467 26.9319 43.8312 26.9319 43.8196C26.9319 43.808 26.9319 43.7925 26.9319 43.7809C26.9319 43.7693 26.9319 43.7538 26.9319 43.7422C26.9319 43.7306 26.9319 43.7151 26.9319 43.7035C26.9319 43.6919 26.9319 43.6764 26.9319 43.6648C26.9319 43.6532 26.9319 43.6377 26.9319 43.6261C26.9319 43.6145 26.9319 43.599 26.9319 43.5874C26.9319 43.5758 26.9319 43.5603 26.9319 43.5487C26.9319 43.5371 26.9319 43.5216 26.9319 43.51C26.9319 43.4983 26.9319 43.4829 26.9319 43.4712C26.9319 43.4596 26.9319 43.4441 26.9319 43.4325C26.9319 43.4209 26.9319 43.4054 26.9319 43.3938C26.9319 43.3822 26.9319 43.3667 26.9319 43.3551C26.9319 43.3435 26.9319 43.328 26.9319 43.3164C26.9319 43.3048 26.9319 43.2893 26.9319 43.2777C26.9319 43.2661 26.9319 43.2506 26.9319 43.239C26.9319 43.2274 26.9319 43.2119 26.9319 43.2003C26.9319 43.1887 26.9319 43.1732 26.9319 43.1616C26.9319 43.15 26.9319 43.1345 26.9319 43.1229C26.9319 43.1113 26.9319 43.0958 26.9319 43.0842C26.9319 43.0725 26.9319 43.0571 26.9319 43.0455C26.9319 43.0338 26.9319 43.0184 26.9319 43.0067C26.9319 42.9951 26.9319 42.9797 26.9319 42.968C26.9319 42.9564 26.9319 42.9409 26.9319 42.9293C26.9319 42.9177 26.9319 42.9022 26.9319 42.8906C26.9319 42.879 26.9319 42.8635 26.9319 42.8519C26.9319 42.8403 26.9319 42.8248 26.9319 42.8132C26.9319 42.8016 26.9319 42.7861 26.9319 42.7745C26.9319 42.7629 26.9319 42.7474 26.9319 42.7358C26.9319 42.7242 26.9319 42.7087 26.9319 42.6971C26.9319 42.6855 26.9319 42.67 26.9319 42.6584C26.9319 42.6468 26.9319 42.6313 26.9319 42.6197C26.9319 42.608 26.9319 42.5926 26.9319 42.581C26.9319 42.5693 26.9319 42.5539 26.9319 42.5422C26.9319 42.5306 26.9319 42.5152 26.9319 42.5035C26.9319 42.4919 26.9319 42.4764 26.9319 42.4648C26.9319 42.4532 26.9319 42.4377 26.9319 42.4261C26.9319 42.4145 26.9319 42.399 26.9319 42.3874C26.9319 42.3758 26.9319 42.3603 26.9319 42.3487C26.9319 42.3371 26.9319 42.3216 26.9319 42.31C26.9319 42.2984 26.9319 42.2906 26.9319 42.279C26.9592 42.2442 26.9865 42.2132 27.0139 42.1823C28.4436 40.4094 29.9233 38.5746 32.892 38.0908C36.8487 37.4482 39.8583 36.4341 41.6796 33.5697C42.2897 32.6097 44.2157 32.0716 45.3904 31.9981C46.0552 31.9555 46.7564 31.9362 47.5441 31.9362C48.6232 31.9362 49.7159 31.9749 50.7723 32.0136C51.6101 32.0446 52.4752 32.0755 53.3221 32.0871H53.4222C54.301 32.0871 54.8792 31.9246 55.1433 31.6033C55.289 31.4252 55.3482 31.1852 55.33 30.8872C55.33 30.8756 55.33 30.864 55.33 30.8485C55.33 30.8369 55.33 30.8253 55.33 30.8098C55.33 30.7982 55.33 30.7865 55.33 30.7711C55.33 30.7594 55.33 30.7478 55.33 30.7323C55.33 30.7207 55.33 30.7091 55.33 30.6936C55.33 30.682 55.33 30.6704 55.33 30.6549C55.33 30.6433 55.33 30.6317 55.33 30.6162C55.33 30.6046 55.33 30.593 55.33 30.5775C55.33 30.5659 55.33 30.5543 55.33 30.5388C55.33 30.5272 55.33 30.5156 55.33 30.5001C55.33 30.4885 55.33 30.4769 55.33 30.4614C55.33 30.4498 55.33 30.4382 55.33 30.4227C55.33 30.4111 55.33 30.3995 55.33 30.384C55.33 30.3724 55.33 30.3607 55.33 30.3453C55.33 30.3337 55.33 30.322 55.33 30.3066C55.33 30.2949 55.33 30.2833 55.33 30.2678C55.33 30.2562 55.33 30.2446 55.33 30.2291C55.33 30.2175 55.33 30.2059 55.33 30.1904C55.33 30.1788 55.33 30.1672 55.33 30.1517C55.33 30.1401 55.33 30.1285 55.33 30.113C55.33 30.1014 55.33 30.0898 55.33 30.0743C55.33 30.0627 55.33 30.0511 55.33 30.0356C55.33 30.024 55.33 30.0124 55.33 29.9969C55.33 29.9853 55.33 29.9737 55.33 29.9582C55.33 29.9466 55.33 29.935 55.33 29.9195C55.33 29.9079 55.33 29.8962 55.33 29.8808C55.33 29.8691 55.33 29.8575 55.33 29.8421C55.33 29.8304 55.33 29.8188 55.33 29.8034C55.33 29.7917 55.33 29.7801 55.33 29.7646C55.33 29.753 55.33 29.7414 55.33 29.7259C55.33 29.7143 55.33 29.7027 55.33 29.6872C55.33 29.6756 55.33 29.664 55.33 29.6485C55.33 29.6369 55.33 29.6253 55.33 29.6098C55.33 29.5982 55.33 29.5866 55.33 29.5711C55.33 29.5595 55.33 29.5479 55.33 29.5324C55.33 29.5208 55.33 29.5092 55.33 29.4937C55.33 29.4821 55.33 29.4705 55.33 29.455C55.33 29.4434 55.33 29.4318 55.33 29.4163C55.33 29.4047 55.33 29.393 55.33 29.3776C55.33 29.3659 55.33 29.3543 55.33 29.3388C55.33 29.3272 55.33 29.3156 55.33 29.3001C55.33 29.2885 55.33 29.2769 55.33 29.2614C55.33 29.2498 55.33 29.2382 55.33 29.2227C55.33 29.2111 55.33 29.1995 55.33 29.184C55.33 29.1724 55.33 29.1608 55.33 29.1453C55.33 29.1337 55.33 29.1221 55.33 29.1066C55.33 29.095 55.33 29.0834 55.33 29.0679C55.33 29.0563 55.33 29.0447 55.33 29.0292C55.33 29.0176 55.33 29.006 55.33 28.9905C55.33 28.9789 55.33 28.9672 55.33 28.9518C55.33 28.9402 55.33 28.9285 55.33 28.9131C55.33 28.9014 55.33 28.8898 55.33 28.8744C55.33 28.8627 55.33 28.8511 55.33 28.8356C55.33 28.824 55.33 28.8124 55.33 28.7969C55.33 28.7853 55.33 28.7737 55.33 28.7582C55.33 28.7466 55.33 28.735 55.33 28.7195C55.33 28.7079 55.33 28.6963 55.33 28.6808C55.33 28.6692 55.33 28.6576 55.33 28.6421C55.33 28.6305 55.33 28.6189 55.33 28.6034C55.33 28.5918 55.33 28.5802 55.33 28.5647C55.33 28.5531 55.33 28.5415 55.33 28.526C55.33 28.5144 55.33 28.5028 55.33 28.4873C55.33 28.4757 55.33 28.464 55.33 28.4486C55.33 28.4369 55.33 28.4253 55.33 28.4098C55.33 28.3982 55.33 28.3866 55.33 28.3711C55.33 28.3595 55.33 28.3479 55.33 28.3324C55.33 28.3208 55.33 28.3092 55.33 28.2937C55.33 28.2821 55.33 28.2705 55.33 28.255C55.33 28.2434 55.33 28.2318 55.33 28.2163C55.33 28.2047 55.33 28.1931 55.33 28.1776C55.33 28.166 55.33 28.1544 55.33 28.1389C55.33 28.1273 55.33 28.1157 55.33 28.1002C55.33 28.0886 55.33 28.077 55.33 28.0615C55.33 28.0499 55.33 28.0382 55.33 28.0228C55.33 28.0112 55.33 27.9995 55.33 27.9841C55.33 27.9724 55.33 27.9608 55.33 27.9453C55.33 27.9337 55.33 27.9221 55.33 27.9066C55.33 27.895 55.33 27.8834 55.33 27.8679C55.33 27.8563 55.33 27.8447 55.33 27.8292C55.33 27.8176 55.33 27.806 55.33 27.7905C55.33 27.7789 55.33 27.7673 55.33 27.7518C55.33 27.7402 55.33 27.7286 55.33 27.7131C55.33 27.7015 55.33 27.6899 55.33 27.6744C55.33 27.6628 55.33 27.6512 55.33 27.6357C55.33 27.6241 55.33 27.6125 55.33 27.597C55.33 27.5854 55.33 27.5737 55.33 27.5583C55.33 27.5466 55.33 27.535 55.33 27.5196C55.33 27.508 55.33 27.4963 55.33 27.4809C55.33 27.4692 55.33 27.4576 55.33 27.4421C55.33 27.4305 55.33 27.4189 55.33 27.4034C55.33 27.3918 55.33 27.3802 55.33 27.3647C55.33 27.3531 55.33 27.3415 55.33 27.326C55.33 27.3144 55.33 27.3028 55.33 27.2873C55.33 27.2757 55.33 27.2641 55.33 27.2486C55.33 27.237 55.33 27.2254 55.33 27.2099C55.33 27.1983 55.33 27.1867 55.33 27.1712C55.33 27.1596 55.33 27.148 55.33 27.1325C55.33 27.1209 55.33 27.1093 55.33 27.0938C55.33 27.0822 55.33 27.0705 55.33 27.0551C55.33 27.0434 55.33 27.0318 55.33 27.0163C55.3163 26.7106 55.2162 26.339 55.0249 25.9054C54.7153 25.2048 54.556 24.4577 54.4057 23.7339C54.3374 23.4165 54.2737 23.0952 54.1917 22.7817C54.1598 22.6617 54.1416 22.5301 54.128 22.3985C54.1052 22.2088 54.0779 22.0075 53.9959 21.9069C53.7273 21.574 53.4586 21.2372 53.1946 20.9004C52.2839 19.7469 51.3369 18.5509 50.2396 17.5251C49.8161 17.1303 49.4746 16.7354 49.2424 16.298C49.247 16.1896 49.2561 16.0813 49.2606 15.969C49.288 15.4852 49.3107 14.9858 49.3836 14.4942C49.4245 14.2039 49.7524 14.0413 50.0392 13.8981C50.1348 13.8517 50.2259 13.8052 50.3033 13.7549C50.5355 13.6039 50.7677 13.4568 50.9999 13.3098C51.5281 12.9769 52.079 12.6285 52.5799 12.2646C53.6954 11.4556 54.8747 10.5924 55.9674 9.67117C56.4 9.30731 56.7961 8.83507 56.8644 8.65314C56.8644 8.64927 56.8553 8.64153 56.8508 8.63766C56.8508 8.62992 56.8599 8.62218 56.8644 8.61443C56.8644 8.61056 56.8553 8.60282 56.8508 8.59895C56.8508 8.59121 56.8599 8.58346 56.8644 8.57572C56.8644 8.57185 56.8553 8.56411 56.8508 8.56024C56.8508 8.5525 56.8599 8.54476 56.8644 8.53702C56.8644 8.53315 56.8553 8.5254 56.8508 8.52153C56.8508 8.51379 56.8599 8.50605 56.8644 8.49831C56.8644 8.49444 56.8553 8.4867 56.8508 8.48283C56.8508 8.47509 56.8599 8.46734 56.8644 8.4596C56.8644 8.45573 56.8553 8.44799 56.8508 8.44412C56.8508 8.43637 56.8599 8.42863 56.8644 8.42089C56.8644 8.41702 56.8553 8.40928 56.8508 8.40541C56.8508 8.39767 56.8599 8.38992 56.8644 8.38218C56.8644 8.37831 56.8553 8.37057 56.8508 8.3667C56.8508 8.35896 56.8599 8.35122 56.8644 8.34348C56.8644 8.33961 56.8553 8.33186 56.8508 8.32799C56.8508 8.32025 56.8599 8.31251 56.8644 8.30477C56.8644 8.3009 56.8553 8.29316 56.8508 8.28929C56.8508 8.28154 56.8599 8.2738 56.8644 8.26606C56.8644 8.26219 56.8553 8.25445 56.8508 8.25058C56.8508 8.24283 56.8599 8.23509 56.8644 8.22735C56.8644 8.22348 56.8553 8.21574 56.8508 8.21187C56.8508 8.20413 56.8599 8.19638 56.8644 8.18864C56.8644 8.18477 56.8553 8.17703 56.8508 8.17316C56.8508 8.16542 56.8599 8.15768 56.8644 8.14994C56.8644 8.14606 56.8553 8.13832 56.8508 8.13445C56.8508 8.12671 56.8599 8.11897 56.8644 8.11122C56.8644 8.10735 56.8553 8.09961 56.8508 8.09574C56.8508 8.088 56.8599 8.08026 56.8644 8.07252C56.8644 8.06865 56.8553 8.0609 56.8508 8.05703C56.8508 8.04929 56.8599 8.04155 56.8644 8.03381C56.8644 8.02994 56.8553 8.0222 56.8508 8.01833C56.8508 8.01059 56.8599 8.00284 56.8644 7.9951C56.8644 7.99123 56.8553 7.98349 56.8508 7.97962C56.8508 7.97188 56.8599 7.96414 56.8644 7.95639C56.8644 7.95252 56.8553 7.94478 56.8508 7.94091C56.8508 7.93317 56.8599 7.92543 56.8644 7.91768C56.8644 7.91381 56.8553 7.90607 56.8508 7.9022C56.8508 7.89446 56.8599 7.88672 56.8644 7.87898C56.8644 7.87511 56.8553 7.86736 56.8508 7.86349C56.8508 7.85575 56.8599 7.84801 56.8644 7.84027C56.8644 7.8364 56.8553 7.82866 56.8508 7.82479C56.8508 7.81705 56.8599 7.8093 56.8644 7.80156C56.8644 7.79769 56.8553 7.78995 56.8508 7.78608C56.8508 7.77834 56.8599 7.77059 56.8644 7.76285C56.8644 7.75898 56.8553 7.75124 56.8508 7.74737C56.8508 7.73962 56.8599 7.73188 56.8644 7.72414C56.8644 7.72027 56.8553 7.71253 56.8508 7.70866C56.8508 7.70092 56.8599 7.69318 56.8644 7.68544C56.8644 7.68157 56.8553 7.67382 56.8508 7.66995C56.8508 7.66221 56.8599 7.65447 56.8644 7.64673C56.8644 7.64286 56.8553 7.63512 56.8508 7.63125C56.8508 7.6235 56.8599 7.61576 56.8644 7.60802C56.8644 7.60415 56.8553 7.59641 56.8508 7.59254C56.8508 7.58479 56.8599 7.57705 56.8644 7.56931C56.8644 7.56544 56.8553 7.5577 56.8508 7.55382C56.8508 7.54608 56.8599 7.53834 56.8644 7.5306C56.8644 7.52673 56.8553 7.51899 56.8508 7.51512C56.8508 7.50738 56.8599 7.49964 56.8644 7.4919C56.8644 7.48802 56.8553 7.48028 56.8508 7.47641C56.8508 7.46867 56.8599 7.46093 56.8644 7.45319C56.8644 7.44931 56.8553 7.44158 56.8508 7.4377C56.8508 7.42996 56.8599 7.42222 56.8644 7.41447C56.8644 7.4106 56.8553 7.40286 56.8508 7.39899C56.8508 7.39125 56.8599 7.38351 56.8644 7.37577C56.8644 7.3719 56.8553 7.36415 56.8508 7.36028C56.8508 7.35254 56.8599 7.3448 56.8644 7.33706C56.8644 7.33319 56.8553 7.32545 56.8508 7.32158C56.8508 7.31384 56.8599 7.3061 56.8644 7.29835C56.8644 7.29448 56.8553 7.28674 56.8508 7.28287C56.8508 7.27513 56.8599 7.26739 56.8644 7.25964C56.8644 7.25577 56.8553 7.24803 56.8508 7.24416C56.8508 7.23642 56.8599 7.22867 56.8644 7.22093C56.8644 7.21706 56.8553 7.20932 56.8508 7.20545C56.8508 7.19771 56.8599 7.18997 56.8644 7.18223C56.8644 7.17836 56.8553 7.17061 56.8508 7.16674C56.8508 7.159 56.8599 7.15126 56.8644 7.14352C56.8644 7.13965 56.8553 7.13191 56.8508 7.12804C56.8508 7.1203 56.8599 7.11255 56.8644 7.10481C56.8644 7.10094 56.8553 7.0932 56.8508 7.08933C56.8508 7.08158 56.8599 7.07384 56.8644 7.0661C56.8644 7.06223 56.8553 7.05449 56.8508 7.05062C56.8508 7.04288 56.8599 7.03513 56.8644 7.02739C56.8644 7.02352 56.8553 7.01578 56.8508 7.01191C56.8508 7.00417 56.8599 6.99643 56.8644 6.98869C56.8644 6.98482 56.8553 6.97707 56.8508 6.9732C56.8508 6.96546 56.8599 6.95772 56.8644 6.94998C56.8644 6.94611 56.8553 6.93837 56.8508 6.9345C56.8508 6.92675 56.8599 6.91901 56.8644 6.91127C56.8644 6.9074 56.8553 6.89966 56.8508 6.89578C56.8508 6.88804 56.8599 6.8803 56.8644 6.87256C56.8644 6.86869 56.8553 6.86095 56.8508 6.85708C56.8508 6.84934 56.8599 6.84159 56.8644 6.83385C56.8644 6.82998 56.8553 6.82224 56.8508 6.81837C56.8508 6.81063 56.8599 6.80289 56.8644 6.79515C56.8644 6.79127 56.8553 6.78353 56.8508 6.77966C56.8508 6.77192 56.8599 6.76418 56.8644 6.75643C56.8644 6.75256 56.8553 6.74482 56.8508 6.74095C56.8508 6.73321 56.8599 6.72547 56.8644 6.71773C56.8644 6.71386 56.8553 6.70611 56.8508 6.70224C56.8508 6.6945 56.8599 6.68676 56.8644 6.67902C56.8644 6.67515 56.8553 6.66741 56.8508 6.66354C56.8508 6.6558 56.8599 6.64805 56.8644 6.64031C56.8644 6.63644 56.8553 6.6287 56.8508 6.62483C56.8508 6.61709 56.8599 6.60935 56.8644 6.6016C56.8644 6.59773 56.8553 6.58999 56.8508 6.58612C56.8508 6.57838 56.8599 6.57063 56.8644 6.56289C56.8644 6.55902 56.8553 6.55128 56.8508 6.54741C56.8508 6.53967 56.8599 6.53193 56.8644 6.52419C56.8644 6.52032 56.8553 6.51257 56.8508 6.5087C56.8508 6.50096 56.8599 6.49322 56.8644 6.48548C56.8644 6.48161 56.8553 6.47387 56.8508 6.47C56.8508 6.46226 56.8599 6.45451 56.8644 6.44677C56.8644 6.4429 56.8553 6.43516 56.8508 6.43129C56.8508 6.42354 56.8599 6.4158 56.8644 6.40806C56.8644 6.40419 56.8553 6.39645 56.8508 6.39258C56.8508 6.38483 56.8599 6.37709 56.8644 6.36935C56.8644 6.36548 56.8553 6.35774 56.8508 6.35387C56.8508 6.34613 56.8599 6.33839 56.8644 6.33065C56.8644 6.32678 56.8553 6.31903 56.8508 6.31516C56.8508 6.30742 56.8599 6.29968 56.8644 6.29194C56.8644 6.28807 56.8553 6.28033 56.8508 6.27646C56.8508 6.26871 56.8599 6.26097 56.8644 6.25323C56.8644 6.24935 56.8553 6.24162 56.8508 6.23775C56.8508 6.23 56.8599 6.22226 56.8644 6.21452C56.8644 6.21065 56.8553 6.20291 56.8508 6.19903C56.8508 6.19129 56.8599 6.18355 56.8644 6.17581C56.8644 6.17194 56.8553 6.1642 56.8508 6.16033C56.8508 6.15259 56.8599 6.14485 56.8644 6.13711C56.8644 6.13323 56.8553 6.12549 56.8508 6.12162C56.8508 6.11388 56.8599 6.10614 56.8644 6.09839C56.8644 6.09452 56.8553 6.08679 56.8508 6.08291C56.8508 6.07517 56.8599 6.06743 56.8644 6.05968C56.8644 6.05581 56.8553 6.04807 56.8508 6.0442C56.8508 6.03646 56.8599 6.02872 56.8644 6.02098C56.8644 6.01711 56.8553 6.00936 56.8508 6.00549C56.8508 5.99775 56.8599 5.99001 56.8644 5.98227C56.8644 5.9784 56.8553 5.97066 56.8508 5.96679C56.8508 5.95905 56.8599 5.95131 56.8644 5.94356C56.8644 5.93969 56.8553 5.93195 56.8508 5.92808C56.8508 5.92034 56.8599 5.9126 56.8644 5.90485C56.8644 5.90098 56.8553 5.89324 56.8508 5.88937C56.8508 5.88163 56.8599 5.87388 56.8644 5.86614C56.8644 5.86227 56.8553 5.85453 56.8508 5.85066C56.8508 5.84292 56.8599 5.83518 56.8644 5.82744C56.8644 5.82357 56.8553 5.81582 56.8508 5.81195C56.8508 5.80421 56.8599 5.79647 56.8644 5.78873C56.8644 5.78486 56.8553 5.77712 56.8508 5.77325C56.8508 5.76551 56.8599 5.75776 56.8644 5.75002C56.8644 5.74615 56.8553 5.73841 56.8508 5.73454C56.8508 5.72679 56.8599 5.71905 56.8644 5.71131C56.8644 5.70744 56.8553 5.6997 56.8508 5.69583C56.8508 5.68809 56.8599 5.68034 56.8644 5.6726C56.8644 5.66873 56.8553 5.66099 56.8508 5.65712C56.8508 5.64938 56.8599 5.64164 56.8644 5.6339C56.8644 5.63003 56.8553 5.62228 56.8508 5.61841C56.8508 5.61067 56.8599 5.60293 56.8644 5.59519C56.8644 5.59132 56.8553 5.58358 56.8508 5.57971C56.8508 5.57196 56.8599 5.56422 56.8644 5.55648C56.8644 5.55261 56.8553 5.54487 56.8508 5.54099C56.8508 5.53325 56.8599 5.52551 56.8644 5.51777C56.8644 5.5139 56.8553 5.50616 56.8508 5.50229C56.8508 5.49455 56.8599 5.4868 56.8644 5.47906C56.8644 5.47519 56.8553 5.46745 56.8508 5.46358C56.8508 5.45584 56.8599 5.4481 56.8644 5.44036C56.8644 5.43648 56.8553 5.42874 56.8508 5.42487C56.8508 5.41713 56.8599 5.40939 56.8644 5.40164C56.8644 5.39777 56.8553 5.39003 56.8508 5.38616C56.8508 5.37842 56.8599 5.37068 56.8644 5.36294C56.8644 5.35907 56.8553 5.35132 56.8508 5.34745C56.8508 5.33971 56.8599 5.33197 56.8644 5.32423C56.8644 5.32036 56.8553 5.31262 56.8508 5.30875C56.8508 5.30101 56.8599 5.29326 56.8644 5.28552C56.8644 5.28165 56.8553 5.27391 56.8508 5.27004C56.8508 5.2623 56.8599 5.25456 56.8644 5.24681C56.8644 5.24294 56.8553 5.2352 56.8508 5.23133C56.8508 5.22359 56.8599 5.21585 56.8644 5.2081C56.8644 5.20423 56.8553 5.19649 56.8508 5.19262C56.8508 5.18488 56.8599 5.17714 56.8644 5.1694C56.8644 5.16553 56.8553 5.15778 56.8508 5.15391C56.8508 5.14617 56.8599 5.13843 56.8644 5.13069C56.8644 5.12682 56.8553 5.11908 56.8508 5.11521C56.8508 5.10747 56.8599 5.09972 56.8644 5.09198C56.8644 5.08811 56.8553 5.08037 56.8508 5.0765C56.8508 5.06876 56.8599 5.06101 56.8644 5.05327C56.8644 5.0494 56.8553 5.04166 56.8508 5.03779C56.8508 5.03004 56.8599 5.0223 56.8644 5.01456C56.8644 5.01069 56.8553 5.00295 56.8508 4.99908C56.8508 4.99134 56.8599 4.9836 56.8644 4.97586C56.8644 4.97199 56.8553 4.96424 56.8508 4.96037C56.8508 4.95263 56.8599 4.94489 56.8644 4.93715C56.8644 4.93328 56.8553 4.92554 56.8508 4.92167C56.8508 4.91392 56.8599 4.90618 56.8644 4.89844C56.8644 4.89457 56.8553 4.88683 56.8508 4.88296C56.8508 4.87521 56.8599 4.86747 56.8644 4.85973C56.8644 4.85586 56.8553 4.84812 56.8508 4.84424C56.8508 4.8365 56.8599 4.82876 56.8644 4.82102C56.8644 4.81715 56.8553 4.80941 56.8508 4.80554C56.8508 4.7978 56.8599 4.79006 56.8644 4.78232C56.8644 4.77844 56.8553 4.7707 56.8508 4.76683L56.8462 4.34878Z" fill="#D6C393"/>
<path d="M8.93785 43.39C8.77394 43.0532 8.61003 42.7358 8.45522 42.43C8.00445 41.5397 7.6129 40.7733 7.35792 39.9836C6.87528 38.4934 6.37443 36.9489 3.85197 36.6625C3.31925 36.6005 2.90491 36.4147 2.65449 36.1205C2.3813 35.8031 2.29479 35.3503 2.40861 34.8122C2.52244 34.2742 2.50879 33.7284 2.49968 33.2019C2.49058 32.7955 2.48147 32.4084 2.527 32.0291C2.64994 30.9723 2.43594 30.1982 1.87134 29.6601C1.44335 29.2537 0.815017 29.0021 0 28.9092L1.18837 28.5686C2.88215 28.0847 4.57593 27.6008 6.2697 27.1054C6.86162 26.9351 7.50361 26.6873 7.74948 26.1764C7.93161 25.7932 7.85876 25.3325 7.52182 24.7713C7.24863 24.3184 7.1348 23.7726 6.99366 23.0797C6.95268 22.8901 6.9117 22.6849 6.86161 22.4681C7.02097 22.5262 7.16668 22.5765 7.29872 22.623C7.77225 22.7894 8.08642 22.9017 8.4188 22.9752C9.05169 23.1146 9.52067 23.1804 9.88948 23.1804C10.3812 23.1804 10.7364 23.0642 10.9731 22.8242C11.392 22.4062 11.3601 21.7017 11.1871 20.7727C10.832 18.8992 11.1461 18.4928 13.4136 17.8657C14.0374 17.6915 14.5246 17.1999 14.9708 16.7083C15.3168 16.3212 15.631 15.9109 15.9315 15.5122C16.4551 14.8194 16.9469 14.1691 17.598 13.6543C20.7852 11.1305 24.2866 9.16022 28.0065 7.79769C28.7806 7.51512 29.7139 6.90353 30.0554 6.17969C30.7521 4.68167 31.945 3.64429 33.8073 2.91657C34.7816 2.53723 35.7378 2.09983 36.6575 1.67404C37.4725 1.30244 38.3103 0.915354 39.1527 0.574721C39.7765 0.323117 40.3228 0.203125 40.8237 0.203125C41.6114 0.203125 42.3444 0.51666 43.0593 1.16309C44.7212 2.6611 46.5743 4.13976 49.3927 4.32169C49.5794 4.3333 49.757 4.34104 49.9346 4.34104C51.469 4.34104 52.5754 3.86106 53.5225 2.78497C53.7273 2.54885 54.4559 2.26628 54.7564 2.26628C55.5577 2.81206 56.2908 3.53978 56.8326 4.32555C56.7643 4.50748 56.3682 4.97973 55.9356 5.34358C54.8429 6.26484 53.6636 7.12804 52.5481 7.93704C52.0427 8.30477 51.4963 8.64927 50.9681 8.98216C50.7359 9.12925 50.4992 9.27635 50.2715 9.42731C50.1941 9.47763 50.103 9.52408 50.0074 9.57053C49.7206 9.71375 49.3927 9.87245 49.3518 10.1666C49.2835 10.6582 49.2561 11.1576 49.2288 11.6414C49.1924 12.3653 49.156 13.0465 48.9875 13.7123C48.6141 15.2026 49.2061 16.1316 50.2078 17.0683C51.3051 18.0941 52.2476 19.2863 53.1628 20.4437C53.4268 20.7805 53.6955 21.1172 53.9641 21.4501C54.0461 21.5507 54.0734 21.752 54.0962 21.9417C54.1144 22.0733 54.128 22.201 54.1599 22.3249C54.2373 22.6384 54.3056 22.9558 54.3739 23.2771C54.5242 24.001 54.679 24.748 54.9931 25.4487C55.3619 26.2809 55.4029 26.8809 55.1161 27.237C54.852 27.5583 54.2737 27.7247 53.395 27.7247H53.2948C52.4479 27.7131 51.5828 27.6821 50.745 27.6512C49.6887 27.6125 48.5914 27.5737 47.5168 27.5737C46.7291 27.5737 46.0279 27.5931 45.3632 27.6357C44.1885 27.7092 42.2579 28.2473 41.6524 29.2072C39.8311 32.0717 36.8214 33.0858 32.8647 33.7284C29.8961 34.2083 28.4163 36.0431 26.9866 37.8198C26.7681 38.0908 26.5495 38.3618 26.3264 38.625C25.9257 39.0972 26.2627 39.8985 26.7043 40.8236C26.8682 41.1642 27.0094 41.6132 26.7908 41.919C26.5859 42.2055 26.1078 42.2906 25.7436 42.3139C24.5233 42.3952 23.4169 42.4339 22.356 42.4339C21.4545 42.4339 20.5849 42.4029 19.7653 42.3448C17.9987 42.221 16.4688 41.9345 15.2212 41.4894C14.092 41.0868 13.2998 40.8584 12.6032 40.8584C11.4375 40.8584 10.659 41.5126 9.54799 42.7977C9.47058 42.8906 9.37496 42.9796 9.17007 43.1771C9.10177 43.239 9.02892 43.3125 8.93785 43.4016V43.39Z" fill="#A09589"/>
<path d="M8.93785 43.39C8.77394 43.0532 8.61003 42.7358 8.45522 42.43C8.00445 41.5397 7.6129 40.7733 7.35792 39.9836C6.87528 38.4934 6.37443 36.9489 3.85197 36.6625C3.31925 36.6005 2.90491 36.4147 2.65449 36.1205C2.3813 35.8031 2.29479 35.3503 2.40861 34.8122C2.52244 34.2742 2.50879 33.7284 2.49968 33.2019C2.49058 32.7955 2.48147 32.4084 2.527 32.0291C2.64994 30.9723 2.43594 30.1982 1.87134 29.6601C1.44335 29.2537 0.815017 29.0021 0 28.9092L1.18837 28.5686C2.88215 28.0847 4.57593 27.6008 6.2697 27.1054C6.86162 26.9351 7.50361 26.6873 7.74948 26.1764C7.93161 25.7932 7.85876 25.3325 7.52182 24.7713C7.24863 24.3184 7.1348 23.7726 6.99366 23.0797C6.95268 22.8901 6.9117 22.6849 6.86161 22.4681C7.02097 22.5262 7.16668 22.5765 7.29872 22.623C7.77225 22.7894 8.08642 22.9017 8.4188 22.9752C9.05169 23.1146 9.52067 23.1804 9.88948 23.1804C10.3812 23.1804 10.7364 23.0642 10.9731 22.8242C11.392 22.4062 11.3601 21.7017 11.1871 20.7727C10.832 18.8992 11.1461 18.4928 13.4136 17.8657C14.0374 17.6915 14.5246 17.1999 14.9708 16.7083C15.3168 16.3212 15.631 15.9109 15.9315 15.5122C16.4551 14.8194 16.9469 14.1691 17.598 13.6543C20.7852 11.1305 24.2866 9.16022 28.0065 7.79769C28.7806 7.51512 29.7139 6.90353 30.0554 6.17969C30.7521 4.68167 31.945 3.64429 33.8073 2.91657C34.7816 2.53723 35.7378 2.09983 36.6575 1.67404C37.4725 1.30244 38.3103 0.915354 39.1527 0.574721C39.7765 0.323117 40.3228 0.203125 40.8237 0.203125C41.6114 0.203125 42.3444 0.51666 43.0593 1.16309C44.7212 2.6611 46.5743 4.13976 49.3927 4.32169C49.5794 4.3333 49.757 4.34104 49.9346 4.34104C51.469 4.34104 52.5754 3.86106 53.5225 2.78497C53.7273 2.54885 54.4559 2.26628 54.7564 2.26628C55.5577 2.81206 56.2908 3.53978 56.8326 4.32555C56.7643 4.50748 56.3682 4.97973 55.9356 5.34358C54.8429 6.26484 53.6636 7.12804 52.5481 7.93704C52.0427 8.30477 51.4963 8.64927 50.9681 8.98216C50.7359 9.12925 50.4992 9.27635 50.2715 9.42731C50.1941 9.47763 50.103 9.52408 50.0074 9.57053C49.7206 9.71375 49.3927 9.87245 49.3518 10.1666C49.2835 10.6582 49.2561 11.1576 49.2288 11.6414C49.1924 12.3653 49.156 13.0465 48.9875 13.7123C48.6141 15.2026 49.2061 16.1316 50.2078 17.0683C51.3051 18.0941 52.2476 19.2863 53.1628 20.4437C53.4268 20.7805 53.6955 21.1172 53.9641 21.4501C54.0461 21.5507 54.0734 21.752 54.0962 21.9417C54.1144 22.0733 54.128 22.201 54.1599 22.3249C54.2373 22.6384 54.3056 22.9558 54.3739 23.2771C54.5242 24.001 54.679 24.748 54.9931 25.4487C55.3619 26.2809 55.4029 26.8809 55.1161 27.237C54.852 27.5583 54.2737 27.7247 53.395 27.7247H53.2948C52.4479 27.7131 51.5828 27.6821 50.745 27.6512C49.6887 27.6125 48.5914 27.5737 47.5168 27.5737C46.7291 27.5737 46.0279 27.5931 45.3632 27.6357C44.1885 27.7092 42.2579 28.2473 41.6524 29.2072C39.8311 32.0717 36.8214 33.0858 32.8647 33.7284C29.8961 34.2083 28.4163 36.0431 26.9866 37.8198C26.7681 38.0908 26.5495 38.3618 26.3264 38.625C25.9257 39.0972 26.2627 39.8985 26.7043 40.8236C26.8682 41.1642 27.0094 41.6132 26.7908 41.919C26.5859 42.2055 26.1078 42.2906 25.7436 42.3139C24.5233 42.3952 23.4169 42.4339 22.356 42.4339C21.4545 42.4339 20.5849 42.4029 19.7653 42.3448C17.9987 42.221 16.4688 41.9345 15.2212 41.4894C14.092 41.0868 13.2998 40.8584 12.6032 40.8584C11.4375 40.8584 10.659 41.5126 9.54799 42.7977C9.47058 42.8906 9.37496 42.9796 9.17007 43.1771C9.10177 43.239 9.02892 43.3125 8.93785 43.4016V43.39Z" fill="#FAEFE3"/>
</svg>
