<svg width="57" height="48" viewBox="0 0 57 48" fill="none" xmlns="http://www.w3.org/2000/svg">
<path d="M56.8464 17.043C56.8464 17.043 56.8542 17.034 56.8594 17.031C55.6255 15.2324 54.2305 14.3555 52.5965 14.3555H52.5056C50.8456 14.3555 49.7884 13.4637 49.0766 11.4586C48.6506 10.2586 48.1466 9.06746 47.6582 7.91229C47.5335 7.61601 47.4088 7.31973 47.2841 7.02346C46.9698 6.27229 46.7178 6.1855 46.5568 6.1855C46.3516 6.1855 46.0892 6.34412 45.7827 6.65835C45.2475 7.20302 44.7306 7.46637 44.2032 7.46637C43.8162 7.46637 43.4213 7.32273 43.0291 7.03543C42.5589 6.69426 41.8523 6.66134 41.1691 6.65536C39.9066 6.64638 39.3195 6.05682 39.2078 4.68617C39.1896 4.4707 39.1662 4.25821 39.135 3.99785C39.1273 3.93201 39.1195 3.86019 39.1091 3.78537C39.0363 3.80931 38.9636 3.83026 38.8935 3.85121C38.6181 3.93501 38.3791 4.00982 38.1765 4.13552C37.54 4.53654 37.0231 4.72208 36.5503 4.72208C35.8281 4.72208 35.1787 4.29413 34.3838 3.28559C33.8227 2.57932 33.0797 1.95385 32.2926 1.5229C31.6302 1.16079 30.8145 0.92436 29.804 0.798667C29.6663 0.780711 29.526 0.774729 29.3676 0.774729C29.0298 0.774729 28.6766 0.813633 28.3363 0.852538C28.0479 0.885457 27.7466 0.918375 27.4504 0.930346L27.1569 0.942319C26.9127 0.95429 26.6685 0.966261 26.4243 0.966261C26.0736 0.966261 25.7853 0.942318 25.5177 0.894435C25.128 0.822611 24.741 0.690931 24.3669 0.565238C23.8136 0.379691 23.2914 0.203125 22.7771 0.203125C22.7459 0.203125 22.7122 0.203125 22.681 0.203125C21.977 0.236045 21.286 0.466481 20.556 0.711881C20.1664 0.843559 19.7611 0.978229 19.3585 1.07998L19.0493 1.15779C18.3142 1.34633 17.5504 1.54086 16.7945 1.54086C15.9658 1.54086 15.2437 1.30144 14.5864 0.813631C14.4955 0.744799 14.3396 0.702903 14.1786 0.702903C14.0721 0.702903 13.9708 0.720857 13.9006 0.756769C12.82 1.28049 11.7367 1.86706 10.6924 2.43268L10.2612 2.66611C9.62215 3.01026 8.9883 3.36041 8.35185 3.71056C7.35952 4.25822 6.33341 4.82084 5.3151 5.35653C4.93843 5.55405 4.54877 5.74259 4.17209 5.92215C2.75373 6.60448 1.2912 7.30477 0.0183105 8.79812C0.0261038 8.79812 0.0339 8.79812 0.0416932 8.80112C0.0339 8.81009 0.0261038 8.81907 0.0183105 8.82805C0.0261038 8.82805 0.0339 8.82805 0.0416932 8.83104C0.0339 8.84002 0.0261038 8.849 0.0183105 8.85798C0.0261038 8.85798 0.0339 8.85798 0.0416932 8.86097C0.0339 8.86995 0.0261038 8.87892 0.0183105 8.8879C0.0261038 8.8879 0.0339 8.8879 0.0416932 8.8909C0.0339 8.89987 0.0261038 8.90885 0.0183105 8.91783C0.0261038 8.91783 0.0339 8.91783 0.0416932 8.92082C0.0339 8.9298 0.0261038 8.93878 0.0183105 8.94776C0.0261038 8.94776 0.0339 8.94776 0.0416932 8.95075C0.0339 8.95973 0.0261038 8.9687 0.0183105 8.97768C0.0261038 8.97768 0.0339 8.97768 0.0416932 8.98068C0.0339 8.98966 0.0261038 8.99863 0.0183105 9.00761C0.0261038 9.00761 0.0339 9.00761 0.0416932 9.0106C0.0339 9.01958 0.0261038 9.02856 0.0183105 9.03754C0.0261038 9.03754 0.0339 9.03754 0.0416932 9.04053C0.0339 9.04951 0.0261038 9.05849 0.0183105 9.06746C0.0261038 9.06746 0.0339 9.06746 0.0416932 9.07045C0.0339 9.07943 0.0261038 9.08841 0.0183105 9.09739C0.0261038 9.09739 0.0339 9.09739 0.0416932 9.10038C0.0339 9.10936 0.0261038 9.11834 0.0183105 9.12732C0.0261038 9.12732 0.0339 9.12732 0.0416932 9.13031C0.0339 9.13929 0.0261038 9.14827 0.0183105 9.15725C0.0261038 9.15725 0.0339 9.15724 0.0416932 9.16024C0.0339 9.16921 0.0261038 9.17819 0.0183105 9.18717C0.0261038 9.18717 0.0339 9.18717 0.0416932 9.19017C0.0339 9.19914 0.0261038 9.20812 0.0183105 9.2171C0.0261038 9.2171 0.0339 9.2171 0.0416932 9.22009C0.0339 9.22907 0.0261038 9.23805 0.0183105 9.24703C0.0261038 9.24703 0.0339 9.24703 0.0416932 9.25002C0.0339 9.259 0.0261038 9.26797 0.0183105 9.27695C0.0261038 9.27695 0.0339 9.27695 0.0416932 9.27995C0.0339 9.28893 0.0261038 9.2979 0.0183105 9.30688C0.0261038 9.30688 0.0339 9.30688 0.0416932 9.30987C0.0339 9.31885 0.0261038 9.32783 0.0183105 9.3368C0.0261038 9.3368 0.0339 9.33681 0.0416932 9.3398C0.0339 9.34878 0.0261038 9.35775 0.0183105 9.36673C0.0261038 9.36673 0.0339 9.36673 0.0416932 9.36972C0.0339 9.3787 0.0261038 9.38768 0.0183105 9.39666C0.0261038 9.39666 0.0339 9.39666 0.0416932 9.39965C0.0339 9.40863 0.0261038 9.41761 0.0183105 9.42659C0.0261038 9.42659 0.0339 9.42659 0.0416932 9.42958C0.0339 9.43856 0.0261038 9.44754 0.0183105 9.45651C0.0261038 9.45651 0.0339 9.45651 0.0416932 9.45951C0.0339 9.46848 0.0261038 9.47746 0.0183105 9.48644C0.0261038 9.48644 0.0339 9.48644 0.0416932 9.48943C0.0339 9.49841 0.0261038 9.50739 0.0183105 9.51637C0.0261038 9.51637 0.0339 9.51637 0.0416932 9.51936C0.0339 9.52834 0.0261038 9.53732 0.0183105 9.5463C0.0261038 9.5463 0.0339 9.54629 0.0416932 9.54929C0.0339 9.55826 0.0261038 9.56724 0.0183105 9.57622C0.0261038 9.57622 0.0339 9.57622 0.0416932 9.57922C0.0339 9.58819 0.0261038 9.59717 0.0183105 9.60615C0.0261038 9.60615 0.0339 9.60615 0.0416932 9.60914C0.0339 9.61812 0.0261038 9.62709 0.0183105 9.63607C0.0261038 9.63607 0.0339 9.63608 0.0416932 9.63907C0.0339 9.64805 0.0261038 9.65702 0.0183105 9.666C0.0261038 9.666 0.0339 9.666 0.0416932 9.66899C0.0339 9.67797 0.0261038 9.68695 0.0183105 9.69593C0.0261038 9.69593 0.0339 9.69593 0.0416932 9.69892C0.0339 9.7079 0.0261038 9.71688 0.0183105 9.72585C0.0261038 9.72585 0.0339 9.72586 0.0416932 9.72885C0.0339 9.73783 0.0261038 9.74681 0.0183105 9.75578C0.0261038 9.75578 0.0339 9.75578 0.0416932 9.75877C0.0339 9.76775 0.0261038 9.77673 0.0183105 9.78571C0.0261038 9.78571 0.0339 9.78571 0.0416932 9.7887C0.0339 9.79768 0.0261038 9.80666 0.0183105 9.81564C0.0261038 9.81564 0.0339 9.81563 0.0416932 9.81863C0.0339 9.82761 0.0261038 9.83659 0.0183105 9.84556C0.0261038 9.84556 0.0339 9.84556 0.0416932 9.84856C0.0339 9.85753 0.0261038 9.86651 0.0183105 9.87549C0.0261038 9.87549 0.0339 9.87549 0.0416932 9.87848C0.0339 9.88746 0.0261038 9.89644 0.0183105 9.90542C0.0261038 9.90542 0.0339 9.90542 0.0416932 9.90841C0.0339 9.91739 0.0261038 9.92636 0.0183105 9.93534C0.0261038 9.93534 0.0339 9.93534 0.0416932 9.93834C0.0339 9.94732 0.0261038 9.95629 0.0183105 9.96527C0.0261038 9.96527 0.0339 9.96527 0.0416932 9.96826C0.0339 9.97724 0.0261038 9.98622 0.0183105 9.9952C0.0261038 9.9952 0.0339 9.9952 0.0416932 9.99819C0.0339 10.0072 0.0261038 10.0161 0.0183105 10.0251C0.0261038 10.0251 0.0339 10.0251 0.0416932 10.0281C0.0339 10.0371 0.0261038 10.0461 0.0183105 10.0551C0.0261038 10.0551 0.0339 10.055 0.0416932 10.058C0.0339 10.067 0.0261038 10.076 0.0183105 10.085C0.0261038 10.085 0.0339 10.085 0.0416932 10.088C0.0339 10.0969 0.0261038 10.1059 0.0183105 10.1149C0.0261038 10.1149 0.0339 10.1149 0.0416932 10.1179C0.0339 10.1269 0.0261038 10.1359 0.0183105 10.1448C0.0261038 10.1448 0.0339 10.1448 0.0416932 10.1478C0.0339 10.1568 0.0261038 10.1658 0.0183105 10.1748C0.0261038 10.1748 0.0339 10.1748 0.0416932 10.1778C0.0339 10.1867 0.0261038 10.1957 0.0183105 10.2047C0.0261038 10.2047 0.0339 10.2047 0.0416932 10.2077C0.0339 10.2167 0.0261038 10.2256 0.0183105 10.2346C0.0261038 10.2346 0.0339 10.2346 0.0416932 10.2376C0.0339 10.2466 0.0261038 10.2556 0.0183105 10.2645C0.0261038 10.2645 0.0339 10.2645 0.0416932 10.2675C0.0339 10.2765 0.0261038 10.2855 0.0183105 10.2945C0.0261038 10.2945 0.0339 10.2945 0.0416932 10.2975C0.0339 10.3064 0.0261038 10.3154 0.0183105 10.3244C0.0261038 10.3244 0.0339 10.3244 0.0416932 10.3274C0.0339 10.3364 0.0261038 10.3453 0.0183105 10.3543C0.0261038 10.3543 0.0339 10.3543 0.0416932 10.3573C0.0339 10.3663 0.0261038 10.3753 0.0183105 10.3842C0.0261038 10.3842 0.0339 10.3842 0.0416932 10.3872C0.0339 10.3962 0.0261038 10.4052 0.0183105 10.4142C0.0261038 10.4142 0.0339 10.4142 0.0416932 10.4172C0.0339 10.4261 0.0261038 10.4351 0.0183105 10.4441C0.0261038 10.4441 0.0339 10.4441 0.0416932 10.4471C0.0339 10.4561 0.0261038 10.465 0.0183105 10.474C0.0261038 10.474 0.0339 10.474 0.0416932 10.477C0.0339 10.486 0.0261038 10.495 0.0183105 10.504C0.0261038 10.504 0.0339 10.504 0.0416932 10.5069C0.0339 10.5159 0.0261038 10.5249 0.0183105 10.5339C0.0261038 10.5339 0.0339 10.5339 0.0416932 10.5369C0.0339 10.5459 0.0261038 10.5548 0.0183105 10.5638C0.0261038 10.5638 0.0339 10.5638 0.0416932 10.5668C0.0339 10.5758 0.0261038 10.5848 0.0183105 10.5937C0.0261038 10.5937 0.0339 10.5937 0.0416932 10.5967C0.0339 10.6057 0.0261038 10.6147 0.0183105 10.6237C0.0261038 10.6237 0.0339 10.6237 0.0416932 10.6267C0.0339 10.6356 0.0261038 10.6446 0.0183105 10.6536C0.0261038 10.6536 0.0339 10.6536 0.0416932 10.6566C0.0339 10.6656 0.0261038 10.6745 0.0183105 10.6835C0.0261038 10.6835 0.0339 10.6835 0.0416932 10.6865C0.0339 10.6955 0.0261038 10.7045 0.0183105 10.7134C0.0261038 10.7134 0.0339 10.7134 0.0416932 10.7164C0.0339 10.7254 0.0261038 10.7344 0.0183105 10.7434C0.0261038 10.7434 0.0339 10.7434 0.0416932 10.7464C0.0339 10.7553 0.0261038 10.7643 0.0183105 10.7733C0.0261038 10.7733 0.0339 10.7733 0.0416932 10.7763C0.0339 10.7853 0.0261038 10.7942 0.0183105 10.8032C0.0261038 10.8032 0.0339 10.8032 0.0416932 10.8062C0.0339 10.8152 0.0261038 10.8242 0.0183105 10.8331C0.0261038 10.8331 0.0339 10.8332 0.0416932 10.8361C0.0339 10.8451 0.0261038 10.8541 0.0183105 10.8631C0.0261038 10.8631 0.0339 10.8631 0.0416932 10.8661C0.0339 10.875 0.0261038 10.884 0.0183105 10.893C0.0261038 10.893 0.0339 10.893 0.0416932 10.896C0.0339 10.905 0.0261038 10.914 0.0183105 10.9229C0.0261038 10.9229 0.0339 10.9229 0.0416932 10.9259C0.0339 10.9349 0.0261038 10.9439 0.0183105 10.9529C0.0261038 10.9529 0.0339 10.9529 0.0416932 10.9558C0.0339 10.9648 0.0261038 10.9738 0.0183105 10.9828C0.0261038 10.9828 0.0339 10.9828 0.0416932 10.9858C0.0339 10.9948 0.0261038 11.0037 0.0183105 11.0127C0.0261038 11.0127 0.0339 11.0127 0.0416932 11.0157C0.0339 11.0247 0.0261038 11.0337 0.0183105 11.0426C0.0261038 11.0426 0.0339 11.0426 0.0416932 11.0456C0.0339 11.0546 0.0261038 11.0636 0.0183105 11.0726C0.0261038 11.0726 0.0339 11.0726 0.0416932 11.0756C0.0339 11.0845 0.0261038 11.0935 0.0183105 11.1025C0.0261038 11.1025 0.0339 11.1025 0.0416932 11.1055C0.0339 11.1145 0.0261038 11.1234 0.0183105 11.1324C0.0261038 11.1324 0.0339 11.1324 0.0416932 11.1354C0.0339 11.1444 0.0261038 11.1534 0.0183105 11.1623C0.0261038 11.1623 0.0339 11.1623 0.0416932 11.1653C0.0339 11.1743 0.0261038 11.1833 0.0183105 11.1923C0.0261038 11.1923 0.0339 11.1923 0.0416932 11.1953C0.0339 11.2042 0.0261038 11.2132 0.0183105 11.2222C0.0261038 11.2222 0.0339 11.2222 0.0416932 11.2252C0.0339 11.2342 0.0261038 11.2431 0.0183105 11.2521C0.0261038 11.2521 0.0339 11.2521 0.0416932 11.2551C0.0339 11.2641 0.0261038 11.2731 0.0183105 11.2821C0.0261038 11.2821 0.0339 11.2821 0.0416932 11.285C0.0339 11.294 0.0261038 11.303 0.0183105 11.312C0.0261038 11.312 0.0339 11.312 0.0416932 11.315C0.0339 11.3239 0.0261038 11.3329 0.0183105 11.3419C0.0261038 11.3419 0.0339 11.3419 0.0416932 11.3449C0.0339 11.3539 0.0261038 11.3629 0.0183105 11.3718C0.0261038 11.3718 0.0339 11.3718 0.0416932 11.3748C0.0339 11.3838 0.0261038 11.3928 0.0183105 11.4018C0.0261038 11.4018 0.0339 11.4018 0.0416932 11.4048C0.0339 11.4137 0.0261038 11.4227 0.0183105 11.4317C0.0261038 11.4317 0.0339 11.4317 0.0416932 11.4347C0.0339 11.4437 0.0261038 11.4526 0.0183105 11.4616C0.0261038 11.4616 0.0339 11.4616 0.0416932 11.4646C0.0339 11.4736 0.0261038 11.4826 0.0183105 11.4915C0.0261038 11.4915 0.0339 11.4915 0.0416932 11.4945C0.0339 11.5035 0.0261038 11.5125 0.0183105 11.5215C0.0261038 11.5215 0.0339 11.5215 0.0416932 11.5245C0.0339 11.5334 0.0261038 11.5424 0.0183105 11.5514C0.0261038 11.5514 0.0339 11.5514 0.0416932 11.5544C0.0339 11.5634 0.0261038 11.5723 0.0183105 11.5813C0.0261038 11.5813 0.0339 11.5813 0.0416932 11.5843C0.0339 11.5933 0.0261038 11.6023 0.0183105 11.6112C0.0261038 11.6112 0.0339 11.6112 0.0416932 11.6142C0.0339 11.6232 0.0261038 11.6322 0.0183105 11.6412C0.0261038 11.6412 0.0339 11.6412 0.0416932 11.6442C0.0339 11.6531 0.0261038 11.6621 0.0183105 11.6711C0.0261038 11.6711 0.0339 11.6711 0.0416932 11.6741C0.0339 11.6831 0.0261038 11.6921 0.0183105 11.701C0.0261038 11.701 0.0339 11.701 0.0416932 11.704C0.0339 11.713 0.0261038 11.722 0.0183105 11.731C0.0261038 11.731 0.0339 11.731 0.0416932 11.7339C0.0339 11.7429 0.0261038 11.7519 0.0183105 11.7609C0.0261038 11.7609 0.0339 11.7609 0.0416932 11.7639C0.0339 11.7729 0.0261038 11.7818 0.0183105 11.7908C0.0261038 11.7908 0.0339 11.7908 0.0416932 11.7938C0.0339 11.8028 0.0261038 11.8118 0.0183105 11.8207C1.86011 12.0482 3.88634 12.5719 5.47876 14.3077C5.74632 14.6009 6.06065 14.8433 6.39316 15.0977C7.20365 15.7202 8.04012 16.3666 8.22197 17.7911C8.29211 18.3508 8.44797 18.9164 8.59864 19.4611C8.77009 20.0835 8.94673 20.73 9.00908 21.3914C9.0974 22.3311 9.51045 22.75 10.1937 23.1511C10.4067 23.2767 10.5911 23.3965 10.7496 23.5132C10.695 23.582 10.6405 23.6508 10.5833 23.7227C9.97025 24.4708 9.41953 25.5063 8.9909 26.7243C8.7623 27.3767 8.65059 28.071 8.5311 28.8072C8.45576 29.2741 8.37523 29.7589 8.26613 30.2288C8.15702 30.6896 7.98557 31.1116 7.80113 31.5605C7.76217 31.6533 7.7232 31.749 7.68683 31.8448C7.69203 31.8448 7.69463 31.8448 7.69723 31.8448C7.69463 31.8538 7.68943 31.8628 7.68683 31.8717C7.69203 31.8717 7.69463 31.8717 7.69723 31.8717C7.69463 31.8807 7.68943 31.8897 7.68683 31.8987C7.69203 31.8987 7.69463 31.8987 7.69723 31.8987C7.69463 31.9077 7.68943 31.9166 7.68683 31.9256C7.69203 31.9256 7.69463 31.9256 7.69723 31.9256C7.69463 31.9346 7.68943 31.9436 7.68683 31.9525C7.69203 31.9525 7.69463 31.9525 7.69723 31.9525C7.69463 31.9615 7.68943 31.9705 7.68683 31.9795C7.69203 31.9795 7.69463 31.9795 7.69723 31.9795C7.69463 31.9885 7.68943 31.9974 7.68683 32.0064C7.69203 32.0064 7.69463 32.0064 7.69723 32.0064C7.69463 32.0154 7.68943 32.0244 7.68683 32.0333C7.69203 32.0333 7.69463 32.0333 7.69723 32.0333C7.69463 32.0423 7.68943 32.0513 7.68683 32.0603C7.69203 32.0603 7.69463 32.0603 7.69723 32.0603C7.69463 32.0693 7.68943 32.0782 7.68683 32.0872C7.69203 32.0872 7.69463 32.0872 7.69723 32.0872C7.69463 32.0962 7.68943 32.1052 7.68683 32.1141C7.69203 32.1141 7.69463 32.1141 7.69723 32.1141C7.69463 32.1231 7.68943 32.1321 7.68683 32.1411C7.69203 32.1411 7.69463 32.1411 7.69723 32.1411C7.69463 32.1501 7.68943 32.159 7.68683 32.168C7.69203 32.168 7.69463 32.168 7.69723 32.168C7.69463 32.177 7.68943 32.186 7.68683 32.195C7.69203 32.195 7.69463 32.195 7.69723 32.195C7.69463 32.2039 7.68943 32.2129 7.68683 32.2219C7.69203 32.2219 7.69463 32.2219 7.69723 32.2219C7.69463 32.2309 7.68943 32.2398 7.68683 32.2488C7.69203 32.2488 7.69463 32.2488 7.69723 32.2488C7.69463 32.2578 7.68943 32.2668 7.68683 32.2758C7.69203 32.2758 7.69463 32.2758 7.69723 32.2758C7.69463 32.2847 7.68943 32.2937 7.68683 32.3027C7.69203 32.3027 7.69463 32.3027 7.69723 32.3027C7.69463 32.3117 7.68943 32.3206 7.68683 32.3296C7.69203 32.3296 7.69463 32.3296 7.69723 32.3296C7.69463 32.3386 7.68943 32.3476 7.68683 32.3566C7.69203 32.3566 7.69463 32.3566 7.69723 32.3566C7.69463 32.3655 7.68943 32.3745 7.68683 32.3835C7.69203 32.3835 7.69463 32.3835 7.69723 32.3835C7.69463 32.3925 7.68943 32.4014 7.68683 32.4104C7.69203 32.4104 7.69463 32.4104 7.69723 32.4104C7.69463 32.4194 7.68943 32.4284 7.68683 32.4374C7.69203 32.4374 7.69463 32.4374 7.69723 32.4374C7.69463 32.4463 7.68943 32.4553 7.68683 32.4643C7.69203 32.4643 7.69463 32.4643 7.69723 32.4643C7.69463 32.4733 7.68943 32.4822 7.68683 32.4912C7.69203 32.4912 7.69463 32.4912 7.69723 32.4912C7.69463 32.5002 7.68943 32.5092 7.68683 32.5182C7.69203 32.5182 7.69463 32.5182 7.69723 32.5182C7.69463 32.5271 7.68943 32.5361 7.68683 32.5451C7.69203 32.5451 7.69463 32.5451 7.69723 32.5451C7.69463 32.5541 7.68943 32.5631 7.68683 32.572C7.69203 32.572 7.69463 32.572 7.69723 32.572C7.69463 32.581 7.68943 32.59 7.68683 32.599C7.69203 32.599 7.69463 32.599 7.69723 32.599C7.69463 32.6079 7.68943 32.6169 7.68683 32.6259C7.69203 32.6259 7.69463 32.6259 7.69723 32.6259C7.69463 32.6349 7.68943 32.6439 7.68683 32.6528C7.69203 32.6528 7.69463 32.6528 7.69723 32.6528C7.69463 32.6618 7.68943 32.6708 7.68683 32.6798C7.69203 32.6798 7.69463 32.6798 7.69723 32.6798C7.69463 32.6887 7.68943 32.6977 7.68683 32.7067C7.69203 32.7067 7.69463 32.7067 7.69723 32.7067C7.69463 32.7157 7.68943 32.7247 7.68683 32.7336C7.69203 32.7336 7.69463 32.7336 7.69723 32.7336C7.69463 32.7426 7.68943 32.7516 7.68683 32.7606C7.69203 32.7606 7.69463 32.7606 7.69723 32.7606C7.69463 32.7696 7.68943 32.7785 7.68683 32.7875C7.69203 32.7875 7.69463 32.7875 7.69723 32.7875C7.69463 32.7965 7.68943 32.8055 7.68683 32.8144C7.69203 32.8144 7.69463 32.8144 7.69723 32.8144C7.69463 32.8234 7.68943 32.8324 7.68683 32.8414C7.69203 32.8414 7.69463 32.8414 7.69723 32.8414C7.69463 32.8504 7.68943 32.8593 7.68683 32.8683C7.69203 32.8683 7.69463 32.8683 7.69723 32.8683C7.69463 32.8773 7.68943 32.8863 7.68683 32.8952C7.69203 32.8952 7.69463 32.8952 7.69723 32.8952C7.69463 32.9042 7.68943 32.9132 7.68683 32.9222C7.69203 32.9222 7.69463 32.9222 7.69723 32.9222C7.69463 32.9312 7.68943 32.9401 7.68683 32.9491C7.69203 32.9491 7.69463 32.9491 7.69723 32.9491C7.69463 32.9581 7.68943 32.9671 7.68683 32.976C7.69203 32.976 7.69463 32.976 7.69723 32.976C7.69463 32.985 7.68943 32.994 7.68683 33.003C7.69203 33.003 7.69463 33.003 7.69723 33.003C7.69463 33.012 7.68943 33.0209 7.68683 33.0299C7.69203 33.0299 7.69463 33.0299 7.69723 33.0299C7.69463 33.0389 7.68943 33.0479 7.68683 33.0568C7.69203 33.0568 7.69463 33.0568 7.69723 33.0568C7.69463 33.0658 7.68943 33.0748 7.68683 33.0838C7.69203 33.0838 7.69463 33.0838 7.69723 33.0838C7.69463 33.0928 7.68943 33.1017 7.68683 33.1107C7.69203 33.1107 7.69463 33.1107 7.69723 33.1107C7.69463 33.1197 7.68943 33.1287 7.68683 33.1376C7.69203 33.1376 7.69463 33.1376 7.69723 33.1376C7.69463 33.1466 7.68943 33.1556 7.68683 33.1646C7.69203 33.1646 7.69463 33.1646 7.69723 33.1646C7.69463 33.1736 7.68943 33.1825 7.68683 33.1915C7.69203 33.1915 7.69463 33.1915 7.69723 33.1915C7.69463 33.2005 7.68943 33.2095 7.68683 33.2185C7.69203 33.2185 7.69463 33.2185 7.69723 33.2185C7.69463 33.2274 7.68943 33.2364 7.68683 33.2454C7.69203 33.2454 7.69463 33.2454 7.69723 33.2454C7.69463 33.2544 7.68943 33.2633 7.68683 33.2723C7.69203 33.2723 7.69463 33.2723 7.69723 33.2723C7.69463 33.2813 7.68943 33.2903 7.68683 33.2993C7.69203 33.2993 7.69463 33.2993 7.69723 33.2993C7.69463 33.3082 7.68943 33.3172 7.68683 33.3262C7.69203 33.3262 7.69463 33.3262 7.69723 33.3262C7.69463 33.3352 7.68943 33.3441 7.68683 33.3531C7.69203 33.3531 7.69463 33.3531 7.69723 33.3531C7.69463 33.3621 7.68943 33.3711 7.68683 33.3801C7.69203 33.3801 7.69463 33.3801 7.69723 33.3801C7.69463 33.389 7.68943 33.398 7.68683 33.407C7.69203 33.407 7.69463 33.407 7.69723 33.407C7.69463 33.416 7.68943 33.425 7.68683 33.4339C7.69203 33.4339 7.69463 33.4339 7.69723 33.4339C7.69463 33.4429 7.68943 33.4519 7.68683 33.4609C7.69203 33.4609 7.69463 33.4609 7.69723 33.4609C7.69463 33.4698 7.68943 33.4788 7.68683 33.4878C7.69203 33.4878 7.69463 33.4878 7.69723 33.4878C7.69463 33.4968 7.68943 33.5058 7.68683 33.5147C7.69203 33.5147 7.69463 33.5147 7.69723 33.5147C7.69463 33.5237 7.68943 33.5327 7.68683 33.5417C7.69203 33.5417 7.69463 33.5417 7.69723 33.5417C7.69463 33.5506 7.68943 33.5596 7.68683 33.5686C7.69203 33.5686 7.69463 33.5686 7.69723 33.5686C7.69463 33.5776 7.68943 33.5866 7.68683 33.5955C7.69203 33.5955 7.69463 33.5955 7.69723 33.5955C7.69463 33.6045 7.68943 33.6135 7.68683 33.6225C7.69203 33.6225 7.69463 33.6225 7.69723 33.6225C7.69463 33.6314 7.68943 33.6404 7.68683 33.6494C7.69203 33.6494 7.69463 33.6494 7.69723 33.6494C7.69463 33.6584 7.68943 33.6674 7.68683 33.6763C7.69203 33.6763 7.69463 33.6763 7.69723 33.6763C7.69463 33.6853 7.68943 33.6943 7.68683 33.7033C7.69203 33.7033 7.69463 33.7033 7.69723 33.7033C7.69463 33.7122 7.68943 33.7212 7.68683 33.7302C7.69203 33.7302 7.69463 33.7302 7.69723 33.7302C7.69463 33.7392 7.68943 33.7482 7.68683 33.7571C7.69203 33.7571 7.69463 33.7571 7.69723 33.7571C7.69463 33.7661 7.68943 33.7751 7.68683 33.7841C7.69203 33.7841 7.69463 33.7841 7.69723 33.7841C7.69463 33.793 7.68943 33.802 7.68683 33.811C7.69203 33.811 7.69463 33.811 7.69723 33.811C7.69463 33.82 7.68943 33.829 7.68683 33.8379C7.69203 33.8379 7.69463 33.8379 7.69723 33.8379C7.69463 33.8469 7.68943 33.8559 7.68683 33.8649C7.69203 33.8649 7.69463 33.8649 7.69723 33.8649C7.69463 33.8739 7.68943 33.8828 7.68683 33.8918C7.69203 33.8918 7.69463 33.8918 7.69723 33.8918C7.69463 33.9008 7.68943 33.9098 7.68683 33.9187C7.69203 33.9187 7.69463 33.9187 7.69723 33.9187C7.69463 33.9277 7.68943 33.9367 7.68683 33.9457C7.69203 33.9457 7.69463 33.9457 7.69723 33.9457C7.69463 33.9547 7.68943 33.9636 7.68683 33.9726C7.69203 33.9726 7.69463 33.9726 7.69723 33.9726C7.69463 33.9816 7.68943 33.9906 7.68683 33.9995C7.69203 33.9995 7.69463 33.9995 7.69723 33.9995C7.69463 34.0085 7.68943 34.0175 7.68683 34.0265C7.69203 34.0265 7.69463 34.0265 7.69723 34.0265C7.69463 34.0355 7.68943 34.0444 7.68683 34.0534C7.69203 34.0534 7.69463 34.0534 7.69723 34.0534C7.69463 34.0624 7.68943 34.0714 7.68683 34.0803C7.69203 34.0803 7.69463 34.0803 7.69723 34.0803C7.69463 34.0893 7.68943 34.0983 7.68683 34.1073C7.69203 34.1073 7.69463 34.1073 7.69723 34.1073C7.69463 34.1163 7.68943 34.1252 7.68683 34.1342C7.69203 34.1342 7.69463 34.1342 7.69723 34.1342C7.69463 34.1432 7.68943 34.1522 7.68683 34.1612C7.69203 34.1612 7.69463 34.1612 7.69723 34.1612C7.69463 34.1701 7.68943 34.1791 7.68683 34.1881C7.69203 34.1881 7.69463 34.1881 7.69723 34.1881C7.69463 34.1971 7.68943 34.206 7.68683 34.215C7.69203 34.215 7.69463 34.215 7.69723 34.215C7.69463 34.224 7.68943 34.233 7.68683 34.242C7.69203 34.242 7.69463 34.242 7.69723 34.242C7.69463 34.2509 7.68943 34.2599 7.68683 34.2689C7.69203 34.2689 7.69463 34.2689 7.69723 34.2689C7.69463 34.2779 7.68943 34.2868 7.68683 34.2958C7.69203 34.2958 7.69463 34.2958 7.69723 34.2958C7.69463 34.3048 7.68943 34.3138 7.68683 34.3228C7.69203 34.3228 7.69463 34.3228 7.69723 34.3228C7.69463 34.3317 7.68943 34.3407 7.68683 34.3497C7.69203 34.3497 7.69463 34.3497 7.69723 34.3497C7.69463 34.3587 7.68943 34.3676 7.68683 34.3766C7.69203 34.3766 7.69463 34.3766 7.69723 34.3766C7.69463 34.3856 7.68943 34.3946 7.68683 34.4036C7.69203 34.4036 7.69463 34.4036 7.69723 34.4036C7.69463 34.4125 7.68943 34.4215 7.68683 34.4305C7.69203 34.4305 7.69463 34.4305 7.69723 34.4305C7.69463 34.4395 7.68943 34.4484 7.68683 34.4574C7.69203 34.4574 7.69463 34.4574 7.69723 34.4574C7.69463 34.4664 7.68943 34.4754 7.68683 34.4844C7.69203 34.4844 7.69463 34.4844 7.69723 34.4844C7.69463 34.4933 7.68943 34.5023 7.68683 34.5113C7.69203 34.5113 7.69463 34.5113 7.69723 34.5113C7.69463 34.5203 7.68943 34.5293 7.68683 34.5382C7.69203 34.5382 7.69463 34.5382 7.69723 34.5382C7.69463 34.5472 7.68943 34.5562 7.68683 34.5652C8.5233 34.6939 9.02467 34.8165 9.28704 35.2056C9.17014 36.2321 9.06623 37.3364 9.07662 38.4168C9.07662 38.4168 9.07662 38.4197 9.07662 38.4227C9.07662 38.4317 9.07662 38.4407 9.07662 38.4467C9.07662 38.4467 9.07662 38.4497 9.07662 38.4527C9.07662 38.4616 9.07662 38.4706 9.07662 38.4766C9.07662 38.4766 9.07662 38.4796 9.07662 38.4826C9.07662 38.4916 9.07662 38.5005 9.07662 38.5065C9.07662 38.5065 9.07662 38.5095 9.07662 38.5125C9.07662 38.5215 9.07662 38.5305 9.07662 38.5365C9.07662 38.5365 9.07662 38.5394 9.07662 38.5424C9.07662 38.5514 9.07662 38.5604 9.07662 38.5664C9.07662 38.5664 9.07662 38.5694 9.07662 38.5724C9.07662 38.5813 9.07662 38.5903 9.07662 38.5963C9.07662 38.5963 9.07662 38.5993 9.07662 38.6023C9.07662 38.6113 9.07662 38.6203 9.07662 38.6262C9.07662 38.6262 9.07662 38.6292 9.07662 38.6322C9.07662 38.6412 9.07662 38.6502 9.07662 38.6562C9.07662 38.6562 9.07662 38.6592 9.07662 38.6622C9.07662 38.6711 9.07662 38.6801 9.07662 38.6861C9.07662 38.6861 9.07662 38.6891 9.07662 38.6921C9.07662 38.7011 9.07662 38.71 9.07662 38.716C9.07662 38.716 9.07662 38.719 9.07662 38.722C9.07662 38.731 9.07662 38.74 9.07662 38.7459C9.07662 38.7459 9.07662 38.7489 9.07662 38.7519C9.07662 38.7609 9.07662 38.7699 9.07662 38.7759C9.07662 38.7759 9.07662 38.7789 9.07662 38.7819C9.07662 38.7908 9.07662 38.7998 9.07662 38.8058C9.07662 38.8058 9.07662 38.8088 9.07662 38.8118C9.07662 38.8208 9.07662 38.8297 9.07662 38.8357C9.07662 38.8357 9.07662 38.8387 9.07662 38.8417C9.07662 38.8507 9.07662 38.8597 9.07662 38.8657C9.07662 38.8657 9.07662 38.8686 9.07662 38.8716C9.07662 38.8806 9.07662 38.8896 9.07662 38.8956C9.07662 38.8956 9.07662 38.8986 9.07662 38.9016C9.07662 38.9105 9.07662 38.9195 9.07662 38.9255C9.07662 38.9255 9.07662 38.9285 9.07662 38.9315C9.07662 38.9405 9.07662 38.9494 9.07662 38.9554C9.07662 38.9554 9.07662 38.9584 9.07662 38.9614C9.07662 38.9704 9.07662 38.9794 9.07662 38.9854C9.07662 38.9854 9.07662 38.9883 9.07662 38.9913C9.07662 39.0003 9.07662 39.0093 9.07662 39.0153C9.07662 39.0153 9.07662 39.0183 9.07662 39.0213C9.07662 39.0303 9.07662 39.0392 9.07662 39.0452C9.07662 39.0452 9.07662 39.0482 9.07662 39.0512C9.07662 39.0602 9.07662 39.0692 9.07662 39.0751C9.07662 39.0751 9.07662 39.0781 9.07662 39.0811C9.07662 39.0901 9.07662 39.0991 9.07662 39.1051C9.07662 39.1051 9.07662 39.1081 9.07662 39.1111C9.07662 39.12 9.07662 39.129 9.07662 39.135C9.07662 39.135 9.07662 39.138 9.07662 39.141C9.07662 39.15 9.07662 39.1589 9.07662 39.1649C9.07662 39.1649 9.07662 39.1679 9.07662 39.1709C9.07662 39.1799 9.07662 39.1889 9.07662 39.1949C9.07662 39.1949 9.07662 39.1978 9.07662 39.2008C9.07662 39.2098 9.07662 39.2188 9.07662 39.2248C9.07662 39.2248 9.07662 39.2278 9.07662 39.2308C9.07662 39.2397 9.07662 39.2487 9.07662 39.2547C9.07662 39.2547 9.07662 39.2577 9.07662 39.2607C9.07662 39.2697 9.07662 39.2786 9.07662 39.2846C9.07662 39.2846 9.07662 39.2876 9.07662 39.2906C9.07662 39.2996 9.07662 39.3086 9.07662 39.3146C9.07662 39.3146 9.07662 39.3175 9.07662 39.3205C9.07662 39.3295 9.07662 39.3385 9.07662 39.3445C9.07662 39.3445 9.07662 39.3475 9.07662 39.3505C9.07662 39.3594 9.07662 39.3684 9.07662 39.3744C9.07662 39.3744 9.07662 39.3774 9.07662 39.3804C9.07662 39.3894 9.07662 39.3983 9.07662 39.4043C9.07662 39.4043 9.07662 39.4073 9.07662 39.4103C9.07662 39.4193 9.07662 39.4283 9.07662 39.4343C9.07662 39.4343 9.07662 39.4373 9.07662 39.4402C9.07662 39.4492 9.07662 39.4582 9.07662 39.4642C9.07662 39.4642 9.07662 39.4672 9.07662 39.4702C9.07662 39.4792 9.07662 39.4881 9.07662 39.4941C9.07662 39.4941 9.07662 39.4971 9.07662 39.5001C9.07662 39.5091 9.07662 39.5181 9.07662 39.524C9.07662 39.524 9.07662 39.527 9.07662 39.53C9.07662 39.539 9.07662 39.548 9.07662 39.554C9.07662 39.554 9.07662 39.557 9.07662 39.56C9.07662 39.5689 9.07662 39.5779 9.07662 39.5839C9.07662 39.5839 9.07662 39.5869 9.07662 39.5899C9.07662 39.5989 9.07662 39.6078 9.07662 39.6138C9.07662 39.6138 9.07662 39.6168 9.07662 39.6198C9.07662 39.6288 9.07662 39.6378 9.07662 39.6438C9.07662 39.6438 9.07662 39.6467 9.07662 39.6497C9.07662 39.6587 9.07662 39.6677 9.07662 39.6737C9.07662 39.6737 9.07662 39.6767 9.07662 39.6797C9.07662 39.6886 9.07662 39.6976 9.07662 39.7036C9.07662 39.7036 9.07662 39.7066 9.07662 39.7096C9.07662 39.7186 9.07662 39.7275 9.07662 39.7335C9.07662 39.7335 9.07662 39.7365 9.07662 39.7395C9.07662 39.7485 9.07662 39.7575 9.07662 39.7635C9.07662 39.7635 9.07662 39.7665 9.07662 39.7694C9.07662 39.7784 9.07662 39.7874 9.07662 39.7934C9.07662 39.7934 9.07662 39.7964 9.07662 39.7994C9.07662 39.8083 9.07662 39.8173 9.07662 39.8233C9.07662 39.8233 9.07662 39.8263 9.07662 39.8293C9.07662 39.8383 9.07662 39.8473 9.07662 39.8532C9.07662 39.8532 9.07662 39.8562 9.07662 39.8592C9.07662 39.8682 9.07662 39.8772 9.07662 39.8832C9.07662 39.8832 9.07662 39.8862 9.07662 39.8891C9.07662 39.8981 9.07662 39.9071 9.07662 39.9131C9.07662 39.9131 9.07662 39.9161 9.07662 39.9191C9.07662 39.9281 9.07662 39.937 9.07662 39.943C9.07662 39.943 9.07662 39.946 9.07662 39.949C9.07662 39.958 9.07662 39.967 9.07662 39.9729C9.07662 39.9729 9.07662 39.9759 9.07662 39.9789C9.07662 39.9879 9.07662 39.9969 9.07662 40.0029C9.07662 40.0029 9.07662 40.0059 9.07662 40.0089C9.07662 40.0178 9.07662 40.0268 9.07662 40.0328C9.07662 40.0328 9.07662 40.0358 9.07662 40.0388C9.07662 40.0478 9.07662 40.0567 9.07662 40.0627C9.07662 40.0627 9.07662 40.0657 9.07662 40.0687C9.07662 40.0777 9.07662 40.0867 9.07662 40.0927C9.07662 40.0927 9.07662 40.0956 9.07662 40.0986C9.07662 40.1076 9.07662 40.1166 9.07662 40.1226C9.07662 40.1226 9.07662 40.1256 9.07662 40.1286C9.07662 40.1375 9.07662 40.1465 9.07662 40.1525C9.07662 40.1525 9.07662 40.1555 9.07662 40.1585C9.07662 40.1675 9.07662 40.1765 9.07662 40.1824C9.07662 40.1824 9.07662 40.1854 9.07662 40.1884C9.07662 40.1974 9.07662 40.2064 9.07662 40.2124C9.07662 40.2124 9.07662 40.2154 9.07662 40.2183C9.07662 40.2273 9.07662 40.2363 9.07662 40.2423C9.07662 40.2423 9.07662 40.2453 9.07662 40.2483C9.07662 40.2573 9.07662 40.2662 9.07662 40.2722C9.07662 40.2722 9.07662 40.2752 9.07662 40.2782C9.07662 40.2872 9.07662 40.2962 9.07662 40.3021C9.07662 40.3021 9.07662 40.3051 9.07662 40.3081C9.07662 40.3171 9.07662 40.3261 9.07662 40.3321C9.07662 40.3321 9.07662 40.3351 9.07662 40.3381C9.07662 40.347 9.07662 40.356 9.07662 40.362C9.07662 40.362 9.07662 40.365 9.07662 40.368C9.07662 40.377 9.07662 40.3859 9.07662 40.3919C9.07662 40.3919 9.07662 40.3949 9.07662 40.3979C9.07662 40.4069 9.07662 40.4159 9.07662 40.4218C9.07662 40.4218 9.07662 40.4248 9.07662 40.4278C9.07662 40.4368 9.07662 40.4458 9.07662 40.4518C9.07662 40.4518 9.07662 40.4548 9.07662 40.4578C9.07662 40.4667 9.07662 40.4757 9.07662 40.4817C9.07662 40.4817 9.07662 40.4847 9.07662 40.4877C9.07662 40.4967 9.07662 40.5056 9.07662 40.5116C9.07662 40.5116 9.07662 40.5146 9.07662 40.5176C9.07662 40.5266 9.07662 40.5356 9.07662 40.5416C9.07662 40.5416 9.07662 40.5446 9.07662 40.5475C9.07662 40.5565 9.07662 40.5655 9.07662 40.5715C9.07662 40.5715 9.07662 40.5745 9.07662 40.5775C9.07662 40.5865 9.07662 40.5954 9.07662 40.6014C9.07662 40.6014 9.07662 40.6044 9.07662 40.6074C9.07662 40.6164 9.07662 40.6254 9.07662 40.6313C9.07662 40.6313 9.07662 40.6343 9.07662 40.6373C9.07662 40.6463 9.07662 40.6553 9.07662 40.6613C9.07662 40.6613 9.07662 40.6643 9.07662 40.6673C9.07662 40.6762 9.07662 40.6852 9.07662 40.6912C9.07662 40.6912 9.07662 40.6942 9.07662 40.6972C9.07662 40.7062 9.07662 40.7151 9.07662 40.7211C9.07662 40.7211 9.07662 40.7241 9.07662 40.7271C9.07662 40.7361 9.07662 40.7451 9.07662 40.751C9.07662 40.751 9.07662 40.754 9.07662 40.757C9.07662 40.766 9.07662 40.775 9.07662 40.781C9.07662 40.781 9.07662 40.784 9.07662 40.787C9.07662 40.7959 9.07662 40.8049 9.07662 40.8109C9.07662 40.8109 9.07662 40.8139 9.07662 40.8169C9.07662 40.8259 9.07662 40.8348 9.07662 40.8408C9.07662 40.8408 9.07662 40.8438 9.07662 40.8468C9.07662 40.8558 9.07662 40.8648 9.07662 40.8708C9.07662 40.8708 9.07662 40.8737 9.07662 40.8767C9.07662 40.8857 9.07662 40.8947 9.07662 40.9007C9.07662 40.9007 9.07662 40.9037 9.07662 40.9067C9.07662 40.9156 9.07662 40.9246 9.07662 40.9306C9.07662 40.9306 9.07662 40.9336 9.07662 40.9366C9.07662 40.9456 9.07662 40.9546 9.07662 40.9605C9.07662 40.9605 9.07662 40.9635 9.07662 40.9665C9.07662 40.9755 9.07662 40.9845 9.07662 40.9905C9.07662 40.9905 9.07662 40.9935 9.07662 40.9964C9.07662 41.0054 9.07662 41.0144 9.07662 41.0204C9.07662 41.0204 9.07662 41.0234 9.07662 41.0264C9.07662 41.0354 9.07662 41.0443 9.07662 41.0503C9.07662 41.0503 9.07662 41.0533 9.07662 41.0563C9.07662 41.0653 9.07662 41.0743 9.07662 41.0802C9.07662 41.0802 9.07662 41.0832 9.07662 41.0862C9.07662 41.0952 9.07662 41.1042 9.07662 41.1102C9.07662 41.1102 9.07662 41.1132 9.07662 41.1162C9.07662 41.1251 9.07662 41.1341 9.07662 41.1401C9.07662 41.1401 9.07662 41.1431 9.07662 41.1461C9.07662 41.1551 9.07662 41.164 9.07662 41.17C9.07662 41.17 9.07662 41.173 9.07662 41.176C9.07662 41.185 9.07662 41.194 9.07662 41.1999C9.07662 41.1999 9.07662 41.2029 9.07662 41.2059C9.07662 41.2149 9.07662 41.2239 9.07662 41.2299C9.07662 41.2299 9.07662 41.2329 9.07662 41.2359C9.07662 41.2448 9.07662 41.2538 9.07662 41.2598C9.07662 41.2598 9.07662 41.2628 9.07662 41.2658C9.07662 41.2748 9.07662 41.2837 9.07662 41.2897C9.07662 41.2897 9.07662 41.2927 9.07662 41.2957C9.07662 41.3047 9.07662 41.3137 9.07662 41.3197C9.07662 41.3197 9.07662 41.3227 9.07662 41.3256C9.07662 41.3346 9.07662 41.3436 9.07662 41.3496C9.07662 41.3496 9.07662 41.3526 9.07662 41.3556C9.07662 41.3646 9.07662 41.3735 9.07662 41.3795C9.07662 41.3795 9.07662 41.3825 9.07662 41.3855C9.07662 41.3945 9.07662 41.4035 9.07662 41.4094C9.07662 41.4094 9.07662 41.4124 9.07662 41.4154C9.07662 41.4244 9.07662 41.4334 9.07662 41.4394C9.08702 42.391 9.16235 43.3637 9.23768 44.3034C9.29483 45.0066 9.35198 45.7339 9.38316 46.4521C9.42991 47.5953 9.65332 47.7988 10.1105 47.7988C10.3054 47.7988 10.5573 47.7539 10.8821 47.6642C11.5575 47.4726 12.2537 47.326 12.9239 47.1853C13.5811 47.0477 14.2591 46.904 14.9111 46.7215C15.3528 46.5958 15.9061 46.3264 16.1243 45.9493C16.7659 44.842 17.6466 44.3034 18.8207 44.3034C18.9818 44.3034 19.1481 44.3123 19.3221 44.3333C19.7949 44.3902 20.2729 44.5039 20.7379 44.6116C21.3925 44.7672 22.0108 44.9139 22.6134 44.9139C22.842 44.9139 23.0473 44.8929 23.2447 44.851C24.5228 44.5697 25.7827 43.9772 27.001 43.4056C27.4582 43.1901 27.931 42.9686 28.4038 42.7621C28.4012 42.7532 28.3986 42.7442 28.396 42.7352C28.3986 42.7352 28.4012 42.7352 28.4038 42.7322C28.4012 42.7232 28.3986 42.7142 28.396 42.7053C28.3986 42.7053 28.4012 42.7053 28.4038 42.7023C28.4012 42.6933 28.3986 42.6843 28.396 42.6753C28.3986 42.6753 28.4012 42.6753 28.4038 42.6724C28.4012 42.6634 28.3986 42.6544 28.396 42.6454C28.3986 42.6454 28.4012 42.6454 28.4038 42.6424C28.4012 42.6334 28.3986 42.6245 28.396 42.6155C28.3986 42.6155 28.4012 42.6155 28.4038 42.6125C28.4012 42.6035 28.3986 42.5945 28.396 42.5856C28.3986 42.5856 28.4012 42.5856 28.4038 42.5826C28.4012 42.5736 28.3986 42.5646 28.396 42.5556C28.3986 42.5556 28.4012 42.5556 28.4038 42.5527C28.4012 42.5437 28.3986 42.5347 28.396 42.5257C28.3986 42.5257 28.4012 42.5257 28.4038 42.5227C28.4012 42.5137 28.3986 42.5048 28.396 42.4958C28.3986 42.4958 28.4012 42.4958 28.4038 42.4928C28.4012 42.4838 28.3986 42.4748 28.396 42.4659C28.3986 42.4659 28.4012 42.4659 28.4038 42.4629C28.4012 42.4539 28.3986 42.4449 28.396 42.4359C28.3986 42.4359 28.4012 42.4359 28.4038 42.4329C28.4012 42.424 28.3986 42.415 28.396 42.406C28.3986 42.406 28.4012 42.406 28.4038 42.403C28.4012 42.394 28.3986 42.3851 28.396 42.3761C28.3986 42.3761 28.4012 42.3761 28.4038 42.3731C28.4012 42.3641 28.3986 42.3551 28.396 42.3462C28.3986 42.3462 28.4012 42.3461 28.4038 42.3432C28.4012 42.3342 28.3986 42.3252 28.396 42.3162C28.3986 42.3162 28.4012 42.3162 28.4038 42.3132C28.4012 42.3042 28.3986 42.2953 28.396 42.2863C28.3986 42.2863 28.4012 42.2863 28.4038 42.2833C28.4012 42.2743 28.3986 42.2653 28.396 42.2564C28.3986 42.2564 28.4012 42.2564 28.4038 42.2534C28.4012 42.2444 28.3986 42.2354 28.396 42.2264C28.3986 42.2264 28.4012 42.2264 28.4038 42.2234C28.4012 42.2145 28.3986 42.2055 28.396 42.1965C28.3986 42.1965 28.4012 42.1965 28.4038 42.1935C28.4012 42.1845 28.3986 42.1756 28.396 42.1666C28.3986 42.1666 28.4012 42.1666 28.4038 42.1636C28.4012 42.1546 28.3986 42.1456 28.396 42.1367C28.3986 42.1367 28.4012 42.1367 28.4038 42.1337C28.4012 42.1247 28.3986 42.1157 28.396 42.1067C28.3986 42.1067 28.4012 42.1067 28.4038 42.1037C28.4012 42.0948 28.3986 42.0858 28.396 42.0768C28.3986 42.0768 28.4012 42.0768 28.4038 42.0738C28.4012 42.0648 28.3986 42.0559 28.396 42.0469C28.3986 42.0469 28.4012 42.0469 28.4038 42.0439C28.4012 42.0349 28.3986 42.0259 28.396 42.017C28.3986 42.017 28.4012 42.017 28.4038 42.014C28.4012 42.005 28.3986 41.996 28.396 41.987C28.3986 41.987 28.4012 41.987 28.4038 41.984C28.4012 41.9751 28.3986 41.9661 28.396 41.9571C28.3986 41.9571 28.4012 41.9571 28.4038 41.9541C28.4012 41.9451 28.3986 41.9361 28.396 41.9272C28.3986 41.9272 28.4012 41.9272 28.4038 41.9242C28.4012 41.9152 28.3986 41.9062 28.396 41.8973C28.3986 41.8973 28.4012 41.8972 28.4038 41.8943C28.4012 41.8853 28.3986 41.8763 28.396 41.8673C28.3986 41.8673 28.4012 41.8673 28.4038 41.8643C28.4012 41.8553 28.3986 41.8464 28.396 41.8374C28.3986 41.8374 28.4012 41.8374 28.4038 41.8344C28.4012 41.8254 28.3986 41.8164 28.396 41.8075C28.3986 41.8075 28.4012 41.8075 28.4038 41.8045C28.4012 41.7955 28.3986 41.7865 28.396 41.7775C28.3986 41.7775 28.4012 41.7775 28.4038 41.7745C28.4012 41.7656 28.3986 41.7566 28.396 41.7476C28.3986 41.7476 28.4012 41.7476 28.4038 41.7446C28.4012 41.7356 28.3986 41.7267 28.396 41.7177C28.3986 41.7177 28.4012 41.7177 28.4038 41.7147C28.4012 41.7057 28.3986 41.6967 28.396 41.6878C28.3986 41.6878 28.4012 41.6878 28.4038 41.6848C28.4012 41.6758 28.3986 41.6668 28.396 41.6578C28.3986 41.6578 28.4012 41.6578 28.4038 41.6548C28.4012 41.6459 28.3986 41.6369 28.396 41.6279C28.3986 41.6279 28.4012 41.6279 28.4038 41.6249C28.4012 41.6159 28.3986 41.607 28.396 41.598C28.3986 41.598 28.4012 41.598 28.4038 41.595C28.4012 41.586 28.3986 41.577 28.396 41.5681C28.3986 41.5681 28.4012 41.5681 28.4038 41.5651C28.4012 41.5561 28.3986 41.5471 28.396 41.5381C28.3986 41.5381 28.4012 41.5381 28.4038 41.5351C28.4012 41.5261 28.3986 41.5172 28.396 41.5082C28.3986 41.5082 28.4012 41.5082 28.4038 41.5052C28.4012 41.4962 28.3986 41.4872 28.396 41.4783C28.3986 41.4783 28.4012 41.4783 28.4038 41.4753C28.4012 41.4663 28.3986 41.4573 28.396 41.4483C28.3986 41.4483 28.4012 41.4483 28.4038 41.4454C28.4012 41.4364 28.3986 41.4274 28.396 41.4184C28.3986 41.4184 28.4012 41.4184 28.4038 41.4154C28.4012 41.4064 28.3986 41.3975 28.396 41.3885C28.3986 41.3885 28.4012 41.3885 28.4038 41.3855C28.4012 41.3765 28.3986 41.3675 28.396 41.3586C28.3986 41.3586 28.4012 41.3586 28.4038 41.3556C28.4012 41.3466 28.3986 41.3376 28.396 41.3286C28.3986 41.3286 28.4012 41.3286 28.4038 41.3256C28.4012 41.3167 28.3986 41.3077 28.396 41.2987C28.3986 41.2987 28.4012 41.2987 28.4038 41.2957C28.4012 41.2867 28.3986 41.2778 28.396 41.2688C28.3986 41.2688 28.4012 41.2688 28.4038 41.2658C28.4012 41.2568 28.3986 41.2478 28.396 41.2389C28.3986 41.2389 28.4012 41.2389 28.4038 41.2359C28.4012 41.2269 28.3986 41.2179 28.396 41.2089C28.3986 41.2089 28.4012 41.2089 28.4038 41.2059C28.4012 41.197 28.3986 41.188 28.396 41.179C28.3986 41.179 28.4012 41.179 28.4038 41.176C28.4012 41.167 28.3986 41.1581 28.396 41.1491C28.3986 41.1491 28.4012 41.1491 28.4038 41.1461C28.4012 41.1371 28.3986 41.1281 28.396 41.1191C28.3986 41.1191 28.4012 41.1191 28.4038 41.1162C28.4012 41.1072 28.3986 41.0982 28.396 41.0892C28.3986 41.0892 28.4012 41.0892 28.4038 41.0862C28.4012 41.0772 28.3986 41.0683 28.396 41.0593C28.3986 41.0593 28.4012 41.0593 28.4038 41.0563C28.4012 41.0473 28.3986 41.0383 28.396 41.0294C28.3986 41.0294 28.4012 41.0294 28.4038 41.0264C28.4012 41.0174 28.3986 41.0084 28.396 40.9994C28.3986 40.9994 28.4012 40.9994 28.4038 40.9964C28.4012 40.9875 28.3986 40.9785 28.396 40.9695C28.3986 40.9695 28.4012 40.9695 28.4038 40.9665C28.4012 40.9575 28.3986 40.9486 28.396 40.9396C28.3986 40.9396 28.4012 40.9396 28.4038 40.9366C28.4012 40.9276 28.3986 40.9186 28.396 40.9097C28.3986 40.9097 28.4012 40.9097 28.4038 40.9067C28.4012 40.8977 28.3986 40.8887 28.396 40.8797C28.3986 40.8797 28.4012 40.8797 28.4038 40.8767C28.4012 40.8678 28.3986 40.8588 28.396 40.8498C28.3986 40.8498 28.4012 40.8498 28.4038 40.8468C28.4012 40.8378 28.3986 40.8289 28.396 40.8199C28.3986 40.8199 28.4012 40.8199 28.4038 40.8169C28.4012 40.8079 28.3986 40.7989 28.396 40.79C28.3986 40.79 28.4012 40.7899 28.4038 40.787C28.4012 40.778 28.3986 40.769 28.396 40.76C28.3986 40.76 28.4012 40.76 28.4038 40.757C28.4012 40.7481 28.3986 40.7391 28.396 40.7301C28.3986 40.7301 28.4012 40.7301 28.4038 40.7271C28.4012 40.7181 28.3986 40.7092 28.396 40.7002C28.3986 40.7002 28.4012 40.7002 28.4038 40.6972C28.4012 40.6882 28.3986 40.6792 28.396 40.6702C28.3986 40.6702 28.4012 40.6702 28.4038 40.6673C28.4012 40.6583 28.3986 40.6493 28.396 40.6403C28.3986 40.6403 28.4012 40.6403 28.4038 40.6373C28.4012 40.6283 28.3986 40.6194 28.396 40.6104C28.3986 40.6104 28.4012 40.6104 28.4038 40.6074C28.4012 40.5984 28.3986 40.5894 28.396 40.5805C28.3986 40.5805 28.4012 40.5805 28.4038 40.5775C28.4012 40.5685 28.3986 40.5595 28.396 40.5505C28.3986 40.5505 28.4012 40.5505 28.4038 40.5475C28.4012 40.5386 28.3986 40.5296 28.396 40.5206C28.3986 40.5206 28.4012 40.5206 28.4038 40.5176C28.4012 40.5086 28.3986 40.4997 28.396 40.4907C28.3986 40.4907 28.4012 40.4907 28.4038 40.4877C28.4012 40.4787 28.3986 40.4697 28.396 40.4608C28.3986 40.4608 28.4012 40.4608 28.4038 40.4578C28.4012 40.4488 28.3986 40.4398 28.396 40.4308C28.3986 40.4308 28.4012 40.4308 28.4038 40.4278C28.4012 40.4189 28.3986 40.4099 28.396 40.4009C28.3986 40.4009 28.4012 40.4009 28.4038 40.3979C28.4012 40.3889 28.3986 40.38 28.396 40.371C28.3986 40.371 28.4012 40.371 28.4038 40.368C28.4012 40.359 28.3986 40.35 28.396 40.341C28.3986 40.341 28.4012 40.341 28.4038 40.3381C28.4012 40.3291 28.3986 40.3201 28.396 40.3111C28.3986 40.3111 28.4012 40.3111 28.4038 40.3081C28.4012 40.2992 28.3986 40.2902 28.396 40.2812C28.3986 40.2812 28.4012 40.2812 28.4038 40.2782C28.4012 40.2692 28.3986 40.2603 28.396 40.2513C28.3986 40.2513 28.4012 40.2513 28.4038 40.2483C28.4012 40.2393 28.3986 40.2303 28.396 40.2213C28.3986 40.2213 28.4012 40.2213 28.4038 40.2183C28.4012 40.2094 28.3986 40.2004 28.396 40.1914C28.3986 40.1914 28.4012 40.1914 28.4038 40.1884C28.4012 40.1794 28.3986 40.1705 28.396 40.1615C28.3986 40.1615 28.4012 40.1615 28.4038 40.1585C28.4012 40.1495 28.3986 40.1405 28.396 40.1316C28.3986 40.1316 28.4012 40.1316 28.4038 40.1286C28.4012 40.1196 28.3986 40.1106 28.396 40.1016C28.3986 40.1016 28.4012 40.1016 28.4038 40.0986C28.4012 40.0897 28.3986 40.0807 28.396 40.0717C28.3986 40.0717 28.4012 40.0717 28.4038 40.0687C28.4012 40.0597 28.3986 40.0508 28.396 40.0418C28.3986 40.0418 28.4012 40.0418 28.4038 40.0388C28.4012 40.0298 28.3986 40.0208 28.396 40.0119C28.3986 40.0119 28.4012 40.0119 28.4038 40.0089C28.4012 39.9999 28.3986 39.9909 28.396 39.9819C28.3986 39.9819 28.4012 39.9819 28.4038 39.9789C28.4012 39.97 28.3986 39.961 28.396 39.952C28.3986 39.952 28.4012 39.952 28.4038 39.949C28.4012 39.94 28.3986 39.9311 28.396 39.9221C28.3986 39.9221 28.4012 39.9221 28.4038 39.9191C28.7051 39.7275 29.1415 39.6767 29.6819 39.6767C29.9079 39.6767 30.1728 39.6856 30.5106 39.7066C30.5106 39.6976 30.5106 39.6856 30.5106 39.6767C30.5106 39.6767 30.5106 39.6557 30.5106 39.6467C30.5106 39.6467 30.5106 39.6258 30.5106 39.6168C30.5106 39.6168 30.5106 39.5959 30.5106 39.5869C30.5106 39.5869 30.5106 39.5659 30.5106 39.557C30.5106 39.557 30.5106 39.536 30.5106 39.527C30.5106 39.527 30.5106 39.5061 30.5106 39.4971C30.5106 39.4971 30.5106 39.4762 30.5106 39.4672C30.5106 39.4672 30.5106 39.4462 30.5106 39.4373C30.5106 39.4373 30.5106 39.4163 30.5106 39.4073C30.5106 39.4073 30.5106 39.3864 30.5106 39.3774C30.5106 39.3774 30.5106 39.3565 30.5106 39.3475C30.5106 39.3475 30.5106 39.3265 30.5106 39.3175C30.5106 39.3175 30.5106 39.2966 30.5106 39.2876C30.5106 39.2876 30.5106 39.2667 30.5106 39.2577C30.5106 39.2577 30.5106 39.2367 30.5106 39.2278C30.5106 39.2278 30.5106 39.2068 30.5106 39.1978C30.5106 39.1978 30.5106 39.1769 30.5106 39.1679C30.5106 39.1679 30.5106 39.147 30.5106 39.138C30.5106 39.138 30.5106 39.117 30.5106 39.1081C30.5106 39.1081 30.5106 39.0871 30.5106 39.0781C30.5106 39.0781 30.5106 39.0572 30.5106 39.0482C30.5106 39.0482 30.5106 39.0273 30.5106 39.0183C30.5106 39.0183 30.5106 38.9973 30.5106 38.9884C30.5106 38.9884 30.5106 38.9674 30.5106 38.9584C30.5106 38.9584 30.5106 38.9375 30.5106 38.9285C30.5106 38.9285 30.5106 38.9076 30.5106 38.8986C30.5106 38.8986 30.5106 38.8776 30.5106 38.8686C30.5106 38.8686 30.5106 38.8477 30.5106 38.8387C30.5106 38.8387 30.5106 38.8178 30.5106 38.8088C30.5106 38.8088 30.5106 38.7878 30.5106 38.7789C30.5106 38.7789 30.5106 38.7579 30.5106 38.7489C30.5106 38.7489 30.5106 38.728 30.5106 38.719C30.5106 38.719 30.5106 38.6981 30.5106 38.6891C30.5106 38.6891 30.5106 38.6681 30.5106 38.6592C30.5106 38.6592 30.5106 38.6382 30.5106 38.6292C30.5106 38.6292 30.5106 38.6083 30.5106 38.5993C30.5106 38.5993 30.5106 38.5784 30.5106 38.5694C30.5106 38.5694 30.5106 38.5484 30.5106 38.5395C30.5106 38.5395 30.5106 38.5185 30.5106 38.5095C30.5106 38.5095 30.5106 38.4886 30.5106 38.4796C30.5106 38.4796 30.5106 38.4586 30.5106 38.4497C30.5106 38.4497 30.5106 38.4287 30.5106 38.4197C30.5106 38.4197 30.5106 38.3988 30.5106 38.3898C30.5106 38.3898 30.5106 38.3689 30.5106 38.3599C30.5106 38.3599 30.5106 38.3389 30.5106 38.33C30.5106 38.33 30.5106 38.309 30.5106 38.3C30.5106 38.3 30.5106 38.2791 30.5106 38.2701C30.5106 38.2701 30.5106 38.2492 30.5106 38.2402C30.5106 38.2402 30.5106 38.2192 30.5106 38.2103C30.5106 38.2103 30.5106 38.1893 30.5106 38.1803C30.5106 38.1803 30.5106 38.1594 30.5106 38.1504C30.5106 38.1504 30.5106 38.1294 30.5106 38.1205C30.5106 38.1205 30.5106 38.0995 30.5106 38.0905C30.5106 38.0905 30.5106 38.0696 30.5106 38.0606C30.5106 38.0606 30.5106 38.0397 30.5106 38.0307C30.5106 38.0307 30.5106 38.0097 30.5106 38.0008C30.5106 38.0008 30.5106 37.9798 30.5106 37.9708C30.5106 37.9708 30.5106 37.9499 30.5106 37.9409C30.5106 37.9409 30.5106 37.92 30.5106 37.911C30.5106 37.911 30.5106 37.89 30.5106 37.8811C30.5106 37.8811 30.5106 37.8601 30.5106 37.8511C30.5106 37.8511 30.5106 37.8302 30.5106 37.8212C30.5106 37.8212 30.5106 37.8003 30.5106 37.7913C30.5106 37.7913 30.5106 37.7703 30.5106 37.7614C30.6067 36.678 31.0457 36.3668 32.4147 35.7712C32.529 35.7233 32.6563 35.469 32.7472 35.2834L32.781 35.2176C32.8355 35.1098 32.8771 34.9722 32.9213 34.8285C33.0018 34.5592 33.0875 34.2839 33.2849 34.1043C33.5915 33.826 33.898 33.5477 34.2045 33.2663C35.7528 31.8538 37.3556 30.3963 39.0181 29.0945C39.3091 28.8671 39.613 28.6726 39.9092 28.484C40.7612 27.9394 41.5665 27.4276 41.925 26.2186C42.1224 25.5452 42.7953 25.0275 43.4291 24.6085C44.4604 23.9232 45.5463 23.3097 46.5957 22.7171L47.1179 22.4208C47.5855 22.1545 48.0089 22.0258 48.409 22.0258C49.0298 22.0258 49.5779 22.3311 50.0923 22.9595C50.5989 23.582 51.2379 24.1775 52.1004 24.8299C52.4614 25.1053 52.8927 25.2489 53.3499 25.2489C53.9422 25.2489 54.5059 25.0035 54.8566 24.5875C55.1007 24.3002 55.228 23.9471 55.2228 23.567C55.1969 21.7325 56.0126 20.6103 56.8646 19.7633C56.8594 19.7573 56.8568 19.7514 56.8516 19.7454C56.8568 19.7424 56.8594 19.7364 56.8646 19.7334C56.8594 19.7274 56.8568 19.7214 56.8516 19.7154C56.8568 19.7125 56.8594 19.7065 56.8646 19.7035C56.8594 19.6975 56.8568 19.6915 56.8516 19.6855C56.8568 19.6825 56.8594 19.6765 56.8646 19.6735C56.8594 19.6676 56.8568 19.6616 56.8516 19.6556C56.8568 19.6526 56.8594 19.6466 56.8646 19.6436C56.8594 19.6376 56.8568 19.6317 56.8516 19.6257C56.8568 19.6227 56.8594 19.6167 56.8646 19.6137C56.8594 19.6077 56.8568 19.6017 56.8516 19.5957C56.8568 19.5927 56.8594 19.5868 56.8646 19.5838C56.8594 19.5778 56.8568 19.5718 56.8516 19.5658C56.8568 19.5628 56.8594 19.5568 56.8646 19.5538C56.8594 19.5479 56.8568 19.5419 56.8516 19.5359C56.8568 19.5329 56.8594 19.5269 56.8646 19.5239C56.8594 19.5179 56.8568 19.5119 56.8516 19.506C56.8568 19.503 56.8594 19.497 56.8646 19.494C56.8594 19.488 56.8568 19.482 56.8516 19.476C56.8568 19.473 56.8594 19.4671 56.8646 19.4641C56.8594 19.4581 56.8568 19.4521 56.8516 19.4461C56.8568 19.4431 56.8594 19.4371 56.8646 19.4341C56.8594 19.4281 56.8568 19.4222 56.8516 19.4162C56.8568 19.4132 56.8594 19.4072 56.8646 19.4042C56.8594 19.3982 56.8568 19.3922 56.8516 19.3862C56.8568 19.3833 56.8594 19.3773 56.8646 19.3743C56.8594 19.3683 56.8568 19.3623 56.8516 19.3563C56.8568 19.3533 56.8594 19.3473 56.8646 19.3444C56.8594 19.3384 56.8568 19.3324 56.8516 19.3264C56.8568 19.3234 56.8594 19.3174 56.8646 19.3144C56.8594 19.3084 56.8568 19.3025 56.8516 19.2965C56.8568 19.2935 56.8594 19.2875 56.8646 19.2845C56.8594 19.2785 56.8568 19.2725 56.8516 19.2665C56.8568 19.2636 56.8594 19.2576 56.8646 19.2546C56.8594 19.2486 56.8568 19.2426 56.8516 19.2366C56.8568 19.2336 56.8594 19.2276 56.8646 19.2246C56.8594 19.2187 56.8568 19.2127 56.8516 19.2067C56.8568 19.2037 56.8594 19.1977 56.8646 19.1947C56.8594 19.1887 56.8568 19.1827 56.8516 19.1768C56.8568 19.1738 56.8594 19.1678 56.8646 19.1648C56.8594 19.1588 56.8568 19.1528 56.8516 19.1468C56.8568 19.1438 56.8594 19.1379 56.8646 19.1349C56.8594 19.1289 56.8568 19.1229 56.8516 19.1169C56.8568 19.1139 56.8594 19.1079 56.8646 19.1049C56.8594 19.099 56.8568 19.093 56.8516 19.087C56.8568 19.084 56.8594 19.078 56.8646 19.075C56.8594 19.069 56.8568 19.063 56.8516 19.0571C56.8568 19.0541 56.8594 19.0481 56.8646 19.0451C56.8594 19.0391 56.8568 19.0331 56.8516 19.0271C56.8568 19.0241 56.8594 19.0182 56.8646 19.0152C56.8594 19.0092 56.8568 19.0032 56.8516 18.9972C56.8568 18.9942 56.8594 18.9882 56.8646 18.9852C56.8594 18.9792 56.8568 18.9733 56.8516 18.9673C56.8568 18.9643 56.8594 18.9583 56.8646 18.9553C56.8594 18.9493 56.8568 18.9433 56.8516 18.9373C56.8568 18.9344 56.8594 18.9284 56.8646 18.9254C56.8594 18.9194 56.8568 18.9134 56.8516 18.9074C56.8568 18.9044 56.8594 18.8984 56.8646 18.8954C56.8594 18.8895 56.8568 18.8835 56.8516 18.8775C56.8568 18.8745 56.8594 18.8685 56.8646 18.8655C56.8594 18.8595 56.8568 18.8536 56.8516 18.8476C56.8568 18.8446 56.8594 18.8386 56.8646 18.8356C56.8594 18.8296 56.8568 18.8236 56.8516 18.8176C56.8568 18.8146 56.8594 18.8087 56.8646 18.8057C56.8594 18.7997 56.8568 18.7937 56.8516 18.7877C56.8568 18.7847 56.8594 18.7787 56.8646 18.7757C56.8594 18.7698 56.8568 18.7638 56.8516 18.7578C56.8568 18.7548 56.8594 18.7488 56.8646 18.7458C56.8594 18.7398 56.8568 18.7338 56.8516 18.7279C56.8568 18.7249 56.8594 18.7189 56.8646 18.7159C56.8594 18.7099 56.8568 18.7039 56.8516 18.6979C56.8568 18.6949 56.8594 18.689 56.8646 18.686C56.8594 18.68 56.8568 18.674 56.8516 18.668C56.8568 18.665 56.8594 18.659 56.8646 18.656C56.8594 18.6501 56.8568 18.6441 56.8516 18.6381C56.8568 18.6351 56.8594 18.6291 56.8646 18.6261C56.8594 18.6201 56.8568 18.6141 56.8516 18.6082C56.8568 18.6052 56.8594 18.5992 56.8646 18.5962C56.8594 18.5902 56.8568 18.5842 56.8516 18.5782C56.8568 18.5752 56.8594 18.5692 56.8646 18.5663C56.8594 18.5603 56.8568 18.5543 56.8516 18.5483C56.8568 18.5453 56.8594 18.5393 56.8646 18.5363C56.8594 18.5303 56.8568 18.5244 56.8516 18.5184C56.8568 18.5154 56.8594 18.5094 56.8646 18.5064C56.8594 18.5004 56.8568 18.4944 56.8516 18.4884C56.8568 18.4855 56.8594 18.4795 56.8646 18.4765C56.8594 18.4705 56.8568 18.4645 56.8516 18.4585C56.8568 18.4555 56.8594 18.4495 56.8646 18.4465C56.8594 18.4406 56.8568 18.4346 56.8516 18.4286C56.8568 18.4256 56.8594 18.4196 56.8646 18.4166C56.8594 18.4106 56.8568 18.4047 56.8516 18.3987C56.8568 18.3957 56.8594 18.3897 56.8646 18.3867C56.8594 18.3807 56.8568 18.3747 56.8516 18.3687C56.8568 18.3657 56.8594 18.3598 56.8646 18.3568C56.8594 18.3508 56.8568 18.3448 56.8516 18.3388C56.8568 18.3358 56.8594 18.3298 56.8646 18.3268C56.8594 18.3209 56.8568 18.3149 56.8516 18.3089C56.8568 18.3059 56.8594 18.2999 56.8646 18.2969C56.8594 18.2909 56.8568 18.2849 56.8516 18.279C56.8568 18.276 56.8594 18.27 56.8646 18.267C56.8594 18.261 56.8568 18.255 56.8516 18.249C56.8568 18.246 56.8594 18.2401 56.8646 18.2371C56.8594 18.2311 56.8568 18.2251 56.8516 18.2191C56.8568 18.2161 56.8594 18.2101 56.8646 18.2071C56.8594 18.2011 56.8568 18.1952 56.8516 18.1892C56.8568 18.1862 56.8594 18.1802 56.8646 18.1772C56.8594 18.1712 56.8568 18.1652 56.8516 18.1593C56.8568 18.1563 56.8594 18.1503 56.8646 18.1473C56.8594 18.1413 56.8568 18.1353 56.8516 18.1293C56.8568 18.1263 56.8594 18.1203 56.8646 18.1174C56.8594 18.1114 56.8568 18.1054 56.8516 18.0994C56.8568 18.0964 56.8594 18.0904 56.8646 18.0874C56.8594 18.0814 56.8568 18.0755 56.8516 18.0695C56.8568 18.0665 56.8594 18.0605 56.8646 18.0575C56.8594 18.0515 56.8568 18.0455 56.8516 18.0395C56.8568 18.0365 56.8594 18.0306 56.8646 18.0276C56.8594 18.0216 56.8568 18.0156 56.8516 18.0096C56.8568 18.0066 56.8594 18.0006 56.8646 17.9976C56.8594 17.9917 56.8568 17.9857 56.8516 17.9797C56.8568 17.9767 56.8594 17.9707 56.8646 17.9677C56.8594 17.9617 56.8568 17.9557 56.8516 17.9498C56.8568 17.9468 56.8594 17.9408 56.8646 17.9378C56.8594 17.9318 56.8568 17.9258 56.8516 17.9198C56.8568 17.9168 56.8594 17.9109 56.8646 17.9079C56.8594 17.9019 56.8568 17.8959 56.8516 17.8899C56.8568 17.8869 56.8594 17.8809 56.8646 17.8779C56.8594 17.872 56.8568 17.866 56.8516 17.86C56.8568 17.857 56.8594 17.851 56.8646 17.848C56.8594 17.842 56.8568 17.836 56.8516 17.8301C56.8568 17.8271 56.8594 17.8211 56.8646 17.8181C56.8594 17.8121 56.8568 17.8061 56.8516 17.8001C56.8568 17.7971 56.8594 17.7911 56.8646 17.7882C56.8594 17.7822 56.8568 17.7762 56.8516 17.7702C56.8568 17.7672 56.8594 17.7612 56.8646 17.7582C56.8594 17.7522 56.8568 17.7463 56.8516 17.7403C56.8568 17.7373 56.8594 17.7313 56.8646 17.7283C56.8594 17.7223 56.8568 17.7163 56.8516 17.7103C56.8568 17.7074 56.8594 17.7014 56.8646 17.6984C56.8594 17.6924 56.8568 17.6864 56.8516 17.6804C56.8568 17.6774 56.8594 17.6714 56.8646 17.6684C56.8594 17.6625 56.8568 17.6565 56.8516 17.6505C56.8568 17.6475 56.8594 17.6415 56.8646 17.6385C56.8594 17.6325 56.8568 17.6266 56.8516 17.6206C56.8568 17.6176 56.8594 17.6116 56.8646 17.6086C56.8594 17.6026 56.8568 17.5966 56.8516 17.5906C56.8568 17.5876 56.8594 17.5817 56.8646 17.5787C56.8594 17.5727 56.8568 17.5667 56.8516 17.5607C56.8568 17.5577 56.8594 17.5517 56.8646 17.5487C56.8594 17.5428 56.8568 17.5368 56.8516 17.5308C56.8568 17.5278 56.8594 17.5218 56.8646 17.5188C56.8594 17.5128 56.8568 17.5068 56.8516 17.5009C56.8568 17.4979 56.8594 17.4919 56.8646 17.4889C56.8594 17.4829 56.8568 17.4769 56.8516 17.4709C56.8568 17.4679 56.8594 17.462 56.8646 17.459C56.8594 17.453 56.8568 17.447 56.8516 17.441C56.8568 17.438 56.8594 17.432 56.8646 17.429C56.8594 17.423 56.8568 17.4171 56.8516 17.4111C56.8568 17.4081 56.8594 17.4021 56.8646 17.3991C56.8594 17.3931 56.8568 17.3871 56.8516 17.3811C56.8568 17.3782 56.8594 17.3722 56.8646 17.3692C56.8594 17.3632 56.8568 17.3572 56.8516 17.3512C56.8568 17.3482 56.8594 17.3422 56.8646 17.3393C56.8594 17.3333 56.8568 17.3273 56.8516 17.3213C56.8568 17.3183 56.8594 17.3123 56.8646 17.3093C56.8594 17.3033 56.8568 17.2974 56.8516 17.2914C56.8568 17.2884 56.8594 17.2824 56.8646 17.2794C56.8594 17.2734 56.8568 17.2674 56.8516 17.2614C56.8568 17.2585 56.8594 17.2525 56.8646 17.2495C56.8594 17.2435 56.8568 17.2375 56.8516 17.2315C56.8568 17.2285 56.8594 17.2225 56.8646 17.2195C56.8594 17.2136 56.8568 17.2076 56.8516 17.2016C56.8568 17.1986 56.8594 17.1926 56.8646 17.1896C56.8594 17.1836 56.8568 17.1776 56.8516 17.1717C56.8568 17.1687 56.8594 17.1627 56.8646 17.1597C56.8594 17.1537 56.8568 17.1477 56.8516 17.1417C56.8568 17.1387 56.8594 17.1328 56.8646 17.1298C56.8594 17.1238 56.8568 17.1178 56.8516 17.1118C56.8568 17.1088 56.8594 17.1028 56.8646 17.0998C56.8594 17.0939 56.8568 17.0879 56.8516 17.0819C56.8568 17.0789 56.8594 17.0729 56.8646 17.0699C56.8594 17.0639 56.8568 17.0579 56.8516 17.052C56.8568 17.049 56.8594 17.043 56.8646 17.04C56.8594 17.034 56.8568 17.028 56.8516 17.022C56.8568 17.019 56.8594 17.0131 56.8646 17.0101C56.8594 17.0041 56.8568 16.9981 56.8516 16.9921C56.8568 16.9891 56.8594 16.9831 56.8646 16.9801C56.8594 16.9741 56.8568 16.9682 56.8516 16.9622C56.8568 16.9592 56.8594 16.9532 56.8646 16.9502C56.8594 16.9442 56.8568 16.9382 56.8516 16.9322C56.8568 16.9293 56.8594 16.9233 56.8646 16.9203C56.8594 16.9143 56.8568 16.9083 56.8516 16.9023C56.8568 16.8993 56.8594 16.8933 56.8646 16.8903C56.8594 16.8844 56.8568 16.8784 56.8516 16.8724C56.8568 16.8694 56.8594 16.8634 56.8646 16.8604C56.8594 16.8544 56.8568 16.8484 56.8516 16.8425C56.8568 16.8395 56.8594 16.8335 56.8646 16.8305C56.8594 16.8245 56.8568 16.8185 56.8516 16.8125C56.8568 16.8095 56.8594 16.8036 56.8646 16.8006C56.8594 16.7946 56.8568 16.7886 56.8516 16.7826C56.8568 16.7796 56.8594 16.7736 56.8646 16.7706C56.8594 16.7647 56.8568 16.7587 56.8516 16.7527L56.8464 17.043Z" fill="#D6C393"/>
<path d="M10.0922 45.0236C9.63761 45.0236 9.4116 44.8231 9.36485 43.6769C9.33367 42.9586 9.27652 42.2314 9.21937 41.5281C9.14404 40.5884 9.0661 39.6158 9.05831 38.6641C9.04532 37.3294 9.20638 35.9557 9.35186 34.7437C9.49993 33.5077 9.55708 32.8912 9.27133 32.4633C9.01155 32.0712 8.50759 31.9485 7.66852 31.8198C7.70749 31.7241 7.74646 31.6283 7.78282 31.5355C7.96467 31.0866 8.13871 30.6647 8.24782 30.2038C8.35952 29.7339 8.43745 29.2521 8.51279 28.7823C8.63228 28.0461 8.74658 27.3488 8.97258 26.6993C9.39861 25.4843 9.94933 24.4458 10.565 23.6977C11.2196 22.8986 11.6379 22.2372 11.5443 21.6088C11.4664 21.0851 11.069 20.6571 10.1753 20.1304C9.49213 19.7264 9.07909 19.3104 8.99077 18.3707C8.92842 17.7093 8.75178 17.0629 8.58033 16.4404C8.42966 15.8927 8.2738 15.3301 8.20366 14.7705C8.02181 13.346 7.18534 12.6995 6.37485 12.0771C6.04234 11.8227 5.72801 11.5803 5.46045 11.287C3.86803 9.55124 1.8418 9.02752 0 8.80008C1.27289 7.30673 2.73542 6.60644 4.15378 5.9241C4.53046 5.74454 4.92011 5.556 5.29679 5.35849C6.3151 4.8228 7.34121 4.26017 8.33354 3.71251C8.96999 3.36236 9.60643 3.01222 10.2429 2.66806L10.6741 2.43463C11.721 1.86901 12.8017 1.28544 13.8823 0.758727C13.9524 0.725808 14.0538 0.704856 14.1603 0.704856C14.3213 0.704856 14.4772 0.746757 14.5681 0.815589C15.2253 1.30639 15.9449 1.54281 16.7762 1.54281C17.5321 1.54281 18.2933 1.34829 19.031 1.15975L19.3402 1.08194C19.7428 0.980187 20.1481 0.845512 20.5377 0.713834C21.2677 0.468434 21.9587 0.237998 22.6627 0.205078C22.6938 0.205078 22.7276 0.205078 22.7588 0.205078C23.2731 0.205078 23.7979 0.381649 24.3486 0.567195C24.7227 0.692888 25.1097 0.824564 25.4994 0.896388C25.767 0.947264 26.0553 0.968214 26.406 0.968214C26.6502 0.968214 26.8944 0.956243 27.1386 0.944272L27.4321 0.932304C27.7282 0.920333 28.027 0.88741 28.3179 0.854491C28.6582 0.815586 29.0115 0.776683 29.3492 0.776683C29.5051 0.776683 29.648 0.785661 29.7857 0.800625C30.7988 0.926317 31.6119 1.16274 32.2743 1.52485C33.0614 1.9558 33.8044 2.58127 34.3655 3.28755C35.163 4.29309 35.8098 4.72404 36.532 4.72404C37.0048 4.72404 37.5217 4.53849 38.1582 4.13747C38.3608 4.00878 38.5972 3.93696 38.8751 3.85316C38.9453 3.83222 39.0154 3.80827 39.0908 3.78733C39.0985 3.86214 39.1063 3.93098 39.1167 3.99981C39.1479 4.26017 39.1713 4.47265 39.1895 4.68812C39.3012 6.05877 39.8883 6.64833 41.1508 6.65731C41.834 6.6633 42.5431 6.69622 43.0107 7.03738C43.403 7.32169 43.7979 7.46833 44.1849 7.46833C44.7123 7.46833 45.2292 7.20498 45.7643 6.66031C46.0735 6.34907 46.3333 6.18746 46.5385 6.18746C46.6995 6.18746 46.9515 6.27425 47.2658 7.02542C47.3905 7.32169 47.5152 7.61796 47.6399 7.91424C48.1283 9.06642 48.6296 10.2575 49.0583 11.4606C49.7675 13.4627 50.8247 14.3575 52.4873 14.3575H52.5782C54.2122 14.3575 55.6072 15.2314 56.8411 17.033C55.989 17.8799 55.1734 19.0021 55.1993 20.8367C55.2045 21.2167 55.0772 21.5699 54.833 21.8572C54.4798 22.2702 53.916 22.5186 53.3264 22.5186C52.8718 22.5186 52.4379 22.3749 52.0768 22.0996C51.2144 21.4472 50.5754 20.8516 50.0688 20.2292C49.557 19.6007 49.0063 19.2954 48.3855 19.2954C47.9854 19.2954 47.562 19.4241 47.0944 19.6905L46.5722 19.9867C45.5228 20.5793 44.4369 21.1928 43.4056 21.8781C42.7718 22.2971 42.0989 22.8178 41.9015 23.4882C41.543 24.6972 40.7377 25.212 39.8857 25.7537C39.5895 25.9422 39.283 26.1367 38.9946 26.3642C37.3347 27.663 35.7319 29.1234 34.181 30.536C33.8745 30.8143 33.568 31.0956 33.2614 31.3739C33.064 31.5535 32.9809 31.8318 32.8977 32.0982C32.8536 32.2418 32.812 32.3765 32.7575 32.4872L32.7237 32.553C32.6302 32.7386 32.5055 32.993 32.3912 33.0409C30.552 33.8399 30.3909 34.1302 30.487 36.4675C30.4922 36.6291 30.4922 36.7937 30.487 36.9583C30.1519 36.9403 29.8844 36.9283 29.6584 36.9283C28.9102 36.9283 28.3595 37.0181 28.0971 37.4551C27.8114 37.9339 27.9543 38.6641 28.3803 39.9869C27.9075 40.1934 27.4373 40.4148 26.9775 40.6303C25.7592 41.2049 24.4993 41.7974 23.2212 42.0758C23.0237 42.1177 22.8185 42.1386 22.5899 42.1386C21.9899 42.1386 21.3716 41.992 20.7144 41.8364C20.2494 41.7256 19.7688 41.6119 19.2986 41.558C19.1245 41.5371 18.9557 41.5281 18.7972 41.5281C17.6257 41.5281 16.745 42.0668 16.1008 43.1741C15.8826 43.5512 15.3318 43.8205 14.8876 43.9462C14.233 44.1287 13.555 44.2724 12.9004 44.4101C12.2301 44.5507 11.534 44.6974 10.8585 44.8889C10.5338 44.9787 10.2818 45.0236 10.087 45.0236H10.0922Z" fill="#A09589"/>
<path d="M10.0922 45.0236C9.63761 45.0236 9.4116 44.8231 9.36485 43.6769C9.33367 42.9586 9.27652 42.2314 9.21937 41.5281C9.14404 40.5884 9.0661 39.6158 9.05831 38.6641C9.04532 37.3294 9.20638 35.9557 9.35186 34.7437C9.49993 33.5077 9.55708 32.8912 9.27133 32.4633C9.01155 32.0712 8.50759 31.9485 7.66852 31.8198C7.70749 31.7241 7.74646 31.6283 7.78282 31.5355C7.96467 31.0866 8.13871 30.6647 8.24782 30.2038C8.35952 29.7339 8.43745 29.2521 8.51279 28.7823C8.63228 28.0461 8.74658 27.3488 8.97258 26.6993C9.39861 25.4843 9.94933 24.4458 10.565 23.6977C11.2196 22.8986 11.6379 22.2372 11.5443 21.6088C11.4664 21.0851 11.069 20.6571 10.1753 20.1304C9.49213 19.7264 9.07909 19.3104 8.99077 18.3707C8.92842 17.7093 8.75178 17.0629 8.58033 16.4404C8.42966 15.8927 8.2738 15.3301 8.20366 14.7705C8.02181 13.346 7.18534 12.6995 6.37485 12.0771C6.04234 11.8227 5.72801 11.5803 5.46045 11.287C3.86803 9.55124 1.8418 9.02752 0 8.80008C1.27289 7.30673 2.73542 6.60644 4.15378 5.9241C4.53046 5.74454 4.92011 5.556 5.29679 5.35849C6.3151 4.8228 7.34121 4.26017 8.33354 3.71251C8.96999 3.36236 9.60643 3.01222 10.2429 2.66806L10.6741 2.43463C11.721 1.86901 12.8017 1.28544 13.8823 0.758727C13.9524 0.725808 14.0538 0.704856 14.1603 0.704856C14.3213 0.704856 14.4772 0.746757 14.5681 0.815589C15.2253 1.30639 15.9449 1.54281 16.7762 1.54281C17.5321 1.54281 18.2933 1.34829 19.031 1.15975L19.3402 1.08194C19.7428 0.980187 20.1481 0.845512 20.5377 0.713834C21.2677 0.468434 21.9587 0.237998 22.6627 0.205078C22.6938 0.205078 22.7276 0.205078 22.7588 0.205078C23.2731 0.205078 23.7979 0.381649 24.3486 0.567195C24.7227 0.692888 25.1097 0.824564 25.4994 0.896388C25.767 0.947264 26.0553 0.968214 26.406 0.968214C26.6502 0.968214 26.8944 0.956243 27.1386 0.944272L27.4321 0.932304C27.7282 0.920333 28.027 0.88741 28.3179 0.854491C28.6582 0.815586 29.0115 0.776683 29.3492 0.776683C29.5051 0.776683 29.648 0.785661 29.7857 0.800625C30.7988 0.926317 31.6119 1.16274 32.2743 1.52485C33.0614 1.9558 33.8044 2.58127 34.3655 3.28755C35.163 4.29309 35.8098 4.72404 36.532 4.72404C37.0048 4.72404 37.5217 4.53849 38.1582 4.13747C38.3608 4.00878 38.5972 3.93696 38.8751 3.85316C38.9453 3.83222 39.0154 3.80827 39.0908 3.78733C39.0985 3.86214 39.1063 3.93098 39.1167 3.99981C39.1479 4.26017 39.1713 4.47265 39.1895 4.68812C39.3012 6.05877 39.8883 6.64833 41.1508 6.65731C41.834 6.6633 42.5431 6.69622 43.0107 7.03738C43.403 7.32169 43.7979 7.46833 44.1849 7.46833C44.7123 7.46833 45.2292 7.20498 45.7643 6.66031C46.0735 6.34907 46.3333 6.18746 46.5385 6.18746C46.6995 6.18746 46.9515 6.27425 47.2658 7.02542C47.3905 7.32169 47.5152 7.61796 47.6399 7.91424C48.1283 9.06642 48.6296 10.2575 49.0583 11.4606C49.7675 13.4627 50.8247 14.3575 52.4873 14.3575H52.5782C54.2122 14.3575 55.6072 15.2314 56.8411 17.033C55.989 17.8799 55.1734 19.0021 55.1993 20.8367C55.2045 21.2167 55.0772 21.5699 54.833 21.8572C54.4798 22.2702 53.916 22.5186 53.3264 22.5186C52.8718 22.5186 52.4379 22.3749 52.0768 22.0996C51.2144 21.4472 50.5754 20.8516 50.0688 20.2292C49.557 19.6007 49.0063 19.2954 48.3855 19.2954C47.9854 19.2954 47.562 19.4241 47.0944 19.6905L46.5722 19.9867C45.5228 20.5793 44.4369 21.1928 43.4056 21.8781C42.7718 22.2971 42.0989 22.8178 41.9015 23.4882C41.543 24.6972 40.7377 25.212 39.8857 25.7537C39.5895 25.9422 39.283 26.1367 38.9946 26.3642C37.3347 27.663 35.7319 29.1234 34.181 30.536C33.8745 30.8143 33.568 31.0956 33.2614 31.3739C33.064 31.5535 32.9809 31.8318 32.8977 32.0982C32.8536 32.2418 32.812 32.3765 32.7575 32.4872L32.7237 32.553C32.6302 32.7386 32.5055 32.993 32.3912 33.0409C30.552 33.8399 30.3909 34.1302 30.487 36.4675C30.4922 36.6291 30.4922 36.7937 30.487 36.9583C30.1519 36.9403 29.8844 36.9283 29.6584 36.9283C28.9102 36.9283 28.3595 37.0181 28.0971 37.4551C27.8114 37.9339 27.9543 38.6641 28.3803 39.9869C27.9075 40.1934 27.4373 40.4148 26.9775 40.6303C25.7592 41.2049 24.4993 41.7974 23.2212 42.0758C23.0237 42.1177 22.8185 42.1386 22.5899 42.1386C21.9899 42.1386 21.3716 41.992 20.7144 41.8364C20.2494 41.7256 19.7688 41.6119 19.2986 41.558C19.1245 41.5371 18.9557 41.5281 18.7972 41.5281C17.6257 41.5281 16.745 42.0668 16.1008 43.1741C15.8826 43.5512 15.3318 43.8205 14.8876 43.9462C14.233 44.1287 13.555 44.2724 12.9004 44.4101C12.2301 44.5507 11.534 44.6974 10.8585 44.8889C10.5338 44.9787 10.2818 45.0236 10.087 45.0236H10.0922Z" fill="#FAEFE3"/>
</svg>
