<svg width="57" height="48" viewBox="0 0 57 48" fill="none" xmlns="http://www.w3.org/2000/svg">
<path d="M56.8608 19.1757C56.8608 19.1757 56.8662 19.1635 56.8635 19.1586C56.8391 19.0164 56.2919 18.7885 56.086 18.7028C54.848 18.1832 54.1898 17.3696 53.8864 15.9826L53.8701 15.9115C53.5152 14.299 53.1495 12.6351 51.432 11.6548C51.0718 11.449 50.725 11.2211 50.3891 10.9981C49.3516 10.3119 48.3709 9.66247 47.0137 9.65757C46.1008 9.65267 45.5211 9.51298 45.2448 9.22381C44.8791 8.84152 44.489 8.65527 44.0556 8.65527C43.5788 8.65527 43.0857 8.87093 42.5358 9.13069C42.2649 9.25812 42.0265 9.31938 41.8044 9.31938C41.3303 9.31938 40.9944 9.03512 40.7181 8.77045C40.3226 8.39061 39.8892 8.22887 39.2715 8.22887C39.109 8.22887 38.9302 8.24112 38.7297 8.26317C38.2692 8.31709 37.8195 8.34404 37.3915 8.34404C35.8095 8.34404 34.4279 7.974 33.2793 7.24617C32.0955 6.49629 31.7352 5.46458 31.6485 4.37406C31.6485 4.37406 31.6485 4.3569 31.6485 4.34955C31.6485 4.3422 31.6485 4.3324 31.6485 4.32505C31.6485 4.3177 31.6485 4.30789 31.6485 4.30054C31.6485 4.29319 31.6485 4.28339 31.6485 4.27603C31.6485 4.26868 31.6485 4.25888 31.6485 4.25153C31.6485 4.24418 31.6485 4.23437 31.6485 4.22702C31.6485 4.21967 31.6485 4.20987 31.6485 4.20252C31.6485 4.19517 31.6485 4.18536 31.6485 4.17801C31.6485 4.17066 31.6485 4.16086 31.6485 4.1535C31.6485 4.14615 31.6485 4.13635 31.6485 4.129C31.6485 4.12165 31.6485 4.11184 31.6485 4.10449C31.6485 4.09714 31.6485 4.08734 31.6485 4.07999C31.6485 4.07264 31.6485 4.06283 31.6485 4.05548C31.6485 4.04813 31.6485 4.03832 31.6485 4.03097C31.6485 4.02362 31.6485 4.01382 31.6485 4.00647C31.6485 3.99912 31.6485 3.98931 31.6485 3.98196C31.6485 3.97461 31.6485 3.96481 31.6485 3.95746C31.6485 3.95011 31.6485 3.9403 31.6485 3.93295C31.6485 3.9256 31.6485 3.91579 31.6485 3.90844C31.6485 3.90109 31.6485 3.89129 31.6485 3.88394C31.6485 3.87659 31.6485 3.86678 31.6485 3.85943C31.6485 3.85208 31.6485 3.84228 31.6485 3.83493C31.6485 3.82758 31.6485 3.81777 31.6485 3.81042C31.6485 3.80307 31.6485 3.79326 31.6485 3.78591C31.6485 3.77856 31.6485 3.76876 31.6485 3.76141C31.6485 3.75406 31.6485 3.74425 31.6485 3.7369C31.6485 3.72955 31.6485 3.71975 31.6485 3.7124C31.6485 3.70505 31.6485 3.69524 31.6485 3.68789C31.6485 3.68054 31.6485 3.67073 31.6485 3.66338C31.6485 3.65603 31.6485 3.64623 31.6485 3.63888C31.6485 3.63153 31.6485 3.62172 31.6485 3.61437C31.6485 3.60702 31.6485 3.59722 31.6485 3.58987C31.6485 3.58251 31.6485 3.57271 31.6485 3.56536C31.6485 3.55801 31.6485 3.5482 31.6485 3.54085C31.6485 3.5335 31.6485 3.5237 31.6485 3.51635C31.6485 3.509 31.6485 3.49919 31.6485 3.49184C31.6485 3.48449 31.6485 3.47469 31.6485 3.46734C31.6485 3.45998 31.6485 3.45018 31.6485 3.44283C31.6485 3.43548 31.6485 3.42567 31.6485 3.41832C31.6485 3.41097 31.6485 3.40117 31.6485 3.39382C31.6485 3.38647 31.6485 3.37666 31.6485 3.36931C31.6485 3.36196 31.6485 3.35216 31.6485 3.34481C31.6485 3.33745 31.6485 3.32765 31.6485 3.3203C31.6485 3.31295 31.6485 3.30314 31.6485 3.29579C31.6485 3.28844 31.6485 3.27864 31.6485 3.27129C31.6485 3.26394 31.6485 3.25413 31.6485 3.24678C31.6485 3.23943 31.6485 3.22963 31.6485 3.22228C31.6485 3.21492 31.6485 3.20512 31.6485 3.19777C31.6485 3.19042 31.6485 3.18061 31.6485 3.17326C31.6485 3.16591 31.6485 3.15611 31.6485 3.14876C31.6485 3.1414 31.6485 3.1316 31.6485 3.12425C31.6485 3.1169 31.6485 3.1071 31.6485 3.09975C31.6485 3.09239 31.6485 3.08259 31.6485 3.07524C31.6485 3.06789 31.6485 3.05808 31.6485 3.05073C31.6485 3.04338 31.6485 3.03358 31.6485 3.02623C31.6485 3.01887 31.6485 3.00907 31.6485 3.00172C31.6485 2.99437 31.6485 2.98457 31.6485 2.97721C31.6485 2.96986 31.6485 2.96006 31.6485 2.95271C31.6485 2.94536 31.6485 2.93555 31.6485 2.9282C31.6485 2.92085 31.6485 2.91105 31.6485 2.9037C31.6485 2.89634 31.6485 2.88654 31.6485 2.87919C31.6485 2.87184 31.6485 2.86204 31.6485 2.85468C31.6485 2.84733 31.6485 2.83753 31.6485 2.83018C31.6485 2.82282 31.6485 2.81302 31.6485 2.80567C31.6485 2.79832 31.6485 2.78852 31.6485 2.78117C31.6485 2.77381 31.6485 2.76401 31.6485 2.75666C31.6485 2.74931 31.6485 2.73951 31.6485 2.73215C31.6485 2.7248 31.6485 2.715 31.6485 2.70765C31.6485 2.70029 31.6485 2.69049 31.6485 2.68314C31.6485 2.67579 31.6485 2.66599 31.6485 2.65863C31.6485 2.65128 31.6485 2.64148 31.6485 2.63413C31.6485 2.62678 31.6485 2.61698 31.6485 2.60962C31.6485 2.60227 31.6485 2.59247 31.6485 2.58512C31.6485 2.57776 31.6485 2.56796 31.6485 2.56061C31.6485 2.55326 31.6485 2.54346 31.6485 2.5361C31.6485 2.3327 31.6485 2.13175 31.6458 1.93325C31.6458 1.80092 31.6458 1.66859 31.6431 1.53626C31.5835 1.5142 31.5239 1.49215 31.467 1.47254C31.3072 1.66614 31.1474 1.85974 30.9903 2.05578C30.5568 2.59002 30.1071 3.14385 29.6168 3.65603C29.2159 4.07508 28.6687 4.64853 28.0727 4.69509C27.8587 4.71224 27.6447 4.7196 27.4361 4.7196C26.8401 4.7196 25.976 4.65098 25.2337 4.3275C24.4915 4.00157 23.7411 3.84473 22.9392 3.84473C22.0426 3.84473 21.1026 4.04568 20.065 4.45983C19.6099 4.64117 19.209 4.7294 18.8433 4.7294C17.8654 4.7294 17.2775 4.07754 16.8305 3.44283C16.5867 3.09484 16.3158 2.73215 15.9962 2.43808C15.7903 2.24938 15.5898 2.03863 15.3975 1.83278C14.9153 1.32306 14.4141 0.793723 13.8371 0.622181C12.9053 0.345262 11.9273 0.203125 10.9358 0.203125C9.54073 0.203125 8.15646 0.475145 6.82094 1.00938C6.05701 1.3157 5.3879 1.45783 4.71608 1.45783C4.30161 1.45783 3.86547 1.40392 3.38327 1.2912C3.302 1.27159 3.19364 1.26179 3.07445 1.26179C2.5462 1.26179 2.08026 1.43088 2.02879 1.5191C1.7877 2.04108 1.71726 2.62678 1.64412 3.24678C1.61432 3.48939 1.58452 3.732 1.5466 3.96971C1.52222 4.10939 1.50867 4.24908 1.49513 4.39121C1.46804 4.68284 1.43824 4.98426 1.32988 5.26853C1.05628 5.98411 0.752874 6.67763 0.40071 7.48143C0.276098 7.7657 0.146068 8.06223 0.0106201 8.3759C0.0133291 8.3759 0.016038 8.3759 0.018747 8.37835C0.016038 8.3857 0.0133291 8.39305 0.0106201 8.40041C0.0133291 8.40041 0.016038 8.40041 0.018747 8.40286C0.016038 8.41021 0.0133291 8.41756 0.0106201 8.42491C0.0133291 8.42491 0.016038 8.42491 0.018747 8.42736C0.016038 8.43472 0.0133291 8.44207 0.0106201 8.44942C0.0133291 8.44942 0.016038 8.44942 0.018747 8.45187C0.016038 8.45922 0.0133291 8.46657 0.0106201 8.47393C0.0133291 8.47393 0.016038 8.47393 0.018747 8.47638C0.016038 8.48373 0.0133291 8.49108 0.0106201 8.49843C0.0133291 8.49843 0.016038 8.49843 0.018747 8.50088C0.016038 8.50823 0.0133291 8.51559 0.0106201 8.52294C0.0133291 8.52294 0.016038 8.52294 0.018747 8.52539C0.016038 8.53274 0.0133291 8.54009 0.0106201 8.54745C0.0133291 8.54745 0.016038 8.54744 0.018747 8.54989C0.016038 8.55725 0.0133291 8.5646 0.0106201 8.57195C0.0133291 8.57195 0.016038 8.57195 0.018747 8.5744C0.016038 8.58175 0.0133291 8.5891 0.0106201 8.59646C0.0133291 8.59646 0.016038 8.59646 0.018747 8.59891C0.016038 8.60626 0.0133291 8.61361 0.0106201 8.62096C0.0133291 8.62096 0.016038 8.62096 0.018747 8.62341C0.016038 8.63076 0.0133291 8.63812 0.0106201 8.64547C0.0133291 8.64547 0.016038 8.64547 0.018747 8.64792C0.016038 8.65527 0.0133291 8.66262 0.0106201 8.66998C0.0133291 8.66998 0.016038 8.66997 0.018747 8.67242C0.016038 8.67978 0.0133291 8.68713 0.0106201 8.69448C0.0133291 8.69448 0.016038 8.69448 0.018747 8.69693C0.016038 8.70428 0.0133291 8.71163 0.0106201 8.71899C0.0133291 8.71899 0.016038 8.71899 0.018747 8.72144C0.016038 8.72879 0.0133291 8.73614 0.0106201 8.74349C0.0133291 8.74349 0.016038 8.74349 0.018747 8.74594C0.016038 8.7533 0.0133291 8.76065 0.0106201 8.768C0.0133291 8.768 0.016038 8.768 0.018747 8.77045C0.016038 8.7778 0.0133291 8.78515 0.0106201 8.79251C0.0133291 8.79251 0.016038 8.7925 0.018747 8.79496C0.016038 8.80231 0.0133291 8.80966 0.0106201 8.81701C0.0133291 8.81701 0.016038 8.81701 0.018747 8.81946C0.016038 8.82681 0.0133291 8.83417 0.0106201 8.84152C0.0133291 8.84152 0.016038 8.84152 0.018747 8.84397C0.016038 8.85132 0.0133291 8.85867 0.0106201 8.86602C0.0133291 8.86602 0.016038 8.86602 0.018747 8.86847C0.016038 8.87583 0.0133291 8.88318 0.0106201 8.89053C0.0133291 8.89053 0.016038 8.89053 0.018747 8.89298C0.016038 8.90033 0.0133291 8.90768 0.0106201 8.91504C0.0133291 8.91504 0.016038 8.91504 0.018747 8.91749C0.016038 8.92484 0.0133291 8.93219 0.0106201 8.93954C0.0133291 8.93954 0.016038 8.93954 0.018747 8.94199C0.016038 8.94934 0.0133291 8.9567 0.0106201 8.96405C0.0133291 8.96405 0.016038 8.96405 0.018747 8.9665C0.016038 8.97385 0.0133291 8.9812 0.0106201 8.98855C0.0133291 8.98855 0.016038 8.98855 0.018747 8.991C0.016038 8.99836 0.0133291 9.00571 0.0106201 9.01306C0.0133291 9.01306 0.016038 9.01306 0.018747 9.01551C0.016038 9.02286 0.0133291 9.03021 0.0106201 9.03757C0.0133291 9.03757 0.016038 9.03757 0.018747 9.04002C0.016038 9.04737 0.0133291 9.05472 0.0106201 9.06207C0.0133291 9.06207 0.016038 9.06207 0.018747 9.06452C0.016038 9.07188 0.0133291 9.07923 0.0106201 9.08658C0.0133291 9.08658 0.016038 9.08658 0.018747 9.08903C0.016038 9.09638 0.0133291 9.10373 0.0106201 9.11109C0.0133291 9.11109 0.016038 9.11108 0.018747 9.11353C0.016038 9.12089 0.0133291 9.12824 0.0106201 9.13559C0.0133291 9.13559 0.016038 9.13559 0.018747 9.13804C0.016038 9.14539 0.0133291 9.15275 0.0106201 9.1601C0.0133291 9.1601 0.016038 9.1601 0.018747 9.16255C0.016038 9.1699 0.0133291 9.17725 0.0106201 9.1846C0.0133291 9.1846 0.016038 9.1846 0.018747 9.18705C0.016038 9.19441 0.0133291 9.20176 0.0106201 9.20911C0.0133291 9.20911 0.016038 9.20911 0.018747 9.21156C0.016038 9.21891 0.0133291 9.22626 0.0106201 9.23362C0.0133291 9.23362 0.016038 9.23361 0.018747 9.23606C0.016038 9.24342 0.0133291 9.25077 0.0106201 9.25812C0.0133291 9.25812 0.016038 9.25812 0.018747 9.26057C0.016038 9.26792 0.0133291 9.27528 0.0106201 9.28263C0.0133291 9.28263 0.016038 9.28263 0.018747 9.28508C0.016038 9.29243 0.0133291 9.29978 0.0106201 9.30713C0.0133291 9.30713 0.016038 9.30713 0.018747 9.30958C0.016038 9.31694 0.0133291 9.32429 0.0106201 9.33164C0.0133291 9.33164 0.016038 9.33164 0.018747 9.33409C0.016038 9.34144 0.0133291 9.34879 0.0106201 9.35615C0.0133291 9.35615 0.016038 9.35614 0.018747 9.3586C0.016038 9.36595 0.0133291 9.3733 0.0106201 9.38065C0.0133291 9.38065 0.016038 9.38065 0.018747 9.3831C0.016038 9.39046 0.0133291 9.39781 0.0106201 9.40516C0.0133291 9.40516 0.016038 9.40516 0.018747 9.40761C0.016038 9.41496 0.0133291 9.42231 0.0106201 9.42967C0.0133291 9.42967 0.016038 9.42966 0.018747 9.43211C0.016038 9.43947 0.0133291 9.44682 0.0106201 9.45417C0.0133291 9.45417 0.016038 9.45417 0.018747 9.45662C0.016038 9.46397 0.0133291 9.47132 0.0106201 9.47868C0.0133291 9.47868 0.016038 9.47867 0.018747 9.48113C0.016038 9.48848 0.0133291 9.49583 0.0106201 9.50318C0.0133291 9.50318 0.016038 9.50318 0.018747 9.50563C0.016038 9.51299 0.0133291 9.52034 0.0106201 9.52769C0.0133291 9.52769 0.016038 9.52769 0.018747 9.53014C0.016038 9.53749 0.0133291 9.54484 0.0106201 9.5522C0.0133291 9.5522 0.016038 9.55219 0.018747 9.55464C0.016038 9.562 0.0133291 9.56935 0.0106201 9.5767C0.0133291 9.5767 0.016038 9.5767 0.018747 9.57915C0.016038 9.5865 0.0133291 9.59385 0.0106201 9.60121C0.0133291 9.60121 0.016038 9.60121 0.018747 9.60366C0.016038 9.61101 0.0133291 9.61836 0.0106201 9.62571C0.0133291 9.62571 0.016038 9.62571 0.018747 9.62816C0.016038 9.63552 0.0133291 9.64287 0.0106201 9.65022C0.0133291 9.65022 0.016038 9.65022 0.018747 9.65267C0.016038 9.66002 0.0133291 9.66737 0.0106201 9.67473C0.0133291 9.67473 0.016038 9.67472 0.018747 9.67718C0.016038 9.68453 0.0133291 9.69188 0.0106201 9.69923C0.0133291 9.69923 0.016038 9.69923 0.018747 9.70168C0.016038 9.70903 0.0133291 9.71639 0.0106201 9.72374C0.0133291 9.72374 0.016038 9.72374 0.018747 9.72619C0.016038 9.73354 0.0133291 9.74089 0.0106201 9.74824C0.0133291 9.74824 0.016038 9.74824 0.018747 9.75069C0.016038 9.75805 0.0133291 9.7654 0.0106201 9.77275C0.0133291 9.77275 0.016038 9.77275 0.018747 9.7752C0.016038 9.78255 0.0133291 9.7899 0.0106201 9.79726C0.0133291 9.79726 0.016038 9.79726 0.018747 9.79971C0.016038 9.80706 0.0133291 9.81441 0.0106201 9.82176C0.0133291 9.82176 0.016038 9.82176 0.018747 9.82421C0.016038 9.83156 0.0133291 9.83892 0.0106201 9.84627C0.0133291 9.84627 0.016038 9.84627 0.018747 9.84872C0.016038 9.85607 0.0133291 9.86342 0.0106201 9.87077C0.0133291 9.87077 0.016038 9.87077 0.018747 9.87322C0.016038 9.88058 0.0133291 9.88793 0.0106201 9.89528C0.0133291 9.89528 0.016038 9.89528 0.018747 9.89773C0.016038 9.90508 0.0133291 9.91243 0.0106201 9.91979C0.0133291 9.91979 0.016038 9.91979 0.018747 9.92224C0.016038 9.92959 0.0133291 9.93694 0.0106201 9.94429C0.0133291 9.94429 0.016038 9.94429 0.018747 9.94674C0.016038 9.9541 0.0133291 9.96145 0.0106201 9.9688C0.0133291 9.9688 0.016038 9.9688 0.018747 9.97125C0.016038 9.9786 0.0133291 9.98595 0.0106201 9.9933C0.0133291 9.9933 0.016038 9.9933 0.018747 9.99576C0.016038 10.0031 0.0133291 10.0105 0.0106201 10.0178C0.0133291 10.0178 0.016038 10.0178 0.018747 10.0203C0.016038 10.0276 0.0133291 10.035 0.0106201 10.0423C0.0133291 10.0423 0.016038 10.0423 0.018747 10.0448C0.016038 10.0521 0.0133291 10.0595 0.0106201 10.0668C0.0133291 10.0668 0.016038 10.0668 0.018747 10.0693C0.016038 10.0766 0.0133291 10.084 0.0106201 10.0913C0.0133291 10.0913 0.016038 10.0913 0.018747 10.0938C0.016038 10.1011 0.0133291 10.1085 0.0106201 10.1158C0.0133291 10.1158 0.016038 10.1158 0.018747 10.1183C0.016038 10.1256 0.0133291 10.133 0.0106201 10.1403C0.0133291 10.1403 0.016038 10.1403 0.018747 10.1428C0.016038 10.1501 0.0133291 10.1575 0.0106201 10.1648C0.0133291 10.1648 0.016038 10.1648 0.018747 10.1673C0.016038 10.1746 0.0133291 10.182 0.0106201 10.1894C0.0133291 10.1894 0.016038 10.1894 0.018747 10.1918C0.016038 10.1992 0.0133291 10.2065 0.0106201 10.2139C0.0133291 10.2139 0.016038 10.2139 0.018747 10.2163C0.016038 10.2237 0.0133291 10.231 0.0106201 10.2384C0.0133291 10.2384 0.016038 10.2384 0.018747 10.2408C0.016038 10.2482 0.0133291 10.2555 0.0106201 10.2629C0.0133291 10.2629 0.016038 10.2629 0.018747 10.2653C0.016038 10.2727 0.0133291 10.28 0.0106201 10.2874C0.0133291 10.2874 0.016038 10.2874 0.018747 10.2898C0.016038 10.2972 0.0133291 10.3045 0.0106201 10.3119C0.0133291 10.3119 0.016038 10.3119 0.018747 10.3143C0.016038 10.3217 0.0133291 10.329 0.0106201 10.3364C0.0133291 10.3364 0.016038 10.3364 0.018747 10.3388C0.016038 10.3462 0.0133291 10.3535 0.0106201 10.3609C0.0133291 10.3609 0.016038 10.3609 0.018747 10.3633C0.016038 10.3707 0.0133291 10.378 0.0106201 10.3854C0.0133291 10.3854 0.016038 10.3854 0.018747 10.3878C0.016038 10.3952 0.0133291 10.4026 0.0106201 10.4099C0.0133291 10.4099 0.016038 10.4099 0.018747 10.4124C0.016038 10.4197 0.0133291 10.4271 0.0106201 10.4344C0.0133291 10.4344 0.016038 10.4344 0.018747 10.4369C0.016038 10.4442 0.0133291 10.4516 0.0106201 10.4589C0.0133291 10.4589 0.016038 10.4589 0.018747 10.4614C0.016038 10.4687 0.0133291 10.4761 0.0106201 10.4834C0.0133291 10.4834 0.016038 10.4834 0.018747 10.4859C0.016038 10.4932 0.0133291 10.5006 0.0106201 10.5079C0.0133291 10.5079 0.016038 10.5079 0.018747 10.5104C0.016038 10.5177 0.0133291 10.5251 0.0106201 10.5324C0.0133291 10.5324 0.016038 10.5324 0.018747 10.5349C0.016038 10.5422 0.0133291 10.5496 0.0106201 10.5569C0.0133291 10.5569 0.016038 10.5569 0.018747 10.5594C0.016038 10.5667 0.0133291 10.5741 0.0106201 10.5815C0.0133291 10.5815 0.016038 10.5814 0.018747 10.5839C0.016038 10.5913 0.0133291 10.5986 0.0106201 10.606C0.0133291 10.606 0.016038 10.606 0.018747 10.6084C0.016038 10.6158 0.0133291 10.6231 0.0106201 10.6305C0.0133291 10.6305 0.016038 10.6305 0.018747 10.6329C0.016038 10.6403 0.0133291 10.6476 0.0106201 10.655C0.0133291 10.655 0.016038 10.655 0.018747 10.6574C0.016038 10.6648 0.0133291 10.6721 0.0106201 10.6795C0.0133291 10.6795 0.016038 10.6795 0.018747 10.6819C0.016038 10.6893 0.0133291 10.6966 0.0106201 10.704C0.0133291 10.704 0.016038 10.704 0.018747 10.7064C0.016038 10.7138 0.0133291 10.7211 0.0106201 10.7285C0.0133291 10.7285 0.016038 10.7285 0.018747 10.7309C0.016038 10.7383 0.0133291 10.7456 0.0106201 10.753C0.0133291 10.753 0.016038 10.753 0.018747 10.7554C0.016038 10.7628 0.0133291 10.7701 0.0106201 10.7775C0.0133291 10.7775 0.016038 10.7775 0.018747 10.7799C0.016038 10.7873 0.0133291 10.7947 0.0106201 10.802C0.0133291 10.802 0.016038 10.802 0.018747 10.8045C0.016038 10.8118 0.0133291 10.8192 0.0106201 10.8265C0.0133291 10.8265 0.016038 10.8265 0.018747 10.829C0.016038 10.8363 0.0133291 10.8437 0.0106201 10.851C0.276098 10.9147 0.53074 10.9883 0.779964 11.0593C1.31634 11.2113 1.82291 11.3558 2.26447 11.3558C2.37012 11.3558 2.47306 11.3485 2.56517 11.3313C2.87941 11.275 3.14217 11.2382 3.39682 11.2382C3.7246 11.2382 4.03613 11.2995 4.40455 11.4367C5.25787 11.7528 5.77799 12.1768 6.25748 12.9536C6.63131 13.5565 7.08913 14.1373 7.53339 14.696C7.96683 15.245 8.41651 15.811 8.79306 16.409C9.00978 16.7521 9.18857 17.1148 9.36465 17.4652C9.8333 18.4038 10.2749 19.2909 11.3503 19.8325C11.6293 19.9722 11.9165 20.3251 12.0709 20.6853C12.0709 20.6902 12.0709 20.6951 12.0709 20.7025C12.0709 20.7098 12.0709 20.7196 12.0709 20.727C12.0709 20.7343 12.0709 20.7441 12.0709 20.7515C12.0709 20.7588 12.0709 20.7686 12.0709 20.776C12.0709 20.7833 12.0709 20.7931 12.0709 20.8005C12.0709 20.8078 12.0709 20.8176 12.0709 20.825C12.0709 20.8323 12.0709 20.8421 12.0709 20.8495C12.0709 20.8568 12.0709 20.8667 12.0709 20.874C12.0709 20.8814 12.0709 20.8912 12.0709 20.8985C12.0709 20.9059 12.0709 20.9157 12.0709 20.923C12.0709 20.9304 12.0709 20.9402 12.0709 20.9475C12.0709 20.9549 12.0709 20.9647 12.0709 20.972C12.0709 20.9794 12.0709 20.9892 12.0709 20.9965C12.0709 21.0039 12.0709 21.0137 12.0709 21.021C12.0709 21.0284 12.0709 21.0382 12.0709 21.0455C12.0709 21.0529 12.0709 21.0627 12.0709 21.0701C12.0709 21.0774 12.0709 21.0872 12.0709 21.0946C12.0709 21.1019 12.0709 21.1117 12.0709 21.1191C12.0709 21.1264 12.0709 21.1362 12.0709 21.1436C12.0709 21.1509 12.0709 21.1607 12.0709 21.1681C12.0709 21.1754 12.0709 21.1852 12.0709 21.1926C12.0709 21.1999 12.0709 21.2097 12.0709 21.2171C12.0709 21.2244 12.0709 21.2342 12.0709 21.2416C12.0709 21.2489 12.0709 21.2587 12.0709 21.2661C12.0709 21.2734 12.0709 21.2833 12.0709 21.2906C12.0709 21.298 12.0709 21.3078 12.0709 21.3151C12.0709 21.3225 12.0709 21.3323 12.0709 21.3396C12.0709 21.347 12.0709 21.3568 12.0709 21.3641C12.0709 21.3715 12.0709 21.3813 12.0709 21.3886C12.0709 21.396 12.0709 21.4058 12.0709 21.4131C12.0709 21.4205 12.0709 21.4303 12.0709 21.4376C12.0709 21.445 12.0709 21.4548 12.0709 21.4621C12.0709 21.4695 12.0709 21.4793 12.0709 21.4867C12.0709 21.494 12.0709 21.5038 12.0709 21.5112C12.0709 21.5185 12.0709 21.5283 12.0709 21.5357C12.0709 21.543 12.0709 21.5528 12.0709 21.5602C12.0709 21.5675 12.0709 21.5773 12.0709 21.5847C12.0709 21.592 12.0709 21.6018 12.0709 21.6092C12.0709 21.6165 12.0709 21.6263 12.0709 21.6337C12.0709 21.641 12.0709 21.6508 12.0709 21.6582C12.0709 21.6655 12.0709 21.6754 12.0709 21.6827C12.0709 21.6901 12.0709 21.6999 12.0709 21.7072C12.0709 21.7146 12.0709 21.7244 12.0709 21.7317C12.0655 22.0454 12.2768 22.2414 12.545 22.4865C12.6723 22.6017 12.8023 22.7193 12.9107 22.859L13.3279 23.3883C13.8263 24.0206 14.322 24.6504 14.8151 25.2826C14.9234 25.4199 15.0155 25.5645 15.1076 25.7041C15.1781 25.812 15.2485 25.9223 15.3271 26.0276C15.5682 26.356 15.8174 26.6819 16.0693 27.0079C16.6003 27.7038 17.1502 28.4219 17.6243 29.1693C17.9791 29.7305 18.2771 30.3284 18.5643 30.9043C18.7972 31.37 19.0356 31.8503 19.3038 32.3036C19.4284 32.5168 19.7535 32.7447 20.0488 32.8232C20.5743 32.9629 20.9807 33.105 21.2488 33.3084C21.2488 33.3084 21.2488 33.3108 21.2488 33.3133C21.2488 33.3206 21.2488 33.3304 21.2488 33.3378C21.2488 33.3451 21.2488 33.3549 21.2488 33.3623C21.2488 33.3696 21.2488 33.3795 21.2488 33.3868C21.2488 33.3942 21.2488 33.404 21.2488 33.4113C21.2488 33.4187 21.2488 33.4285 21.2488 33.4358C21.2488 33.4432 21.2488 33.453 21.2488 33.4603C21.2488 33.4677 21.2488 33.4775 21.2488 33.4848C21.2488 33.4922 21.2488 33.502 21.2488 33.5093C21.2488 33.5167 21.2488 33.5265 21.2488 33.5338C21.2488 33.5412 21.2488 33.551 21.2488 33.5583C21.2488 33.5657 21.2488 33.5755 21.2488 33.5829C21.2488 33.5902 21.2488 33.6 21.2488 33.6074C21.2488 33.6147 21.2488 33.6245 21.2488 33.6319C21.2488 33.6392 21.2488 33.649 21.2488 33.6564C21.2488 33.6637 21.2488 33.6735 21.2488 33.6809C21.2488 33.6882 21.2488 33.698 21.2488 33.7054C21.2488 33.7127 21.2488 33.7225 21.2488 33.7299C21.2488 33.7372 21.2488 33.747 21.2488 33.7544C21.2488 33.7617 21.2488 33.7716 21.2488 33.7789C21.2488 33.7863 21.2488 33.7961 21.2488 33.8034C21.2488 33.8108 21.2488 33.8206 21.2488 33.8279C21.2488 33.8353 21.2488 33.8451 21.2488 33.8524C21.2488 33.8598 21.2488 33.8696 21.2488 33.8769C21.2488 33.8843 21.2488 33.8941 21.2488 33.9014C21.2488 33.9088 21.2488 33.9186 21.2488 33.9259C21.2488 33.9333 21.2488 33.9431 21.2488 33.9504C21.2488 33.9578 21.2488 33.9676 21.2488 33.9749C21.2488 33.9823 21.2488 33.9921 21.2488 33.9995C21.2488 34.0068 21.2488 34.0166 21.2488 34.024C21.2488 34.0313 21.2488 34.0411 21.2488 34.0485C21.2488 34.0558 21.2488 34.0656 21.2488 34.073C21.2488 34.0803 21.2488 34.0901 21.2488 34.0975C21.2488 34.1048 21.2488 34.1146 21.2488 34.122C21.2488 34.1293 21.2488 34.1391 21.2488 34.1465C21.2488 34.1538 21.2488 34.1637 21.2488 34.171C21.2488 34.1784 21.2488 34.1882 21.2488 34.1955C21.2488 34.2029 21.2488 34.2127 21.2488 34.22C21.2488 34.2274 21.2488 34.2372 21.2488 34.2445C21.2488 34.2519 21.2488 34.2617 21.2488 34.269C21.2488 34.2764 21.2488 34.2862 21.2488 34.2935C21.2488 34.3009 21.2488 34.3107 21.2488 34.318C21.2488 34.3254 21.2488 34.3352 21.2488 34.3425C21.2488 34.3499 21.2488 34.3597 21.2488 34.367C21.2488 34.3744 21.2488 34.3842 21.2488 34.3916C21.2488 34.3989 21.2488 34.4087 21.2488 34.4161C21.2488 34.4234 21.2488 34.4332 21.2488 34.4406C21.2488 34.4479 21.2488 34.4577 21.2488 34.4651C21.2488 34.4724 21.2488 34.4822 21.2488 34.4896C21.2488 34.4969 21.2488 34.5067 21.2488 34.5141C21.2488 34.5214 21.2488 34.5312 21.2488 34.5386C21.2488 34.5459 21.2488 34.5557 21.2488 34.5631C21.2488 34.5704 21.2488 34.5802 21.2488 34.5876C21.2488 34.595 21.2488 34.6048 21.2488 34.6121C21.2488 34.6195 21.2488 34.6293 21.2488 34.6366C21.2488 34.644 21.2488 34.6538 21.2488 34.6611C21.2488 34.6685 21.2488 34.6783 21.2488 34.6856C21.2488 34.693 21.2488 34.7028 21.2488 34.7101C21.2488 34.7175 21.2488 34.7273 21.2488 34.7346C21.2488 34.742 21.2488 34.7518 21.2488 34.7591C21.2488 34.7665 21.2488 34.7763 21.2488 34.7837C21.2488 34.791 21.2488 34.8008 21.2488 34.8082C21.2488 34.8155 21.2488 34.8253 21.2488 34.8327C21.2488 34.84 21.2488 34.8498 21.2488 34.8572C21.2488 34.8645 21.2488 34.8743 21.2488 34.8817C21.2488 34.889 21.2488 34.8988 21.2488 34.9062C21.2488 34.9135 21.2488 34.9233 21.2488 34.9307C21.2488 34.938 21.2488 34.9478 21.2488 34.9552C21.2488 34.9625 21.2488 34.9723 21.2488 34.9797C21.2488 34.9871 21.2488 34.9969 21.2488 35.0042C21.2488 35.0116 21.2488 35.0214 21.2488 35.0287C21.2488 35.0361 21.2488 35.0459 21.2488 35.0532C21.2488 35.0606 21.2488 35.0704 21.2488 35.0777C21.2488 35.0851 21.2488 35.0949 21.2488 35.1022C21.2488 35.1096 21.2488 35.1194 21.2488 35.1267C21.2488 35.1341 21.2488 35.1439 21.2488 35.1512C21.2488 35.1586 21.2488 35.1684 21.2488 35.1757C21.2488 35.1831 21.2488 35.1929 21.2488 35.2003C21.2488 35.2076 21.2488 35.2174 21.2488 35.2248C21.2488 35.2321 21.2488 35.2419 21.2488 35.2493C21.2488 35.2566 21.2488 35.2664 21.2488 35.2738C21.2488 35.2811 21.2488 35.2909 21.2488 35.2983C21.2488 35.3056 21.2488 35.3154 21.2488 35.3228C21.2488 35.3301 21.2488 35.3399 21.2488 35.3473C21.2488 35.3546 21.2488 35.3644 21.2488 35.3718C21.2488 35.3792 21.2488 35.389 21.2488 35.3963C21.2353 35.7247 21.4981 35.9158 21.9938 36.1437C22.0615 36.1756 22.132 36.205 22.2024 36.2369C22.3406 36.2957 22.476 36.3569 22.6087 36.4231C23.2318 36.7466 23.6381 37.249 24.0282 37.7342C24.4915 38.3076 24.9276 38.8468 25.7078 39.1482C26.4392 39.4325 26.9295 40.1529 27.4036 40.8514C27.4226 40.8783 27.4415 40.9053 27.4578 40.9322C27.4551 40.9543 27.4496 40.9788 27.4469 41.0008C27.3792 41.5228 27.3196 42.0473 27.2627 42.5717C27.2058 43.0961 27.1462 43.623 27.0758 44.145C27.0623 44.2381 27.0623 44.3312 27.0677 44.4219C27.0677 44.4292 27.0677 44.439 27.0677 44.4464C27.0677 44.4538 27.0677 44.4636 27.0677 44.4709C27.0677 44.4783 27.0677 44.4881 27.0677 44.4954C27.0677 44.5028 27.0677 44.5126 27.0677 44.5199C27.0677 44.5273 27.0677 44.5371 27.0677 44.5444C27.0677 44.5518 27.0677 44.5616 27.0677 44.5689C27.0677 44.5763 27.0677 44.5861 27.0677 44.5934C27.0677 44.6008 27.0677 44.6106 27.0677 44.6179C27.0677 44.6253 27.0677 44.6351 27.0677 44.6424C27.0677 44.6498 27.0677 44.6596 27.0677 44.667C27.0677 44.6743 27.0677 44.6841 27.0677 44.6915C27.0677 44.6988 27.0677 44.7086 27.0677 44.716C27.0677 44.7233 27.0677 44.7331 27.0677 44.7405C27.0677 44.7478 27.0677 44.7576 27.0677 44.765C27.0677 44.7723 27.0677 44.7821 27.0677 44.7895C27.0677 44.7968 27.0677 44.8066 27.0677 44.814C27.0677 44.8213 27.0677 44.8311 27.0677 44.8385C27.0677 44.8458 27.0677 44.8556 27.0677 44.863C27.0677 44.8703 27.0677 44.8802 27.0677 44.8875C27.0677 44.8949 27.0677 44.9047 27.0677 44.912C27.0677 44.9194 27.0677 44.9292 27.0677 44.9365C27.0677 44.9439 27.0677 44.9537 27.0677 44.961C27.0677 44.9684 27.0677 44.9782 27.0677 44.9855C27.0677 44.9929 27.0677 45.0027 27.0677 45.01C27.0677 45.0174 27.0677 45.0272 27.0677 45.0345C27.0677 45.0419 27.0677 45.0517 27.0677 45.0591C27.0677 45.0664 27.0677 45.0762 27.0677 45.0836C27.0677 45.0909 27.0677 45.1007 27.0677 45.1081C27.0677 45.1154 27.0677 45.1252 27.0677 45.1326C27.0677 45.1399 27.0677 45.1497 27.0677 45.1571C27.0677 45.1644 27.0677 45.1742 27.0677 45.1816C27.0677 45.1889 27.0677 45.1987 27.0677 45.2061C27.0677 45.2134 27.0677 45.2232 27.0677 45.2306C27.0677 45.2379 27.0677 45.2477 27.0677 45.2551C27.0677 45.2624 27.0677 45.2723 27.0677 45.2796C27.0677 45.287 27.0677 45.2968 27.0677 45.3041C27.0677 45.3115 27.0677 45.3213 27.0677 45.3286C27.0677 45.336 27.0677 45.3458 27.0677 45.3531C27.0677 45.3605 27.0677 45.3703 27.0677 45.3776C27.0677 45.385 27.0677 45.3948 27.0677 45.4021C27.0677 45.4095 27.0677 45.4193 27.0677 45.4266C27.0677 45.434 27.0677 45.4438 27.0677 45.4511C27.0677 45.4585 27.0677 45.4683 27.0677 45.4757C27.0677 45.483 27.0677 45.4928 27.0677 45.5002C27.0677 45.5075 27.0677 45.5173 27.0677 45.5247C27.0677 45.532 27.0677 45.5418 27.0677 45.5492C27.0677 45.5565 27.0677 45.5663 27.0677 45.5737C27.0677 45.581 27.0677 45.5908 27.0677 45.5982C27.0677 45.6055 27.0677 45.6153 27.0677 45.6227C27.0677 45.63 27.0677 45.6398 27.0677 45.6472C27.0677 45.6545 27.0677 45.6644 27.0677 45.6717C27.0677 45.6791 27.0677 45.6889 27.0677 45.6962C27.0677 45.7036 27.0677 45.7134 27.0677 45.7207C27.0677 45.7281 27.0677 45.7379 27.0677 45.7452C27.0677 45.7526 27.0677 45.7624 27.0677 45.7697C27.0677 45.7771 27.0677 45.7869 27.0677 45.7942C27.0677 45.8016 27.0677 45.8114 27.0677 45.8187C27.0677 45.8261 27.0677 45.8359 27.0677 45.8432C27.0677 45.8506 27.0677 45.8604 27.0677 45.8677C27.0677 45.8751 27.0677 45.8849 27.0677 45.8923C27.0677 45.8996 27.0677 45.9094 27.0677 45.9168C27.0677 45.9241 27.0677 45.9339 27.0677 45.9413C27.0677 45.9486 27.0677 45.9584 27.0677 45.9658C27.0677 45.9731 27.0677 45.9829 27.0677 45.9903C27.0677 45.9976 27.0677 46.0074 27.0677 46.0148C27.0677 46.0221 27.0677 46.0319 27.0677 46.0393C27.0677 46.0466 27.0677 46.0564 27.0677 46.0638C27.0677 46.0712 27.0677 46.0809 27.0677 46.0883C27.0677 46.0957 27.0677 46.1055 27.0677 46.1128C27.0677 46.1202 27.0677 46.13 27.0677 46.1373C27.0677 46.1447 27.0677 46.1545 27.0677 46.1618C27.0677 46.1692 27.0677 46.179 27.0677 46.1863C27.0677 46.1937 27.0677 46.2035 27.0677 46.2108C27.0677 46.2182 27.0677 46.228 27.0677 46.2353C27.0677 46.2427 27.0677 46.2525 27.0677 46.2598C27.0677 46.2672 27.0677 46.277 27.0677 46.2844C27.0677 46.2917 27.0677 46.3015 27.0677 46.3089C27.0677 46.3162 27.0677 46.326 27.0677 46.3334C27.0677 46.3407 27.0677 46.3505 27.0677 46.3579C27.0677 46.3652 27.0677 46.375 27.0677 46.3824C27.0677 46.3897 27.0677 46.3995 27.0677 46.4069C27.0677 46.4142 27.0677 46.424 27.0677 46.4314C27.0677 46.4387 27.0677 46.4485 27.0677 46.4559C27.0677 46.4632 27.0677 46.473 27.0677 46.4804C27.0677 46.4878 27.0677 46.4976 27.0677 46.5049C27.0677 46.5123 27.0677 46.5221 27.0677 46.5294C27.0677 46.5368 27.0677 46.5466 27.0677 46.5539C27.0677 46.5613 27.0677 46.5711 27.0677 46.5784C27.0677 46.5858 27.0677 46.5956 27.0677 46.6029C27.0677 46.6103 27.0677 46.6201 27.0677 46.6274C27.0677 46.6348 27.0677 46.6446 27.0677 46.6519C27.0677 46.6593 27.0677 46.6691 27.0677 46.6765C27.0677 46.6838 27.0677 46.6936 27.0677 46.701C27.0677 46.7083 27.0677 46.7181 27.0677 46.7255C27.0677 46.7328 27.0677 46.7426 27.0677 46.75C27.0677 46.7573 27.0677 46.7671 27.0677 46.7745C27.0677 46.7818 27.0677 46.7916 27.0677 46.799C27.0677 46.8063 27.0677 46.8161 27.0677 46.8235C27.0677 46.8308 27.0677 46.8406 27.0677 46.848C27.0677 46.8553 27.0677 46.8651 27.0677 46.8725C27.0839 47.1494 27.1842 47.4043 27.3603 47.5832C27.4551 47.6812 27.6176 47.7988 27.8343 47.7988C27.8587 47.7988 27.8858 47.7988 27.9102 47.7939C28.712 47.6935 29.5085 47.3871 30.2805 47.0882C30.592 46.9681 30.9117 46.8455 31.2314 46.7353C31.3722 46.6863 31.5158 46.6152 31.6702 46.5417C31.9655 46.3971 32.2716 46.2476 32.5912 46.2476C32.621 46.2476 32.6481 46.2476 32.6779 46.2525C32.8676 46.2696 33.0274 46.277 33.1655 46.277C33.5177 46.277 33.7398 46.2231 33.8645 46.1055C34.008 45.9731 34.0785 45.7232 34.0839 45.309C34.0839 45.3017 34.0839 45.2919 34.0839 45.2845C34.0839 45.2771 34.0839 45.2674 34.0839 45.26C34.0839 45.2527 34.0839 45.2428 34.0839 45.2355C34.0839 45.2281 34.0839 45.2183 34.0839 45.211C34.0839 45.2036 34.0839 45.1938 34.0839 45.1865C34.0839 45.1791 34.0839 45.1693 34.0839 45.162C34.0839 45.1546 34.0839 45.1448 34.0839 45.1375C34.0839 45.1301 34.0839 45.1203 34.0839 45.113C34.0839 45.1056 34.0839 45.0958 34.0839 45.0885C34.0839 45.0811 34.0839 45.0713 34.0839 45.0639C34.0839 45.0566 34.0839 45.0468 34.0839 45.0394C34.0839 45.0321 34.0839 45.0223 34.0839 45.0149C34.0839 45.0076 34.0839 44.9978 34.0839 44.9904C34.0839 44.9831 34.0839 44.9733 34.0839 44.9659C34.0839 44.9586 34.0839 44.9488 34.0839 44.9414C34.0839 44.9341 34.0839 44.9243 34.0839 44.9169C34.0839 44.9096 34.0839 44.8998 34.0839 44.8924C34.0839 44.8851 34.0839 44.8753 34.0839 44.8679C34.0839 44.8605 34.0839 44.8507 34.0839 44.8434C34.0839 44.836 34.0839 44.8262 34.0839 44.8189C34.0839 44.8115 34.0839 44.8017 34.0839 44.7944C34.0839 44.787 34.0839 44.7772 34.0839 44.7699C34.0839 44.7625 34.0839 44.7527 34.0839 44.7454C34.0839 44.738 34.0839 44.7282 34.0839 44.7209C34.0839 44.7135 34.0839 44.7037 34.0839 44.6964C34.0839 44.689 34.0839 44.6792 34.0839 44.6719C34.0839 44.6645 34.0839 44.6547 34.0839 44.6474C34.0839 44.64 34.0839 44.6302 34.0839 44.6228C34.0839 44.6155 34.0839 44.6057 34.0839 44.5983C34.0839 44.591 34.0839 44.5812 34.0839 44.5738C34.0839 44.5665 34.0839 44.5567 34.0839 44.5493C34.0839 44.542 34.0839 44.5322 34.0839 44.5248C34.0839 44.5175 34.0839 44.5077 34.0839 44.5003C34.0839 44.493 34.0839 44.4832 34.0839 44.4758C34.0839 44.4685 34.0839 44.4586 34.0839 44.4513C34.0839 44.4439 34.0839 44.4341 34.0839 44.4268C34.0839 44.4194 34.0839 44.4096 34.0839 44.4023C34.0839 44.3949 34.0839 44.3851 34.0839 44.3778C34.0839 44.3704 34.0839 44.3606 34.0839 44.3533C34.0839 44.3459 34.0839 44.3361 34.0839 44.3288C34.0839 44.3214 34.0839 44.3116 34.0839 44.3043C34.0839 44.2969 34.0839 44.2871 34.0839 44.2798C34.0839 44.2724 34.0839 44.2626 34.0839 44.2553C34.0839 44.2479 34.0839 44.2381 34.0839 44.2307C34.0839 44.2234 34.0839 44.2136 34.0839 44.2062C34.0839 44.1989 34.0839 44.1891 34.0839 44.1817C34.0839 44.1744 34.0839 44.1646 34.0839 44.1572C34.0839 44.1499 34.0839 44.1401 34.0839 44.1327C34.0839 44.1254 34.0839 44.1156 34.0839 44.1082C34.0839 44.1009 34.0839 44.0911 34.0839 44.0837C34.0839 44.0764 34.0839 44.0666 34.0839 44.0592C34.0839 44.0518 34.0839 44.042 34.0839 44.0347C34.0839 44.0273 34.0839 44.0175 34.0839 44.0102C34.0839 44.0028 34.0839 43.993 34.0839 43.9857C34.0839 43.9783 34.0839 43.9685 34.0839 43.9612C34.0839 43.9538 34.0839 43.944 34.0839 43.9367C34.0839 43.9293 34.0839 43.9195 34.0839 43.9122C34.0839 43.9048 34.0839 43.895 34.0839 43.8877C34.0839 43.8803 34.0839 43.8705 34.0839 43.8632C34.0839 43.8558 34.0839 43.846 34.0839 43.8386C34.0839 43.8313 34.0839 43.8215 34.0839 43.8141C34.0839 43.8068 34.0839 43.797 34.0839 43.7896C34.0839 43.7823 34.0839 43.7725 34.0839 43.7651C34.0839 43.7578 34.0839 43.748 34.0839 43.7406C34.0839 43.7333 34.0839 43.7235 34.0839 43.7161C34.0839 43.7088 34.0839 43.699 34.0839 43.6916C34.0839 43.6843 34.0839 43.6745 34.0839 43.6671C34.0839 43.6598 34.0839 43.65 34.0839 43.6426C34.0839 43.6352 34.0839 43.6254 34.0839 43.6181C34.0839 43.6107 34.0839 43.6009 34.0839 43.5936C34.0839 43.5862 34.0839 43.5764 34.0839 43.5691C34.0839 43.5617 34.0839 43.5519 34.0839 43.5446C34.0839 43.5372 34.0839 43.5274 34.0839 43.5201C34.0839 43.5127 34.0839 43.5029 34.0839 43.4956C34.0839 43.4882 34.0839 43.4784 34.0839 43.4711C34.0839 43.4637 34.0839 43.4539 34.0839 43.4465C34.0839 43.4392 34.0839 43.4294 34.0839 43.422C34.0839 43.4147 34.0839 43.4049 34.0839 43.3975C34.0839 43.3902 34.0839 43.3804 34.0839 43.373C34.0839 43.3657 34.0839 43.3559 34.0839 43.3485C34.0839 43.3412 34.0839 43.3314 34.0839 43.324C34.0839 43.3167 34.0839 43.3069 34.0839 43.2995C34.0839 43.2922 34.0839 43.2824 34.0839 43.275C34.0839 43.2677 34.0839 43.2579 34.0839 43.2505C34.0839 43.2431 34.0839 43.2333 34.0839 43.226C34.0839 43.2186 34.0839 43.2088 34.0839 43.2015C34.0839 43.1941 34.0839 43.1843 34.0839 43.177C34.0839 43.1696 34.0839 43.1598 34.0839 43.1525C34.0839 43.1451 34.0839 43.1353 34.0839 43.128C34.0839 43.1206 34.0839 43.1108 34.0839 43.1035C34.0839 43.0961 34.0839 43.0863 34.0839 43.079C34.0839 43.0716 34.0839 43.0618 34.0839 43.0545C34.0839 43.0471 34.0839 43.0373 34.0839 43.0299C34.0839 43.0226 34.0839 43.0128 34.0839 43.0054C34.0839 42.9981 34.0839 42.9883 34.0839 42.9809C34.0839 42.9736 34.0839 42.9638 34.0839 42.9564C34.0839 42.9491 34.0839 42.9393 34.0839 42.9319C34.0839 42.9246 34.0839 42.9148 34.0839 42.9074C34.0839 42.9001 34.0839 42.8903 34.0839 42.8829C34.0839 42.8756 34.0839 42.8658 34.0839 42.8584C34.0839 42.802 34.0839 42.7408 34.0839 42.6771C34.0839 42.6452 34.0812 42.6133 34.0785 42.5839C34.1191 41.9517 34.1624 41.3243 34.2085 40.7141C34.2275 40.4617 34.2464 40.2117 34.2654 39.9691C34.2654 39.9618 34.2654 39.952 34.2654 39.9446C34.2654 39.9373 34.2654 39.9275 34.2654 39.9201C34.2654 39.9128 34.2654 39.903 34.2654 39.8956C34.2654 39.8883 34.2654 39.8785 34.2654 39.8711C34.2654 39.8638 34.2654 39.854 34.2654 39.8466C34.2654 39.8393 34.2654 39.8295 34.2654 39.8221C34.2654 39.8148 34.2654 39.8049 34.2654 39.7976C34.2654 39.7902 34.2654 39.7804 34.2654 39.7731C34.2654 39.7657 34.2654 39.7559 34.2654 39.7486C34.2654 39.7412 34.2654 39.7314 34.2654 39.7241C34.2654 39.7167 34.2654 39.7069 34.2654 39.6996C34.2654 39.6922 34.2654 39.6824 34.2654 39.6751C34.2654 39.6677 34.2654 39.6579 34.2654 39.6506C34.2654 39.6432 34.2654 39.6334 34.2654 39.626C34.2654 39.6187 34.2654 39.6089 34.2654 39.6015C34.2654 39.5942 34.2654 39.5844 34.2654 39.577C34.2654 39.5697 34.2654 39.5599 34.2654 39.5525C34.2654 39.5452 34.2654 39.5354 34.2654 39.528C34.2654 39.5207 34.2654 39.5109 34.2654 39.5035C34.2654 39.4962 34.2654 39.4864 34.2654 39.479C34.2654 39.4717 34.2654 39.4619 34.2654 39.4545C34.2654 39.4472 34.2654 39.4374 34.2654 39.43C34.2654 39.4227 34.2654 39.4128 34.2654 39.4055C34.2654 39.3981 34.2654 39.3883 34.2654 39.381C34.2654 39.3736 34.2654 39.3638 34.2654 39.3565C34.2654 39.3491 34.2654 39.3393 34.2654 39.332C34.2654 39.3246 34.2654 39.3148 34.2654 39.3075C34.2654 39.3001 34.2654 39.2903 34.2654 39.283C34.2654 39.2756 34.2654 39.2658 34.2654 39.2585C34.2654 39.2511 34.2654 39.2413 34.2654 39.234C34.2654 39.2266 34.2654 39.2168 34.2654 39.2094C34.2654 39.2021 34.2654 39.1923 34.2654 39.1849C34.2654 39.1776 34.2654 39.1678 34.2654 39.1604C34.2654 39.1531 34.2654 39.1433 34.2654 39.1359C34.2654 39.1286 34.2654 39.1188 34.2654 39.1114C34.2654 39.1041 34.2654 39.0943 34.2654 39.0869C34.2654 39.0796 34.2654 39.0698 34.2654 39.0624C34.2654 39.0551 34.2654 39.0453 34.2654 39.0379C34.2654 39.0306 34.2654 39.0207 34.2654 39.0134C34.2654 39.006 34.2654 38.9962 34.2654 38.9889C34.2654 38.9815 34.2654 38.9717 34.2654 38.9644C34.2654 38.957 34.2654 38.9472 34.2654 38.9399C34.2654 38.9325 34.2654 38.9227 34.2654 38.9154C34.2654 38.908 34.2654 38.8982 34.2654 38.8909C34.2654 38.8835 34.2654 38.8737 34.2654 38.8664C34.2654 38.859 34.2654 38.8492 34.2654 38.8419C34.2654 38.8345 34.2654 38.8247 34.2654 38.8174C34.2654 38.81 34.2654 38.8002 34.2654 38.7928C34.2654 38.7855 34.2654 38.7757 34.2654 38.7683C34.2654 38.761 34.2654 38.7512 34.2654 38.7438C34.2654 38.7365 34.2654 38.7267 34.2654 38.7193C34.2654 38.712 34.2654 38.7022 34.2654 38.6948C34.2654 38.6875 34.2654 38.6777 34.2654 38.6703C34.2654 38.663 34.2654 38.6532 34.2654 38.6458C34.2654 38.6385 34.2654 38.6287 34.2654 38.6213C34.2654 38.6139 34.2654 38.6042 34.2654 38.5968C34.2654 38.5894 34.2654 38.5796 34.2654 38.5723C34.2654 38.5649 34.2654 38.5551 34.2654 38.5478C34.2654 38.5404 34.2654 38.5306 34.2654 38.5233C34.2654 38.5159 34.2654 38.5061 34.2654 38.4988C34.2654 38.4914 34.2654 38.4816 34.2654 38.4743C34.2654 38.4669 34.2654 38.4571 34.2654 38.4498C34.2654 38.4424 34.2654 38.4326 34.2654 38.4253C34.2654 38.4179 34.2654 38.4081 34.2654 38.4007C34.2654 38.3934 34.2654 38.3836 34.2654 38.3762C34.2654 38.3689 34.2654 38.3591 34.2654 38.3517C34.2654 38.3444 34.2654 38.3346 34.2654 38.3272C34.2654 38.3199 34.2654 38.3101 34.2654 38.3027C34.2654 38.2954 34.2654 38.2856 34.2654 38.2782C34.2654 38.2709 34.2654 38.2611 34.2654 38.2537C34.2654 38.2464 34.2654 38.2366 34.2654 38.2292C34.2654 38.2219 34.2654 38.2121 34.2654 38.2047C34.2654 38.1973 34.2654 38.1875 34.2654 38.1802C34.2654 38.1728 34.2654 38.163 34.2654 38.1557C34.2654 38.1483 34.2654 38.1385 34.2654 38.1312C34.2654 38.1238 34.2654 38.114 34.2654 38.1067C34.2654 38.0993 34.2654 38.0895 34.2654 38.0822C34.2654 38.0748 34.2654 38.065 34.2654 38.0577C34.2654 38.0503 34.2654 38.0405 34.2654 38.0332C34.2654 38.0258 34.2654 38.016 34.2654 38.0086C34.2654 38.0013 34.2654 37.9915 34.2654 37.9841C34.2654 37.9768 34.2654 37.967 34.2654 37.9596C34.2654 37.9523 34.2654 37.9425 34.2654 37.9351C34.2654 37.9278 34.2654 37.918 34.2654 37.9106C34.2654 37.9033 34.2654 37.8935 34.2654 37.8861C34.2654 37.8788 34.2654 37.869 34.2654 37.8616C34.2654 37.8543 34.2654 37.8445 34.2654 37.8371C34.2654 37.8298 34.2654 37.82 34.2654 37.8126C34.2654 37.8052 34.2654 37.7954 34.2654 37.7881C34.2654 37.7807 34.2654 37.7709 34.2654 37.7636C34.2654 37.7562 34.2654 37.7464 34.2654 37.7391C34.2654 37.7317 34.2654 37.7219 34.2654 37.7146C34.2654 37.7072 34.2654 37.6974 34.2654 37.6901C34.2654 37.6827 34.2654 37.6729 34.2654 37.6656C34.2654 37.6582 34.2654 37.6484 34.2654 37.6411C34.2654 37.6337 34.2654 37.6239 34.2654 37.6166C34.2654 37.6092 34.2654 37.5994 34.2654 37.592C34.2654 37.5847 34.2654 37.5749 34.2654 37.5675C34.2654 37.5602 34.2654 37.5504 34.2654 37.543C34.2654 37.5357 34.2654 37.5259 34.2654 37.5185C34.2654 37.5112 34.2654 37.5014 34.2654 37.494C34.1272 37.445 33.9837 37.4034 33.8428 37.3617C33.3958 37.2294 33.0111 37.1142 32.9272 36.8373C32.3474 34.9307 31.486 33.6931 30.1369 32.8256C29.9961 32.7374 29.9527 32.5879 29.9148 32.4703C29.9013 32.4262 29.8904 32.3845 29.8687 32.3453C29.4299 31.4778 28.7066 30.9999 27.8343 30.9999C27.5201 30.9999 27.1896 31.0612 26.851 31.1837L26.6234 31.2646L26.5449 31.0563C26.4825 30.8847 26.4257 30.7083 26.3715 30.5294C26.255 30.152 26.1466 29.7967 25.9516 29.4903C25.9001 29.4095 25.8541 29.3286 25.8107 29.2502C25.8812 29.1227 25.9624 28.9978 26.0545 28.8679C26.2956 28.5346 26.404 28.3018 26.3904 28.1597C26.3904 28.1523 26.3904 28.1425 26.3904 28.1352C26.3904 28.1278 26.3904 28.118 26.3904 28.1106C26.3904 28.1033 26.3904 28.0935 26.3904 28.0861C26.3904 28.0788 26.3904 28.069 26.3904 28.0616C26.3904 28.0543 26.3904 28.0445 26.3904 28.0371C26.3904 28.0298 26.3904 28.02 26.3904 28.0126C26.3904 28.0053 26.3904 27.9955 26.3904 27.9881C26.3904 27.9808 26.3904 27.971 26.3904 27.9636C26.3904 27.9563 26.3904 27.9465 26.3904 27.9391C26.3904 27.9317 26.3904 27.922 26.3904 27.9146C26.3904 27.9072 26.3904 27.8974 26.3904 27.8901C26.3904 27.8827 26.3904 27.8729 26.3904 27.8656C26.3904 27.8582 26.3904 27.8484 26.3904 27.8411C26.3904 27.8337 26.3904 27.8239 26.3904 27.8166C26.3904 27.8092 26.3904 27.7994 26.3904 27.7921C26.3904 27.7847 26.3904 27.7749 26.3904 27.7676C26.3904 27.7602 26.3904 27.7504 26.3904 27.7431C26.3904 27.7357 26.3904 27.7259 26.3904 27.7185C26.3904 27.7112 26.3904 27.7014 26.3904 27.694C26.3904 27.6867 26.3904 27.6769 26.3904 27.6695C26.3904 27.6622 26.3904 27.6524 26.3904 27.645C26.3904 27.6377 26.3904 27.6279 26.3904 27.6205C26.3904 27.6132 26.3904 27.6034 26.3904 27.596C26.3904 27.5887 26.3904 27.5789 26.3904 27.5715C26.3904 27.5642 26.3904 27.5544 26.3904 27.547C26.3904 27.5397 26.3904 27.5299 26.3904 27.5225C26.3904 27.5151 26.3904 27.5053 26.3904 27.498C26.3904 27.4906 26.3904 27.4808 26.3904 27.4735C26.3904 27.4661 26.3904 27.4563 26.3904 27.449C26.3904 27.4416 26.3904 27.4318 26.3904 27.4245C26.3904 27.4171 26.3904 27.4073 26.3904 27.4C26.3904 27.3926 26.3904 27.3828 26.3904 27.3755C26.3904 27.3681 26.3904 27.3583 26.3904 27.351C26.3904 27.3436 26.3904 27.3338 26.3904 27.3265C26.3904 27.3191 26.3904 27.3093 26.3904 27.3019C26.3904 27.2946 26.3904 27.2848 26.3904 27.2774C26.3904 27.2701 26.3904 27.2603 26.3904 27.2529C26.3904 27.2456 26.3904 27.2358 26.3904 27.2284C26.3904 27.2211 26.3904 27.2113 26.3904 27.2039C26.3904 27.1966 26.3904 27.1868 26.3904 27.1794C26.3904 27.1721 26.3904 27.1623 26.3904 27.1549C26.3904 27.1476 26.3904 27.1378 26.3904 27.1304C26.3904 27.1231 26.3904 27.1132 26.3904 27.1059C26.3904 27.0985 26.3904 27.0887 26.3904 27.0814C26.3904 27.074 26.3904 27.0642 26.3904 27.0569C26.3904 27.0495 26.3904 27.0397 26.3904 27.0324C26.3904 27.025 26.3904 27.0152 26.3904 27.0079C26.3904 27.0005 26.3904 26.9907 26.3904 26.9834C26.3904 26.976 26.3904 26.9662 26.3904 26.9589C26.3904 26.9515 26.3904 26.9417 26.3904 26.9344C26.3904 26.927 26.3904 26.9172 26.3904 26.9098C26.3904 26.9025 26.3904 26.8927 26.3904 26.8853C26.3904 26.878 26.3904 26.8682 26.3904 26.8608C26.3904 26.8535 26.3904 26.8437 26.3904 26.8363C26.3904 26.829 26.3904 26.8192 26.3904 26.8118C26.3904 26.8045 26.3904 26.7947 26.3904 26.7873C26.3904 26.78 26.3904 26.7702 26.3904 26.7628C26.3904 26.7555 26.3904 26.7457 26.3904 26.7383C26.3904 26.731 26.3904 26.7212 26.3904 26.7138C26.3904 26.7064 26.3904 26.6966 26.3904 26.6893C26.3904 26.6819 26.3904 26.6721 26.3904 26.6648C26.3904 26.6574 26.3904 26.6476 26.3904 26.6403C26.3904 26.6329 26.3904 26.6231 26.3904 26.6158C26.3904 26.6084 26.3904 26.5986 26.3904 26.5913C26.3904 26.5839 26.3904 26.5741 26.3904 26.5668C26.3904 26.5594 26.3904 26.5496 26.3904 26.5423C26.3904 26.5349 26.3904 26.5251 26.3904 26.5178C26.3904 26.5104 26.3904 26.5006 26.3904 26.4932C26.3904 26.4859 26.3904 26.4761 26.3904 26.4687C26.3904 26.4614 26.3904 26.4516 26.3904 26.4442C26.3904 26.4369 26.3904 26.4271 26.3904 26.4197C26.3904 26.4124 26.3904 26.4026 26.3904 26.3952C26.3904 26.3879 26.3904 26.3781 26.3904 26.3707C26.3904 26.3634 26.3904 26.3536 26.3904 26.3462C26.3904 26.3389 26.3904 26.3291 26.3904 26.3217C26.3904 26.3144 26.3904 26.3045 26.3904 26.2972C26.3904 26.2898 26.3904 26.28 26.3904 26.2727C26.3904 26.2653 26.3904 26.2555 26.3904 26.2482C26.3904 26.2408 26.3904 26.231 26.3904 26.2237C26.3904 26.2163 26.3904 26.2065 26.3904 26.1992C26.3904 26.1918 26.3904 26.182 26.3904 26.1747C26.3904 26.1673 26.3904 26.1575 26.3904 26.1502C26.3904 26.1428 26.3904 26.133 26.3904 26.1257C26.3904 26.1183 26.3904 26.1085 26.3904 26.1011C26.3904 26.0938 26.3904 26.084 26.3904 26.0766C26.3904 26.0693 26.3904 26.0595 26.3904 26.0521C26.3904 26.0448 26.3904 26.035 26.3904 26.0276C26.3904 26.0203 26.3904 26.0105 26.3904 26.0031C26.3904 25.9958 26.3904 25.986 26.3904 25.9786C26.3904 25.9713 26.3904 25.9615 26.3904 25.9541C26.3904 25.9468 26.3904 25.937 26.3904 25.9296C26.3904 25.9223 26.3904 25.9125 26.3904 25.9051C26.3904 25.8977 26.3904 25.8879 26.3904 25.8806C26.3904 25.8732 26.3904 25.8634 26.3904 25.8561C26.3904 25.8487 26.3904 25.8389 26.3904 25.8316C26.3904 25.8242 26.3904 25.8144 26.3904 25.8071C26.3904 25.7997 26.3904 25.7899 26.3904 25.7826C26.3904 25.7752 26.3904 25.7654 26.3904 25.7581C26.3904 25.7507 26.3904 25.7409 26.3904 25.7336C26.3904 25.7262 26.3904 25.7164 26.3904 25.7091C26.3904 25.6796 26.3877 25.6551 26.3769 25.6331C26.3227 25.5007 26.0708 25.3782 25.5832 25.2532C24.5456 24.9837 23.8982 24.5034 23.6083 23.7829C23.6083 23.7412 23.6138 23.6971 23.6138 23.6554C23.6138 23.6481 23.6138 23.6383 23.6138 23.6309C23.6138 23.6236 23.6138 23.6138 23.6138 23.6064C23.6138 23.5991 23.6138 23.5893 23.6138 23.5819C23.6138 23.5746 23.6138 23.5648 23.6138 23.5574C23.6138 23.5501 23.6138 23.5403 23.6138 23.5329C23.6138 23.5256 23.6138 23.5158 23.6138 23.5084C23.6138 23.5011 23.6138 23.4913 23.6138 23.4839C23.6138 23.4765 23.6138 23.4667 23.6138 23.4594C23.6138 23.452 23.6138 23.4422 23.6138 23.4349C23.6138 23.4275 23.6138 23.4177 23.6138 23.4104C23.6138 23.403 23.6138 23.3932 23.6138 23.3859C23.6138 23.3785 23.6138 23.3687 23.6138 23.3614C23.6138 23.354 23.6138 23.3442 23.6138 23.3369C23.6138 23.3295 23.6138 23.3197 23.6138 23.3124C23.6138 23.305 23.6138 23.2952 23.6138 23.2878C23.6138 23.2805 23.6138 23.2707 23.6138 23.2633C23.6138 23.256 23.6138 23.2462 23.6138 23.2388C23.6138 23.2315 23.6138 23.2217 23.6138 23.2143C23.6138 23.207 23.6138 23.1972 23.6138 23.1898C23.6138 23.1825 23.6138 23.1727 23.6138 23.1653C23.6138 23.158 23.6138 23.1482 23.6138 23.1408C23.6138 23.1335 23.6138 23.1237 23.6138 23.1163C23.6138 23.109 23.6138 23.0992 23.6138 23.0918C23.6138 23.0845 23.6138 23.0746 23.6138 23.0673C23.6138 23.0599 23.6138 23.0501 23.6138 23.0428C23.6138 23.0354 23.6138 23.0256 23.6138 23.0183C23.6138 23.0109 23.6138 23.0011 23.6138 22.9938C23.6138 22.9864 23.6138 22.9766 23.6138 22.9693C23.6138 22.9619 23.6138 22.9521 23.6138 22.9448C23.6138 22.9374 23.6138 22.9276 23.6138 22.9203C23.6138 22.9129 23.6138 22.9031 23.6138 22.8958C23.6138 22.8884 23.6138 22.8786 23.6138 22.8712C23.6138 22.8639 23.6138 22.8541 23.6138 22.8467C23.6138 22.8394 23.6138 22.8296 23.6138 22.8222C23.6138 22.8149 23.6138 22.8051 23.6138 22.7977C23.6138 22.7904 23.6138 22.7806 23.6138 22.7732C23.6138 22.7659 23.6138 22.7561 23.6138 22.7487C23.6138 22.7414 23.6138 22.7316 23.6138 22.7242C23.6138 22.7169 23.6138 22.7071 23.6138 22.6997C23.6138 22.6924 23.6138 22.6825 23.6138 22.6752C23.6138 22.6678 23.6138 22.658 23.6138 22.6507C23.6138 22.6433 23.6138 22.6335 23.6138 22.6262C23.6138 22.6188 23.6138 22.609 23.6138 22.6017C23.6138 22.5943 23.6138 22.5845 23.6138 22.5772C23.6138 22.5698 23.6138 22.56 23.6138 22.5527C23.6138 22.5453 23.6138 22.5355 23.6138 22.5282C23.6138 22.5208 23.6138 22.511 23.6138 22.5037C23.6138 22.4963 23.6138 22.4865 23.6138 22.4792C23.6138 22.4718 23.6138 22.462 23.6138 22.4546C23.6138 22.4473 23.6138 22.4375 23.6138 22.4301C23.6138 22.4228 23.6138 22.413 23.6138 22.4056C23.6138 22.3983 23.6138 22.3885 23.6138 22.3811C23.6138 22.3738 23.6138 22.364 23.6138 22.3566C23.6138 22.3493 23.6138 22.3395 23.6138 22.3321C23.6138 22.3248 23.6138 22.315 23.6138 22.3076C23.6138 22.3003 23.6138 22.2905 23.6138 22.2831C23.6138 22.2758 23.6138 22.2659 23.6138 22.2586C23.6138 22.2512 23.6138 22.2414 23.6138 22.2341C23.6138 22.2267 23.6138 22.2169 23.6138 22.2096C23.6138 22.2022 23.6138 22.1924 23.6138 22.1851C23.6138 22.1777 23.6138 22.1679 23.6138 22.1606C23.6138 22.1532 23.6138 22.1434 23.6138 22.1361C23.6138 22.1287 23.6138 22.1189 23.6138 22.1116C23.6138 22.1042 23.6138 22.0944 23.6138 22.0871C23.6138 22.0797 23.6138 22.0699 23.6138 22.0625C23.6138 22.0552 23.6138 22.0454 23.6138 22.038C23.6138 22.0307 23.6138 22.0209 23.6138 22.0135C23.6138 22.0062 23.6138 21.9964 23.6138 21.989C23.6138 21.9817 23.6138 21.9719 23.6138 21.9645C23.6138 21.9572 23.6138 21.9474 23.6138 21.94C23.6138 21.9327 23.6138 21.9229 23.6138 21.9155C23.6138 21.9082 23.6138 21.8984 23.6138 21.891C23.6138 21.8837 23.6138 21.8739 23.6138 21.8665C23.6138 21.8591 23.6138 21.8493 23.6138 21.842C23.6138 21.8346 23.6138 21.8248 23.6138 21.8175C23.6138 21.8101 23.6138 21.8003 23.6138 21.793C23.6138 21.7856 23.6138 21.7758 23.6138 21.7685C23.6138 21.7611 23.6138 21.7513 23.6138 21.744C23.6138 21.7366 23.6138 21.7268 23.6138 21.7195C23.6138 21.7121 23.6138 21.7023 23.6138 21.695C23.6138 21.6876 23.6138 21.6778 23.6138 21.6705C23.6138 21.6631 23.6138 21.6533 23.6138 21.6459C23.6138 21.6386 23.6138 21.6288 23.6138 21.6214C23.6138 21.6141 23.6138 21.6043 23.6138 21.5969C23.6138 21.5896 23.6138 21.5798 23.6138 21.5724C23.6138 21.5651 23.6138 21.5553 23.6138 21.5479C23.6138 21.5406 23.6138 21.5308 23.6138 21.5234C23.6138 21.5161 23.6138 21.5063 23.6138 21.4989C23.6138 21.4916 23.6138 21.4818 23.6138 21.4744C23.6138 21.467 23.6138 21.4572 23.6138 21.4499C23.6138 21.4425 23.6138 21.4327 23.6138 21.4254C23.6138 21.418 23.6138 21.4082 23.6138 21.4009C23.6138 21.3935 23.6138 21.3837 23.6138 21.3764C23.6138 21.369 23.6138 21.3592 23.6138 21.3519C23.6138 21.3445 23.6138 21.3347 23.6138 21.3274C23.6138 21.32 23.6138 21.3102 23.6138 21.3029C23.6138 21.2955 23.6138 21.2857 23.6138 21.2784C23.6138 21.271 23.6138 21.2612 23.6138 21.2538C23.6138 21.2465 23.6138 21.2367 23.6138 21.2293C23.6138 21.222 23.6138 21.2122 23.6138 21.2048C23.6138 21.124 23.6056 21.0455 23.5894 20.9696C23.5731 20.8961 23.5677 20.8152 23.565 20.7343C23.565 20.727 23.565 20.7196 23.565 20.7123C23.565 20.7049 23.565 20.6951 23.565 20.6878C23.565 20.6804 23.565 20.6706 23.565 20.6632C23.565 20.6559 23.565 20.6461 23.565 20.6387C23.565 20.6314 23.565 20.6216 23.565 20.6142C23.565 20.6069 23.565 20.5971 23.565 20.5897C23.565 20.5824 23.565 20.5726 23.565 20.5652C23.565 20.5579 23.565 20.5481 23.565 20.5407C23.565 20.5334 23.565 20.5236 23.565 20.5162C23.565 20.5089 23.565 20.4991 23.565 20.4917C23.565 20.4844 23.565 20.4746 23.565 20.4672C23.565 20.4598 23.565 20.45 23.565 20.4427C23.565 20.4353 23.565 20.4255 23.565 20.4182C23.565 20.4108 23.565 20.401 23.565 20.3937C23.565 20.3863 23.565 20.3765 23.565 20.3692C23.565 20.3618 23.565 20.352 23.565 20.3447C23.565 20.3373 23.565 20.3275 23.565 20.3202C23.565 20.3128 23.565 20.303 23.565 20.2957C23.565 20.2883 23.565 20.2785 23.565 20.2712C23.565 20.2638 23.565 20.254 23.565 20.2466C23.565 20.2393 23.565 20.2295 23.565 20.2221C23.565 20.1315 23.5596 20.0457 23.546 19.9648C23.6056 19.9477 23.6679 19.9281 23.7275 19.9109C24.2802 19.7443 24.8057 19.5874 25.2716 19.3375C25.7863 19.063 26.2469 18.9282 26.6776 18.9282C27.1327 18.9282 27.5526 19.0728 27.9643 19.3693C28.349 19.6487 28.7337 19.7835 29.14 19.7835C29.5762 19.7835 30.0475 19.6315 30.6679 19.2934C31.2422 18.9797 31.7 18.7689 32.0793 18.7689C32.7511 18.7689 33.0382 19.384 33.3985 20.3202C33.7182 21.146 34.4523 22.1655 34.8559 22.1753C36.7414 22.2243 37.3942 23.2928 38.0254 24.3269C38.169 24.5622 38.3153 24.8023 38.4778 25.0302C39.0223 24.5867 39.6535 24.1676 40.3795 24.1676C40.7804 24.1676 41.1678 24.2901 41.5579 24.5426L42.1322 23.577L42.3408 23.702C42.7282 23.9348 43.1047 24.1505 43.4731 24.3612C44.2723 24.8195 45.0281 25.2508 45.7216 25.7605C46.3961 26.2555 47.0652 26.4736 47.8914 26.4736C48.1921 26.4736 48.5172 26.4442 48.8856 26.3854C49.8419 26.231 50.8334 26.2139 51.7923 26.1967C52.3531 26.1869 52.9328 26.1771 53.4963 26.1379C53.5965 26.1306 53.8593 25.9076 53.8782 25.7899C54.1437 24.2215 55.2029 23.1433 56.2025 22.2929C56.403 22.1214 56.877 21.7219 56.85 21.5749L56.8473 21.57C56.8473 21.5651 56.8527 21.5577 56.85 21.5528L56.8473 21.5479C56.8473 21.543 56.8527 21.5357 56.85 21.5308L56.8473 21.5259C56.8473 21.521 56.8527 21.5136 56.85 21.5063L56.8473 21.5014C56.8473 21.4965 56.8527 21.4891 56.85 21.4842L56.8473 21.4793C56.8473 21.4744 56.8527 21.467 56.85 21.4621L56.8473 21.4572C56.8473 21.4523 56.8527 21.445 56.85 21.4401L56.8473 21.4352C56.8473 21.4303 56.8527 21.4229 56.85 21.418L56.8473 21.4131C56.8473 21.4082 56.8527 21.4009 56.85 21.396L56.8473 21.3911C56.8473 21.3862 56.8527 21.3788 56.85 21.3715L56.8473 21.3666C56.8473 21.3617 56.8527 21.3543 56.85 21.3494L56.8473 21.3445C56.8473 21.3396 56.8527 21.3323 56.85 21.3274L56.8473 21.3225C56.8473 21.3176 56.8527 21.3102 56.85 21.3053L56.8473 21.3004C56.8473 21.2955 56.8527 21.2882 56.85 21.2833L56.8473 21.2784C56.8473 21.2735 56.8527 21.2661 56.85 21.2612L56.8473 21.2563C56.8473 21.2514 56.8527 21.244 56.85 21.2367L56.8473 21.2318C56.8473 21.2269 56.8527 21.2195 56.85 21.2146L56.8473 21.2097C56.8473 21.2048 56.8527 21.1975 56.85 21.1926L56.8473 21.1877C56.8473 21.1828 56.8527 21.1754 56.85 21.1705L56.8473 21.1656C56.8473 21.1607 56.8527 21.1534 56.85 21.1485L56.8473 21.1436C56.8473 21.1387 56.8527 21.1313 56.85 21.124L56.8473 21.1191C56.8473 21.1142 56.8527 21.1068 56.85 21.1019L56.8473 21.097C56.8473 21.0921 56.8527 21.0848 56.85 21.0799L56.8473 21.075C56.8473 21.07 56.8527 21.0627 56.85 21.0578L56.8473 21.0529C56.8473 21.048 56.8527 21.0406 56.85 21.0357L56.8473 21.0308C56.8473 21.0259 56.8527 21.0186 56.85 21.0137L56.8473 21.0088C56.8473 21.0039 56.8527 20.9965 56.85 20.9892L56.8473 20.9843C56.8473 20.9794 56.8527 20.972 56.85 20.9671L56.8473 20.9622C56.8473 20.9573 56.8527 20.95 56.85 20.9451L56.8473 20.9402C56.8473 20.9353 56.8527 20.9279 56.85 20.923L56.8473 20.9181C56.8473 20.9132 56.8527 20.9059 56.85 20.901L56.8473 20.8961C56.8473 20.8912 56.8527 20.8838 56.85 20.8765L56.8473 20.8715C56.8473 20.8666 56.8527 20.8593 56.85 20.8544L56.8473 20.8495C56.8473 20.8446 56.8527 20.8372 56.85 20.8323L56.8473 20.8274C56.8473 20.8225 56.8527 20.8152 56.85 20.8103L56.8473 20.8054C56.8473 20.8005 56.8527 20.7931 56.85 20.7882L56.8473 20.7833C56.8473 20.7784 56.8527 20.7711 56.85 20.7662L56.8473 20.7613C56.8473 20.7564 56.8527 20.749 56.85 20.7417L56.8473 20.7368C56.8473 20.7319 56.8527 20.7245 56.85 20.7196L56.8473 20.7147C56.8473 20.7098 56.8527 20.7025 56.85 20.6976L56.8473 20.6927C56.8473 20.6878 56.8527 20.6804 56.85 20.6755L56.8473 20.6706C56.8473 20.6657 56.8527 20.6583 56.85 20.6534L56.8473 20.6485C56.8473 20.6436 56.8527 20.6363 56.85 20.6314L56.8473 20.6265C56.8473 20.6216 56.8527 20.6142 56.85 20.6069L56.8473 20.602C56.8473 20.5971 56.8527 20.5897 56.85 20.5848L56.8473 20.5799C56.8473 20.575 56.8527 20.5677 56.85 20.5628L56.8473 20.5579C56.8473 20.553 56.8527 20.5456 56.85 20.5407L56.8473 20.5358C56.8473 20.5309 56.8527 20.5236 56.85 20.5187L56.8473 20.5138C56.8473 20.5089 56.8527 20.5015 56.85 20.4942L56.8473 20.4893C56.8473 20.4844 56.8527 20.477 56.85 20.4721L56.8473 20.4672C56.8473 20.4623 56.8527 20.4549 56.85 20.45L56.8473 20.4451C56.8473 20.4402 56.8527 20.4329 56.85 20.428L56.8473 20.4231C56.8473 20.4182 56.8527 20.4108 56.85 20.4059L56.8473 20.401C56.8473 20.3961 56.8527 20.3888 56.85 20.3839L56.8473 20.379C56.8473 20.3741 56.8527 20.3667 56.85 20.3594L56.8473 20.3545C56.8473 20.3496 56.8527 20.3422 56.85 20.3373L56.8473 20.3324C56.8473 20.3275 56.8527 20.3202 56.85 20.3153L56.8473 20.3104C56.8473 20.3055 56.8527 20.2981 56.85 20.2932L56.8473 20.2883C56.8473 20.2834 56.8527 20.2761 56.85 20.2712L56.8473 20.2662C56.8473 20.2613 56.8527 20.254 56.85 20.2466L56.8473 20.2417C56.8473 20.2368 56.8527 20.2295 56.85 20.2246L56.8473 20.2197C56.8473 20.2148 56.8527 20.2074 56.85 20.2025L56.8473 20.1976C56.8473 20.1927 56.8527 20.1854 56.85 20.1805L56.8473 20.1756C56.8473 20.1707 56.8527 20.1633 56.85 20.1584L56.8473 20.1535C56.8473 20.1486 56.8527 20.1413 56.85 20.1364L56.8473 20.1315C56.8473 20.1266 56.8527 20.1192 56.85 20.1119L56.8473 20.107C56.8473 20.1021 56.8527 20.0947 56.85 20.0898L56.8473 20.0849C56.8473 20.08 56.8527 20.0727 56.85 20.0678L56.8473 20.0629C56.8473 20.058 56.8527 20.0506 56.85 20.0457L56.8473 20.0408C56.8473 20.0359 56.8527 20.0285 56.85 20.0236L56.8473 20.0187C56.8473 20.0138 56.8527 20.0065 56.85 20.0016L56.8473 19.9967C56.8473 19.9918 56.8527 19.9844 56.85 19.9771L56.8473 19.9722C56.8473 19.9673 56.8527 19.9599 56.85 19.955L56.8473 19.9501C56.8473 19.9452 56.8527 19.9379 56.85 19.933L56.8473 19.9281C56.8473 19.9232 56.8527 19.9158 56.85 19.9109L56.8473 19.906C56.8473 19.9011 56.8527 19.8938 56.85 19.8889L56.8473 19.884C56.8473 19.8791 56.8527 19.8717 56.85 19.8643L56.8473 19.8595C56.8473 19.8545 56.8527 19.8472 56.85 19.8423L56.8473 19.8374C56.8473 19.8325 56.8527 19.8251 56.85 19.8202L56.8473 19.8153C56.8473 19.8104 56.8527 19.8031 56.85 19.7982L56.8473 19.7933C56.8473 19.7884 56.8527 19.781 56.85 19.7761L56.8473 19.7712C56.8473 19.7663 56.8527 19.759 56.85 19.7541L56.8473 19.7492C56.8473 19.7443 56.8527 19.7369 56.85 19.7296L56.8473 19.7247C56.8473 19.7198 56.8527 19.7124 56.85 19.7075L56.8473 19.7026C56.8473 19.6977 56.8527 19.6904 56.85 19.6855L56.8473 19.6806C56.8473 19.6757 56.8527 19.6683 56.85 19.6634L56.8473 19.6585C56.8473 19.6536 56.8527 19.6462 56.85 19.6413L56.8473 19.6364C56.8473 19.6315 56.8527 19.6242 56.85 19.6168L56.8473 19.6119C56.8473 19.607 56.8527 19.5997 56.85 19.5948L56.8473 19.5899C56.8473 19.585 56.8527 19.5776 56.85 19.5727L56.8473 19.5678C56.8473 19.5629 56.8527 19.5556 56.85 19.5507L56.8473 19.5458C56.8473 19.5409 56.8527 19.5335 56.85 19.5286L56.8473 19.5237C56.8473 19.5188 56.8527 19.5115 56.85 19.5066L56.8473 19.5017C56.8473 19.4968 56.8527 19.4894 56.85 19.4821L56.8473 19.4772C56.8473 19.4723 56.8527 19.4649 56.85 19.46L56.8473 19.4551C56.8473 19.4502 56.8527 19.4428 56.85 19.4379L56.8473 19.433C56.8473 19.4281 56.8527 19.4208 56.85 19.4159L56.8473 19.411C56.8473 19.4061 56.8527 19.3987 56.85 19.3938L56.8473 19.3889C56.8473 19.384 56.8527 19.3767 56.85 19.3718L56.8473 19.3669C56.8473 19.362 56.8527 19.3546 56.85 19.3473L56.8473 19.3424C56.8473 19.3375 56.8527 19.3301 56.85 19.3252L56.8473 19.3203L56.8608 19.1757Z" fill="#D6C393"/>
<path d="M27.8291 45.2825C27.6097 45.2825 27.4499 45.1648 27.355 45.0668C27.1275 44.834 27.0191 44.4738 27.0706 44.1037C27.141 43.5793 27.1979 43.0549 27.2575 42.5304C27.3144 42.006 27.374 41.4816 27.4417 40.9596C27.4878 40.619 27.5636 40.2734 27.6368 39.9377C27.6612 39.8225 27.6882 39.7073 27.7126 39.5897C27.7749 39.5775 27.8372 39.5652 27.8995 39.5505L28.2409 39.4745L28.0269 39.2221C27.8074 38.9624 27.6016 38.656 27.3984 38.362C26.9243 37.6635 26.434 36.9431 25.7026 36.6588C24.9224 36.3574 24.4863 35.8182 24.023 35.2448C23.6302 34.7596 23.2266 34.2572 22.6035 33.9337C22.4735 33.8651 22.3354 33.8063 22.1972 33.7475C22.1268 33.7181 22.0563 33.6862 21.9886 33.6543C21.333 33.3529 21.0838 33.1201 21.3412 32.5418C21.6392 31.8752 21.6906 31.4708 21.5172 31.1474C21.3087 30.7553 20.7967 30.5543 20.0409 30.3534C19.7456 30.275 19.4205 30.047 19.2959 29.8338C19.0304 29.378 18.7893 28.8977 18.5564 28.4345C18.2692 27.8587 17.9685 27.2607 17.6163 26.6995C17.1423 25.9521 16.5924 25.2341 16.0614 24.5381C15.8122 24.2121 15.563 23.8862 15.3192 23.5578C15.2433 23.4525 15.1729 23.3446 15.0997 23.2344C15.0103 23.0947 14.9155 22.9501 14.8072 22.8129C14.3141 22.1781 13.8184 21.5483 13.3199 20.9185L12.9028 20.3892C12.7917 20.2495 12.6617 20.1319 12.5371 20.0167C12.1822 19.6932 11.9248 19.4604 12.1388 18.9213C12.3176 18.4704 11.8165 17.6151 11.3397 17.375C10.2642 16.8334 9.82268 15.9462 9.35403 15.0077C9.17795 14.6572 8.99916 14.2945 8.78244 13.9515C8.40589 13.3535 7.95621 12.7874 7.52277 12.2385C7.07851 11.6773 6.62069 11.0989 6.24686 10.4961C5.76737 9.71926 5.24725 9.2953 4.39393 8.97917C4.02551 8.84194 3.71398 8.78067 3.3862 8.78067C3.12885 8.78067 2.86879 8.81743 2.55455 8.8738C2.45973 8.89095 2.3595 8.8983 2.25385 8.8983C1.81229 8.8983 1.30572 8.75372 0.769344 8.60178C0.52012 8.53071 0.265478 8.45719 0 8.39348C0.135448 8.0798 0.265478 7.78328 0.39009 7.49901C0.742254 6.69521 1.04566 6.00169 1.31926 5.28611C1.42762 5.00184 1.45742 4.70041 1.48451 4.40879C1.49805 4.26665 1.5116 4.12697 1.53598 3.98729C1.57661 3.74958 1.6037 3.50697 1.6335 3.26436C1.70935 2.64435 1.77978 2.05866 2.01817 1.53668C2.06964 1.44601 2.53558 1.27936 3.06383 1.27936C3.18573 1.27936 3.29138 1.28917 3.37265 1.30877C3.85214 1.41905 4.28828 1.47541 4.70546 1.47541C5.37728 1.47541 6.04639 1.33328 6.81032 1.02695C8.14854 0.492719 9.53282 0.220703 10.9252 0.220703C11.9167 0.220703 12.8946 0.360386 13.8265 0.639755C14.4035 0.811297 14.902 1.34063 15.3869 1.85036C15.5819 2.05621 15.7824 2.26696 15.9856 2.45566C16.3052 2.74973 16.5761 3.11242 16.8199 3.46041C17.2669 4.09756 17.8574 4.74698 18.8327 4.74698C19.2011 4.74698 19.5993 4.65875 20.0544 4.47741C21.0919 4.06325 22.0319 3.86231 22.9286 3.86231C23.7305 3.86231 24.4808 4.0216 25.2231 4.34508C25.9654 4.66856 26.8295 4.73717 27.4255 4.73717C27.6341 4.73717 27.8481 4.72982 28.0621 4.71267C28.6581 4.66856 29.2053 4.09266 29.6062 3.67361C30.0938 3.16143 30.5435 2.60759 30.9796 2.07336C31.1368 1.87731 31.2966 1.68371 31.4564 1.49012C31.516 1.51217 31.5756 1.53423 31.6325 1.55383C31.6325 1.68617 31.6325 1.8185 31.6352 1.95083C31.6379 2.34538 31.6433 2.75218 31.6271 3.14918C31.5675 4.65875 31.646 6.21734 33.2687 7.24414C34.4173 7.97197 35.8016 8.34202 37.3809 8.34202C37.8089 8.34202 38.2586 8.31506 38.7191 8.26115C38.9196 8.23909 39.0984 8.22684 39.2609 8.22684C39.8786 8.22684 40.312 8.38858 40.7075 8.76842C40.9838 9.03308 41.317 9.31736 41.7938 9.31736C42.0159 9.31736 42.257 9.25609 42.5252 9.12866C43.0751 8.86889 43.5682 8.65324 44.0449 8.65324C44.4784 8.65324 44.8658 8.83949 45.2342 9.22178C45.5105 9.51095 46.0875 9.65064 47.0031 9.65554C48.3603 9.66044 49.3409 10.3099 50.3785 10.996C50.7144 11.219 51.0611 11.4469 51.4214 11.6528C53.1389 12.6306 53.5046 14.297 53.8595 15.9095L53.8757 15.9806C54.1791 17.3676 54.8374 18.1812 56.0754 18.7007C56.2813 18.7865 56.8258 19.0144 56.8529 19.1565C56.88 19.3036 56.4059 19.703 56.2054 19.8746C55.2058 20.7249 54.1466 21.8032 53.8812 23.3716C53.8622 23.4892 53.6021 23.7122 53.4992 23.7196C52.9357 23.7563 52.356 23.7686 51.7953 23.7784C50.8363 23.7955 49.8448 23.8127 48.8885 23.9671C48.5201 24.0259 48.1951 24.0553 47.8944 24.0553C47.0681 24.0553 46.399 23.8348 45.7245 23.3422C45.031 22.8325 44.2752 22.4012 43.4761 21.9429C43.1076 21.7321 42.7284 21.5165 42.3437 21.2837L42.1351 21.1587L41.5608 22.1242C41.1707 21.8718 40.7834 21.7493 40.3824 21.7493C39.6564 21.7493 39.0252 22.1708 38.4807 22.6119C38.3182 22.3864 38.1719 22.1438 38.0283 21.9086C37.3972 20.8744 36.7443 19.806 34.8589 19.7569C34.4552 19.7471 33.7211 18.7277 33.4014 17.9018C33.0411 16.9657 32.754 16.3506 32.0822 16.3506C31.7056 16.3506 31.2451 16.5589 30.6708 16.875C30.0505 17.2132 29.5791 17.3652 29.143 17.3652C28.7366 17.3652 28.3519 17.2304 27.9673 16.951C27.5582 16.6545 27.1383 16.5099 26.6805 16.5099C26.2227 16.5099 25.7866 16.6447 25.2746 16.9191C24.8086 17.1691 24.2858 17.3259 23.7305 17.4926C23.3322 17.6127 22.9178 17.7352 22.5277 17.8969C22.1999 18.0342 21.9371 18.2645 21.6852 18.49C21.5741 18.588 21.4658 18.686 21.352 18.7743L21.0621 18.9973L21.4143 19.1271C21.5281 19.1688 21.6419 19.2252 21.7638 19.2815C22.0401 19.4139 22.3272 19.5511 22.6333 19.5511C22.6523 19.5511 22.6713 19.5511 22.6902 19.5511C22.739 19.5486 22.7877 19.5462 22.8338 19.5462C23.1101 19.5462 23.3025 19.5977 23.4108 19.6957C23.5788 19.8501 23.5706 20.1588 23.5652 20.4554C23.5598 20.6392 23.5571 20.8303 23.5923 20.9994C23.6546 21.2812 23.5923 21.5949 23.53 21.9257C23.4894 22.1365 23.4487 22.3546 23.4379 22.5727C23.3675 24.0038 24.0501 24.8567 25.5861 25.2561C26.0737 25.3835 26.3256 25.5036 26.3798 25.636C26.434 25.7707 26.3284 26.0182 26.0575 26.3956C25.3071 27.4347 25.2746 28.41 25.9545 29.4687C26.1496 29.775 26.2606 30.1304 26.3744 30.5078C26.4286 30.6842 26.4828 30.8606 26.5478 31.0346L26.6263 31.2429L26.8539 31.1621C27.1925 31.0395 27.523 30.9783 27.8372 30.9783C28.7095 30.9783 29.4328 31.4561 29.8717 32.3237C29.8906 32.3629 29.9042 32.4045 29.9177 32.4486C29.9529 32.5687 29.999 32.7158 30.1399 32.804C31.4889 33.6715 32.3504 34.909 32.9301 36.8156C33.0141 37.0925 33.3987 37.2077 33.8457 37.3401C33.9866 37.3817 34.1301 37.4258 34.2683 37.4724C34.2493 37.715 34.2304 37.965 34.2114 38.2174C34.1464 39.0775 34.076 39.9671 34.0326 40.8665C34.0137 41.2439 34.0326 41.6262 34.0543 41.9962C34.0651 42.207 34.0787 42.4202 34.0814 42.6309C34.0922 43.1406 34.0245 43.4347 33.862 43.5842C33.7346 43.7018 33.5125 43.7557 33.1631 43.7557C33.0249 43.7557 32.8651 43.7484 32.6754 43.7312C32.6456 43.7288 32.6186 43.7263 32.5888 43.7263C32.2691 43.7263 31.963 43.8758 31.6677 44.0204C31.5133 44.0964 31.3697 44.1674 31.2289 44.214C30.9092 44.3243 30.5868 44.4468 30.278 44.5669C29.506 44.8634 28.7068 45.1722 27.9077 45.2727C27.8806 45.2751 27.8562 45.2776 27.8318 45.2776L27.8291 45.2825Z" fill="#A09589"/>
<path d="M27.8291 45.2825C27.6097 45.2825 27.4499 45.1648 27.355 45.0668C27.1275 44.834 27.0191 44.4738 27.0706 44.1037C27.141 43.5793 27.1979 43.0549 27.2575 42.5304C27.3144 42.006 27.374 41.4816 27.4417 40.9596C27.4878 40.619 27.5636 40.2734 27.6368 39.9377C27.6612 39.8225 27.6882 39.7073 27.7126 39.5897C27.7749 39.5775 27.8372 39.5652 27.8995 39.5505L28.2409 39.4745L28.0269 39.2221C27.8074 38.9624 27.6016 38.656 27.3984 38.362C26.9243 37.6635 26.434 36.9431 25.7026 36.6588C24.9224 36.3574 24.4863 35.8182 24.023 35.2448C23.6302 34.7596 23.2266 34.2572 22.6035 33.9337C22.4735 33.8651 22.3354 33.8063 22.1972 33.7475C22.1268 33.7181 22.0563 33.6862 21.9886 33.6543C21.333 33.3529 21.0838 33.1201 21.3412 32.5418C21.6392 31.8752 21.6906 31.4708 21.5172 31.1474C21.3087 30.7553 20.7967 30.5543 20.0409 30.3534C19.7456 30.275 19.4205 30.047 19.2959 29.8338C19.0304 29.378 18.7893 28.8977 18.5564 28.4345C18.2692 27.8587 17.9685 27.2607 17.6163 26.6995C17.1423 25.9521 16.5924 25.2341 16.0614 24.5381C15.8122 24.2121 15.563 23.8862 15.3192 23.5578C15.2433 23.4525 15.1729 23.3446 15.0997 23.2344C15.0103 23.0947 14.9155 22.9501 14.8072 22.8129C14.3141 22.1781 13.8184 21.5483 13.3199 20.9185L12.9028 20.3892C12.7917 20.2495 12.6617 20.1319 12.5371 20.0167C12.1822 19.6932 11.9248 19.4604 12.1388 18.9213C12.3176 18.4704 11.8165 17.6151 11.3397 17.375C10.2642 16.8334 9.82268 15.9462 9.35403 15.0077C9.17795 14.6572 8.99916 14.2945 8.78244 13.9515C8.40589 13.3535 7.95621 12.7874 7.52277 12.2385C7.07851 11.6773 6.62069 11.0989 6.24686 10.4961C5.76737 9.71926 5.24725 9.2953 4.39393 8.97917C4.02551 8.84194 3.71398 8.78067 3.3862 8.78067C3.12885 8.78067 2.86879 8.81743 2.55455 8.8738C2.45973 8.89095 2.3595 8.8983 2.25385 8.8983C1.81229 8.8983 1.30572 8.75372 0.769344 8.60178C0.52012 8.53071 0.265478 8.45719 0 8.39348C0.135448 8.0798 0.265478 7.78328 0.39009 7.49901C0.742254 6.69521 1.04566 6.00169 1.31926 5.28611C1.42762 5.00184 1.45742 4.70041 1.48451 4.40879C1.49805 4.26665 1.5116 4.12697 1.53598 3.98729C1.57661 3.74958 1.6037 3.50697 1.6335 3.26436C1.70935 2.64435 1.77978 2.05866 2.01817 1.53668C2.06964 1.44601 2.53558 1.27936 3.06383 1.27936C3.18573 1.27936 3.29138 1.28917 3.37265 1.30877C3.85214 1.41905 4.28828 1.47541 4.70546 1.47541C5.37728 1.47541 6.04639 1.33328 6.81032 1.02695C8.14854 0.492719 9.53282 0.220703 10.9252 0.220703C11.9167 0.220703 12.8946 0.360386 13.8265 0.639755C14.4035 0.811297 14.902 1.34063 15.3869 1.85036C15.5819 2.05621 15.7824 2.26696 15.9856 2.45566C16.3052 2.74973 16.5761 3.11242 16.8199 3.46041C17.2669 4.09756 17.8574 4.74698 18.8327 4.74698C19.2011 4.74698 19.5993 4.65875 20.0544 4.47741C21.0919 4.06325 22.0319 3.86231 22.9286 3.86231C23.7305 3.86231 24.4808 4.0216 25.2231 4.34508C25.9654 4.66856 26.8295 4.73717 27.4255 4.73717C27.6341 4.73717 27.8481 4.72982 28.0621 4.71267C28.6581 4.66856 29.2053 4.09266 29.6062 3.67361C30.0938 3.16143 30.5435 2.60759 30.9796 2.07336C31.1368 1.87731 31.2966 1.68371 31.4564 1.49012C31.516 1.51217 31.5756 1.53423 31.6325 1.55383C31.6325 1.68617 31.6325 1.8185 31.6352 1.95083C31.6379 2.34538 31.6433 2.75218 31.6271 3.14918C31.5675 4.65875 31.646 6.21734 33.2687 7.24414C34.4173 7.97197 35.8016 8.34202 37.3809 8.34202C37.8089 8.34202 38.2586 8.31506 38.7191 8.26115C38.9196 8.23909 39.0984 8.22684 39.2609 8.22684C39.8786 8.22684 40.312 8.38858 40.7075 8.76842C40.9838 9.03308 41.317 9.31736 41.7938 9.31736C42.0159 9.31736 42.257 9.25609 42.5252 9.12866C43.0751 8.86889 43.5682 8.65324 44.0449 8.65324C44.4784 8.65324 44.8658 8.83949 45.2342 9.22178C45.5105 9.51095 46.0875 9.65064 47.0031 9.65554C48.3603 9.66044 49.3409 10.3099 50.3785 10.996C50.7144 11.219 51.0611 11.4469 51.4214 11.6528C53.1389 12.6306 53.5046 14.297 53.8595 15.9095L53.8757 15.9806C54.1791 17.3676 54.8374 18.1812 56.0754 18.7007C56.2813 18.7865 56.8258 19.0144 56.8529 19.1565C56.88 19.3036 56.4059 19.703 56.2054 19.8746C55.2058 20.7249 54.1466 21.8032 53.8812 23.3716C53.8622 23.4892 53.6021 23.7122 53.4992 23.7196C52.9357 23.7563 52.356 23.7686 51.7953 23.7784C50.8363 23.7955 49.8448 23.8127 48.8885 23.9671C48.5201 24.0259 48.1951 24.0553 47.8944 24.0553C47.0681 24.0553 46.399 23.8348 45.7245 23.3422C45.031 22.8325 44.2752 22.4012 43.4761 21.9429C43.1076 21.7321 42.7284 21.5165 42.3437 21.2837L42.1351 21.1587L41.5608 22.1242C41.1707 21.8718 40.7834 21.7493 40.3824 21.7493C39.6564 21.7493 39.0252 22.1708 38.4807 22.6119C38.3182 22.3864 38.1719 22.1438 38.0283 21.9086C37.3972 20.8744 36.7443 19.806 34.8589 19.7569C34.4552 19.7471 33.7211 18.7277 33.4014 17.9018C33.0411 16.9657 32.754 16.3506 32.0822 16.3506C31.7056 16.3506 31.2451 16.5589 30.6708 16.875C30.0505 17.2132 29.5791 17.3652 29.143 17.3652C28.7366 17.3652 28.3519 17.2304 27.9673 16.951C27.5582 16.6545 27.1383 16.5099 26.6805 16.5099C26.2227 16.5099 25.7866 16.6447 25.2746 16.9191C24.8086 17.1691 24.2858 17.3259 23.7305 17.4926C23.3322 17.6127 22.9178 17.7352 22.5277 17.8969C22.1999 18.0342 21.9371 18.2645 21.6852 18.49C21.5741 18.588 21.4658 18.686 21.352 18.7743L21.0621 18.9973L21.4143 19.1271C21.5281 19.1688 21.6419 19.2252 21.7638 19.2815C22.0401 19.4139 22.3272 19.5511 22.6333 19.5511C22.6523 19.5511 22.6713 19.5511 22.6902 19.5511C22.739 19.5486 22.7877 19.5462 22.8338 19.5462C23.1101 19.5462 23.3025 19.5977 23.4108 19.6957C23.5788 19.8501 23.5706 20.1588 23.5652 20.4554C23.5598 20.6392 23.5571 20.8303 23.5923 20.9994C23.6546 21.2812 23.5923 21.5949 23.53 21.9257C23.4894 22.1365 23.4487 22.3546 23.4379 22.5727C23.3675 24.0038 24.0501 24.8567 25.5861 25.2561C26.0737 25.3835 26.3256 25.5036 26.3798 25.636C26.434 25.7707 26.3284 26.0182 26.0575 26.3956C25.3071 27.4347 25.2746 28.41 25.9545 29.4687C26.1496 29.775 26.2606 30.1304 26.3744 30.5078C26.4286 30.6842 26.4828 30.8606 26.5478 31.0346L26.6263 31.2429L26.8539 31.1621C27.1925 31.0395 27.523 30.9783 27.8372 30.9783C28.7095 30.9783 29.4328 31.4561 29.8717 32.3237C29.8906 32.3629 29.9042 32.4045 29.9177 32.4486C29.9529 32.5687 29.999 32.7158 30.1399 32.804C31.4889 33.6715 32.3504 34.909 32.9301 36.8156C33.0141 37.0925 33.3987 37.2077 33.8457 37.3401C33.9866 37.3817 34.1301 37.4258 34.2683 37.4724C34.2493 37.715 34.2304 37.965 34.2114 38.2174C34.1464 39.0775 34.076 39.9671 34.0326 40.8665C34.0137 41.2439 34.0326 41.6262 34.0543 41.9962C34.0651 42.207 34.0787 42.4202 34.0814 42.6309C34.0922 43.1406 34.0245 43.4347 33.862 43.5842C33.7346 43.7018 33.5125 43.7557 33.1631 43.7557C33.0249 43.7557 32.8651 43.7484 32.6754 43.7312C32.6456 43.7288 32.6186 43.7263 32.5888 43.7263C32.2691 43.7263 31.963 43.8758 31.6677 44.0204C31.5133 44.0964 31.3697 44.1674 31.2289 44.214C30.9092 44.3243 30.5868 44.4468 30.278 44.5669C29.506 44.8634 28.7068 45.1722 27.9077 45.2727C27.8806 45.2751 27.8562 45.2776 27.8318 45.2776L27.8291 45.2825Z" fill="#FAEFE3"/>
</svg>
